<svg width="24" height="24" viewBox="0 0 24 24" fill="none" xmlns="http://www.w3.org/2000/svg">
<path d="M7.29314 15.2858V18.143H17.2931L21.5789 21.0001V10.7156V6.71441H17.7693" stroke="#05141F" stroke-width="2" stroke-linecap="square" stroke-linejoin="round"/>
<path d="M6.81696 14.3333H17.7693V9.57143V5.76191V2.90476H2.53125V9.57143V17.1905L6.81696 14.3333Z" stroke="#05141F" stroke-width="2" stroke-linecap="square" stroke-linejoin="round"/>
<path d="M6.81627 7.6663C6.29029 7.6663 5.86389 8.09269 5.86389 8.61868C5.86389 9.14466 6.29029 9.57106 6.81627 9.57106C7.34226 9.57106 7.76865 9.14466 7.76865 8.61868C7.76865 8.09269 7.34226 7.6663 6.81627 7.6663Z" fill="#05141F"/>
<path d="M10.1496 7.6663C9.62362 7.6663 9.19722 8.09269 9.19722 8.61868C9.19722 9.14466 9.62362 9.57106 10.1496 9.57106C10.6756 9.57106 11.102 9.14466 11.102 8.61868C11.102 8.09269 10.6756 7.6663 10.1496 7.6663Z" fill="#05141F"/>
<path d="M13.4829 7.6663C12.957 7.6663 12.5306 8.09269 12.5306 8.61868C12.5306 9.14466 12.957 9.57106 13.4829 9.57106C14.0089 9.57106 14.4353 9.14466 14.4353 8.61868C14.4353 8.09269 14.0089 7.6663 13.4829 7.6663Z" fill="#05141F"/>
</svg>
