<svg width="24" height="24" viewBox="0 0 24 24" fill="none" xmlns="http://www.w3.org/2000/svg">
<path d="M19 19L21 21" stroke="#05141F" stroke-width="2" stroke-linecap="square"/>
<circle cx="14.5" cy="14.5" r="5.5" stroke="#05141F" stroke-width="2"/>
<circle cx="9" cy="5" r="3" stroke="#05141F" stroke-width="2"/>
<path d="M2 17.5H1C1 18.0523 1.44772 18.5 2 18.5V17.5ZM9.87831 12.0533C10.4265 12.1205 10.9254 11.7306 10.9926 11.1825C11.0598 10.6343 10.6699 10.1354 10.1217 10.0682L9.87831 12.0533ZM9.5 18.5C10.0523 18.5 10.5 18.0523 10.5 17.5C10.5 16.9477 10.0523 16.5 9.5 16.5V18.5ZM3 17.5C3 14.7807 5.64323 12 9 12V10C4.62479 10 1 13.5919 1 17.5H3ZM9 12C9.29883 12 9.59206 12.0182 9.87831 12.0533L10.1217 10.0682C9.75473 10.0232 9.38022 10 9 10V12ZM2 18.5H9.5V16.5H2V18.5Z" fill="#05141F"/>
</svg>
