<svg width="24" height="24" viewBox="0 0 24 24" fill="none" xmlns="http://www.w3.org/2000/svg">
<path d="M5 2H19V22H5V2Z" stroke="#05141F" stroke-width="2" stroke-linejoin="round"/>
<path d="M11.9999 16C9.99984 16 8.5 17.7113 8.5 19H15.5C15.5 17.7113 14 16 11.9999 16Z" fill="#05141F"/>
<path d="M8.5 19H8C8 19.2761 8.22386 19.5 8.5 19.5V19ZM15.5 19V19.5C15.7761 19.5 16 19.2761 16 19H15.5ZM9 19C9 18.533 9.28512 17.9062 9.84283 17.3806C10.3894 16.8656 11.1458 16.5 11.9999 16.5V15.5C10.854 15.5 9.86043 15.99 9.15703 16.6529C8.4648 17.3052 8 18.1783 8 19H9ZM11.9999 16.5C12.8541 16.5 13.6105 16.8656 14.1571 17.3807C14.7149 17.9062 15 18.533 15 19H16C16 18.1783 15.5351 17.3051 14.8429 16.6528C14.1394 15.99 13.1459 15.5 11.9999 15.5V16.5ZM8.5 19.5H15.5V18.5H8.5V19.5Z" fill="#05141F"/>
<path d="M14 12C14 13.1046 13.1046 14 12 14C10.8954 14 10 13.1046 10 12C10 10.8954 10.8954 10 12 10C13.1046 10 14 10.8954 14 12Z" fill="#05141F"/>
<path d="M10 6H14" stroke="#05141F" stroke-width="2" stroke-linecap="square" stroke-linejoin="round"/>
</svg>
