<svg width="24" height="24" viewBox="0 0 24 24" fill="none" xmlns="http://www.w3.org/2000/svg">
<path d="M6.69995 6.6V3H18.0142L21.1 6V21H11.2H6.69995V16.5" stroke="#05141F" stroke-width="2" stroke-linecap="round" stroke-linejoin="round"/>
<path fill-rule="evenodd" clip-rule="evenodd" d="M7.43396 11.9501L5.95006 9.74325C5.77139 9.47754 5.9618 9.12006 6.282 9.12006H7.22461C7.35678 9.12006 7.48042 9.18534 7.55495 9.29449L8.49391 10.6696L9.45074 9.29188C9.52549 9.18425 9.64823 9.12006 9.77928 9.12006H10.7224C11.0428 9.12006 11.2332 9.478 11.054 9.74368L9.56621 11.9502L11.1186 14.2567C11.2974 14.5224 11.1071 14.8801 10.7868 14.8801H9.83842C9.7073 14.8801 9.5845 14.8158 9.50976 14.7081L8.49818 13.25L7.49557 14.7068C7.42093 14.8153 7.29771 14.8801 7.16606 14.8801H6.2133C5.89303 14.8801 5.70263 14.5224 5.88147 14.2567L7.43396 11.9501Z" fill="#05141F"/>
<path d="M13 7.5H4V16.5H13V7.5Z" stroke="#05141F" stroke-width="2" stroke-linejoin="round"/>
</svg>
