<svg width="24" height="24" viewBox="0 0 24 24" fill="none" xmlns="http://www.w3.org/2000/svg">
<path d="M4 6H15.5M4 12H10M10 12C10 13.1046 10.8954 14 12 14C13.1046 14 14 13.1046 14 12M10 12C10 10.8954 10.8954 10 12 10C13.1046 10 14 10.8954 14 12M14 12H20M8 18H20M8 18C8 19.1046 7.10457 20 6 20C4.89543 20 4 19.1046 4 18C4 16.8954 4.89543 16 6 16C7.10457 16 8 16.8954 8 18ZM20 6C20 7.10457 19.1046 8 18 8C16.8954 8 16 7.10457 16 6C16 4.89543 16.8954 4 18 4C19.1046 4 20 4.89543 20 6Z" stroke="#05141F" stroke-width="2" stroke-linecap="square"/>
</svg>
