<svg width="24" height="24" viewBox="0 0 24 24" fill="none" xmlns="http://www.w3.org/2000/svg">
<path d="M5 21H4C4 21.5523 4.44772 22 5 22V21ZM19 21V22C19.5523 22 20 21.5523 20 21H19ZM14 9C14 10.1046 13.1046 11 12 11V13C14.2091 13 16 11.2091 16 9H14ZM12 11C10.8954 11 10 10.1046 10 9H8C8 11.2091 9.79086 13 12 13V11ZM10 9C10 7.89543 10.8954 7 12 7V5C9.79086 5 8 6.79086 8 9H10ZM12 7C13.1046 7 14 7.89543 14 9H16C16 6.79086 14.2091 5 12 5V7ZM6 21C6 18.3776 8.53612 16 12 16V14C7.7319 14 4 16.9949 4 21H6ZM12 16C15.4639 16 18 18.3776 18 21H20C20 16.9949 16.2681 14 12 14V16ZM5 22H19V20H5V22Z" fill="#05141F"/>
<path fill-rule="evenodd" clip-rule="evenodd" d="M7.0878 9.93775C7.03016 9.634 7 9.32052 7 9C7 8.58195 7.0513 8.17589 7.14796 7.78776C6.75942 7.51441 6.5 7.05806 6.5 6.52941C6.5 5.66893 7.18732 5 8 5C8.26944 5 8.52511 5.07353 8.74651 5.2032C9.28473 4.74157 9.92224 4.3924 10.6226 4.19213C9.98134 3.46099 9.04405 3 8 3C6.067 3 4.5 4.58017 4.5 6.52941C4.5 7.60343 4.97573 8.5654 5.72629 9.21273C6.11555 9.54845 6.57872 9.79955 7.0878 9.93775ZM7.40046 10.9639C6.69723 11.0175 6.01668 11.1643 5.3784 11.3921C2.86024 12.2909 1 14.4504 1 17.1176C1 17.605 1.39175 18 1.875 18H3.62248C3.95404 17.2688 4.40788 16.597 4.95916 16H3.18692C3.75829 14.3123 5.59032 12.9412 8 12.9412C8.36005 12.9412 8.7072 12.9718 9.03917 13.0295C8.32396 12.5031 7.75399 11.7908 7.40046 10.9639Z" fill="#05141F"/>
<path fill-rule="evenodd" clip-rule="evenodd" d="M16.9122 9.93775C16.9698 9.634 17 9.32052 17 9C17 8.58195 16.9487 8.17589 16.852 7.78776C17.2406 7.51441 17.5 7.05806 17.5 6.52941C17.5 5.66893 16.8127 5 16 5C15.7306 5 15.4749 5.07353 15.2535 5.2032C14.7153 4.74157 14.0778 4.3924 13.3774 4.19213C14.0187 3.46099 14.9559 3 16 3C17.933 3 19.5 4.58017 19.5 6.52941C19.5 7.60343 19.0243 8.5654 18.2737 9.21273C17.8845 9.54845 17.4213 9.79955 16.9122 9.93775ZM16.5995 10.9639C17.3028 11.0175 17.9833 11.1643 18.6216 11.3921C21.1398 12.2909 23 14.4504 23 17.1176C23 17.605 22.6082 18 22.125 18H20.3775C20.046 17.2688 19.5921 16.597 19.0408 16H20.8131C20.2417 14.3123 18.4097 12.9412 16 12.9412C15.64 12.9412 15.2928 12.9718 14.9608 13.0295C15.676 12.5031 16.246 11.7908 16.5995 10.9639Z" fill="#05141F"/>
</svg>
