<svg width="24" height="24" viewBox="0 0 24 24" fill="none" xmlns="http://www.w3.org/2000/svg">
<path d="M12 21C16.9706 21 21 16.9706 21 12C21 7.02944 16.9706 3 12 3C7.02944 3 3 7.02944 3 12C3 16.9706 7.02944 21 12 21Z" stroke="#05141F" stroke-width="2"/>
<path d="M9.75 9.7891C9.75766 9.12559 9.9818 8.58113 10.4224 8.1557C10.8554 7.72637 11.3726 7.50781 11.9741 7.5C12.5872 7.50781 13.114 7.71076 13.5546 8.10887C14.0105 8.52648 14.2423 9.09047 14.25 9.80081C14.2423 10.3043 14.1144 10.6076 13.8707 11.0595C13.4554 11.8296 12.5579 12 12.1753 12.5583C11.9741 12.8518 11.9923 13.0534 12 13.35V14.25" stroke="#05141F" stroke-width="2"/>
<circle cx="12.0001" cy="16.5" r="0.9" fill="#05141F" stroke="#05141F"/>
</svg>
