<svg width="24" height="24" viewBox="0 0 24 24" fill="none" xmlns="http://www.w3.org/2000/svg">
<path d="M12 2H13V4H12V2ZM11 12L10.3598 12.7682C10.1318 12.5782 10 12.2968 10 12H11ZM14.6402 13.7318L15.4084 14.372L14.128 15.9084L13.3598 15.2682L14.6402 13.7318ZM10 6.5V5.5H12V6.5H10ZM16.6077 5.4593L15.7908 4.8826L16.9442 3.24869L17.7611 3.8254L16.6077 5.4593ZM4 12C4 16.4183 7.58172 20 12 20V22C6.47715 22 2 17.5228 2 12H4ZM12 20C16.4183 20 20 16.4183 20 12H22C22 17.5228 17.5228 22 12 22V20ZM11.6402 11.2318L14.6402 13.7318L13.3598 15.2682L10.3598 12.7682L11.6402 11.2318ZM12 4C7.55146 4 4 7.20304 4 12H2C2 6.0389 6.50741 2 12 2V4ZM12 6.5C12 6.50614 12 6.51228 12 6.51841C12 6.52455 12 6.53068 12 6.53681C12 6.54294 12 6.54906 12 6.55518C12 6.56131 12 6.56743 12 6.57354C12 6.57966 12 6.58577 12 6.59188C12 6.59799 12 6.6041 12 6.6102C12 6.61631 12 6.62241 12 6.62851C12 6.6346 12 6.6407 12 6.64679C12 6.65288 12 6.65897 12 6.66506C12 6.67114 12 6.67722 12 6.6833C12 6.68938 12 6.69546 12 6.70153C12 6.7076 12 6.71367 12 6.71974C12 6.72581 12 6.73187 12 6.73793C12 6.74399 12 6.75005 12 6.7561C12 6.76216 12 6.76821 12 6.77426C12 6.7803 12 6.78635 12 6.79239C12 6.79843 12 6.80447 12 6.8105C12 6.81654 12 6.82257 12 6.8286C12 6.83463 12 6.84065 12 6.84668C12 6.8527 12 6.85872 12 6.86473C12 6.87075 12 6.87676 12 6.88277C12 6.88878 12 6.89478 12 6.90079C12 6.90679 12 6.91279 12 6.91879C12 6.92478 12 6.93077 12 6.93676C12 6.94275 12 6.94874 12 6.95472C12 6.96071 12 6.96669 12 6.97266C12 6.97864 12 6.98461 12 6.99058C12 6.99655 12 7.00252 12 7.00848C12 7.01444 12 7.0204 12 7.02636C12 7.03232 12 7.03827 12 7.04422C12 7.05017 12 7.05611 12 7.06206C12 7.068 12 7.07394 12 7.07988C12 7.08581 12 7.09175 12 7.09767C12 7.1036 12 7.10953 12 7.11545C12 7.12138 12 7.1273 12 7.13321C12 7.13913 12 7.14504 12 7.15095C12 7.15686 12 7.16276 12 7.16866C12 7.17457 12 7.18047 12 7.18636C12 7.19226 12 7.19815 12 7.20404C12 7.20992 12 7.21581 12 7.22169C12 7.22757 12 7.23345 12 7.23932C12 7.2452 12 7.25107 12 7.25694C12 7.2628 12 7.26867 12 7.27453C12 7.28039 12 7.28625 12 7.2921C12 7.29795 12 7.3038 12 7.30965C12 7.3155 12 7.32134 12 7.32718C12 7.33302 12 7.33885 12 7.34469C12 7.35052 12 7.35635 12 7.36217C12 7.368 12 7.37382 12 7.37964C12 7.38545 12 7.39127 12 7.39708C12 7.40289 12 7.4087 12 7.4145C12 7.4203 12 7.4261 12 7.4319C12 7.4377 12 7.44349 12 7.44928C12 7.45507 12 7.46085 12 7.46664C12 7.47242 12 7.4782 12 7.48397C12 7.48975 12 7.49552 12 7.50128C12 7.50705 12 7.51281 12 7.51857C12 7.52433 12 7.53009 12 7.53584C12 7.5416 12 7.54734 12 7.55309C12 7.55883 12 7.56458 12 7.57031C12 7.57605 12 7.58179 12 7.58752C12 7.59325 12 7.59897 12 7.6047C12 7.61042 12 7.61614 12 7.62185C12 7.62757 12 7.63328 12 7.63899C12 7.6447 12 7.6504 12 7.6561C12 7.6618 12 7.6675 12 7.67319C12 7.67888 12 7.68457 12 7.69026C12 7.69594 12 7.70163 12 7.7073C12 7.71298 12 7.71866 12 7.72433C12 7.73 12 7.73566 12 7.74132C12 7.74699 12 7.75265 12 7.7583C12 7.76396 12 7.76961 12 7.77525C12 7.7809 12 7.78654 12 7.79218C12 7.79782 12 7.80346 12 7.80909C12 7.81472 12 7.82035 12 7.82597C12 7.8316 12 7.83722 12 7.84283C12 7.84845 12 7.85406 12 7.85967C12 7.86528 12 7.87088 12 7.87648C12 7.88209 12 7.88768 12 7.89327C12 7.89887 12 7.90446 12 7.91004C12 7.91563 12 7.92121 12 7.92678C12 7.93236 12 7.93793 12 7.9435C12 7.94907 12 7.95464 12 7.9602C12 7.96576 12 7.97132 12 7.97687C12 7.98242 12 7.98797 12 7.99352C12 7.99906 12 8.0046 12 8.01014C12 8.01568 12 8.02121 12 8.02674C12 8.03227 12 8.03779 12 8.04332C12 8.04884 12 8.05435 12 8.05987C12 8.06538 12 8.07089 12 8.07639C12 8.0819 12 8.0874 12 8.0929C12 8.09839 12 8.10389 12 8.10937C12 8.11486 12 8.12035 12 8.12583C12 8.13131 12 8.13678 12 8.14226C12 8.14773 12 8.1532 12 8.15866C12 8.16412 12 8.16958 12 8.17504C12 8.1805 12 8.18595 12 8.1914C12 8.19684 12 8.20229 12 8.20773C12 8.21316 12 8.2186 12 8.22403C12 8.22946 12 8.23489 12 8.24031C12 8.24573 12 8.25115 12 8.25657C12 8.26198 12 8.26739 12 8.2728C12 8.2782 12 8.2836 12 8.289C12 8.2944 12 8.29979 12 8.30518C12 8.31057 12 8.31595 12 8.32134C12 8.32672 12 8.33209 12 8.33746C12 8.34284 12 8.3482 12 8.35357C12 8.35893 12 8.36429 12 8.36965C12 8.375 12 8.38035 12 8.3857C12 8.39104 12 8.39639 12 8.40172C12 8.40706 12 8.4124 12 8.41773C12 8.42305 12 8.42838 12 8.4337C12 8.43902 12 8.44434 12 8.44965C12 8.45496 12 8.46027 12 8.46557C12 8.47088 12 8.47618 12 8.48147C12 8.48676 12 8.49206 12 8.49734C12 8.50263 12 8.50791 12 8.51319C12 8.51846 12 8.52374 12 8.52901C12 8.53427 12 8.53954 12 8.5448C12 8.55006 12 8.55531 12 8.56056C12 8.56581 12 8.57106 12 8.5763C12 8.58155 12 8.58678 12 8.59202C12 8.59725 12 8.60248 12 8.6077C12 8.61293 12 8.61815 12 8.62336C12 8.62858 12 8.63379 12 8.639C12 8.6442 12 8.6494 12 8.6546C12 8.6598 12 8.66499 12 8.67018C12 8.67537 12 8.68055 12 8.68573C12 8.69091 12 8.69609 12 8.70126C12 8.70643 12 8.7116 12 8.71676C12 8.72192 12 8.72708 12 8.73223C12 8.73738 12 8.74253 12 8.74767C12 8.75282 12 8.75796 12 8.76309C12 8.76822 12 8.77335 12 8.77848C12 8.7836 12 8.78873 12 8.79384C12 8.79896 12 8.80407 12 8.80918C12 8.81428 12 8.81939 12 8.82448C12 8.82958 12 8.83467 12 8.83976C12 8.84485 12 8.84993 12 8.85501C12 8.86009 12 8.86517 12 8.87024C12 8.87531 12 8.88037 12 8.88543C12 8.89049 12 8.89555 12 8.9006C12 8.90565 12 8.9107 12 8.91574C12 8.92078 12 8.92582 12 8.93085C12 8.93589 12 8.94091 12 8.94594C12 8.95096 12 8.95598 12 8.96099C12 8.96601 12 8.97102 12 8.97602C12 8.98102 12 8.98602 12 8.99102C12 8.99601 12 9.001 12 9.00599C12 9.01098 12 9.01596 12 9.02093C12 9.02591 12 9.03088 12 9.03585C12 9.04081 12 9.04577 12 9.05073C12 9.05569 12 9.06064 12 9.06559C12 9.07053 12 9.07548 12 9.08041C12 9.08535 12 9.09029 12 9.09521C12 9.10014 12 9.10506 12 9.10998C12 9.1149 12 9.11982 12 9.12472C12 9.12963 12 9.13454 12 9.13944C12 9.14434 12 9.14923 12 9.15412C12 9.15901 12 9.16389 12 9.16877C12 9.17365 12 9.17853 12 9.1834C12 9.18827 12 9.19313 12 9.19799C12 9.20285 12 9.20771 12 9.21256C12 9.21741 12 9.22225 12 9.22709C12 9.23193 12 9.23677 12 9.2416C12 9.24643 12 9.25126 12 9.25608C12 9.2609 12 9.26571 12 9.27052C12 9.27533 12 9.28014 12 9.28494C12 9.28974 12 9.29454 12 9.29933C12 9.30412 12 9.30891 12 9.31369C12 9.31847 12 9.32324 12 9.32801C12 9.33279 12 9.33755 12 9.34231C12 9.34707 12 9.35183 12 9.35658C12 9.36133 12 9.36608 12 9.37082C12 9.37556 12 9.38029 12 9.38503C12 9.38976 12 9.39448 12 9.3992C12 9.40392 12 9.40864 12 9.41335C12 9.41806 12 9.42277 12 9.42747C12 9.43217 12 9.43686 12 9.44155C12 9.44624 12 9.45093 12 9.45561C12 9.46029 12 9.46496 12 9.46963C12 9.4743 12 9.47897 12 9.48363C12 9.48828 12 9.49294 12 9.49759C12 9.50224 12 9.50688 12 9.51152C12 9.51616 12 9.52079 12 9.52542C12 9.53005 12 9.53467 12 9.53929C12 9.54391 12 9.54852 12 9.55313C12 9.55774 12 9.56234 12 9.56694C12 9.57154 12 9.57613 12 9.58072C12 9.5853 12 9.58988 12 9.59446C12 9.59904 12 9.60361 12 9.60818C12 9.61274 12 9.6173 12 9.62186C12 9.62641 12 9.63096 12 9.63551C12 9.64005 12 9.64459 12 9.64913C12 9.65366 12 9.65819 12 9.66272C12 9.66724 12 9.67176 12 9.67627C12 9.68079 12 9.6853 12 9.6898C12 9.6943 12 9.6988 12 9.70329C12 9.70778 12 9.71227 12 9.71675C12 9.72123 12 9.72571 12 9.73018C12 9.73465 12 9.73912 12 9.74358C12 9.74804 12 9.75249 12 9.75694C12 9.76139 12 9.76584 12 9.77027C12 9.77471 12 9.77915 12 9.78357C12 9.788 12 9.79243 12 9.79684C12 9.80126 12 9.80567 12 9.81008C12 9.81448 12 9.81889 12 9.82328C12 9.82768 12 9.83207 12 9.83645C12 9.84084 12 9.84522 12 9.84959C12 9.85396 12 9.85833 12 9.86269C12 9.86706 12 9.87141 12 9.87577C12 9.88012 12 9.88447 12 9.88881C12 9.89315 12 9.89748 12 9.90181C12 9.90614 12 9.91047 12 9.91479C12 9.91911 12 9.92342 12 9.92773C12 9.93204 12 9.93634 12 9.94063C12 9.94493 12 9.94922 12 9.95351C12 9.9578 12 9.96208 12 9.96635C12 9.97063 12 9.97489 12 9.97916C12 9.98342 12 9.98768 12 9.99193C12 9.99619 12 10.0004 12 10.0047C12 10.0089 12 10.0132 12 10.0174C12 10.0216 12 10.0258 12 10.0301C12 10.0343 12 10.0385 12 10.0427C12 10.0469 12 10.0511 12 10.0553C12 10.0595 12 10.0637 12 10.0679C12 10.0721 12 10.0762 12 10.0804C12 10.0846 12 10.0888 12 10.0929C12 10.0971 12 10.1012 12 10.1054C12 10.1095 12 10.1137 12 10.1178C12 10.122 12 10.1261 12 10.1302C12 10.1344 12 10.1385 12 10.1426C12 10.1467 12 10.1508 12 10.1549C12 10.159 12 10.1631 12 10.1672C12 10.1713 12 10.1754 12 10.1795C12 10.1836 12 10.1877 12 10.1917C12 10.1958 12 10.1999 12 10.2039C12 10.208 12 10.212 12 10.2161C12 10.2201 12 10.2242 12 10.2282C12 10.2322 12 10.2363 12 10.2403C12 10.2443 12 10.2483 12 10.2524C12 10.2564 12 10.2604 12 10.2644C12 10.2684 12 10.2724 12 10.2764C12 10.2804 12 10.2843 12 10.2883C12 10.2923 12 10.2963 12 10.3002C12 10.3042 12 10.3082 12 10.3121C12 10.3161 12 10.32 12 10.324C12 10.3279 12 10.3318 12 10.3358C12 10.3397 12 10.3436 12 10.3476C12 10.3515 12 10.3554 12 10.3593C12 10.3632 12 10.3671 12 10.371C12 10.3749 12 10.3788 12 10.3827C12 10.3866 12 10.3904 12 10.3943C12 10.3982 12 10.402 12 10.4059C12 10.4098 12 10.4136 12 10.4175C12 10.4213 12 10.4251 12 10.429C12 10.4328 12 10.4367 12 10.4405C12 10.4443 12 10.4481 12 10.4519C12 10.4557 12 10.4595 12 10.4633C12 10.4671 12 10.4709 12 10.4747C12 10.4785 12 10.4823 12 10.4861C12 10.4898 12 10.4936 12 10.4974C12 10.5011 12 10.5049 12 10.5087C12 10.5124 12 10.5162 12 10.5199C12 10.5236 12 10.5274 12 10.5311C12 10.5348 12 10.5385 12 10.5423C12 10.546 12 10.5497 12 10.5534C12 10.5571 12 10.5608 12 10.5645C12 10.5682 12 10.5718 12 10.5755C12 10.5792 12 10.5829 12 10.5865C12 10.5902 12 10.5939 12 10.5975C12 10.6012 12 10.6048 12 10.6085C12 10.6121 12 10.6157 12 10.6194C12 10.623 12 10.6266 12 10.6302C12 10.6338 12 10.6375 12 10.6411C12 10.6447 12 10.6483 12 10.6519C12 10.6554 12 10.659 12 10.6626C12 10.6662 12 10.6698 12 10.6733C12 10.6769 12 10.6805 12 10.684C12 10.6876 12 10.6911 12 10.6947C12 10.6982 12 10.7017 12 10.7053C12 10.7088 12 10.7123 12 10.7158C12 10.7193 12 10.7228 12 10.7264C12 10.7299 12 10.7334 12 10.7368C12 10.7403 12 10.7438 12 10.7473C12 10.7508 12 10.7542 12 10.7577C12 10.7612 12 10.7646 12 10.7681C12 10.7715 12 10.775 12 10.7784C12 10.7819 12 10.7853 12 10.7887C12 10.7922 12 10.7956 12 10.799C12 10.8024 12 10.8058 12 10.8092C12 10.8126 12 10.816 12 10.8194C12 10.8228 12 10.8262 12 10.8296C12 10.8329 12 10.8363 12 10.8397C12 10.843 12 10.8464 12 10.8497C12 10.8531 12 10.8564 12 10.8598C12 10.8631 12 10.8664 12 10.8698C12 10.8731 12 10.8764 12 10.8797C12 10.883 12 10.8863 12 10.8896C12 10.8929 12 10.8962 12 10.8995C12 10.9028 12 10.9061 12 10.9093C12 10.9126 12 10.9159 12 10.9191C12 10.9224 12 10.9257 12 10.9289C12 10.9321 12 10.9354 12 10.9386C12 10.9419 12 10.9451 12 10.9483C12 10.9515 12 10.9547 12 10.9579C12 10.9612 12 10.9644 12 10.9675C12 10.9707 12 10.9739 12 10.9771C12 10.9803 12 10.9835 12 10.9866C12 10.9898 12 10.993 12 10.9961C12 10.9993 12 11.0024 12 11.0056C12 11.0087 12 11.0118 12 11.015C12 11.0181 12 11.0212 12 11.0243C12 11.0274 12 11.0305 12 11.0336C12 11.0367 12 11.0398 12 11.0429C12 11.046 12 11.0491 12 11.0522C12 11.0552 12 11.0583 12 11.0614C12 11.0644 12 11.0675 12 11.0705C12 11.0736 12 11.0766 12 11.0797C12 11.0827 12 11.0857 12 11.0887C12 11.0918 12 11.0948 12 11.0978C12 11.1008 12 11.1038 12 11.1068C12 11.1098 12 11.1128 12 11.1157C12 11.1187 12 11.1217 12 11.1247C12 11.1276 12 11.1306 12 11.1335C12 11.1365 12 11.1394 12 11.1424C12 11.1453 12 11.1483 12 11.1512C12 11.1541 12 11.157 12 11.1599C12 11.1628 12 11.1657 12 11.1686C12 11.1715 12 11.1744 12 11.1773C12 11.1802 12 11.1831 12 11.186C12 11.1888 12 11.1917 12 11.1945C12 11.1974 12 11.2003 12 11.2031C12 11.2059 12 11.2088 12 11.2116C12 11.2144 12 11.2173 12 11.2201C12 11.2229 12 11.2257 12 11.2285C12 11.2313 12 11.2341 12 11.2369C12 11.2397 12 11.2425 12 11.2452C12 11.248 12 11.2508 12 11.2535C12 11.2563 12 11.259 12 11.2618C12 11.2645 12 11.2673 12 11.27C12 11.2727 12 11.2755 12 11.2782C12 11.2809 12 11.2836 12 11.2863C12 11.289 12 11.2917 12 11.2944C12 11.2971 12 11.2998 12 11.3025C12 11.3051 12 11.3078 12 11.3105C12 11.3131 12 11.3158 12 11.3184C12 11.3211 12 11.3237 12 11.3263C12 11.329 12 11.3316 12 11.3342C12 11.3368 12 11.3395 12 11.3421C12 11.3447 12 11.3473 12 11.3499C12 11.3524 12 11.355 12 11.3576C12 11.3602 12 11.3628 12 11.3653C12 11.3679 12 11.3704 12 11.373C12 11.3755 12 11.3781 12 11.3806C12 11.3831 12 11.3857 12 11.3882C12 11.3907 12 11.3932 12 11.3957C12 11.3982 12 11.4007 12 11.4032C12 11.4057 12 11.4082 12 11.4107C12 11.4132 12 11.4156 12 11.4181C12 11.4205 12 11.423 12 11.4254C12 11.4279 12 11.4303 12 11.4328C12 11.4352 12 11.4376 12 11.44C12 11.4425 12 11.4449 12 11.4473C12 11.4497 12 11.4521 12 11.4545C12 11.4569 12 11.4592 12 11.4616C12 11.464 12 11.4664 12 11.4687C12 11.4711 12 11.4734 12 11.4758C12 11.4781 12 11.4805 12 11.4828C12 11.4851 12 11.4875 12 11.4898C12 11.4921 12 11.4944 12 11.4967C12 11.499 12 11.5013 12 11.5036C12 11.5059 12 11.5082 12 11.5104C12 11.5127 12 11.515 12 11.5172C12 11.5195 12 11.5217 12 11.524C12 11.5262 12 11.5285 12 11.5307C12 11.5329 12 11.5351 12 11.5373C12 11.5396 12 11.5418 12 11.544C12 11.5462 12 11.5484 12 11.5505C12 11.5527 12 11.5549 12 11.5571C12 11.5592 12 11.5614 12 11.5636C12 11.5657 12 11.5679 12 11.57C12 11.5721 12 11.5743 12 11.5764C12 11.5785 12 11.5806 12 11.5827C12 11.5849 12 11.587 12 11.5891C12 11.5911 12 11.5932 12 11.5953C12 11.5974 12 11.5995 12 11.6015C12 11.6036 12 11.6056 12 11.6077C12 11.6097 12 11.6118 12 11.6138C12 11.6159 12 11.6179 12 11.6199C12 11.6219 12 11.6239 12 11.6259C12 11.6279 12 11.6299 12 11.6319C12 11.6339 12 11.6359 12 11.6379C12 11.6398 12 11.6418 12 11.6438C12 11.6457 12 11.6477 12 11.6496C12 11.6516 12 11.6535 12 11.6554C12 11.6574 12 11.6593 12 11.6612C12 11.6631 12 11.665 12 11.6669C12 11.6688 12 11.6707 12 11.6726C12 11.6745 12 11.6763 12 11.6782C12 11.6801 12 11.6819 12 11.6838C12 11.6856 12 11.6875 12 11.6893C12 11.6911 12 11.693 12 11.6948C12 11.6966 12 11.6984 12 11.7002C12 11.702 12 11.7038 12 11.7056C12 11.7074 12 11.7092 12 11.711C12 11.7127 12 11.7145 12 11.7163C12 11.718 12 11.7198 12 11.7215C12 11.7233 12 11.725 12 11.7267C12 11.7284 12 11.7302 12 11.7319C12 11.7336 12 11.7353 12 11.737C12 11.7387 12 11.7404 12 11.7421C12 11.7437 12 11.7454 12 11.7471C12 11.7487 12 11.7504 12 11.752C12 11.7537 12 11.7553 12 11.757C12 11.7586 12 11.7602 12 11.7618C12 11.7635 12 11.7651 12 11.7667C12 11.7683 12 11.7699 12 11.7715C12 11.773 12 11.7746 12 11.7762C12 11.7778 12 11.7793 12 11.7809C12 11.7824 12 11.784 12 11.7855C12 11.7871 12 11.7886 12 11.7901C12 11.7916 12 11.7932 12 11.7947C12 11.7962 12 11.7977 12 11.7992C12 11.8007 12 11.8021 12 11.8036C12 11.8051 12 11.8066 12 11.808C12 11.8095 12 11.8109 12 11.8124C12 11.8138 12 11.8152 12 11.8167C12 11.8181 12 11.8195 12 11.8209C12 11.8223 12 11.8237 12 11.8251C12 11.8265 12 11.8279 12 11.8293C12 11.8307 12 11.8321 12 11.8334C12 11.8348 12 11.8361 12 11.8375C12 11.8388 12 11.8402 12 11.8415C12 11.8428 12 11.8442 12 11.8455C12 11.8468 12 11.8481 12 11.8494C12 11.8507 12 11.852 12 11.8533C12 11.8545 12 11.8558 12 11.8571C12 11.8584 12 11.8596 12 11.8609C12 11.8621 12 11.8634 12 11.8646C12 11.8658 12 11.867 12 11.8683C12 11.8695 12 11.8707 12 11.8719C12 11.8731 12 11.8743 12 11.8755C12 11.8767 12 11.8778 12 11.879C12 11.8802 12 11.8813 12 11.8825C12 11.8836 12 11.8848 12 11.8859C12 11.887 12 11.8882 12 11.8893C12 11.8904 12 11.8915 12 11.8926C12 11.8937 12 11.8948 12 11.8959C12 11.897 12 11.8981 12 11.8991C12 11.9002 12 11.9013 12 11.9023C12 11.9034 12 11.9044 12 11.9055C12 11.9065 12 11.9075 12 11.9085C12 11.9096 12 11.9106 12 11.9116C12 11.9126 12 11.9136 12 11.9146C12 11.9155 12 11.9165 12 11.9175C12 11.9185 12 11.9194 12 11.9204C12 11.9213 12 11.9223 12 11.9232C12 11.9242 12 11.9251 12 11.926C12 11.9269 12 11.9278 12 11.9287C12 11.9296 12 11.9305 12 11.9314C12 11.9323 12 11.9332 12 11.9341C12 11.9349 12 11.9358 12 11.9366C12 11.9375 12 11.9383 12 11.9392C12 11.94 12 11.9408 12 11.9417C12 11.9425 12 11.9433 12 11.9441C12 11.9449 12 11.9457 12 11.9465C12 11.9473 12 11.948 12 11.9488C12 11.9496 12 11.9503 12 11.9511C12 11.9518 12 11.9526 12 11.9533C12 11.954 12 11.9548 12 11.9555C12 11.9562 12 11.9569 12 11.9576C12 11.9583 12 11.959 12 11.9597C12 11.9604 12 11.961 12 11.9617C12 11.9624 12 11.963 12 11.9637C12 11.9643 12 11.965 12 11.9656C12 11.9662 12 11.9669 12 11.9675C12 11.9681 12 11.9687 12 11.9693C12 11.9699 12 11.9705 12 11.9711C12 11.9716 12 11.9722 12 11.9728C12 11.9733 12 11.9739 12 11.9744C12 11.975 12 11.9755 12 11.976C12 11.9766 12 11.9771 12 11.9776C12 11.9781 12 11.9786 12 11.9791C12 11.9796 12 11.9801 12 11.9806C12 11.9811 12 11.9815 12 11.982C12 11.9824 12 11.9829 12 11.9833C12 11.9838 12 11.9842 12 11.9846C12 11.9851 12 11.9855 12 11.9859C12 11.9863 12 11.9867 12 11.9871C12 11.9875 12 11.9878 12 11.9882C12 11.9886 12 11.989 12 11.9893C12 11.9897 12 11.99 12 11.9903C12 11.9907 12 11.991 12 11.9913C12 11.9917 12 11.992 12 11.9923C12 11.9926 12 11.9929 12 11.9931C12 11.9934 12 11.9937 12 11.994C12 11.9942 12 11.9945 12 11.9947C12 11.995 12 11.9952 12 11.9955C12 11.9957 12 11.9959 12 11.9961C12 11.9964 12 11.9966 12 11.9968C12 11.9969 12 11.9971 12 11.9973C12 11.9975 12 11.9977 12 11.9978C12 11.998 12 11.9981 12 11.9983C12 11.9984 12 11.9986 12 11.9987C12 11.9988 12 11.9989 12 11.999C12 11.9991 12 11.9992 12 11.9993C12 11.9994 12 11.9995 12 11.9996C12 11.9996 12 11.9997 12 11.9998C12 11.9998 12 11.9999 12 11.9999C12 11.9999 12 12 12 12C12 12 12 12 11 12C10 12 10 12 10 12C10 12 10 11.9999 10 11.9999C10 11.9999 10 11.9998 10 11.9998C10 11.9997 10 11.9996 10 11.9996C10 11.9995 10 11.9994 10 11.9993C10 11.9992 10 11.9991 10 11.999C10 11.9989 10 11.9988 10 11.9987C10 11.9986 10 11.9984 10 11.9983C10 11.9981 10 11.998 10 11.9978C10 11.9977 10 11.9975 10 11.9973C10 11.9971 10 11.9969 10 11.9968C10 11.9966 10 11.9964 10 11.9961C10 11.9959 10 11.9957 10 11.9955C10 11.9952 10 11.995 10 11.9947C10 11.9945 10 11.9942 10 11.994C10 11.9937 10 11.9934 10 11.9931C10 11.9929 10 11.9926 10 11.9923C10 11.992 10 11.9917 10 11.9913C10 11.991 10 11.9907 10 11.9903C10 11.99 10 11.9897 10 11.9893C10 11.989 10 11.9886 10 11.9882C10 11.9878 10 11.9875 10 11.9871C10 11.9867 10 11.9863 10 11.9859C10 11.9855 10 11.9851 10 11.9846C10 11.9842 10 11.9838 10 11.9833C10 11.9829 10 11.9824 10 11.982C10 11.9815 10 11.9811 10 11.9806C10 11.9801 10 11.9796 10 11.9791C10 11.9786 10 11.9781 10 11.9776C10 11.9771 10 11.9766 10 11.976C10 11.9755 10 11.975 10 11.9744C10 11.9739 10 11.9733 10 11.9728C10 11.9722 10 11.9716 10 11.9711C10 11.9705 10 11.9699 10 11.9693C10 11.9687 10 11.9681 10 11.9675C10 11.9669 10 11.9662 10 11.9656C10 11.965 10 11.9643 10 11.9637C10 11.963 10 11.9624 10 11.9617C10 11.961 10 11.9604 10 11.9597C10 11.959 10 11.9583 10 11.9576C10 11.9569 10 11.9562 10 11.9555C10 11.9548 10 11.954 10 11.9533C10 11.9526 10 11.9518 10 11.9511C10 11.9503 10 11.9496 10 11.9488C10 11.948 10 11.9473 10 11.9465C10 11.9457 10 11.9449 10 11.9441C10 11.9433 10 11.9425 10 11.9417C10 11.9408 10 11.94 10 11.9392C10 11.9383 10 11.9375 10 11.9366C10 11.9358 10 11.9349 10 11.9341C10 11.9332 10 11.9323 10 11.9314C10 11.9305 10 11.9296 10 11.9287C10 11.9278 10 11.9269 10 11.926C10 11.9251 10 11.9242 10 11.9232C10 11.9223 10 11.9213 10 11.9204C10 11.9194 10 11.9185 10 11.9175C10 11.9165 10 11.9155 10 11.9146C10 11.9136 10 11.9126 10 11.9116C10 11.9106 10 11.9096 10 11.9085C10 11.9075 10 11.9065 10 11.9055C10 11.9044 10 11.9034 10 11.9023C10 11.9013 10 11.9002 10 11.8991C10 11.8981 10 11.897 10 11.8959C10 11.8948 10 11.8937 10 11.8926C10 11.8915 10 11.8904 10 11.8893C10 11.8882 10 11.887 10 11.8859C10 11.8848 10 11.8836 10 11.8825C10 11.8813 10 11.8802 10 11.879C10 11.8778 10 11.8767 10 11.8755C10 11.8743 10 11.8731 10 11.8719C10 11.8707 10 11.8695 10 11.8683C10 11.867 10 11.8658 10 11.8646C10 11.8634 10 11.8621 10 11.8609C10 11.8596 10 11.8584 10 11.8571C10 11.8558 10 11.8545 10 11.8533C10 11.852 10 11.8507 10 11.8494C10 11.8481 10 11.8468 10 11.8455C10 11.8442 10 11.8428 10 11.8415C10 11.8402 10 11.8388 10 11.8375C10 11.8361 10 11.8348 10 11.8334C10 11.8321 10 11.8307 10 11.8293C10 11.8279 10 11.8265 10 11.8251C10 11.8237 10 11.8223 10 11.8209C10 11.8195 10 11.8181 10 11.8167C10 11.8152 10 11.8138 10 11.8124C10 11.8109 10 11.8095 10 11.808C10 11.8066 10 11.8051 10 11.8036C10 11.8021 10 11.8007 10 11.7992C10 11.7977 10 11.7962 10 11.7947C10 11.7932 10 11.7916 10 11.7901C10 11.7886 10 11.7871 10 11.7855C10 11.784 10 11.7824 10 11.7809C10 11.7793 10 11.7778 10 11.7762C10 11.7746 10 11.773 10 11.7715C10 11.7699 10 11.7683 10 11.7667C10 11.7651 10 11.7635 10 11.7618C10 11.7602 10 11.7586 10 11.757C10 11.7553 10 11.7537 10 11.752C10 11.7504 10 11.7487 10 11.7471C10 11.7454 10 11.7437 10 11.7421C10 11.7404 10 11.7387 10 11.737C10 11.7353 10 11.7336 10 11.7319C10 11.7302 10 11.7284 10 11.7267C10 11.725 10 11.7233 10 11.7215C10 11.7198 10 11.718 10 11.7163C10 11.7145 10 11.7127 10 11.711C10 11.7092 10 11.7074 10 11.7056C10 11.7038 10 11.702 10 11.7002C10 11.6984 10 11.6966 10 11.6948C10 11.693 10 11.6911 10 11.6893C10 11.6875 10 11.6856 10 11.6838C10 11.6819 10 11.6801 10 11.6782C10 11.6763 10 11.6745 10 11.6726C10 11.6707 10 11.6688 10 11.6669C10 11.665 10 11.6631 10 11.6612C10 11.6593 10 11.6574 10 11.6554C10 11.6535 10 11.6516 10 11.6496C10 11.6477 10 11.6457 10 11.6438C10 11.6418 10 11.6398 10 11.6379C10 11.6359 10 11.6339 10 11.6319C10 11.6299 10 11.6279 10 11.6259C10 11.6239 10 11.6219 10 11.6199C10 11.6179 10 11.6159 10 11.6138C10 11.6118 10 11.6097 10 11.6077C10 11.6056 10 11.6036 10 11.6015C10 11.5995 10 11.5974 10 11.5953C10 11.5932 10 11.5911 10 11.5891C10 11.587 10 11.5849 10 11.5827C10 11.5806 10 11.5785 10 11.5764C10 11.5743 10 11.5721 10 11.57C10 11.5679 10 11.5657 10 11.5636C10 11.5614 10 11.5592 10 11.5571C10 11.5549 10 11.5527 10 11.5505C10 11.5484 10 11.5462 10 11.544C10 11.5418 10 11.5396 10 11.5373C10 11.5351 10 11.5329 10 11.5307C10 11.5285 10 11.5262 10 11.524C10 11.5217 10 11.5195 10 11.5172C10 11.515 10 11.5127 10 11.5104C10 11.5082 10 11.5059 10 11.5036C10 11.5013 10 11.499 10 11.4967C10 11.4944 10 11.4921 10 11.4898C10 11.4875 10 11.4851 10 11.4828C10 11.4805 10 11.4781 10 11.4758C10 11.4734 10 11.4711 10 11.4687C10 11.4664 10 11.464 10 11.4616C10 11.4592 10 11.4569 10 11.4545C10 11.4521 10 11.4497 10 11.4473C10 11.4449 10 11.4425 10 11.44C10 11.4376 10 11.4352 10 11.4328C10 11.4303 10 11.4279 10 11.4254C10 11.423 10 11.4205 10 11.4181C10 11.4156 10 11.4132 10 11.4107C10 11.4082 10 11.4057 10 11.4032C10 11.4007 10 11.3982 10 11.3957C10 11.3932 10 11.3907 10 11.3882C10 11.3857 10 11.3831 10 11.3806C10 11.3781 10 11.3755 10 11.373C10 11.3704 10 11.3679 10 11.3653C10 11.3628 10 11.3602 10 11.3576C10 11.355 10 11.3524 10 11.3499C10 11.3473 10 11.3447 10 11.3421C10 11.3395 10 11.3368 10 11.3342C10 11.3316 10 11.329 10 11.3263C10 11.3237 10 11.3211 10 11.3184C10 11.3158 10 11.3131 10 11.3105C10 11.3078 10 11.3051 10 11.3025C10 11.2998 10 11.2971 10 11.2944C10 11.2917 10 11.289 10 11.2863C10 11.2836 10 11.2809 10 11.2782C10 11.2755 10 11.2727 10 11.27C10 11.2673 10 11.2645 10 11.2618C10 11.259 10 11.2563 10 11.2535C10 11.2508 10 11.248 10 11.2452C10 11.2425 10 11.2397 10 11.2369C10 11.2341 10 11.2313 10 11.2285C10 11.2257 10 11.2229 10 11.2201C10 11.2173 10 11.2144 10 11.2116C10 11.2088 10 11.2059 10 11.2031C10 11.2003 10 11.1974 10 11.1945C10 11.1917 10 11.1888 10 11.186C10 11.1831 10 11.1802 10 11.1773C10 11.1744 10 11.1715 10 11.1686C10 11.1657 10 11.1628 10 11.1599C10 11.157 10 11.1541 10 11.1512C10 11.1483 10 11.1453 10 11.1424C10 11.1394 10 11.1365 10 11.1335C10 11.1306 10 11.1276 10 11.1247C10 11.1217 10 11.1187 10 11.1157C10 11.1128 10 11.1098 10 11.1068C10 11.1038 10 11.1008 10 11.0978C10 11.0948 10 11.0918 10 11.0887C10 11.0857 10 11.0827 10 11.0797C10 11.0766 10 11.0736 10 11.0705C10 11.0675 10 11.0644 10 11.0614C10 11.0583 10 11.0552 10 11.0522C10 11.0491 10 11.046 10 11.0429C10 11.0398 10 11.0367 10 11.0336C10 11.0305 10 11.0274 10 11.0243C10 11.0212 10 11.0181 10 11.015C10 11.0118 10 11.0087 10 11.0056C10 11.0024 10 10.9993 10 10.9961C10 10.993 10 10.9898 10 10.9866C10 10.9835 10 10.9803 10 10.9771C10 10.9739 10 10.9707 10 10.9675C10 10.9644 10 10.9612 10 10.9579C10 10.9547 10 10.9515 10 10.9483C10 10.9451 10 10.9419 10 10.9386C10 10.9354 10 10.9321 10 10.9289C10 10.9257 10 10.9224 10 10.9191C10 10.9159 10 10.9126 10 10.9093C10 10.9061 10 10.9028 10 10.8995C10 10.8962 10 10.8929 10 10.8896C10 10.8863 10 10.883 10 10.8797C10 10.8764 10 10.8731 10 10.8698C10 10.8664 10 10.8631 10 10.8598C10 10.8564 10 10.8531 10 10.8497C10 10.8464 10 10.843 10 10.8397C10 10.8363 10 10.8329 10 10.8296C10 10.8262 10 10.8228 10 10.8194C10 10.816 10 10.8126 10 10.8092C10 10.8058 10 10.8024 10 10.799C10 10.7956 10 10.7922 10 10.7887C10 10.7853 10 10.7819 10 10.7784C10 10.775 10 10.7715 10 10.7681C10 10.7646 10 10.7612 10 10.7577C10 10.7542 10 10.7508 10 10.7473C10 10.7438 10 10.7403 10 10.7368C10 10.7334 10 10.7299 10 10.7264C10 10.7228 10 10.7193 10 10.7158C10 10.7123 10 10.7088 10 10.7053C10 10.7017 10 10.6982 10 10.6947C10 10.6911 10 10.6876 10 10.684C10 10.6805 10 10.6769 10 10.6733C10 10.6698 10 10.6662 10 10.6626C10 10.659 10 10.6554 10 10.6519C10 10.6483 10 10.6447 10 10.6411C10 10.6375 10 10.6338 10 10.6302C10 10.6266 10 10.623 10 10.6194C10 10.6157 10 10.6121 10 10.6085C10 10.6048 10 10.6012 10 10.5975C10 10.5939 10 10.5902 10 10.5865C10 10.5829 10 10.5792 10 10.5755C10 10.5718 10 10.5682 10 10.5645C10 10.5608 10 10.5571 10 10.5534C10 10.5497 10 10.546 10 10.5423C10 10.5385 10 10.5348 10 10.5311C10 10.5274 10 10.5236 10 10.5199C10 10.5162 10 10.5124 10 10.5087C10 10.5049 10 10.5011 10 10.4974C10 10.4936 10 10.4898 10 10.4861C10 10.4823 10 10.4785 10 10.4747C10 10.4709 10 10.4671 10 10.4633C10 10.4595 10 10.4557 10 10.4519C10 10.4481 10 10.4443 10 10.4405C10 10.4367 10 10.4328 10 10.429C10 10.4251 10 10.4213 10 10.4175C10 10.4136 10 10.4098 10 10.4059C10 10.402 10 10.3982 10 10.3943C10 10.3904 10 10.3866 10 10.3827C10 10.3788 10 10.3749 10 10.371C10 10.3671 10 10.3632 10 10.3593C10 10.3554 10 10.3515 10 10.3476C10 10.3436 10 10.3397 10 10.3358C10 10.3318 10 10.3279 10 10.324C10 10.32 10 10.3161 10 10.3121C10 10.3082 10 10.3042 10 10.3002C10 10.2963 10 10.2923 10 10.2883C10 10.2843 10 10.2804 10 10.2764C10 10.2724 10 10.2684 10 10.2644C10 10.2604 10 10.2564 10 10.2524C10 10.2483 10 10.2443 10 10.2403C10 10.2363 10 10.2322 10 10.2282C10 10.2242 10 10.2201 10 10.2161C10 10.212 10 10.208 10 10.2039C10 10.1999 10 10.1958 10 10.1917C10 10.1877 10 10.1836 10 10.1795C10 10.1754 10 10.1713 10 10.1672C10 10.1631 10 10.159 10 10.1549C10 10.1508 10 10.1467 10 10.1426C10 10.1385 10 10.1344 10 10.1302C10 10.1261 10 10.122 10 10.1178C10 10.1137 10 10.1095 10 10.1054C10 10.1012 10 10.0971 10 10.0929C10 10.0888 10 10.0846 10 10.0804C10 10.0762 10 10.0721 10 10.0679C10 10.0637 10 10.0595 10 10.0553C10 10.0511 10 10.0469 10 10.0427C10 10.0385 10 10.0343 10 10.0301C10 10.0258 10 10.0216 10 10.0174C10 10.0132 10 10.0089 10 10.0047C10 10.0004 10 9.99619 10 9.99193C10 9.98768 10 9.98342 10 9.97916C10 9.97489 10 9.97063 10 9.96635C10 9.96208 10 9.9578 10 9.95351C10 9.94922 10 9.94493 10 9.94063C10 9.93634 10 9.93204 10 9.92773C10 9.92342 10 9.91911 10 9.91479C10 9.91047 10 9.90614 10 9.90181C10 9.89748 10 9.89315 10 9.88881C10 9.88447 10 9.88012 10 9.87577C10 9.87141 10 9.86706 10 9.86269C10 9.85833 10 9.85396 10 9.84959C10 9.84522 10 9.84084 10 9.83645C10 9.83207 10 9.82768 10 9.82328C10 9.81889 10 9.81448 10 9.81008C10 9.80567 10 9.80126 10 9.79684C10 9.79243 10 9.788 10 9.78357C10 9.77915 10 9.77471 10 9.77027C10 9.76584 10 9.76139 10 9.75694C10 9.75249 10 9.74804 10 9.74358C10 9.73912 10 9.73465 10 9.73018C10 9.72571 10 9.72123 10 9.71675C10 9.71227 10 9.70778 10 9.70329C10 9.6988 10 9.6943 10 9.6898C10 9.6853 10 9.68079 10 9.67627C10 9.67176 10 9.66724 10 9.66272C10 9.65819 10 9.65366 10 9.64913C10 9.64459 10 9.64005 10 9.63551C10 9.63096 10 9.62641 10 9.62186C10 9.6173 10 9.61274 10 9.60818C10 9.60361 10 9.59904 10 9.59446C10 9.58988 10 9.5853 10 9.58072C10 9.57613 10 9.57154 10 9.56694C10 9.56234 10 9.55774 10 9.55313C10 9.54852 10 9.54391 10 9.53929C10 9.53467 10 9.53005 10 9.52542C10 9.52079 10 9.51616 10 9.51152C10 9.50688 10 9.50224 10 9.49759C10 9.49294 10 9.48828 10 9.48363C10 9.47897 10 9.4743 10 9.46963C10 9.46496 10 9.46029 10 9.45561C10 9.45093 10 9.44624 10 9.44155C10 9.43686 10 9.43217 10 9.42747C10 9.42277 10 9.41806 10 9.41335C10 9.40864 10 9.40392 10 9.3992C10 9.39448 10 9.38976 10 9.38503C10 9.38029 10 9.37556 10 9.37082C10 9.36608 10 9.36133 10 9.35658C10 9.35183 10 9.34707 10 9.34231C10 9.33755 10 9.33279 10 9.32801C10 9.32324 10 9.31847 10 9.31369C10 9.30891 10 9.30412 10 9.29933C10 9.29454 10 9.28974 10 9.28494C10 9.28014 10 9.27533 10 9.27052C10 9.26571 10 9.2609 10 9.25608C10 9.25126 10 9.24643 10 9.2416C10 9.23677 10 9.23193 10 9.22709C10 9.22225 10 9.21741 10 9.21256C10 9.20771 10 9.20285 10 9.19799C10 9.19313 10 9.18827 10 9.1834C10 9.17853 10 9.17365 10 9.16877C10 9.16389 10 9.15901 10 9.15412C10 9.14923 10 9.14434 10 9.13944C10 9.13454 10 9.12963 10 9.12472C10 9.11982 10 9.1149 10 9.10998C10 9.10506 10 9.10014 10 9.09521C10 9.09029 10 9.08535 10 9.08041C10 9.07548 10 9.07053 10 9.06559C10 9.06064 10 9.05569 10 9.05073C10 9.04577 10 9.04081 10 9.03585C10 9.03088 10 9.02591 10 9.02093C10 9.01596 10 9.01098 10 9.00599C10 9.001 10 8.99601 10 8.99102C10 8.98602 10 8.98102 10 8.97602C10 8.97102 10 8.96601 10 8.96099C10 8.95598 10 8.95096 10 8.94594C10 8.94091 10 8.93589 10 8.93085C10 8.92582 10 8.92078 10 8.91574C10 8.9107 10 8.90565 10 8.9006C10 8.89555 10 8.89049 10 8.88543C10 8.88037 10 8.87531 10 8.87024C10 8.86517 10 8.86009 10 8.85501C10 8.84993 10 8.84485 10 8.83976C10 8.83467 10 8.82958 10 8.82448C10 8.81939 10 8.81428 10 8.80918C10 8.80407 10 8.79896 10 8.79384C10 8.78873 10 8.7836 10 8.77848C10 8.77335 10 8.76822 10 8.76309C10 8.75796 10 8.75282 10 8.74767C10 8.74253 10 8.73738 10 8.73223C10 8.72708 10 8.72192 10 8.71676C10 8.7116 10 8.70643 10 8.70126C10 8.69609 10 8.69091 10 8.68573C10 8.68055 10 8.67537 10 8.67018C10 8.66499 10 8.6598 10 8.6546C10 8.6494 10 8.6442 10 8.639C10 8.63379 10 8.62858 10 8.62336C10 8.61815 10 8.61293 10 8.6077C10 8.60248 10 8.59725 10 8.59202C10 8.58678 10 8.58155 10 8.5763C10 8.57106 10 8.56581 10 8.56056C10 8.55531 10 8.55006 10 8.5448C10 8.53954 10 8.53427 10 8.52901C10 8.52374 10 8.51846 10 8.51319C10 8.50791 10 8.50263 10 8.49734C10 8.49206 10 8.48676 10 8.48147C10 8.47618 10 8.47088 10 8.46557C10 8.46027 10 8.45496 10 8.44965C10 8.44434 10 8.43902 10 8.4337C10 8.42838 10 8.42305 10 8.41773C10 8.4124 10 8.40706 10 8.40172C10 8.39639 10 8.39104 10 8.3857C10 8.38035 10 8.375 10 8.36965C10 8.36429 10 8.35893 10 8.35357C10 8.3482 10 8.34284 10 8.33746C10 8.33209 10 8.32672 10 8.32134C10 8.31595 10 8.31057 10 8.30518C10 8.29979 10 8.2944 10 8.289C10 8.2836 10 8.2782 10 8.2728C10 8.26739 10 8.26198 10 8.25657C10 8.25115 10 8.24573 10 8.24031C10 8.23489 10 8.22946 10 8.22403C10 8.2186 10 8.21316 10 8.20773C10 8.20229 10 8.19684 10 8.1914C10 8.18595 10 8.1805 10 8.17504C10 8.16958 10 8.16412 10 8.15866C10 8.1532 10 8.14773 10 8.14226C10 8.13678 10 8.13131 10 8.12583C10 8.12035 10 8.11486 10 8.10937C10 8.10389 10 8.09839 10 8.0929C10 8.0874 10 8.0819 10 8.07639C10 8.07089 10 8.06538 10 8.05987C10 8.05435 10 8.04884 10 8.04332C10 8.03779 10 8.03227 10 8.02674C10 8.02121 10 8.01568 10 8.01014C10 8.0046 10 7.99906 10 7.99352C10 7.98797 10 7.98242 10 7.97687C10 7.97132 10 7.96576 10 7.9602C10 7.95464 10 7.94907 10 7.9435C10 7.93793 10 7.93236 10 7.92678C10 7.92121 10 7.91563 10 7.91004C10 7.90446 10 7.89887 10 7.89327C10 7.88768 10 7.88209 10 7.87648C10 7.87088 10 7.86528 10 7.85967C10 7.85406 10 7.84845 10 7.84283C10 7.83722 10 7.8316 10 7.82597C10 7.82035 10 7.81472 10 7.80909C10 7.80346 10 7.79782 10 7.79218C10 7.78654 10 7.7809 10 7.77525C10 7.76961 10 7.76396 10 7.7583C10 7.75265 10 7.74699 10 7.74132C10 7.73566 10 7.73 10 7.72433C10 7.71866 10 7.71298 10 7.7073C10 7.70163 10 7.69594 10 7.69026C10 7.68457 10 7.67888 10 7.67319C10 7.6675 10 7.6618 10 7.6561C10 7.6504 10 7.6447 10 7.63899C10 7.63328 10 7.62757 10 7.62185C10 7.61614 10 7.61042 10 7.6047C10 7.59897 10 7.59325 10 7.58752C10 7.58179 10 7.57605 10 7.57031C10 7.56458 10 7.55883 10 7.55309C10 7.54734 10 7.5416 10 7.53584C10 7.53009 10 7.52433 10 7.51857C10 7.51281 10 7.50705 10 7.50128C10 7.49552 10 7.48975 10 7.48397C10 7.4782 10 7.47242 10 7.46664C10 7.46085 10 7.45507 10 7.44928C10 7.44349 10 7.4377 10 7.4319C10 7.4261 10 7.4203 10 7.4145C10 7.4087 10 7.40289 10 7.39708C10 7.39127 10 7.38545 10 7.37964C10 7.37382 10 7.368 10 7.36217C10 7.35635 10 7.35052 10 7.34469C10 7.33885 10 7.33302 10 7.32718C10 7.32134 10 7.3155 10 7.30965C10 7.3038 10 7.29795 10 7.2921C10 7.28625 10 7.28039 10 7.27453C10 7.26867 10 7.2628 10 7.25694C10 7.25107 10 7.2452 10 7.23932C10 7.23345 10 7.22757 10 7.22169C10 7.21581 10 7.20992 10 7.20404C10 7.19815 10 7.19226 10 7.18636C10 7.18047 10 7.17457 10 7.16866C10 7.16276 10 7.15686 10 7.15095C10 7.14504 10 7.13913 10 7.13321C10 7.1273 10 7.12138 10 7.11545C10 7.10953 10 7.1036 10 7.09767C10 7.09175 10 7.08581 10 7.07988C10 7.07394 10 7.068 10 7.06206C10 7.05611 10 7.05017 10 7.04422C10 7.03827 10 7.03232 10 7.02636C10 7.0204 10 7.01444 10 7.00848C10 7.00252 10 6.99655 10 6.99058C10 6.98461 10 6.97864 10 6.97266C10 6.96669 10 6.96071 10 6.95472C10 6.94874 10 6.94275 10 6.93676C10 6.93077 10 6.92478 10 6.91879C10 6.91279 10 6.90679 10 6.90079C10 6.89478 10 6.88878 10 6.88277C10 6.87676 10 6.87075 10 6.86473C10 6.85872 10 6.8527 10 6.84668C10 6.84065 10 6.83463 10 6.8286C10 6.82257 10 6.81654 10 6.8105C10 6.80447 10 6.79843 10 6.79239C10 6.78635 10 6.7803 10 6.77426C10 6.76821 10 6.76216 10 6.7561C10 6.75005 10 6.74399 10 6.73793C10 6.73187 10 6.72581 10 6.71974C10 6.71367 10 6.7076 10 6.70153C10 6.69546 10 6.68938 10 6.6833C10 6.67722 10 6.67114 10 6.66506C10 6.65897 10 6.65288 10 6.64679C10 6.6407 10 6.6346 10 6.62851C10 6.62241 10 6.61631 10 6.6102C10 6.6041 10 6.59799 10 6.59188C10 6.58577 10 6.57966 10 6.57354C10 6.56743 10 6.56131 10 6.55518C10 6.54906 10 6.54294 10 6.53681C10 6.53068 10 6.52455 10 6.51841C10 6.51228 10 6.50614 10 6.5H12ZM20 12C20 9.29845 18.6619 6.90935 16.6077 5.4593L17.7611 3.8254C20.3234 5.63412 22 8.62122 22 12H20Z" fill="#05141F"/>
<path d="M22 4L16.5 4L16.5 9.5" stroke="#05141F" stroke-width="2" stroke-linecap="square" stroke-linejoin="round"/>
</svg>
