<svg width="24" height="24" viewBox="0 0 24 24" fill="none" xmlns="http://www.w3.org/2000/svg">
<path d="M10.5333 3V2H8.53333V3H10.5333ZM8.53333 5V6H10.5333V5H8.53333ZM3 4H2V6H3V4ZM16 6H17V4H16V6ZM4.23874 17.3516L3.59029 18.1128L5.11281 19.4097L5.76126 18.6484L4.23874 17.3516ZM5.61443 7.79289L4.90732 7.08579L3.49311 8.5L4.20021 9.20711L5.61443 7.79289ZM12.4252 16.3183L13.2434 16.8931L14.3931 15.2566L13.5748 14.6817L12.4252 16.3183ZM12 9.5L11.1562 8.96329L12 9.5ZM8.53333 3V5H10.5333V3H8.53333ZM3 6H16V4H3V6ZM4.90732 8.5C4.20021 9.20711 4.20022 9.20712 4.20025 9.20714C4.20027 9.20716 4.2003 9.20719 4.20034 9.20723C4.20038 9.20727 4.20043 9.20732 4.20049 9.20738C4.20055 9.20745 4.20062 9.20752 4.20071 9.2076C4.20079 9.20768 4.20088 9.20777 4.20098 9.20787C4.20108 9.20798 4.2012 9.20809 4.20132 9.20821C4.20144 9.20833 4.20157 9.20847 4.20172 9.20861C4.20186 9.20875 4.20201 9.2089 4.20217 9.20907C4.20234 9.20923 4.20251 9.2094 4.20269 9.20958C4.20287 9.20977 4.20307 9.20996 4.20327 9.21016C4.20347 9.21037 4.20369 9.21058 4.20391 9.2108C4.20413 9.21102 4.20436 9.21126 4.20461 9.2115C4.20485 9.21174 4.2051 9.21199 4.20536 9.21226C4.20563 9.21252 4.2059 9.21279 4.20618 9.21307C4.20646 9.21336 4.20676 9.21365 4.20706 9.21395C4.20736 9.21425 4.20767 9.21457 4.20799 9.21489C4.20832 9.21521 4.20865 9.21554 4.20899 9.21588C4.20933 9.21622 4.20968 9.21658 4.21004 9.21694C4.2104 9.2173 4.21078 9.21767 4.21116 9.21805C4.21154 9.21843 4.21193 9.21882 4.21233 9.21922C4.21273 9.21962 4.21314 9.22003 4.21356 9.22045C4.21398 9.22087 4.21441 9.2213 4.21484 9.22174C4.21528 9.22218 4.21573 9.22262 4.21619 9.22308C4.21665 9.22354 4.21712 9.22401 4.21759 9.22449C4.21807 9.22496 4.21856 9.22545 4.21906 9.22595C4.21955 9.22645 4.22006 9.22695 4.22057 9.22747C4.22109 9.22798 4.22162 9.22851 4.22215 9.22904C4.22269 9.22958 4.22323 9.23012 4.22378 9.23068C4.22434 9.23123 4.2249 9.2318 4.22548 9.23237C4.22605 9.23294 4.22663 9.23352 4.22722 9.23412C4.22782 9.23471 4.22842 9.23531 4.22903 9.23592C4.22964 9.23653 4.23026 9.23715 4.23089 9.23778C4.23152 9.23841 4.23216 9.23905 4.23281 9.2397C4.23345 9.24035 4.23411 9.241 4.23478 9.24167C4.23545 9.24234 4.23612 9.24302 4.23681 9.2437C4.2375 9.24439 4.23819 9.24508 4.2389 9.24579C4.2396 9.24649 4.24031 9.24721 4.24104 9.24793C4.24176 9.24865 4.24249 9.24938 4.24323 9.25013C4.24398 9.25087 4.24473 9.25162 4.24549 9.25238C4.24625 9.25314 4.24702 9.25391 4.24779 9.25469C4.24857 9.25547 4.24936 9.25625 4.25016 9.25705C4.25095 9.25785 4.25176 9.25865 4.25257 9.25947C4.25339 9.26028 4.25421 9.26111 4.25505 9.26194C4.25588 9.26277 4.25672 9.26362 4.25757 9.26447C4.25843 9.26532 4.25929 9.26618 4.26016 9.26705C4.26103 9.26792 4.2619 9.2688 4.26279 9.26968C4.26368 9.27057 4.26458 9.27147 4.26548 9.27237C4.26639 9.27328 4.2673 9.2742 4.26823 9.27512C4.26915 9.27604 4.27008 9.27698 4.27102 9.27792C4.27197 9.27886 4.27292 9.27981 4.27388 9.28077C4.27483 9.28173 4.2758 9.2827 4.27678 9.28367C4.27776 9.28465 4.27874 9.28564 4.27974 9.28663C4.28073 9.28763 4.28174 9.28863 4.28275 9.28964C4.28376 9.29066 4.28478 9.29168 4.28581 9.29271C4.28684 9.29374 4.28788 9.29478 4.28893 9.29582C4.28998 9.29687 4.29104 9.29793 4.2921 9.29899C4.29317 9.30006 4.29424 9.30113 4.29532 9.30222C4.29641 9.3033 4.2975 9.30439 4.2986 9.30549C4.2997 9.30659 4.30081 9.3077 4.30193 9.30882C4.30304 9.30994 4.30417 9.31106 4.3053 9.3122C4.30644 9.31333 4.30758 9.31448 4.30874 9.31563C4.30989 9.31678 4.31105 9.31794 4.31222 9.31911C4.31339 9.32028 4.31456 9.32146 4.31575 9.32264C4.31694 9.32383 4.31813 9.32503 4.31934 9.32623C4.32054 9.32743 4.32175 9.32864 4.32297 9.32987C4.32419 9.33109 4.32542 9.33232 4.32666 9.33355C4.3279 9.33479 4.32914 9.33604 4.3304 9.33729C4.33165 9.33855 4.33292 9.33981 4.33419 9.34108C4.33546 9.34235 4.33674 9.34363 4.33803 9.34492C4.33932 9.34621 4.34061 9.3475 4.34192 9.34881C4.34322 9.35011 4.34454 9.35143 4.34586 9.35275C4.34718 9.35407 4.34851 9.3554 4.34985 9.35674C4.35119 9.35808 4.35253 9.35942 4.35389 9.36078C4.35524 9.36213 4.35661 9.3635 4.35798 9.36487C4.35935 9.36624 4.36073 9.36762 4.36212 9.36901C4.3635 9.3704 4.3649 9.37179 4.3663 9.3732C4.36771 9.3746 4.36912 9.37601 4.37054 9.37743C4.37196 9.37886 4.37339 9.38028 4.37483 9.38172C4.37627 9.38316 4.37771 9.3846 4.37916 9.38606C4.38062 9.38751 4.38208 9.38897 4.38355 9.39044C4.38502 9.39191 4.3865 9.39339 4.38798 9.39488C4.38947 9.39636 4.39096 9.39785 4.39246 9.39936C4.39397 9.40086 4.39548 9.40237 4.39699 9.40389C4.39851 9.4054 4.40004 9.40693 4.40157 9.40846C4.40311 9.41 4.40465 9.41154 4.4062 9.41309C4.40775 9.41464 4.4093 9.4162 4.41087 9.41776C4.41244 9.41933 4.41401 9.4209 4.41559 9.42248C4.41717 9.42407 4.41876 9.42565 4.42036 9.42725C4.42196 9.42885 4.42356 9.43045 4.42518 9.43207C4.42679 9.43368 4.42841 9.4353 4.43004 9.43693C4.43167 9.43856 4.4333 9.4402 4.43495 9.44184C4.43659 9.44348 4.43824 9.44514 4.4399 9.4468C4.44156 9.44846 4.44323 9.45012 4.44491 9.4518C4.44658 9.45347 4.44827 9.45516 4.44996 9.45685C4.45165 9.45854 4.45335 9.46024 4.45505 9.46194C4.45676 9.46365 4.45847 9.46536 4.46019 9.46709C4.46192 9.46881 4.46364 9.47054 4.46538 9.47227C4.46712 9.47401 4.46886 9.47576 4.47062 9.47751C4.47237 9.47926 4.47413 9.48102 4.47589 9.48279C4.47766 9.48455 4.47944 9.48633 4.48122 9.48811C4.483 9.48989 4.48479 9.49168 4.48659 9.49348C4.48839 9.49528 4.49019 9.49708 4.492 9.4989C4.49382 9.50071 4.49564 9.50253 4.49746 9.50436C4.49929 9.50618 4.50113 9.50802 4.50297 9.50986C4.50481 9.5117 4.50666 9.51355 4.50852 9.51541C4.51038 9.51727 4.51224 9.51913 4.51411 9.521C4.51598 9.52288 4.51786 9.52476 4.51975 9.52664C4.52164 9.52853 4.52353 9.53042 4.52543 9.53233C4.52733 9.53423 4.52924 9.53614 4.53116 9.53805C4.53308 9.53997 4.535 9.54189 4.53693 9.54382C4.53886 9.54575 4.5408 9.54769 4.54274 9.54964C4.54469 9.55158 4.54664 9.55353 4.5486 9.55549C4.55056 9.55745 4.55253 9.55942 4.5545 9.56139C4.55647 9.56337 4.55846 9.56535 4.56044 9.56734C4.56243 9.56933 4.56443 9.57132 4.56643 9.57332C4.56843 9.57533 4.57044 9.57734 4.57246 9.57935C4.57448 9.58137 4.5765 9.58339 4.57853 9.58543C4.58056 9.58746 4.5826 9.5895 4.58465 9.59154C4.58669 9.59359 4.58875 9.59564 4.59081 9.5977C4.59286 9.59976 4.59493 9.60182 4.597 9.6039C4.59908 9.60597 4.60116 9.60805 4.60325 9.61014C4.60533 9.61223 4.60743 9.61432 4.60953 9.61642C4.61163 9.61852 4.61374 9.62063 4.61585 9.62275C4.61797 9.62486 4.62009 9.62698 4.62222 9.62911C4.62435 9.63124 4.62648 9.63338 4.62863 9.63552C4.63077 9.63766 4.63292 9.63981 4.63508 9.64197C4.63723 9.64413 4.6394 9.64629 4.64157 9.64846C4.64374 9.65063 4.64591 9.65281 4.6481 9.65499C4.65028 9.65717 4.65247 9.65936 4.65467 9.66156C4.65687 9.66376 4.65907 9.66596 4.66128 9.66817C4.66349 9.67038 4.66571 9.6726 4.66793 9.67483C4.67016 9.67705 4.67239 9.67928 4.67463 9.68152C4.67686 9.68376 4.67911 9.686 4.68136 9.68825C4.68361 9.6905 4.68587 9.69276 4.68813 9.69502C4.6904 9.69729 4.69267 9.69956 4.69494 9.70184C4.69722 9.70411 4.69951 9.7064 4.7018 9.70869C4.70409 9.71098 4.70638 9.71328 4.70869 9.71558C4.71099 9.71788 4.7133 9.72019 4.71562 9.72251C4.71793 9.72483 4.72026 9.72715 4.72259 9.72948C4.72492 9.73181 4.72725 9.73415 4.7296 9.73649C4.73194 9.73883 4.73429 9.74118 4.73664 9.74354C4.739 9.74589 4.74136 9.74825 4.74373 9.75062C4.7461 9.75299 4.74847 9.75536 4.75085 9.75775C4.75323 9.76013 4.75562 9.76251 4.75802 9.76491C4.76041 9.7673 4.76281 9.7697 4.76522 9.77211C4.76762 9.77452 4.77004 9.77693 4.77245 9.77935C4.77487 9.78177 4.7773 9.78419 4.77973 9.78662C4.78216 9.78905 4.7846 9.79149 4.78704 9.79394C4.78949 9.79638 4.79194 9.79883 4.7944 9.80129C4.79685 9.80374 4.79932 9.80621 4.80178 9.80868C4.80425 9.81115 4.80673 9.81362 4.80921 9.8161C4.81169 9.81858 4.81418 9.82107 4.81667 9.82357C4.81917 9.82606 4.82167 9.82856 4.82417 9.83106C4.82668 9.83357 4.82919 9.83608 4.83171 9.8386C4.83423 9.84112 4.83675 9.84364 4.83928 9.84617C4.84181 9.8487 4.84435 9.85124 4.84689 9.85378C4.84943 9.85632 4.85198 9.85887 4.85453 9.86143C4.85709 9.86398 4.85965 9.86654 4.86221 9.86911C4.86478 9.87167 4.86735 9.87425 4.86993 9.87682C4.87251 9.8794 4.87509 9.88199 4.87768 9.88458C4.88027 9.88717 4.88287 9.88976 4.88547 9.89236C4.88807 9.89497 4.89068 9.89757 4.89329 9.90019C4.89591 9.9028 4.89853 9.90542 4.90115 9.90804C4.90378 9.91067 4.90641 9.9133 4.90905 9.91594C4.91168 9.91857 4.91432 9.92122 4.91697 9.92387C4.91962 9.92651 4.92228 9.92917 4.92494 9.93183C4.9276 9.93449 4.93026 9.93715 4.93293 9.93983C4.9356 9.9425 4.93828 9.94517 4.94096 9.94786C4.94365 9.95054 4.94634 9.95323 4.94903 9.95592C4.95172 9.95862 4.95442 9.96132 4.95713 9.96402C4.95983 9.96673 4.96255 9.96944 4.96526 9.97216C4.96798 9.97487 4.9707 9.97759 4.97343 9.98032C4.97616 9.98305 4.97889 9.98578 4.98163 9.98852C4.98437 9.99126 4.98711 9.99401 4.98986 9.99676C4.99261 9.99951 4.99537 10.0023 4.99813 10.005C5.00089 10.0078 5.00366 10.0106 5.00643 10.0133C5.0092 10.0161 5.01198 10.0189 5.01476 10.0217C5.01755 10.0244 5.02034 10.0272 5.02313 10.03C5.02592 10.0328 5.02872 10.0356 5.03153 10.0384C5.03433 10.0412 5.03714 10.044 5.03996 10.0469C5.04277 10.0497 5.04559 10.0525 5.04842 10.0553C5.05125 10.0581 5.05408 10.061 5.05692 10.0638C5.05975 10.0666 5.06259 10.0695 5.06544 10.0723C5.06829 10.0752 5.07114 10.078 5.074 10.0809C5.07686 10.0838 5.07972 10.0866 5.08259 10.0895C5.08546 10.0924 5.08833 10.0952 5.09121 10.0981C5.09409 10.101 5.09697 10.1039 5.09986 10.1068C5.10275 10.1096 5.10565 10.1125 5.10855 10.1154C5.11145 10.1183 5.11435 10.1212 5.11726 10.1242C5.12017 10.1271 5.12309 10.13 5.12601 10.1329C5.12893 10.1358 5.13185 10.1387 5.13478 10.1417C5.13771 10.1446 5.14065 10.1475 5.14359 10.1505C5.14653 10.1534 5.14947 10.1564 5.15242 10.1593C5.15537 10.1623 5.15833 10.1652 5.16129 10.1682C5.16425 10.1711 5.16722 10.1741 5.17019 10.1771C5.17316 10.18 5.17613 10.183 5.17911 10.186C5.18209 10.189 5.18508 10.192 5.18807 10.195C5.19106 10.198 5.19405 10.2009 5.19705 10.2039C5.20005 10.2069 5.20306 10.2099 5.20607 10.213C5.20908 10.216 5.21209 10.219 5.21511 10.222C5.21813 10.225 5.22115 10.228 5.22418 10.2311C5.22721 10.2341 5.23024 10.2371 5.23328 10.2402C5.23632 10.2432 5.23936 10.2463 5.24241 10.2493C5.24546 10.2524 5.24851 10.2554 5.25157 10.2585C5.25463 10.2615 5.25769 10.2646 5.26076 10.2676C5.26382 10.2707 5.26689 10.2738 5.26997 10.2769C5.27305 10.2799 5.27613 10.283 5.27921 10.2861C5.2823 10.2892 5.28539 10.2923 5.28848 10.2954C5.29158 10.2985 5.29468 10.3016 5.29778 10.3047C5.30088 10.3078 5.30399 10.3109 5.30711 10.314C5.31022 10.3171 5.31334 10.3202 5.31646 10.3234C5.31958 10.3265 5.32271 10.3296 5.32584 10.3327C5.32897 10.3359 5.3321 10.339 5.33524 10.3421C5.33838 10.3453 5.34153 10.3484 5.34468 10.3516C5.34783 10.3547 5.35098 10.3579 5.35414 10.361C5.35729 10.3642 5.36046 10.3673 5.36362 10.3705C5.36679 10.3737 5.36996 10.3769 5.37314 10.38C5.37631 10.3832 5.37949 10.3864 5.38267 10.3896C5.38586 10.3928 5.38905 10.3959 5.39224 10.3991C5.39543 10.4023 5.39863 10.4055 5.40183 10.4087C5.40503 10.4119 5.40824 10.4151 5.41145 10.4183C5.41466 10.4215 5.41787 10.4248 5.42109 10.428C5.42431 10.4312 5.42753 10.4344 5.43075 10.4376C5.43398 10.4409 5.43721 10.4441 5.44045 10.4473C5.44368 10.4506 5.44692 10.4538 5.45016 10.4571C5.45341 10.4603 5.45665 10.4635 5.45991 10.4668C5.46316 10.47 5.46641 10.4733 5.46967 10.4766C5.47293 10.4798 5.4762 10.4831 5.47946 10.4864C5.48273 10.4896 5.486 10.4929 5.48928 10.4962C5.49256 10.4994 5.49583 10.5027 5.49912 10.506C5.5024 10.5093 5.50569 10.5126 5.50898 10.5159C5.51227 10.5192 5.51557 10.5225 5.51887 10.5258C5.52217 10.5291 5.52547 10.5324 5.52878 10.5357C5.53209 10.539 5.5354 10.5423 5.53872 10.5456C5.54203 10.5489 5.54535 10.5522 5.54867 10.5556C5.552 10.5589 5.55532 10.5622 5.55866 10.5655C5.56199 10.5689 5.56532 10.5722 5.56866 10.5756C5.572 10.5789 5.57534 10.5822 5.57869 10.5856C5.58203 10.5889 5.58538 10.5923 5.58874 10.5956C5.59209 10.599 5.59545 10.6023 5.59881 10.6057C5.60217 10.6091 5.60553 10.6124 5.6089 10.6158C5.61227 10.6192 5.61564 10.6225 5.61902 10.6259C5.6224 10.6293 5.62578 10.6327 5.62916 10.6361C5.63254 10.6394 5.63593 10.6428 5.63932 10.6462C5.64271 10.6496 5.6461 10.653 5.6495 10.6564C5.6529 10.6598 5.6563 10.6632 5.65971 10.6666C5.66311 10.67 5.66652 10.6734 5.66993 10.6768C5.67334 10.6802 5.67676 10.6837 5.68018 10.6871C5.6836 10.6905 5.68702 10.6939 5.69045 10.6973C5.69387 10.7008 5.6973 10.7042 5.70074 10.7076C5.70417 10.7111 5.70761 10.7145 5.71105 10.7179C5.71448 10.7214 5.71793 10.7248 5.72137 10.7283C5.72482 10.7317 5.72827 10.7352 5.73173 10.7386C5.73518 10.7421 5.73864 10.7455 5.7421 10.749C5.74556 10.7524 5.74902 10.7559 5.75249 10.7594C5.75595 10.7628 5.75942 10.7663 5.7629 10.7698C5.76637 10.7733 5.76985 10.7767 5.77333 10.7802C5.77681 10.7837 5.78029 10.7872 5.78378 10.7907C5.78726 10.7942 5.79075 10.7976 5.79425 10.8011C5.79774 10.8046 5.80124 10.8081 5.80474 10.8116C5.80824 10.8151 5.81174 10.8186 5.81524 10.8221C5.81875 10.8256 5.82226 10.8292 5.82577 10.8327C5.82928 10.8362 5.8328 10.8397 5.83632 10.8432C5.83983 10.8467 5.84336 10.8502 5.84688 10.8538C5.8504 10.8573 5.85393 10.8608 5.85746 10.8644C5.86099 10.8679 5.86453 10.8714 5.86806 10.875C5.8716 10.8785 5.87514 10.882 5.87868 10.8856C5.88223 10.8891 5.88577 10.8927 5.88932 10.8962C5.89287 10.8998 5.89642 10.9033 5.89997 10.9069C5.90353 10.9104 5.90709 10.914 5.91065 10.9175C5.91421 10.9211 5.91777 10.9247 5.92134 10.9282C5.9249 10.9318 5.92847 10.9354 5.93204 10.9389C5.93562 10.9425 5.93919 10.9461 5.94277 10.9497C5.94635 10.9532 5.94993 10.9568 5.95351 10.9604C5.95709 10.964 5.96068 10.9676 5.96427 10.9712C5.96786 10.9747 5.97145 10.9783 5.97504 10.9819C5.97864 10.9855 5.98223 10.9891 5.98583 10.9927C5.98943 10.9963 5.99304 10.9999 5.99664 11.0035C6.00025 11.0071 6.00385 11.0107 6.00746 11.0144C6.01107 11.018 6.01469 11.0216 6.0183 11.0252C6.02192 11.0288 6.02554 11.0324 6.02916 11.0361C6.03278 11.0397 6.0364 11.0433 6.04003 11.0469C6.04366 11.0505 6.04728 11.0542 6.05092 11.0578C6.05455 11.0614 6.05818 11.0651 6.06182 11.0687C6.06545 11.0723 6.06909 11.076 6.07274 11.0796C6.07638 11.0833 6.08002 11.0869 6.08367 11.0906C6.08731 11.0942 6.09096 11.0979 6.09461 11.1015C6.09827 11.1052 6.10192 11.1088 6.10558 11.1125C6.10923 11.1161 6.11289 11.1198 6.11655 11.1234C6.12021 11.1271 6.12388 11.1308 6.12754 11.1344C6.13121 11.1381 6.13488 11.1418 6.13855 11.1454C6.14222 11.1491 6.14589 11.1528 6.14957 11.1565C6.15324 11.1601 6.15692 11.1638 6.1606 11.1675C6.16428 11.1712 6.16796 11.1749 6.17164 11.1785C6.17533 11.1822 6.17902 11.1859 6.1827 11.1896C6.18639 11.1933 6.19008 11.197 6.19378 11.2007C6.19747 11.2044 6.20117 11.2081 6.20486 11.2118C6.20856 11.2155 6.21226 11.2192 6.21596 11.2229C6.21967 11.2266 6.22337 11.2303 6.22708 11.234C6.23078 11.2377 6.23449 11.2414 6.2382 11.2451C6.24191 11.2488 6.24562 11.2525 6.24934 11.2562C6.25305 11.2599 6.25677 11.2637 6.26049 11.2674C6.26421 11.2711 6.26793 11.2748 6.27165 11.2785C6.27537 11.2823 6.2791 11.286 6.28282 11.2897C6.28655 11.2934 6.29028 11.2972 6.29401 11.3009C6.29774 11.3046 6.30147 11.3084 6.30521 11.3121C6.30894 11.3158 6.31268 11.3196 6.31642 11.3233C6.32016 11.327 6.3239 11.3308 6.32764 11.3345C6.33138 11.3383 6.33512 11.342 6.33887 11.3458C6.34262 11.3495 6.34636 11.3533 6.35011 11.357C6.35386 11.3608 6.35761 11.3645 6.36137 11.3683C6.36512 11.372 6.36888 11.3758 6.37263 11.3795C6.37639 11.3833 6.38015 11.387 6.38391 11.3908C6.38767 11.3946 6.39143 11.3983 6.39519 11.4021C6.39896 11.4058 6.40272 11.4096 6.40649 11.4134C6.41026 11.4171 6.41403 11.4209 6.4178 11.4247C6.42157 11.4285 6.42534 11.4322 6.42911 11.436C6.43289 11.4398 6.43666 11.4436 6.44044 11.4473C6.44421 11.4511 6.44799 11.4549 6.45177 11.4587C6.45555 11.4624 6.45934 11.4662 6.46312 11.47C6.4669 11.4738 6.47069 11.4776 6.47447 11.4814C6.47826 11.4852 6.48205 11.4889 6.48584 11.4927C6.48962 11.4965 6.49342 11.5003 6.49721 11.5041C6.501 11.5079 6.50479 11.5117 6.50859 11.5155C6.51238 11.5193 6.51618 11.5231 6.51998 11.5269C6.52378 11.5307 6.52758 11.5345 6.53138 11.5383C6.53518 11.5421 6.53898 11.5459 6.54278 11.5497C6.54659 11.5535 6.55039 11.5573 6.5542 11.5611C6.558 11.5649 6.56181 11.5687 6.56562 11.5725C6.56943 11.5763 6.57324 11.5801 6.57705 11.5839C6.58086 11.5878 6.58467 11.5916 6.58849 11.5954C6.5923 11.5992 6.59612 11.603 6.59993 11.6068C6.60375 11.6106 6.60757 11.6145 6.61139 11.6183C6.61521 11.6221 6.61903 11.6259 6.62285 11.6297C6.62667 11.6336 6.63049 11.6374 6.63431 11.6412C6.63814 11.645 6.64196 11.6489 6.64579 11.6527C6.64961 11.6565 6.65344 11.6603 6.65727 11.6642C6.6611 11.668 6.66492 11.6718 6.66875 11.6756C6.67258 11.6795 6.67642 11.6833 6.68025 11.6871C6.68408 11.691 6.68791 11.6948 6.69175 11.6986C6.69558 11.7025 6.69942 11.7063 6.70325 11.7101C6.70709 11.714 6.71093 11.7178 6.71476 11.7217C6.7186 11.7255 6.72244 11.7293 6.72628 11.7332C6.73012 11.737 6.73396 11.7409 6.7378 11.7447C6.74164 11.7485 6.74549 11.7524 6.74933 11.7562C6.75317 11.7601 6.75702 11.7639 6.76086 11.7678C6.76471 11.7716 6.76855 11.7754 6.7724 11.7793C6.77625 11.7831 6.7801 11.787 6.78394 11.7908C6.78779 11.7947 6.79164 11.7985 6.79549 11.8024C6.79934 11.8062 6.80319 11.8101 6.80704 11.8139C6.8109 11.8178 6.81475 11.8216 6.8186 11.8255C6.82245 11.8293 6.82631 11.8332 6.83016 11.8371C6.83402 11.8409 6.83787 11.8448 6.84173 11.8486C6.84558 11.8525 6.84944 11.8563 6.85329 11.8602C6.85715 11.864 6.86101 11.8679 6.86487 11.8718C6.86872 11.8756 6.87258 11.8795 6.87644 11.8833C6.8803 11.8872 6.88416 11.8911 6.88802 11.8949C6.89188 11.8988 6.89574 11.9026 6.8996 11.9065C6.90346 11.9104 6.90733 11.9142 6.91119 11.9181C6.91505 11.9219 6.91891 11.9258 6.92278 11.9297C6.92664 11.9335 6.9305 11.9374 6.93437 11.9413C6.93823 11.9451 6.9421 11.949 6.94596 11.9529C6.94983 11.9567 6.95369 11.9606 6.95756 11.9645C6.96142 11.9683 6.96529 11.9722 6.96916 11.976C6.97302 11.9799 6.97689 11.9838 6.98076 11.9876C6.98462 11.9915 6.98849 11.9954 6.99236 11.9993C6.99623 12.0031 7.00009 12.007 7.00396 12.0109C7.00783 12.0147 7.0117 12.0186 7.01557 12.0225C7.01944 12.0263 7.02331 12.0302 7.02718 12.0341C7.03104 12.0379 7.03491 12.0418 7.03878 12.0457C7.04265 12.0495 7.04652 12.0534 7.05039 12.0573C7.05426 12.0612 7.05813 12.065 7.062 12.0689C7.06587 12.0728 7.06974 12.0766 7.07361 12.0805C7.07749 12.0844 7.08136 12.0882 7.08523 12.0921C7.0891 12.096 7.09297 12.0999 7.09684 12.1037C7.10071 12.1076 7.10458 12.1115 7.10845 12.1153C7.11232 12.1192 7.11619 12.1231 7.12006 12.127C7.12393 12.1308 7.1278 12.1347 7.13168 12.1386C7.13555 12.1424 7.13942 12.1463 7.14329 12.1502C7.14716 12.1541 7.15103 12.1579 7.1549 12.1618C7.15877 12.1657 7.16264 12.1695 7.16651 12.1734C7.17038 12.1773 7.17425 12.1811 7.17812 12.185C7.18199 12.1889 7.18586 12.1928 7.18973 12.1966C7.1936 12.2005 7.19747 12.2044 7.20134 12.2082C7.20521 12.2121 7.20908 12.216 7.21295 12.2198C7.21682 12.2237 7.22069 12.2276 7.22455 12.2314C7.22842 12.2353 7.23229 12.2392 7.23616 12.2431C7.24003 12.2469 7.24389 12.2508 7.24776 12.2547C7.25163 12.2585 7.2555 12.2624 7.25936 12.2663C7.26323 12.2701 7.2671 12.274 7.27096 12.2779C7.27483 12.2817 7.27869 12.2856 7.28256 12.2895C7.28642 12.2933 7.29029 12.2972 7.29415 12.301C7.29802 12.3049 7.30188 12.3088 7.30574 12.3126C7.30961 12.3165 7.31347 12.3204 7.31733 12.3242C7.3212 12.3281 7.32506 12.332 7.32892 12.3358C7.33278 12.3397 7.33664 12.3435 7.3405 12.3474C7.34436 12.3513 7.34822 12.3551 7.35208 12.359C7.35594 12.3628 7.3598 12.3667 7.36366 12.3706C7.36752 12.3744 7.37138 12.3783 7.37524 12.3821C7.37909 12.386 7.38295 12.3898 7.38681 12.3937C7.39066 12.3976 7.39452 12.4014 7.39837 12.4053C7.40223 12.4091 7.40608 12.413 7.40993 12.4168C7.41379 12.4207 7.41764 12.4245 7.42149 12.4284C7.42534 12.4322 7.42919 12.4361 7.43304 12.4399C7.43689 12.4438 7.44074 12.4476 7.44459 12.4515C7.44844 12.4553 7.45229 12.4592 7.45614 12.463C7.45999 12.4669 7.46383 12.4707 7.46768 12.4746C7.47152 12.4784 7.47537 12.4823 7.47921 12.4861C7.48306 12.4899 7.4869 12.4938 7.49074 12.4976C7.49458 12.5015 7.49843 12.5053 7.50227 12.5092C7.50611 12.513 7.50995 12.5168 7.51379 12.5207C7.51762 12.5245 7.52146 12.5284 7.5253 12.5322C7.52914 12.536 7.53297 12.5399 7.53681 12.5437C7.54064 12.5475 7.54448 12.5514 7.54831 12.5552C7.55214 12.559 7.55597 12.5629 7.5598 12.5667C7.56363 12.5705 7.56746 12.5744 7.57129 12.5782C7.57512 12.582 7.57895 12.5858 7.58278 12.5897C7.5866 12.5935 7.59043 12.5973 7.59425 12.6011C7.59808 12.605 7.6019 12.6088 7.60572 12.6126C7.60954 12.6164 7.61336 12.6203 7.61718 12.6241C7.621 12.6279 7.62482 12.6317 7.62864 12.6355C7.63246 12.6393 7.63627 12.6432 7.64009 12.647C7.6439 12.6508 7.64771 12.6546 7.65153 12.6584C7.65534 12.6622 7.65915 12.666 7.66296 12.6699C7.66677 12.6737 7.67058 12.6775 7.67439 12.6813C7.67819 12.6851 7.682 12.6889 7.6858 12.6927C7.68961 12.6965 7.69341 12.7003 7.69721 12.7041C7.70101 12.7079 7.70481 12.7117 7.70861 12.7155C7.71241 12.7193 7.71621 12.7231 7.72001 12.7269C7.7238 12.7307 7.7276 12.7345 7.73139 12.7383C7.73518 12.7421 7.73898 12.7459 7.74277 12.7497C7.74656 12.7534 7.75034 12.7572 7.75413 12.761C7.75792 12.7648 7.76171 12.7686 7.76549 12.7724C7.76927 12.7762 7.77306 12.7799 7.77684 12.7837C7.78062 12.7875 7.7844 12.7913 7.78818 12.7951C7.79195 12.7988 7.79573 12.8026 7.79951 12.8064C7.80328 12.8102 7.80705 12.8139 7.81083 12.8177C7.8146 12.8215 7.81837 12.8253 7.82214 12.829C7.8259 12.8328 7.82967 12.8366 7.83344 12.8403C7.8372 12.8441 7.84096 12.8479 7.84472 12.8516C7.84849 12.8554 7.85225 12.8591 7.856 12.8629C7.85976 12.8667 7.86352 12.8704 7.86727 12.8742C7.87103 12.8779 7.87478 12.8817 7.87853 12.8854C7.88228 12.8892 7.88603 12.8929 7.88978 12.8967C7.89352 12.9004 7.89727 12.9042 7.90101 12.9079C7.90476 12.9116 7.9085 12.9154 7.91224 12.9191C7.91598 12.9229 7.91972 12.9266 7.92345 12.9303C7.92719 12.9341 7.93092 12.9378 7.93465 12.9415C7.93839 12.9453 7.94212 12.949 7.94584 12.9527C7.94957 12.9565 7.9533 12.9602 7.95702 12.9639C7.96075 12.9676 7.96447 12.9714 7.96819 12.9751C7.97191 12.9788 7.97563 12.9825 7.97934 12.9862C7.98306 12.99 7.98677 12.9937 7.99049 12.9974C7.9942 13.0011 7.99791 13.0048 8.00162 13.0085C8.00532 13.0122 8.00903 13.0159 8.01273 13.0196C8.01644 13.0233 8.02014 13.027 8.02384 13.0307C8.02753 13.0344 8.03123 13.0381 8.03493 13.0418C8.03862 13.0455 8.04231 13.0492 8.046 13.0529C8.0497 13.0566 8.05338 13.0603 8.05707 13.064C8.06076 13.0676 8.06444 13.0713 8.06812 13.075C8.0718 13.0787 8.07548 13.0824 8.07916 13.0861C8.08283 13.0897 8.08651 13.0934 8.09018 13.0971C8.09385 13.1007 8.09752 13.1044 8.10119 13.1081C8.10486 13.1118 8.10852 13.1154 8.11219 13.1191C8.11585 13.1227 8.11951 13.1264 8.12317 13.1301C8.12683 13.1337 8.13048 13.1374 8.13414 13.141C8.13779 13.1447 8.14144 13.1483 8.14509 13.152C8.14874 13.1556 8.15238 13.1593 8.15602 13.1629C8.15967 13.1666 8.16331 13.1702 8.16695 13.1738C8.17059 13.1775 8.17422 13.1811 8.17785 13.1847C8.18149 13.1884 8.18512 13.192 8.18875 13.1956C8.19237 13.1993 8.196 13.2029 8.19962 13.2065C8.20325 13.2101 8.20687 13.2138 8.21048 13.2174C8.2141 13.221 8.21772 13.2246 8.22133 13.2282C8.22494 13.2318 8.22855 13.2354 8.23216 13.2391C8.23577 13.2427 8.23937 13.2463 8.24297 13.2499C8.24657 13.2535 8.25017 13.2571 8.25377 13.2607C8.25737 13.2643 8.26096 13.2679 8.26455 13.2714C8.26814 13.275 8.27173 13.2786 8.27531 13.2822C8.2789 13.2858 8.28248 13.2894 8.28606 13.293C8.28964 13.2965 8.29322 13.3001 8.29679 13.3037C8.30037 13.3073 8.30394 13.3108 8.3075 13.3144C8.31107 13.318 8.31464 13.3215 8.3182 13.3251C8.32176 13.3287 8.32532 13.3322 8.32888 13.3358C8.33244 13.3393 8.33599 13.3429 8.33954 13.3464C8.34309 13.35 8.34664 13.3535 8.35018 13.3571C8.35373 13.3606 8.35727 13.3642 8.36081 13.3677C8.36435 13.3712 8.36788 13.3748 8.37142 13.3783C8.37495 13.3818 8.37848 13.3854 8.38201 13.3889C8.38553 13.3924 8.38906 13.3959 8.39258 13.3995C8.3961 13.403 8.39961 13.4065 8.40313 13.41C8.40664 13.4135 8.41015 13.417 8.41366 13.4206C8.41717 13.4241 8.42068 13.4276 8.42418 13.4311C8.42768 13.4346 8.43118 13.4381 8.43467 13.4416C8.43817 13.4451 8.44166 13.4486 8.44515 13.452C8.44864 13.4555 8.45212 13.459 8.45561 13.4625C8.45909 13.466 8.46257 13.4695 8.46604 13.4729C8.46952 13.4764 8.47299 13.4799 8.47646 13.4834C8.47993 13.4868 8.4834 13.4903 8.48686 13.4938C8.49032 13.4972 8.49378 13.5007 8.49724 13.5041C8.50069 13.5076 8.50415 13.511 8.50759 13.5145C8.51104 13.5179 8.51449 13.5214 8.51793 13.5248C8.52137 13.5283 8.52481 13.5317 8.52825 13.5351C8.53168 13.5386 8.53512 13.542 8.53855 13.5454C8.54197 13.5489 8.5454 13.5523 8.54882 13.5557C8.55224 13.5591 8.55566 13.5626 8.55907 13.566C8.56249 13.5694 8.5659 13.5728 8.56931 13.5762C8.57272 13.5796 8.57612 13.583 8.57952 13.5864C8.58292 13.5898 8.58632 13.5932 8.58971 13.5966C8.5931 13.6 8.59649 13.6034 8.59988 13.6068C8.60326 13.6102 8.60665 13.6135 8.61003 13.6169C8.6134 13.6203 8.61678 13.6237 8.62015 13.627L10.0344 12.2128C10.031 12.2095 10.0276 12.2061 10.0242 12.2027C10.0209 12.1993 10.0175 12.1959 10.0141 12.1926C10.0107 12.1892 10.0073 12.1858 10.0039 12.1824C10.0005 12.179 9.99713 12.1756 9.99373 12.1722C9.99033 12.1688 9.98693 12.1654 9.98352 12.162C9.98011 12.1586 9.9767 12.1552 9.97329 12.1518C9.96987 12.1483 9.96646 12.1449 9.96303 12.1415C9.95961 12.1381 9.95619 12.1347 9.95276 12.1312C9.94933 12.1278 9.9459 12.1244 9.94246 12.1209C9.93903 12.1175 9.93559 12.1141 9.93215 12.1106C9.9287 12.1072 9.92526 12.1037 9.92181 12.1003C9.91836 12.0968 9.91491 12.0934 9.91145 12.0899C9.90799 12.0865 9.90454 12.083 9.90107 12.0795C9.89761 12.0761 9.89414 12.0726 9.89067 12.0691C9.88721 12.0657 9.88373 12.0622 9.88026 12.0587C9.87678 12.0552 9.8733 12.0518 9.86982 12.0483C9.86634 12.0448 9.86285 12.0413 9.85936 12.0378C9.85587 12.0343 9.85238 12.0308 9.84889 12.0274C9.84539 12.0239 9.84189 12.0204 9.83839 12.0169C9.83489 12.0134 9.83138 12.0098 9.82788 12.0063C9.82437 12.0028 9.82086 11.9993 9.81734 11.9958C9.81383 11.9923 9.81031 11.9888 9.80679 11.9853C9.80327 11.9817 9.79975 11.9782 9.79622 11.9747C9.79269 11.9712 9.78916 11.9676 9.78563 11.9641C9.7821 11.9606 9.77856 11.957 9.77502 11.9535C9.77148 11.9499 9.76794 11.9464 9.7644 11.9429C9.76085 11.9393 9.7573 11.9358 9.75375 11.9322C9.7502 11.9287 9.74665 11.9251 9.74309 11.9216C9.73954 11.918 9.73598 11.9144 9.73241 11.9109C9.72885 11.9073 9.72529 11.9038 9.72172 11.9002C9.71815 11.8966 9.71458 11.893 9.71101 11.8895C9.70743 11.8859 9.70385 11.8823 9.70027 11.8787C9.6967 11.8752 9.69311 11.8716 9.68953 11.868C9.68594 11.8644 9.68235 11.8608 9.67876 11.8572C9.67517 11.8536 9.67158 11.85 9.66798 11.8464C9.66439 11.8429 9.66079 11.8393 9.65719 11.8357C9.65358 11.832 9.64998 11.8284 9.64637 11.8248C9.64277 11.8212 9.63916 11.8176 9.63554 11.814C9.63193 11.8104 9.62832 11.8068 9.6247 11.8032C9.62108 11.7995 9.61746 11.7959 9.61384 11.7923C9.61021 11.7887 9.60659 11.7851 9.60296 11.7814C9.59933 11.7778 9.5957 11.7742 9.59207 11.7705C9.58844 11.7669 9.5848 11.7633 9.58116 11.7596C9.57752 11.756 9.57388 11.7523 9.57024 11.7487C9.5666 11.7451 9.56295 11.7414 9.5593 11.7378C9.55565 11.7341 9.552 11.7305 9.54835 11.7268C9.5447 11.7232 9.54104 11.7195 9.53738 11.7158C9.53372 11.7122 9.53006 11.7085 9.5264 11.7049C9.52274 11.7012 9.51907 11.6975 9.51541 11.6939C9.51174 11.6902 9.50807 11.6865 9.5044 11.6829C9.50072 11.6792 9.49705 11.6755 9.49337 11.6718C9.48969 11.6682 9.48602 11.6645 9.48233 11.6608C9.47865 11.6571 9.47497 11.6534 9.47128 11.6497C9.4676 11.6461 9.46391 11.6424 9.46022 11.6387C9.45653 11.635 9.45284 11.6313 9.44914 11.6276C9.44545 11.6239 9.44175 11.6202 9.43805 11.6165C9.43435 11.6128 9.43065 11.6091 9.42695 11.6054C9.42324 11.6017 9.41954 11.598 9.41583 11.5943C9.41212 11.5906 9.40841 11.5869 9.4047 11.5832C9.40099 11.5795 9.39727 11.5757 9.39356 11.572C9.38984 11.5683 9.38612 11.5646 9.3824 11.5609C9.37868 11.5571 9.37496 11.5534 9.37124 11.5497C9.36751 11.546 9.36379 11.5423 9.36006 11.5385C9.35633 11.5348 9.3526 11.5311 9.34887 11.5273C9.34514 11.5236 9.3414 11.5199 9.33767 11.5161C9.33393 11.5124 9.33019 11.5087 9.32645 11.5049C9.32271 11.5012 9.31897 11.4974 9.31523 11.4937C9.31148 11.4899 9.30774 11.4862 9.30399 11.4825C9.30024 11.4787 9.29649 11.475 9.29274 11.4712C9.28899 11.4675 9.28524 11.4637 9.28149 11.46C9.27773 11.4562 9.27398 11.4524 9.27022 11.4487C9.26646 11.4449 9.2627 11.4412 9.25894 11.4374C9.25518 11.4336 9.25141 11.4299 9.24765 11.4261C9.24388 11.4223 9.24012 11.4186 9.23635 11.4148C9.23258 11.411 9.22881 11.4073 9.22504 11.4035C9.22127 11.3997 9.21749 11.396 9.21372 11.3922C9.20994 11.3884 9.20617 11.3846 9.20239 11.3809C9.19861 11.3771 9.19483 11.3733 9.19105 11.3695C9.18727 11.3657 9.18349 11.362 9.1797 11.3582C9.17592 11.3544 9.17213 11.3506 9.16835 11.3468C9.16456 11.343 9.16077 11.3392 9.15698 11.3354C9.15319 11.3317 9.1494 11.3279 9.1456 11.3241C9.14181 11.3203 9.13802 11.3165 9.13422 11.3127C9.13042 11.3089 9.12663 11.3051 9.12283 11.3013C9.11903 11.2975 9.11523 11.2937 9.11143 11.2899C9.10762 11.2861 9.10382 11.2823 9.10002 11.2785C9.09621 11.2747 9.09241 11.2709 9.0886 11.2671C9.08479 11.2633 9.08098 11.2594 9.07717 11.2556C9.07336 11.2518 9.06955 11.248 9.06574 11.2442C9.06193 11.2404 9.05811 11.2366 9.0543 11.2328C9.05049 11.229 9.04667 11.2251 9.04285 11.2213C9.03903 11.2175 9.03522 11.2137 9.0314 11.2099C9.02758 11.206 9.02376 11.2022 9.01993 11.1984C9.01611 11.1946 9.01229 11.1908 9.00846 11.1869C9.00464 11.1831 9.00081 11.1793 8.99699 11.1755C8.99316 11.1716 8.98933 11.1678 8.98551 11.164C8.98168 11.1601 8.97785 11.1563 8.97402 11.1525C8.97019 11.1487 8.96635 11.1448 8.96252 11.141C8.95869 11.1372 8.95485 11.1333 8.95102 11.1295C8.94719 11.1257 8.94335 11.1218 8.93951 11.118C8.93568 11.1141 8.93184 11.1103 8.928 11.1065C8.92416 11.1026 8.92032 11.0988 8.91648 11.0949C8.91264 11.0911 8.9088 11.0873 8.90496 11.0834C8.90111 11.0796 8.89727 11.0757 8.89343 11.0719C8.88958 11.068 8.88574 11.0642 8.88189 11.0604C8.87805 11.0565 8.8742 11.0527 8.87035 11.0488C8.8665 11.045 8.86266 11.0411 8.85881 11.0373C8.85496 11.0334 8.85111 11.0296 8.84726 11.0257C8.84341 11.0219 8.83956 11.018 8.8357 11.0142C8.83185 11.0103 8.828 11.0065 8.82415 11.0026C8.82029 10.9988 8.81644 10.9949 8.81258 10.991C8.80873 10.9872 8.80487 10.9833 8.80102 10.9795C8.79716 10.9756 8.79331 10.9718 8.78945 10.9679C8.78559 10.9641 8.78173 10.9602 8.77787 10.9563C8.77402 10.9525 8.77016 10.9486 8.7663 10.9448C8.76244 10.9409 8.75858 10.937 8.75472 10.9332C8.75086 10.9293 8.747 10.9255 8.74313 10.9216C8.73927 10.9177 8.73541 10.9139 8.73155 10.91C8.72768 10.9062 8.72382 10.9023 8.71996 10.8984C8.71609 10.8946 8.71223 10.8907 8.70837 10.8868C8.7045 10.883 8.70064 10.8791 8.69677 10.8752C8.69291 10.8714 8.68904 10.8675 8.68517 10.8636C8.68131 10.8598 8.67744 10.8559 8.67358 10.852C8.66971 10.8482 8.66584 10.8443 8.66197 10.8404C8.65811 10.8366 8.65424 10.8327 8.65037 10.8288C8.6465 10.825 8.64264 10.8211 8.63877 10.8172C8.6349 10.8134 8.63103 10.8095 8.62716 10.8056C8.62329 10.8018 8.61942 10.7979 8.61555 10.794C8.61168 10.7901 8.60781 10.7863 8.60394 10.7824C8.60008 10.7785 8.59621 10.7747 8.59234 10.7708C8.58847 10.7669 8.5846 10.7631 8.58072 10.7592C8.57685 10.7553 8.57298 10.7514 8.56911 10.7476C8.56524 10.7437 8.56137 10.7398 8.5575 10.736C8.55363 10.7321 8.54976 10.7282 8.54589 10.7244C8.54202 10.7205 8.53815 10.7166 8.53428 10.7127C8.53041 10.7089 8.52654 10.705 8.52266 10.7011C8.51879 10.6973 8.51492 10.6934 8.51105 10.6895C8.50718 10.6856 8.50331 10.6818 8.49944 10.6779C8.49557 10.674 8.4917 10.6702 8.48783 10.6663C8.48396 10.6624 8.48009 10.6586 8.47622 10.6547C8.47235 10.6508 8.46848 10.6469 8.46461 10.6431C8.46074 10.6392 8.45687 10.6353 8.453 10.6315C8.44913 10.6276 8.44526 10.6237 8.44139 10.6199C8.43752 10.616 8.43365 10.6121 8.42978 10.6082C8.42591 10.6044 8.42204 10.6005 8.41818 10.5966C8.41431 10.5928 8.41044 10.5889 8.40657 10.585C8.4027 10.5812 8.39884 10.5773 8.39497 10.5734C8.3911 10.5696 8.38724 10.5657 8.38337 10.5618C8.3795 10.558 8.37564 10.5541 8.37177 10.5502C8.36791 10.5464 8.36404 10.5425 8.36018 10.5386C8.35631 10.5348 8.35245 10.5309 8.34858 10.527C8.34472 10.5232 8.34085 10.5193 8.33699 10.5155C8.33313 10.5116 8.32927 10.5077 8.3254 10.5039C8.32154 10.5 8.31768 10.4961 8.31382 10.4923C8.30996 10.4884 8.3061 10.4846 8.30223 10.4807C8.29837 10.4768 8.29451 10.473 8.29066 10.4691C8.2868 10.4653 8.28294 10.4614 8.27908 10.4575C8.27522 10.4537 8.27136 10.4498 8.26751 10.446C8.26365 10.4421 8.25979 10.4383 8.25594 10.4344C8.25208 10.4305 8.24823 10.4267 8.24437 10.4228C8.24052 10.419 8.23667 10.4151 8.23281 10.4113C8.22896 10.4074 8.22511 10.4036 8.22126 10.3997C8.21741 10.3959 8.21356 10.392 8.20971 10.3882C8.20586 10.3843 8.20201 10.3805 8.19816 10.3766C8.19431 10.3728 8.19046 10.3689 8.18661 10.3651C8.18277 10.3612 8.17892 10.3574 8.17508 10.3535C8.17123 10.3497 8.16739 10.3459 8.16354 10.342C8.1597 10.3382 8.15586 10.3343 8.15202 10.3305C8.14817 10.3266 8.14433 10.3228 8.14049 10.319C8.13665 10.3151 8.13282 10.3113 8.12898 10.3074C8.12514 10.3036 8.1213 10.2998 8.11747 10.2959C8.11363 10.2921 8.10979 10.2883 8.10596 10.2844C8.10213 10.2806 8.09829 10.2768 8.09446 10.2729C8.09063 10.2691 8.0868 10.2653 8.08297 10.2614C8.07914 10.2576 8.07531 10.2538 8.07148 10.2499C8.06765 10.2461 8.06383 10.2423 8.06 10.2385C8.05618 10.2346 8.05235 10.2308 8.04853 10.227C8.0447 10.2232 8.04088 10.2193 8.03706 10.2155C8.03324 10.2117 8.02942 10.2079 8.0256 10.2041C8.02178 10.2002 8.01796 10.1964 8.01415 10.1926C8.01033 10.1888 8.00652 10.185 8.0027 10.1812C7.99889 10.1774 7.99508 10.1735 7.99126 10.1697C7.98745 10.1659 7.98364 10.1621 7.97983 10.1583C7.97603 10.1545 7.97222 10.1507 7.96841 10.1469C7.96461 10.1431 7.9608 10.1393 7.957 10.1355C7.95319 10.1317 7.94939 10.1279 7.94559 10.1241C7.94179 10.1203 7.93799 10.1165 7.93419 10.1127C7.93039 10.1089 7.9266 10.1051 7.9228 10.1013C7.91901 10.0975 7.91521 10.0937 7.91142 10.0899C7.90763 10.0861 7.90384 10.0823 7.90005 10.0785C7.89626 10.0747 7.89247 10.0709 7.88869 10.0672C7.8849 10.0634 7.88111 10.0596 7.87733 10.0558C7.87355 10.052 7.86977 10.0482 7.86599 10.0445C7.86221 10.0407 7.85843 10.0369 7.85465 10.0331C7.85087 10.0293 7.8471 10.0256 7.84333 10.0218C7.83955 10.018 7.83578 10.0142 7.83201 10.0105C7.82824 10.0067 7.82447 10.0029 7.8207 9.99917C7.81694 9.9954 7.81317 9.99164 7.80941 9.98787C7.80564 9.98411 7.80188 9.98035 7.79812 9.97659C7.79436 9.97283 7.7906 9.96907 7.78685 9.96531C7.78309 9.96156 7.77933 9.9578 7.77558 9.95405C7.77183 9.95029 7.76808 9.94654 7.76433 9.94279C7.76058 9.93904 7.75683 9.9353 7.75308 9.93155C7.74934 9.9278 7.74559 9.92406 7.74185 9.92032C7.73811 9.91658 7.73437 9.91284 7.73063 9.9091C7.72689 9.90536 7.72316 9.90162 7.71942 9.89789C7.71569 9.89415 7.71195 9.89042 7.70822 9.88669C7.70449 9.88296 7.70076 9.87923 7.69704 9.8755C7.69331 9.87178 7.68959 9.86805 7.68586 9.86433C7.68214 9.86061 7.67842 9.85689 7.6747 9.85317C7.67098 9.84945 7.66727 9.84573 7.66355 9.84202C7.65984 9.8383 7.65612 9.83459 7.65241 9.83088C7.6487 9.82717 7.645 9.82346 7.64129 9.81975C7.63758 9.81605 7.63388 9.81234 7.63018 9.80864C7.62647 9.80494 7.62278 9.80124 7.61908 9.79754C7.61538 9.79385 7.61168 9.79015 7.60799 9.78646C7.6043 9.78276 7.60061 9.77907 7.59692 9.77538C7.59323 9.77169 7.58954 9.76801 7.58586 9.76432C7.58217 9.76064 7.57849 9.75696 7.57481 9.75328C7.57113 9.7496 7.56745 9.74592 7.56378 9.74224C7.5601 9.73857 7.55643 9.7349 7.55276 9.73123C7.54909 9.72756 7.54542 9.72389 7.54176 9.72022C7.53809 9.71656 7.53443 9.71289 7.53077 9.70923C7.5271 9.70557 7.52345 9.70191 7.51979 9.69826C7.51613 9.6946 7.51248 9.69094 7.50883 9.68729C7.50518 9.68364 7.50153 9.67999 7.49788 9.67635C7.49423 9.6727 7.49059 9.66906 7.48695 9.66541C7.48331 9.66177 7.47967 9.65813 7.47603 9.6545C7.4724 9.65086 7.46876 9.64723 7.46513 9.6436C7.4615 9.63996 7.45787 9.63633 7.45424 9.63271C7.45062 9.62908 7.44699 9.62546 7.44337 9.62184C7.43975 9.61822 7.43613 9.6146 7.43252 9.61098C7.4289 9.60737 7.42529 9.60375 7.42168 9.60014C7.41807 9.59653 7.41446 9.59292 7.41085 9.58932C7.40725 9.58571 7.40365 9.58211 7.40005 9.57851C7.39645 9.57491 7.39285 9.57131 7.38926 9.56772C7.38566 9.56413 7.38207 9.56053 7.37848 9.55695C7.37489 9.55336 7.37131 9.54977 7.36772 9.54619C7.36414 9.5426 7.36056 9.53902 7.35698 9.53545C7.3534 9.53187 7.34983 9.52829 7.34626 9.52472C7.34269 9.52115 7.33912 9.51758 7.33555 9.51402C7.33198 9.51045 7.32842 9.50689 7.32486 9.50333C7.3213 9.49977 7.31774 9.49621 7.31419 9.49265C7.31063 9.4891 7.30708 9.48555 7.30353 9.482C7.29998 9.47845 7.29644 9.4749 7.2929 9.47136C7.28935 9.46782 7.28581 9.46428 7.28228 9.46074C7.27874 9.45721 7.27521 9.45367 7.27168 9.45014C7.26815 9.44661 7.26462 9.44308 7.26109 9.43956C7.25757 9.43604 7.25405 9.43251 7.25053 9.429C7.24701 9.42548 7.2435 9.42196 7.23998 9.41845C7.23647 9.41494 7.23296 9.41143 7.22946 9.40792C7.22595 9.40442 7.22245 9.40091 7.21895 9.39742C7.21545 9.39392 7.21195 9.39042 7.20846 9.38693C7.20497 9.38343 7.20148 9.37994 7.19799 9.37646C7.19451 9.37297 7.19102 9.36949 7.18754 9.36601C7.18406 9.36253 7.18058 9.35905 7.17711 9.35558C7.17364 9.3521 7.17017 9.34863 7.1667 9.34517C7.16323 9.3417 7.15977 9.33824 7.15631 9.33478C7.15285 9.33132 7.14939 9.32786 7.14594 9.3244C7.14249 9.32095 7.13904 9.3175 7.13559 9.31405C7.13214 9.31061 7.1287 9.30716 7.12526 9.30372C7.12182 9.30028 7.11838 9.29685 7.11495 9.29341C7.11152 9.28998 7.10809 9.28655 7.10466 9.28313C7.10123 9.2797 7.09781 9.27628 7.09439 9.27286C7.09097 9.26944 7.08756 9.26602 7.08415 9.26261C7.08073 9.2592 7.07733 9.25579 7.07392 9.25239C7.07052 9.24898 7.06711 9.24558 7.06372 9.24218C7.06032 9.23878 7.05692 9.23539 7.05353 9.232C7.05014 9.22861 7.04676 9.22522 7.04337 9.22184C7.03999 9.21845 7.03661 9.21508 7.03323 9.2117C7.02986 9.20832 7.02649 9.20495 7.02312 9.20158C7.01975 9.19821 7.01638 9.19485 7.01302 9.19149C7.00966 9.18813 7.0063 9.18477 7.00295 9.18142C6.9996 9.17806 6.99625 9.17471 6.9929 9.17137C6.98955 9.16802 6.98621 9.16468 6.98287 9.16134C6.97953 9.158 6.9762 9.15466 6.97287 9.15133C6.96954 9.148 6.96621 9.14468 6.96289 9.14135C6.95956 9.13803 6.95624 9.13471 6.95293 9.13139C6.94961 9.12808 6.9463 9.12477 6.94299 9.12146C6.93969 9.11815 6.93638 9.11485 6.93308 9.11155C6.92978 9.10825 6.92649 9.10495 6.9232 9.10166C6.9199 9.09837 6.91662 9.09508 6.91333 9.0918C6.91005 9.08851 6.90677 9.08523 6.90349 9.08196C6.90022 9.07868 6.89694 9.07541 6.89368 9.07214C6.89041 9.06887 6.88715 9.06561 6.88389 9.06235C6.88063 9.05909 6.87737 9.05584 6.87412 9.05259C6.87087 9.04933 6.86762 9.04609 6.86438 9.04284C6.86113 9.0396 6.8579 9.03636 6.85466 9.03313C6.85143 9.02989 6.84819 9.02666 6.84497 9.02343C6.84174 9.02021 6.83852 9.01698 6.8353 9.01377C6.83208 9.01055 6.82887 9.00733 6.82566 9.00413C6.82245 9.00092 6.81924 8.99771 6.81604 8.99451C6.81284 8.99131 6.80965 8.98811 6.80645 8.98492C6.80326 8.98173 6.80007 8.97854 6.79689 8.97535C6.7937 8.97217 6.79052 8.96899 6.78735 8.96582C6.78417 8.96264 6.781 8.95947 6.77784 8.9563C6.77467 8.95314 6.77151 8.94997 6.76835 8.94682C6.76519 8.94366 6.76204 8.94051 6.75889 8.93736C6.75574 8.93421 6.7526 8.93106 6.74946 8.92792C6.74632 8.92478 6.74318 8.92165 6.74005 8.91852C6.73692 8.91539 6.73379 8.91226 6.73067 8.90914C6.72755 8.90602 6.72443 8.9029 6.72132 8.89979C6.71821 8.89667 6.7151 8.89356 6.71199 8.89046C6.70889 8.88736 6.70579 8.88426 6.7027 8.88116C6.6996 8.87807 6.69651 8.87498 6.69343 8.87189C6.69034 8.86881 6.68726 8.86573 6.68418 8.86265C6.68111 8.85957 6.67804 8.8565 6.67497 8.85344C6.6719 8.85037 6.66884 8.84731 6.66578 8.84425C6.66273 8.84119 6.65967 8.83814 6.65663 8.83509C6.65358 8.83204 6.65053 8.829 6.6475 8.82596C6.64446 8.82292 6.64142 8.81989 6.6384 8.81686C6.63537 8.81383 6.63234 8.81081 6.62932 8.80779C6.6263 8.80477 6.62329 8.80176 6.62028 8.79875C6.61727 8.79574 6.61427 8.79273 6.61127 8.78973C6.60827 8.78673 6.60527 8.78374 6.60228 8.78075C6.59929 8.77776 6.59631 8.77477 6.59333 8.77179C6.59035 8.76881 6.58737 8.76584 6.5844 8.76287C6.58143 8.75989 6.57846 8.75693 6.5755 8.75397C6.57254 8.75101 6.56959 8.74805 6.56664 8.7451C6.56369 8.74215 6.56074 8.73921 6.5578 8.73627C6.55486 8.73333 6.55193 8.73039 6.549 8.72746C6.54606 8.72453 6.54314 8.72161 6.54022 8.71869C6.5373 8.71576 6.53438 8.71285 6.53147 8.70994C6.52856 8.70703 6.52566 8.70413 6.52276 8.70123C6.51986 8.69833 6.51697 8.69543 6.51408 8.69254C6.51119 8.68965 6.5083 8.68677 6.50542 8.68389C6.50255 8.68101 6.49967 8.67814 6.4968 8.67527C6.49393 8.6724 6.49107 8.66954 6.48821 8.66668C6.48536 8.66382 6.4825 8.66097 6.47966 8.65812C6.47681 8.65527 6.47397 8.65243 6.47113 8.64959C6.46829 8.64676 6.46546 8.64393 6.46263 8.6411C6.45981 8.63827 6.45699 8.63545 6.45417 8.63264C6.45136 8.62982 6.44855 8.62701 6.44574 8.62421C6.44294 8.6214 6.44014 8.6186 6.43734 8.61581C6.43455 8.61301 6.43176 8.61023 6.42898 8.60744C6.42619 8.60466 6.42342 8.60188 6.42064 8.59911C6.41787 8.59634 6.41511 8.59357 6.41234 8.59081C6.40958 8.58805 6.40683 8.58529 6.40408 8.58254C6.40133 8.57979 6.39858 8.57705 6.39584 8.57431C6.3931 8.57157 6.39037 8.56884 6.38764 8.56611C6.38491 8.56338 6.38219 8.56066 6.37948 8.55794C6.37676 8.55522 6.37405 8.55251 6.37134 8.54981C6.36864 8.5471 6.36594 8.5444 6.36324 8.54171C6.36055 8.53901 6.35786 8.53633 6.35518 8.53364C6.35249 8.53096 6.34982 8.52828 6.34715 8.52561C6.34447 8.52294 6.34181 8.52027 6.33915 8.51761C6.33649 8.51495 6.33383 8.5123 6.33119 8.50965C6.32854 8.507 6.3259 8.50436 6.32326 8.50172C6.32062 8.49909 6.31799 8.49646 6.31537 8.49383C6.31274 8.49121 6.31012 8.48859 6.30751 8.48597C6.30489 8.48336 6.30229 8.48075 6.29968 8.47815C6.29708 8.47555 6.29449 8.47295 6.2919 8.47036C6.28931 8.46777 6.28672 8.46519 6.28414 8.46261C6.28157 8.46003 6.27899 8.45746 6.27643 8.45489C6.27386 8.45233 6.2713 8.44977 6.26875 8.44721C6.26619 8.44466 6.26364 8.44211 6.2611 8.43957C6.25856 8.43703 6.25602 8.43449 6.25349 8.43196C6.25096 8.42943 6.24844 8.4269 6.24592 8.42439C6.2434 8.42187 6.24089 8.41936 6.23839 8.41685C6.23588 8.41434 6.23338 8.41185 6.23089 8.40935C6.22839 8.40686 6.2259 8.40437 6.22342 8.40189C6.22094 8.39941 6.21847 8.39693 6.216 8.39446C6.21353 8.39199 6.21107 8.38953 6.20861 8.38707C6.20615 8.38462 6.2037 8.38217 6.20126 8.37972C6.19881 8.37728 6.19638 8.37484 6.19394 8.37241C6.19151 8.36998 6.18909 8.36755 6.18667 8.36513C6.18425 8.36271 6.18184 8.3603 6.17943 8.35789C6.17702 8.35549 6.17462 8.35309 6.17223 8.35069C6.16984 8.3483 6.16745 8.34591 6.16507 8.34353C6.16269 8.34115 6.16031 8.33878 6.15794 8.33641C6.15557 8.33404 6.15321 8.33168 6.15086 8.32932C6.1485 8.32697 6.14615 8.32462 6.14381 8.32227C6.14147 8.31993 6.13913 8.3176 6.1368 8.31527C6.13447 8.31294 6.13215 8.31061 6.12983 8.3083C6.12751 8.30598 6.1252 8.30367 6.1229 8.30137C6.1206 8.29906 6.1183 8.29677 6.11601 8.29447C6.11372 8.29218 6.11143 8.2899 6.10916 8.28762C6.10688 8.28535 6.10461 8.28307 6.10234 8.28081C6.10008 8.27855 6.09782 8.27629 6.09557 8.27404C6.09332 8.27179 6.09108 8.26954 6.08884 8.26731C6.0866 8.26507 6.08437 8.26284 6.08215 8.26061C6.07992 8.25839 6.07771 8.25617 6.07549 8.25396C6.07328 8.25175 6.07108 8.24955 6.06888 8.24735C6.06669 8.24515 6.06449 8.24296 6.06231 8.24078C6.06013 8.23859 6.05795 8.23642 6.05578 8.23425C6.05361 8.23208 6.05145 8.22991 6.04929 8.22776C6.04713 8.2256 6.04498 8.22345 6.04284 8.22131C6.0407 8.21916 6.03856 8.21703 6.03643 8.2149C6.0343 8.21277 6.03218 8.21065 6.03007 8.20853C6.02795 8.20642 6.02584 8.20431 6.02374 8.20221C6.02164 8.20011 6.01955 8.19801 6.01746 8.19592C6.01537 8.19384 6.01329 8.19176 6.01122 8.18968C6.00914 8.18761 6.00708 8.18554 6.00502 8.18348C6.00296 8.18142 6.00091 8.17937 5.99886 8.17733C5.99682 8.17528 5.99478 8.17324 5.99275 8.17121C5.99072 8.16918 5.98869 8.16716 5.98667 8.16514C5.98466 8.16312 5.98265 8.16111 5.98064 8.15911C5.97864 8.15711 5.97665 8.15511 5.97466 8.15312C5.97267 8.15113 5.97069 8.14915 5.96871 8.14718C5.96674 8.14521 5.96477 8.14324 5.96281 8.14128C5.96085 8.13932 5.9589 8.13737 5.95696 8.13542C5.95501 8.13348 5.95307 8.13154 5.95114 8.12961C5.94921 8.12768 5.94729 8.12575 5.94537 8.12384C5.94346 8.12192 5.94155 8.12001 5.93965 8.11811C5.93774 8.11621 5.93585 8.11432 5.93396 8.11243C5.93208 8.11054 5.9302 8.10866 5.92833 8.10679C5.92645 8.10492 5.92459 8.10305 5.92273 8.1012C5.92087 8.09934 5.91902 8.09749 5.91718 8.09565C5.91534 8.09381 5.91351 8.09197 5.91168 8.09014C5.90985 8.08832 5.90803 8.0865 5.90622 8.08468C5.90441 8.08287 5.9026 8.08107 5.9008 8.07927C5.89901 8.07747 5.89722 8.07568 5.89543 8.0739C5.89365 8.07212 5.89188 8.07034 5.89011 8.06857C5.88834 8.06681 5.88658 8.06505 5.88483 8.06329C5.88308 8.06154 5.88133 8.0598 5.8796 8.05806C5.87786 8.05632 5.87613 8.05459 5.87441 8.05287C5.87269 8.05115 5.87097 8.04944 5.86927 8.04773C5.86756 8.04602 5.86586 8.04433 5.86417 8.04264C5.86248 8.04094 5.8608 8.03926 5.85912 8.03759C5.85745 8.03591 5.85578 8.03424 5.85412 8.03258C5.85246 8.03092 5.85081 8.02927 5.84916 8.02763C5.84752 8.02598 5.84588 8.02435 5.84425 8.02272C5.84262 8.02109 5.841 8.01947 5.83939 8.01785C5.83778 8.01624 5.83617 8.01464 5.83457 8.01304C5.83298 8.01144 5.83139 8.00985 5.8298 8.00827C5.82822 8.00669 5.82665 8.00512 5.82508 8.00355C5.82352 8.00198 5.82196 8.00043 5.82041 7.99888C5.81886 7.99733 5.81732 7.99578 5.81578 7.99425C5.81425 7.99272 5.81272 7.99119 5.81121 7.98967C5.80969 7.98815 5.80818 7.98664 5.80668 7.98514C5.80518 7.98364 5.80368 7.98215 5.8022 7.98066C5.80071 7.97918 5.79923 7.9777 5.79776 7.97623C5.79629 7.97476 5.79483 7.9733 5.79338 7.97184C5.79192 7.97039 5.79048 7.96895 5.78904 7.96751C5.78761 7.96607 5.78618 7.96464 5.78476 7.96322C5.78333 7.9618 5.78192 7.96039 5.78052 7.95898C5.77911 7.95758 5.77772 7.95618 5.77633 7.95479C5.77494 7.95341 5.77356 7.95203 5.77219 7.95066C5.77082 7.94928 5.76946 7.94792 5.7681 7.94657C5.76675 7.94521 5.7654 7.94386 5.76406 7.94253C5.76272 7.94119 5.76139 7.93986 5.76007 7.93854C5.75875 7.93721 5.75744 7.9359 5.75613 7.9346C5.75483 7.93329 5.75353 7.93199 5.75224 7.93071C5.75095 7.92942 5.74967 7.92814 5.7484 7.92687C5.74713 7.9256 5.74587 7.92433 5.74461 7.92308C5.74336 7.92182 5.74211 7.92058 5.74087 7.91934C5.73964 7.9181 5.73841 7.91687 5.73719 7.91565C5.73597 7.91443 5.73475 7.91322 5.73355 7.91202C5.73235 7.91081 5.73115 7.90962 5.72996 7.90843C5.72878 7.90724 5.7276 7.90607 5.72643 7.9049C5.72526 7.90373 5.7241 7.90257 5.72295 7.90141C5.7218 7.90026 5.72065 7.89912 5.71952 7.89798C5.71838 7.89685 5.71726 7.89572 5.71614 7.8946C5.71502 7.89349 5.71391 7.89238 5.71281 7.89128C5.71171 7.89018 5.71062 7.88909 5.70954 7.888C5.70845 7.88692 5.70738 7.88585 5.70632 7.88478C5.70525 7.88372 5.70419 7.88266 5.70315 7.88161C5.7021 7.88056 5.70106 7.87952 5.70003 7.87849C5.699 7.87746 5.69798 7.87644 5.69696 7.87543C5.69595 7.87442 5.69495 7.87341 5.69395 7.87242C5.69296 7.87142 5.69197 7.87044 5.69099 7.86946C5.69002 7.86848 5.68905 7.86751 5.68809 7.86655C5.68713 7.8656 5.68618 7.86464 5.68524 7.8637C5.6843 7.86276 5.68336 7.86183 5.68244 7.86091C5.68152 7.85998 5.6806 7.85907 5.6797 7.85816C5.67879 7.85726 5.67789 7.85636 5.67701 7.85547C5.67612 7.85458 5.67524 7.8537 5.67437 7.85284C5.6735 7.85197 5.67264 7.8511 5.67179 7.85025C5.67094 7.8494 5.67009 7.84856 5.66926 7.84773C5.66843 7.84689 5.6676 7.84607 5.66679 7.84525C5.66597 7.84444 5.66517 7.84363 5.66437 7.84284C5.66357 7.84204 5.66279 7.84125 5.66201 7.84047C5.66123 7.83969 5.66046 7.83893 5.6597 7.83817C5.65894 7.83741 5.65819 7.83665 5.65745 7.83591C5.65671 7.83517 5.65597 7.83444 5.65525 7.83372C5.65453 7.83299 5.65381 7.83228 5.65311 7.83157C5.6524 7.83087 5.65171 7.83017 5.65102 7.82949C5.65034 7.8288 5.64966 7.82813 5.64899 7.82746C5.64833 7.82679 5.64767 7.82613 5.64702 7.82549C5.64637 7.82484 5.64573 7.8242 5.6451 7.82357C5.64447 7.82294 5.64385 7.82232 5.64324 7.82171C5.64263 7.8211 5.64203 7.82049 5.64144 7.8199C5.64084 7.81931 5.64026 7.81873 5.63969 7.81815C5.63912 7.81758 5.63855 7.81702 5.638 7.81646C5.63744 7.81591 5.6369 7.81537 5.63636 7.81483C5.63583 7.8143 5.6353 7.81377 5.63479 7.81325C5.63427 7.81274 5.63377 7.81223 5.63327 7.81173C5.63277 7.81124 5.63229 7.81075 5.63181 7.81027C5.63133 7.8098 5.63086 7.80933 5.6304 7.80887C5.62995 7.80841 5.6295 7.80796 5.62906 7.80752C5.62862 7.80709 5.62819 7.80666 5.62777 7.80624C5.62735 7.80582 5.62694 7.80541 5.62654 7.80501C5.62614 7.80461 5.62575 7.80422 5.62537 7.80384C5.62499 7.80345 5.62462 7.80308 5.62426 7.80272C5.6239 7.80236 5.62354 7.80201 5.6232 7.80167C5.62286 7.80133 5.62253 7.801 5.62221 7.80067C5.62189 7.80035 5.62157 7.80004 5.62127 7.79974C5.62097 7.79944 5.62068 7.79914 5.6204 7.79886C5.62011 7.79858 5.61984 7.79831 5.61958 7.79804C5.61932 7.79778 5.61906 7.79753 5.61882 7.79729C5.61858 7.79704 5.61834 7.79681 5.61812 7.79659C5.6179 7.79636 5.61769 7.79615 5.61748 7.79595C5.61728 7.79575 5.61709 7.79555 5.6169 7.79537C5.61672 7.79519 5.61655 7.79501 5.61639 7.79485C5.61622 7.79469 5.61607 7.79454 5.61593 7.79439C5.61579 7.79425 5.61565 7.79412 5.61553 7.794C5.61541 7.79387 5.6153 7.79376 5.6152 7.79366C5.61509 7.79356 5.615 7.79347 5.61492 7.79338C5.61484 7.7933 5.61477 7.79323 5.6147 7.79317C5.61464 7.79311 5.61459 7.79306 5.61455 7.79302C5.61451 7.79298 5.61448 7.79294 5.61446 7.79292C5.61444 7.7929 5.61443 7.79289 4.90732 8.5ZM8.75243 13.7382C9.46958 14.242 10.3878 14.887 11.1267 15.4061C11.4961 15.6656 11.8207 15.8937 12.053 16.0568C12.1691 16.1384 12.2622 16.2038 12.3262 16.2487C12.3582 16.2712 12.3829 16.2886 12.3997 16.3004C12.4081 16.3062 12.4144 16.3107 12.4187 16.3137C12.4208 16.3152 12.4225 16.3164 12.4235 16.3171C12.4241 16.3175 12.4245 16.3178 12.4248 16.318C12.4249 16.3181 12.425 16.3182 12.4251 16.3182C12.4251 16.3182 12.4251 16.3182 12.4251 16.3183C12.4252 16.3183 12.4252 16.3183 13 15.5C13.5748 14.6817 13.5748 14.6817 13.5748 14.6817C13.5748 14.6817 13.5748 14.6817 13.5747 14.6817C13.5747 14.6816 13.5745 14.6815 13.5744 14.6814C13.5741 14.6812 13.5737 14.681 13.5732 14.6806C13.5721 14.6798 13.5705 14.6787 13.5684 14.6772C13.5641 14.6742 13.5577 14.6697 13.5493 14.6638C13.5326 14.6521 13.5078 14.6347 13.4758 14.6122C13.4118 14.5672 13.3188 14.5019 13.2027 14.4203C12.9704 14.2571 12.6458 14.0291 12.2763 13.7695C11.5374 13.2505 10.6192 12.6055 9.90209 12.1017L8.75243 13.7382ZM8.566 12.2715C7.72105 13.2634 6.63924 14.5334 5.76866 15.5555C5.33336 16.0665 4.9509 16.5155 4.67723 16.8368C4.5404 16.9974 4.43079 17.1261 4.35537 17.2146C4.31767 17.2589 4.28849 17.2931 4.26877 17.3163C4.25894 17.3278 4.25137 17.3367 4.24636 17.3426C4.24368 17.3458 4.24209 17.3476 4.24066 17.3493C4.23984 17.3503 4.23972 17.3504 4.23922 17.351C4.23914 17.3511 4.23907 17.3512 4.23901 17.3512C4.23895 17.3513 4.2389 17.3514 4.23886 17.3514C4.23882 17.3515 4.23879 17.3515 4.23877 17.3515C4.23875 17.3515 4.23874 17.3516 5 18C5.76126 18.6484 5.76127 18.6484 5.76129 18.6484C5.76131 18.6484 5.76134 18.6484 5.76138 18.6483C5.76223 18.6473 5.76081 18.649 5.76174 18.6479C5.76178 18.6478 5.76282 18.6466 5.76318 18.6462C5.76432 18.6449 5.76649 18.6423 5.76888 18.6395C5.77396 18.6335 5.78139 18.6248 5.79129 18.6132C5.81103 18.59 5.84017 18.5558 5.87788 18.5115C5.95328 18.423 6.06294 18.2943 6.19975 18.1337C6.4734 17.8124 6.85589 17.3634 7.29117 16.8524C8.16175 15.8303 9.24357 14.5603 10.0885 13.5684L8.566 12.2715ZM14.2 5C13.2727 4.62571 13.2727 4.62567 13.2727 4.62564C13.2727 4.62564 13.2727 4.62562 13.2727 4.62563C13.2727 4.62565 13.2727 4.62571 13.2726 4.62581C13.2726 4.62601 13.2724 4.62639 13.2722 4.62694C13.2718 4.62803 13.271 4.62979 13.2701 4.63222C13.2681 4.63708 13.265 4.64459 13.2609 4.65461C13.2528 4.67467 13.2404 4.70481 13.2242 4.74404C13.1918 4.82254 13.144 4.93734 13.0833 5.08059C12.9616 5.36735 12.7887 5.76676 12.5838 6.21628C12.1685 7.1273 11.642 8.1996 11.1562 8.96329L12.8438 10.0367C13.4079 9.14988 13.9814 7.97217 14.4036 7.04583C14.6175 6.57667 14.7977 6.16055 14.9245 5.86145C14.988 5.71178 15.0383 5.59107 15.0729 5.50728C15.0901 5.46538 15.1035 5.43269 15.1127 5.4102C15.1173 5.39895 15.1208 5.39025 15.1233 5.38423C15.1245 5.38121 15.1255 5.37887 15.1261 5.37721C15.1265 5.37638 15.1267 5.37572 15.1269 5.37523C15.127 5.37499 15.1271 5.37479 15.1272 5.37463C15.1272 5.37455 15.1272 5.37447 15.1273 5.37443C15.1273 5.37435 15.1273 5.37429 14.2 5ZM11.1562 8.96329C10.2812 10.339 9.72606 11.0493 8.60256 12.2309L10.0519 13.609C11.2645 12.3338 11.8993 11.5215 12.8438 10.0367L11.1562 8.96329Z" fill="#05141F"/>
<path d="M11 21L16 10C16.3905 10 16.1095 10 16.5 10L19 16M21 21L19 16M19 16H13.5" stroke="#05141F" stroke-width="2" stroke-linecap="square"/>
</svg>
