<svg width="24" height="24" viewBox="0 0 24 24" fill="none" xmlns="http://www.w3.org/2000/svg">
<path d="M11.3838 2.54541L15.1111 6.27268C13.6555 7.72827 12.8394 8.54437 11.3838 9.99996" stroke="#05141F" stroke-width="2" stroke-linecap="square" stroke-linejoin="round"/>
<path d="M15.1134 20.2695L14.2179 20.7147L15.1082 22.5056L16.0037 22.0605L15.1134 20.2695ZM5.23864 12.1881C6.23923 8.45387 10.0776 6.23779 13.8118 7.23838L14.3295 5.30653C9.52829 4.02005 4.59326 6.8693 3.30678 11.6705L5.23864 12.1881ZM17.6401 9.85317C18.1543 10.5536 18.5367 11.3464 18.7633 12.1893L20.6947 11.6701C20.4034 10.5864 19.9122 9.56859 19.2523 8.66962L17.6401 9.85317ZM19.0018 14.0634C18.9961 14.6401 18.9184 15.2264 18.7616 15.8116L20.6934 16.3292C20.8941 15.5803 20.9943 14.8266 21.0017 14.0832L19.0018 14.0634ZM18.7616 15.8116C18.6847 16.0987 18.5912 16.3763 18.4824 16.644L20.3354 17.3967C20.4752 17.0526 20.5951 16.6964 20.6934 16.3292L18.7616 15.8116ZM17.5911 18.2153C16.9321 19.0887 16.0796 19.7892 15.1134 20.2695L16.0037 22.0605C17.2433 21.4443 18.3389 20.5447 19.1876 19.42L17.5911 18.2153ZM12.8553 20.9496C11.9889 21.0565 11.0868 21.0021 10.1884 20.7613L9.67074 22.6932C10.8218 23.0016 11.983 23.0724 13.1004 22.9345L12.8553 20.9496ZM8.55436 20.0953C5.83901 18.5631 4.39479 15.3374 5.23864 12.1881L3.30678 11.6705C2.22104 15.7226 4.08081 19.8675 7.57153 21.8371L8.55436 20.0953Z" fill="#05141F"/>
</svg>
