<svg width="24" height="24" viewBox="0 0 24 24" fill="none" xmlns="http://www.w3.org/2000/svg">
<path fill-rule="evenodd" clip-rule="evenodd" d="M12.0001 18.3636C12.0001 18.3636 12.7173 17.8134 13.6702 16.8921C14.1084 16.4684 14.5966 15.9662 15.0877 15.4029C16.7094 13.5429 18.3637 11.0171 18.3637 8.45324C18.3637 4.30473 15.5146 2 12.0001 2C8.48556 2 5.63647 4.30473 5.63647 8.45324C5.63647 13.4817 12.0001 18.3636 12.0001 18.3636Z" stroke="#05141F" stroke-width="2" stroke-linejoin="round"/>
<path d="M13.4482 17.5724C14.6096 17.7674 15.5616 18.1907 16.0909 18.7355C16.3821 19.0352 16.5455 19.3717 16.5455 19.7273C16.5455 20.9825 14.5104 22.0001 12 22.0001C9.48965 22.0001 7.45459 20.9825 7.45459 19.7273C7.45459 18.7253 8.75153 17.8747 10.5519 17.5724" stroke="#05141F" stroke-width="2" stroke-linejoin="round"/>
<circle cx="12.0001" cy="8.36359" r="2.00006" fill="#05141F"/>
</svg>
