<svg width="24" height="24" viewBox="0 0 24 24" fill="none" xmlns="http://www.w3.org/2000/svg">
<path d="M4 22H3C3 22.5523 3.44772 23 4 23V22ZM4 9V8C3.44772 8 3 8.44772 3 9H4ZM20 9H21C21 8.44772 20.5523 8 20 8V9ZM20 22V23C20.5523 23 21 22.5523 21 22H20ZM17.4444 6.5C17.4444 3.47418 15.0186 1 12 1V3C13.8906 3 15.4444 4.55525 15.4444 6.5H17.4444ZM12 1C8.98144 1 6.55555 3.47418 6.55555 6.5H8.55555C8.55555 4.55525 10.1094 3 12 3V1ZM15.4444 6.5V9H17.4444V6.5H15.4444ZM6.55555 6.5V9H8.55555V6.5H6.55555ZM5 22V9H3V22H5ZM4 10H20V8H4V10ZM19 9V22H21V9H19ZM20 21H4V23H20V21Z" fill="#05141F"/>
<circle cx="12" cy="14.5" r="1.5" fill="#05141F"/>
<path d="M12 15V17" stroke="#05141F" stroke-width="2" stroke-linecap="square"/>
</svg>
