<svg width="24" height="24" viewBox="0 0 24 24" fill="none" xmlns="http://www.w3.org/2000/svg">
<path d="M18.0902 18.5639C16.5124 19.1598 13.8757 18.5639 12.4141 15.7089M6.18386 4.0796C8.7357 3.16789 12.8283 1.70623 18.5774 3.94741M20.0391 9.30679C19.5518 8.78321 16.3363 4.92187 11.7712 5.3727C8.03196 5.74196 5.42259 8.29599 3.96094 9.75764M5.42256 17.1023C4.93534 15.1534 5.08667 12.9311 6.03157 11.2557C7.2127 9.16136 9.99587 7.06215 13.7052 7.84515C17.0282 8.54658 18.9628 11.6454 19.2596 13.1071C19.732 15.4341 17.8953 16.0449 16.9209 16.0304C15.9465 16.0158 14.9194 15.308 14.3696 14.179C13.7052 12.8148 12.9459 11.9876 11.5349 12.3901C9.80884 12.8824 9.41042 14.5687 9.90502 16.0304C10.3775 17.4266 11.5349 19.4265 14.3696 20.7673M16.6285 13.2045C15.6541 11.7429 14.6011 9.55008 11.7711 9.83038C7.21916 10.2812 7.37142 14.9402 7.85863 16.615C8.20941 17.8208 9.8075 21 9.8075 21" stroke="#05141F" stroke-width="1.5" stroke-linecap="square"/>
</svg>
