<svg width="24" height="24" viewBox="0 0 24 24" fill="none" xmlns="http://www.w3.org/2000/svg">
<path d="M8 17V16C7.44772 16 7 16.4477 7 17H8ZM20 17H21C21 16.4477 20.5523 16 20 16V17ZM7 17V19H9V17H7ZM7 19C7 19.1748 6.90255 19.4332 6.66788 19.6679C6.43321 19.9026 6.17474 20 6 20V22C6.82521 22 7.56674 21.5974 8.08208 21.0821C8.59743 20.5668 9 19.8252 9 19H7ZM6 20C5.99609 20 5.99224 20 5.98845 20C5.98466 20 5.98093 20 5.97725 20C5.97357 20 5.96995 20 5.96638 20C5.96282 20 5.95931 20 5.95586 20C5.95241 20 5.94901 20 5.94567 20C5.94233 20 5.93905 20 5.93582 20C5.9326 20 5.92943 20 5.92631 20C5.9232 20 5.92014 20 5.91713 20C5.91413 20 5.91118 20 5.90829 20C5.9054 20 5.90256 20 5.89978 20C5.897 20 5.89427 20 5.8916 20C5.88893 20 5.88631 20 5.88375 20C5.88118 20 5.87868 20 5.87623 20C5.87377 20 5.87137 20 5.86903 20C5.86669 20 5.8644 20 5.86216 20C5.85993 20 5.85775 20 5.85562 20C5.85349 20 5.85142 20 5.8494 20C5.84738 20 5.84542 20 5.84351 20C5.8416 20 5.83974 20 5.83793 20C5.83613 20 5.83438 20 5.83268 20C5.83098 20 5.82934 20 5.82775 20C5.82615 20 5.82462 20 5.82313 20C5.82164 20 5.82021 20 5.81883 20C5.81745 20 5.81612 20 5.81485 20C5.81357 20 5.81235 20 5.81118 20C5.81001 20 5.80889 20 5.80782 20C5.80675 20 5.80574 20 5.80478 20C5.80381 20 5.8029 20 5.80204 20C5.80118 20 5.80037 20 5.79962 20C5.79886 20 5.79816 20 5.7975 20C5.79685 20 5.79624 20 5.79569 20C5.79514 20 5.79464 20 5.79419 20C5.79374 20 5.79334 20 5.79299 20C5.79264 20 5.79234 20 5.7921 20C5.79185 20 5.79165 20 5.7915 20C5.79136 20 5.79126 20 5.79121 20C5.79117 21 5.79117 22 5.79122 22C5.79127 22 5.79138 22 5.79153 22C5.79168 22 5.79188 22 5.79213 22C5.79238 22 5.79268 22 5.79303 22C5.79338 22 5.79378 22 5.79423 22C5.79468 22 5.79517 22 5.79572 22C5.79626 22 5.79686 22 5.7975 22C5.79814 22 5.79884 22 5.79958 22C5.80032 22 5.8011 22 5.80194 22C5.80278 22 5.80366 22 5.80459 22C5.80552 22 5.80651 22 5.80753 22C5.80856 22 5.80964 22 5.81076 22C5.81188 22 5.81306 22 5.81427 22C5.81549 22 5.81676 22 5.81807 22C5.81938 22 5.82074 22 5.82215 22C5.82356 22 5.82501 22 5.82651 22C5.82801 22 5.82956 22 5.83115 22C5.83275 22 5.83439 22 5.83608 22C5.83776 22 5.8395 22 5.84128 22C5.84306 22 5.84488 22 5.84675 22C5.84862 22 5.85054 22 5.85251 22C5.85447 22 5.85648 22 5.85853 22C5.86059 22 5.86269 22 5.86483 22C5.86698 22 5.86917 22 5.8714 22C5.87364 22 5.87592 22 5.87825 22C5.88057 22 5.88295 22 5.88536 22C5.88778 22 5.89024 22 5.89274 22C5.89525 22 5.8978 22 5.90039 22C5.90299 22 5.90562 22 5.90831 22C5.91099 22 5.91372 22 5.91649 22C5.91926 22 5.92207 22 5.92493 22C5.92779 22 5.93069 22 5.93363 22C5.93658 22 5.93957 22 5.9426 22C5.94563 22 5.94871 22 5.95183 22C5.95495 22 5.95811 22 5.96131 22C5.96452 22 5.96777 22 5.97106 22C5.97435 22 5.97768 22 5.98106 22C5.98443 22 5.98785 22 5.99131 22C5.99477 22 5.99828 22 6.00182 22C6.00537 22 6.00896 22 6.01258 22C6.01621 22 6.01989 22 6.0236 22C6.02731 22 6.03107 22 6.03486 22C6.03866 22 6.0425 22 6.04638 22C6.05025 22 6.05418 22 6.05814 22C6.0621 22 6.0661 22 6.07014 22C6.07419 22 6.07827 22 6.0824 22C6.08652 22 6.09069 22 6.0949 22C6.0991 22 6.10335 22 6.10764 22C6.11192 22 6.11625 22 6.12062 22C6.12499 22 6.1294 22 6.13384 22C6.13829 22 6.14278 22 6.14731 22C6.15183 22 6.1564 22 6.16101 22C6.16561 22 6.17026 22 6.17495 22C6.17963 22 6.18436 22 6.18912 22C6.19388 22 6.19869 22 6.20353 22C6.20837 22 6.21325 22 6.21817 22C6.22309 22 6.22805 22 6.23305 22C6.23804 22 6.24308 22 6.24815 22C6.25323 22 6.25834 22 6.26349 22C6.26864 22 6.27383 22 6.27905 22C6.28428 22 6.28954 22 6.29485 22C6.30015 22 6.30549 22 6.31086 22C6.31624 22 6.32166 22 6.32711 22C6.33256 22 6.33805 22 6.34357 22C6.3491 22 6.35466 22 6.36026 22C6.36586 22 6.3715 22 6.37718 22C6.38285 22 6.38856 22 6.39431 22C6.40005 22 6.40584 22 6.41166 22C6.41748 22 6.42333 22 6.42922 22C6.43512 22 6.44105 22 6.44701 22C6.45297 22 6.45897 22 6.46501 22C6.47105 22 6.47712 22 6.48322 22C6.48933 22 6.49547 22 6.50165 22C6.50783 22 6.51404 22 6.52029 22C6.52654 22 6.53282 22 6.53914 22C6.54546 22 6.55181 22 6.5582 22C6.56459 22 6.57101 22 6.57747 22C6.58392 22 6.59041 22 6.59694 22C6.60347 22 6.61003 22 6.61662 22C6.62321 22 6.62984 22 6.6365 22C6.64317 22 6.64986 22 6.65659 22C6.66332 22 6.67008 22 6.67688 22C6.68368 22 6.69051 22 6.69737 22C6.70423 22 6.71113 22 6.71806 22C6.72499 22 6.73195 22 6.73895 22C6.74595 22 6.75297 22 6.76004 22C6.7671 22 6.77419 22 6.78132 22C6.78844 22 6.7956 22 6.80279 22C6.80999 22 6.81721 22 6.82447 22C6.83172 22 6.83901 22 6.84633 22C6.85365 22 6.861 22 6.86838 22C6.87577 22 6.88318 22 6.89063 22C6.89807 22 6.90555 22 6.91306 22C6.92057 22 6.92811 22 6.93568 22C6.94325 22 6.95085 22 6.95849 22C6.96612 22 6.97379 22 6.98148 22C6.98918 22 6.9969 22 7.00466 22C7.01241 22 7.0202 22 7.02802 22C7.03583 22 7.04368 22 7.05156 22C7.05943 22 7.06734 22 7.07528 22C7.08321 22 7.09118 22 7.09918 22C7.10717 22 7.1152 22 7.12326 22C7.13131 22 7.1394 22 7.14751 22C7.15563 22 7.16377 22 7.17194 22C7.18011 22 7.18832 22 7.19655 22C7.20478 22 7.21304 22 7.22132 22C7.22961 22 7.23793 22 7.24627 22C7.25462 22 7.26299 22 7.2714 22C7.2798 22 7.28823 22 7.29669 22C7.30514 22 7.31363 22 7.32214 22C7.33066 22 7.3392 22 7.34777 22C7.35634 22 7.36494 22 7.37356 22C7.38219 22 7.39084 22 7.39952 22C7.4082 22 7.4169 22 7.42564 22C7.43437 22 7.44313 22 7.45192 22C7.46071 22 7.46952 22 7.47836 22C7.4872 22 7.49607 22 7.50496 22C7.51386 22 7.52278 22 7.53173 22C7.54067 22 7.54965 22 7.55865 22C7.56764 22 7.57667 22 7.58572 22C7.59477 22 7.60385 22 7.61295 22C7.62205 22 7.63118 22 7.64033 22C7.64949 22 7.65867 22 7.66787 22C7.67708 22 7.68631 22 7.69556 22C7.70481 22 7.71409 22 7.7234 22C7.7327 22 7.74203 22 7.75139 22C7.76074 22 7.77012 22 7.77952 22C7.78892 22 7.79835 22 7.8078 22C7.81725 22 7.82673 22 7.83623 22C7.84573 22 7.85525 22 7.8648 22C7.87435 22 7.88392 22 7.89351 22C7.90311 22 7.91273 22 7.92237 22C7.93201 22 7.94168 22 7.95137 22C7.96106 22 7.97077 22 7.9805 22C7.99024 22 8 22 8.00978 22C8.01956 22 8.02936 22 8.03919 22C8.04901 22 8.05886 22 8.06873 22C8.07861 22 8.0885 22 8.09842 22C8.10833 22 8.11827 22 8.12823 22C8.13819 22 8.14817 22 8.15818 22C8.16818 22 8.17821 22 8.18825 22C8.1983 22 8.20837 22 8.21846 22C8.22855 22 8.23866 22 8.2488 22C8.25893 22 8.26908 22 8.27926 22C8.28943 22 8.29963 22 8.30985 22C8.32007 22 8.3303 22 8.34056 22C8.35082 22 8.3611 22 8.3714 22C8.3817 22 8.39202 22 8.40236 22C8.4127 22 8.42306 22 8.43344 22C8.44382 22 8.45422 22 8.46464 22C8.47506 22 8.4855 22 8.49596 22C8.50642 22 8.5169 22 8.5274 22C8.5379 22 8.54842 22 8.55895 22C8.56949 22 8.58005 22 8.59062 22C8.6012 22 8.61179 22 8.6224 22C8.63302 22 8.64365 22 8.6543 22C8.66495 22 8.67562 22 8.68631 22C8.697 22 8.7077 22 8.71843 22C8.72915 22 8.73989 22 8.75065 22C8.76141 22 8.77219 22 8.78299 22C8.79378 22 8.8046 22 8.81543 22C8.82626 22 8.83711 22 8.84798 22C8.85884 22 8.86973 22 8.88063 22C8.89153 22 8.90245 22 8.91338 22C8.92432 22 8.93527 22 8.94624 22C8.95721 22 8.9682 22 8.9792 22C8.9902 22 9.00122 22 9.01225 22C9.02329 22 9.03434 22 9.04541 22C9.05648 22 9.06756 22 9.07866 22C9.08976 22 9.10088 22 9.11201 22C9.12314 22 9.13429 22 9.14545 22C9.15662 22 9.1678 22 9.17899 22C9.19018 22 9.20139 22 9.21262 22C9.22384 22 9.23508 22 9.24634 22C9.25759 22 9.26886 22 9.28015 22C9.29143 22 9.30273 22 9.31405 22C9.32536 22 9.33669 22 9.34803 22C9.35937 22 9.37073 22 9.3821 22C9.39348 22 9.40486 22 9.41626 22C9.42766 22 9.43907 22 9.4505 22C9.46193 22 9.47337 22 9.48482 22C9.49628 22 9.50775 22 9.51923 22C9.53071 22 9.54221 22 9.55371 22C9.56522 22 9.57674 22 9.58828 22C9.59981 22 9.61136 22 9.62292 22C9.63448 22 9.64605 22 9.65764 22C9.66922 22 9.68082 22 9.69243 22C9.70404 22 9.71567 22 9.7273 22C9.73893 22 9.75058 22 9.76224 22C9.7739 22 9.78557 22 9.79725 22C9.80894 22 9.82063 22 9.83234 22C9.84404 22 9.85576 22 9.86749 22C9.87922 22 9.89096 22 9.90271 22C9.91446 22 9.92622 22 9.938 22C9.94977 22 9.96156 22 9.97335 22C9.98515 22 9.99695 22 10.0088 22C10.0206 22 10.0324 22 10.0442 22C10.0561 22 10.0679 22 10.0798 22C10.0916 22 10.1035 22 10.1154 22C10.1273 22 10.1392 22 10.1511 22C10.163 22 10.1749 22 10.1868 22C10.1987 22 10.2106 22 10.2226 22C10.2345 22 10.2464 22 10.2584 22C10.2704 22 10.2823 22 10.2943 22C10.3063 22 10.3182 22 10.3302 22C10.3422 22 10.3542 22 10.3662 22C10.3782 22 10.3903 22 10.4023 22C10.4143 22 10.4263 22 10.4384 22C10.4504 22 10.4625 22 10.4745 22C10.4866 22 10.4986 22 10.5107 22C10.5228 22 10.5349 22 10.547 22C10.559 22 10.5711 22 10.5832 22C10.5953 22 10.6075 22 10.6196 22C10.6317 22 10.6438 22 10.6559 22C10.6681 22 10.6802 22 10.6924 22C10.7045 22 10.7167 22 10.7288 22C10.741 22 10.7531 22 10.7653 22C10.7775 22 10.7897 22 10.8018 22C10.814 22 10.8262 22 10.8384 22C10.8506 22 10.8628 22 10.875 22C10.8872 22 10.8994 22 10.9116 22C10.9239 22 10.9361 22 10.9483 22C10.9605 22 10.9728 22 10.985 22C10.9973 22 11.0095 22 11.0218 22C11.034 22 11.0463 22 11.0585 22C11.0708 22 11.083 22 11.0953 22C11.1076 22 11.1198 22 11.1321 22C11.1444 22 11.1567 22 11.169 22C11.1813 22 11.1935 22 11.2058 22C11.2181 22 11.2304 22 11.2427 22C11.255 22 11.2673 22 11.2796 22C11.292 22 11.3043 22 11.3166 22C11.3289 22 11.3412 22 11.3535 22C11.3659 22 11.3782 22 11.3905 22C11.4028 22 11.4152 22 11.4275 22C11.4398 22 11.4522 22 11.4645 22C11.4769 22 11.4892 22 11.5015 22C11.5139 22 11.5262 22 11.5386 22C11.5509 22 11.5633 22 11.5756 22C11.588 22 11.6003 22 11.6127 22C11.625 22 11.6374 22 11.6498 22C11.6621 22 11.6745 22 11.6868 22C11.6992 22 11.7116 22 11.7239 22C11.7363 22 11.7487 22 11.761 22C11.7734 22 11.7858 22 11.7981 22C11.8105 22 11.8229 22 11.8352 22C11.8476 22 11.86 22 11.8723 22C11.8847 22 11.8971 22 11.9094 22C11.9218 22 11.9342 22 11.9465 22C11.9589 22 11.9713 22 11.9837 22C11.996 22 12.0084 22 12.0208 22C12.0331 22 12.0455 22 12.0579 22C12.0702 22 12.0826 22 12.095 22C12.1073 22 12.1197 22 12.1321 22C12.1444 22 12.1568 22 12.1691 22C12.1815 22 12.1939 22 12.2062 22C12.2186 22 12.2309 22 12.2433 22C12.2557 22 12.268 22 12.2804 22C12.2927 22 12.3051 22 12.3174 22C12.3298 22 12.3421 22 12.3544 22C12.3668 22 12.3791 22 12.3915 22C12.4038 22 12.4161 22 12.4285 22C12.4408 22 12.4531 22 12.4655 22C12.4778 22 12.4901 22 12.5024 22C12.5148 22 12.5271 22 12.5394 22C12.5517 22 12.564 22 12.5763 22C12.5886 22 12.6009 22 12.6132 22C12.6255 22 12.6378 22 12.6501 22C12.6624 22 12.6747 22 12.687 22C12.6993 22 12.7116 22 12.7238 22C12.7361 22 12.7484 22 12.7606 22C12.7729 22 12.7852 22 12.7974 22C12.8097 22 12.8219 22 12.8342 22C12.8464 22 12.8587 22 12.8709 22C12.8832 22 12.8954 22 12.9076 22C12.9199 22 12.9321 22 12.9443 22C12.9565 22 12.9687 22 12.9809 22C12.9931 22 13.0053 22 13.0175 22C13.0297 22 13.0419 22 13.0541 22C13.0663 22 13.0785 22 13.0906 22C13.1028 22 13.115 22 13.1271 22C13.1393 22 13.1514 22 13.1636 22C13.1757 22 13.1878 22 13.2 22C13.2121 22 13.2242 22 13.2363 22C13.2485 22 13.2606 22 13.2727 22C13.2848 22 13.2969 22 13.3089 22C13.321 22 13.3331 22 13.3452 22C13.3572 22 13.3693 22 13.3814 22C13.3934 22 13.4055 22 13.4175 22C13.4295 22 13.4416 22 13.4536 22C13.4656 22 13.4776 22 13.4896 22C13.5016 22 13.5136 22 13.5256 22C13.5376 22 13.5496 22 13.5616 22C13.5735 22 13.5855 22 13.5975 22C13.6094 22 13.6213 22 13.6333 22C13.6452 22 13.6571 22 13.6691 22C13.681 22 13.6929 22 13.7048 22C13.7167 22 13.7286 22 13.7404 22C13.7523 22 13.7642 22 13.776 22C13.7879 22 13.7997 22 13.8116 22C13.8234 22 13.8352 22 13.847 22C13.8589 22 13.8707 22 13.8824 22C13.8942 22 13.906 22 13.9178 22C13.9296 22 13.9413 22 13.9531 22C13.9648 22 13.9766 22 13.9883 22C14 22 14.0117 22 14.0234 22C14.0351 22 14.0468 22 14.0585 22C14.0702 22 14.0819 22 14.0935 22C14.1052 22 14.1168 22 14.1284 22C14.1401 22 14.1517 22 14.1633 22C14.1749 22 14.1865 22 14.1981 22C14.2097 22 14.2212 22 14.2328 22C14.2444 22 14.2559 22 14.2674 22C14.279 22 14.2905 22 14.302 22C14.3135 22 14.325 22 14.3365 22C14.3479 22 14.3594 22 14.3709 22C14.3823 22 14.3937 22 14.4052 22C14.4166 22 14.428 22 14.4394 22C14.4508 22 14.4622 22 14.4736 22C14.4849 22 14.4963 22 14.5076 22C14.519 22 14.5303 22 14.5416 22C14.5529 22 14.5642 22 14.5755 22C14.5868 22 14.598 22 14.6093 22C14.6205 22 14.6318 22 14.643 22C14.6542 22 14.6654 22 14.6766 22C14.6878 22 14.699 22 14.7101 22C14.7213 22 14.7324 22 14.7436 22C14.7547 22 14.7658 22 14.7769 22C14.788 22 14.7991 22 14.8101 22C14.8212 22 14.8323 22 14.8433 22C14.8543 22 14.8653 22 14.8763 22C14.8873 22 14.8983 22 14.9093 22C14.9202 22 14.9312 22 14.9421 22C14.9531 22 14.964 22 14.9749 22C14.9858 22 14.9966 22 15.0075 22C15.0184 22 15.0292 22 15.04 22C15.0509 22 15.0617 22 15.0725 22C15.0833 22 15.094 22 15.1048 22C15.1156 22 15.1263 22 15.137 22C15.1477 22 15.1584 22 15.1691 22C15.1798 22 15.1905 22 15.2011 22C15.2118 22 15.2224 22 15.233 22C15.2436 22 15.2542 22 15.2648 22C15.2753 22 15.2859 22 15.2964 22C15.307 22 15.3175 22 15.328 22C15.3385 22 15.3489 22 15.3594 22C15.3698 22 15.3803 22 15.3907 22C15.4011 22 15.4115 22 15.4219 22C15.4323 22 15.4426 22 15.453 22C15.4633 22 15.4736 22 15.4839 22C15.4942 22 15.5045 22 15.5147 22C15.525 22 15.5352 22 15.5454 22C15.5556 22 15.5658 22 15.576 22C15.5862 22 15.5963 22 15.6064 22C15.6166 22 15.6267 22 15.6368 22C15.6469 22 15.6569 22 15.667 22C15.677 22 15.687 22 15.697 22C15.707 22 15.717 22 15.727 22C15.7369 22 15.7468 22 15.7568 22C15.7667 22 15.7766 22 15.7864 22C15.7963 22 15.8061 22 15.816 22C15.8258 22 15.8356 22 15.8453 22C15.8551 22 15.8649 22 15.8746 22C15.8843 22 15.894 22 15.9037 22C15.9134 22 15.9231 22 15.9327 22C15.9423 22 15.952 22 15.9615 22C15.9711 22 15.9807 22 15.9902 22C15.9998 22 16.0093 22 16.0188 22C16.0283 22 16.0378 22 16.0472 22C16.0567 22 16.0661 22 16.0755 22C16.0849 22 16.0942 22 16.1036 22C16.1129 22 16.1223 22 16.1316 22C16.1409 22 16.1501 22 16.1594 22C16.1686 22 16.1779 22 16.1871 22C16.1963 22 16.2054 22 16.2146 22C16.2237 22 16.2329 22 16.2419 22C16.251 22 16.2601 22 16.2692 22C16.2782 22 16.2872 22 16.2962 22C16.3052 22 16.3142 22 16.3231 22C16.3321 22 16.341 22 16.3499 22C16.3588 22 16.3676 22 16.3764 22C16.3853 22 16.3941 22 16.4029 22C16.4117 22 16.4204 22 16.4291 22C16.4379 22 16.4466 22 16.4552 22C16.4639 22 16.4726 22 16.4812 22C16.4898 22 16.4984 22 16.507 22C16.5155 22 16.5241 22 16.5326 22C16.5411 22 16.5495 22 16.558 22C16.5665 22 16.5749 22 16.5833 22C16.5917 22 16.6 22 16.6084 22C16.6167 22 16.625 22 16.6333 22C16.6416 22 16.6498 22 16.6581 22C16.6663 22 16.6745 22 16.6826 22C16.6908 22 16.699 22 16.7071 22C16.7152 22 16.7232 22 16.7313 22C16.7393 22 16.7474 22 16.7554 22C16.7633 22 16.7713 22 16.7792 22C16.7872 22 16.7951 22 16.8029 22C16.8108 22 16.8186 22 16.8265 22C16.8343 22 16.842 22 16.8498 22C16.8575 22 16.8653 22 16.8729 22C16.8806 22 16.8883 22 16.8959 22C16.9035 22 16.9111 22 16.9187 22C16.9263 22 16.9338 22 16.9413 22C16.9488 22 16.9563 22 16.9637 22C16.9712 22 16.9786 22 16.9859 22C16.9933 22 17.0007 22 17.008 22C17.0153 22 17.0226 22 17.0298 22C17.0371 22 17.0443 22 17.0515 22C17.0587 22 17.0658 22 17.0729 22C17.08 22 17.0871 22 17.0942 22C17.1012 22 17.1083 22 17.1152 22C17.1222 22 17.1292 22 17.1361 22C17.143 22 17.1499 22 17.1568 22C17.1636 22 17.1705 22 17.1772 22C17.184 22 17.1908 22 17.1975 22C17.2042 22 17.2109 22 17.2176 22C17.2242 22 17.2309 22 17.2374 22C17.244 22 17.2506 22 17.2571 22C17.2636 22 17.2701 22 17.2766 22C17.283 22 17.2894 22 17.2958 22C17.3022 22 17.3085 22 17.3148 22C17.3211 22 17.3274 22 17.3337 22C17.3399 22 17.3461 22 17.3523 22C17.3584 22 17.3646 22 17.3707 22C17.3768 22 17.3828 22 17.3889 22C17.3949 22 17.4009 22 17.4068 22C17.4128 22 17.4187 22 17.4246 22C17.4305 22 17.4363 22 17.4421 22C17.448 22 17.4537 22 17.4595 22C17.4652 22 17.4709 22 17.4766 22C17.4822 22 17.4879 22 17.4935 22C17.4991 22 17.5046 22 17.5101 22C17.5156 22 17.5211 22 17.5266 22C17.532 22 17.5374 22 17.5428 22C17.5482 22 17.5535 22 17.5588 22C17.5641 22 17.5693 22 17.5746 22C17.5798 22 17.5849 22 17.5901 22C17.5952 22 17.6003 22 17.6054 22C17.6105 22 17.6155 22 17.6205 22C17.6255 22 17.6304 22 17.6353 22C17.6402 22 17.6451 22 17.6499 22C17.6548 22 17.6596 22 17.6643 22C17.6691 22 17.6738 22 17.6785 22C17.6832 22 17.6878 22 17.6924 22C17.697 22 17.7015 22 17.7061 22C17.7106 22 17.7151 22 17.7195 22C17.7239 22 17.7283 22 17.7327 22C17.7371 22 17.7414 22 17.7457 22C17.7499 22 17.7542 22 17.7584 22C17.7626 22 17.7667 22 17.7708 22C17.775 22 17.779 22 17.7831 22C17.7871 22 17.7911 22 17.795 22C17.799 22 17.8029 22 17.8068 22C17.8107 22 17.8145 22 17.8183 22C17.8221 22 17.8258 22 17.8295 22C17.8332 22 17.8369 22 17.8405 22C17.8441 22 17.8477 22 17.8512 22C17.8548 22 17.8583 22 17.8617 22C17.8652 22 17.8686 22 17.8719 22C17.8753 22 17.8786 22 17.8819 22C17.8852 22 17.8884 22 17.8916 22C17.8948 22 17.898 22 17.9011 22C17.9042 22 17.9072 22 17.9103 22C17.9133 22 17.9163 22 17.9192 22C17.9221 22 17.925 22 17.9279 22C17.9307 22 17.9335 22 17.9363 22C17.9391 22 17.9418 22 17.9445 22C17.9471 22 17.9498 22 17.9523 22C17.9549 22 17.9575 22 17.96 22C17.9625 22 17.9649 22 17.9673 22C17.9697 22 17.9721 22 17.9744 22C17.9767 22 17.979 22 17.9812 22C17.9834 22 17.9856 22 17.9877 22C17.9899 22 17.992 22 17.994 22C17.9961 22 17.9981 22 18 22V20C17.9981 20 17.9961 20 17.994 20C17.992 20 17.9899 20 17.9877 20C17.9856 20 17.9834 20 17.9812 20C17.979 20 17.9767 20 17.9744 20C17.9721 20 17.9697 20 17.9673 20C17.9649 20 17.9625 20 17.96 20C17.9575 20 17.9549 20 17.9523 20C17.9498 20 17.9471 20 17.9445 20C17.9418 20 17.9391 20 17.9363 20C17.9335 20 17.9307 20 17.9279 20C17.925 20 17.9221 20 17.9192 20C17.9163 20 17.9133 20 17.9103 20C17.9072 20 17.9042 20 17.9011 20C17.898 20 17.8948 20 17.8916 20C17.8884 20 17.8852 20 17.8819 20C17.8786 20 17.8753 20 17.8719 20C17.8686 20 17.8652 20 17.8617 20C17.8583 20 17.8548 20 17.8512 20C17.8477 20 17.8441 20 17.8405 20C17.8369 20 17.8332 20 17.8295 20C17.8258 20 17.8221 20 17.8183 20C17.8145 20 17.8107 20 17.8068 20C17.8029 20 17.799 20 17.795 20C17.7911 20 17.7871 20 17.7831 20C17.779 20 17.775 20 17.7708 20C17.7667 20 17.7626 20 17.7584 20C17.7542 20 17.7499 20 17.7457 20C17.7414 20 17.7371 20 17.7327 20C17.7283 20 17.7239 20 17.7195 20C17.7151 20 17.7106 20 17.7061 20C17.7015 20 17.697 20 17.6924 20C17.6878 20 17.6832 20 17.6785 20C17.6738 20 17.6691 20 17.6643 20C17.6596 20 17.6548 20 17.6499 20C17.6451 20 17.6402 20 17.6353 20C17.6304 20 17.6255 20 17.6205 20C17.6155 20 17.6105 20 17.6054 20C17.6003 20 17.5952 20 17.5901 20C17.5849 20 17.5798 20 17.5746 20C17.5693 20 17.5641 20 17.5588 20C17.5535 20 17.5482 20 17.5428 20C17.5374 20 17.532 20 17.5266 20C17.5211 20 17.5156 20 17.5101 20C17.5046 20 17.4991 20 17.4935 20C17.4879 20 17.4822 20 17.4766 20C17.4709 20 17.4652 20 17.4595 20C17.4537 20 17.448 20 17.4421 20C17.4363 20 17.4305 20 17.4246 20C17.4187 20 17.4128 20 17.4068 20C17.4009 20 17.3949 20 17.3889 20C17.3828 20 17.3768 20 17.3707 20C17.3646 20 17.3584 20 17.3523 20C17.3461 20 17.3399 20 17.3337 20C17.3274 20 17.3211 20 17.3148 20C17.3085 20 17.3022 20 17.2958 20C17.2894 20 17.283 20 17.2766 20C17.2701 20 17.2636 20 17.2571 20C17.2506 20 17.244 20 17.2374 20C17.2309 20 17.2242 20 17.2176 20C17.2109 20 17.2042 20 17.1975 20C17.1908 20 17.184 20 17.1772 20C17.1705 20 17.1636 20 17.1568 20C17.1499 20 17.143 20 17.1361 20C17.1292 20 17.1222 20 17.1152 20C17.1083 20 17.1012 20 17.0942 20C17.0871 20 17.08 20 17.0729 20C17.0658 20 17.0587 20 17.0515 20C17.0443 20 17.0371 20 17.0298 20C17.0226 20 17.0153 20 17.008 20C17.0007 20 16.9933 20 16.9859 20C16.9786 20 16.9712 20 16.9637 20C16.9563 20 16.9488 20 16.9413 20C16.9338 20 16.9263 20 16.9187 20C16.9111 20 16.9035 20 16.8959 20C16.8883 20 16.8806 20 16.8729 20C16.8653 20 16.8575 20 16.8498 20C16.842 20 16.8343 20 16.8265 20C16.8186 20 16.8108 20 16.8029 20C16.7951 20 16.7872 20 16.7792 20C16.7713 20 16.7633 20 16.7554 20C16.7474 20 16.7393 20 16.7313 20C16.7232 20 16.7152 20 16.7071 20C16.699 20 16.6908 20 16.6826 20C16.6745 20 16.6663 20 16.6581 20C16.6498 20 16.6416 20 16.6333 20C16.625 20 16.6167 20 16.6084 20C16.6 20 16.5917 20 16.5833 20C16.5749 20 16.5665 20 16.558 20C16.5495 20 16.5411 20 16.5326 20C16.5241 20 16.5155 20 16.507 20C16.4984 20 16.4898 20 16.4812 20C16.4726 20 16.4639 20 16.4552 20C16.4466 20 16.4379 20 16.4291 20C16.4204 20 16.4117 20 16.4029 20C16.3941 20 16.3853 20 16.3764 20C16.3676 20 16.3588 20 16.3499 20C16.341 20 16.3321 20 16.3231 20C16.3142 20 16.3052 20 16.2962 20C16.2872 20 16.2782 20 16.2692 20C16.2601 20 16.251 20 16.2419 20C16.2329 20 16.2237 20 16.2146 20C16.2054 20 16.1963 20 16.1871 20C16.1779 20 16.1686 20 16.1594 20C16.1501 20 16.1409 20 16.1316 20C16.1223 20 16.1129 20 16.1036 20C16.0942 20 16.0849 20 16.0755 20C16.0661 20 16.0567 20 16.0472 20C16.0378 20 16.0283 20 16.0188 20C16.0093 20 15.9998 20 15.9902 20C15.9807 20 15.9711 20 15.9615 20C15.952 20 15.9423 20 15.9327 20C15.9231 20 15.9134 20 15.9037 20C15.894 20 15.8843 20 15.8746 20C15.8649 20 15.8551 20 15.8453 20C15.8356 20 15.8258 20 15.816 20C15.8061 20 15.7963 20 15.7864 20C15.7766 20 15.7667 20 15.7568 20C15.7468 20 15.7369 20 15.727 20C15.717 20 15.707 20 15.697 20C15.687 20 15.677 20 15.667 20C15.6569 20 15.6469 20 15.6368 20C15.6267 20 15.6166 20 15.6064 20C15.5963 20 15.5862 20 15.576 20C15.5658 20 15.5556 20 15.5454 20C15.5352 20 15.525 20 15.5147 20C15.5045 20 15.4942 20 15.4839 20C15.4736 20 15.4633 20 15.453 20C15.4426 20 15.4323 20 15.4219 20C15.4115 20 15.4011 20 15.3907 20C15.3803 20 15.3698 20 15.3594 20C15.3489 20 15.3385 20 15.328 20C15.3175 20 15.307 20 15.2964 20C15.2859 20 15.2753 20 15.2648 20C15.2542 20 15.2436 20 15.233 20C15.2224 20 15.2118 20 15.2011 20C15.1905 20 15.1798 20 15.1691 20C15.1584 20 15.1477 20 15.137 20C15.1263 20 15.1156 20 15.1048 20C15.094 20 15.0833 20 15.0725 20C15.0617 20 15.0509 20 15.04 20C15.0292 20 15.0184 20 15.0075 20C14.9966 20 14.9858 20 14.9749 20C14.964 20 14.9531 20 14.9421 20C14.9312 20 14.9202 20 14.9093 20C14.8983 20 14.8873 20 14.8763 20C14.8653 20 14.8543 20 14.8433 20C14.8323 20 14.8212 20 14.8101 20C14.7991 20 14.788 20 14.7769 20C14.7658 20 14.7547 20 14.7436 20C14.7324 20 14.7213 20 14.7101 20C14.699 20 14.6878 20 14.6766 20C14.6654 20 14.6542 20 14.643 20C14.6318 20 14.6205 20 14.6093 20C14.598 20 14.5868 20 14.5755 20C14.5642 20 14.5529 20 14.5416 20C14.5303 20 14.519 20 14.5076 20C14.4963 20 14.4849 20 14.4736 20C14.4622 20 14.4508 20 14.4394 20C14.428 20 14.4166 20 14.4052 20C14.3937 20 14.3823 20 14.3709 20C14.3594 20 14.3479 20 14.3365 20C14.325 20 14.3135 20 14.302 20C14.2905 20 14.279 20 14.2674 20C14.2559 20 14.2444 20 14.2328 20C14.2212 20 14.2097 20 14.1981 20C14.1865 20 14.1749 20 14.1633 20C14.1517 20 14.1401 20 14.1284 20C14.1168 20 14.1052 20 14.0935 20C14.0819 20 14.0702 20 14.0585 20C14.0468 20 14.0351 20 14.0234 20C14.0117 20 14 20 13.9883 20C13.9766 20 13.9648 20 13.9531 20C13.9413 20 13.9296 20 13.9178 20C13.906 20 13.8942 20 13.8824 20C13.8707 20 13.8589 20 13.847 20C13.8352 20 13.8234 20 13.8116 20C13.7997 20 13.7879 20 13.776 20C13.7642 20 13.7523 20 13.7404 20C13.7286 20 13.7167 20 13.7048 20C13.6929 20 13.681 20 13.6691 20C13.6571 20 13.6452 20 13.6333 20C13.6213 20 13.6094 20 13.5975 20C13.5855 20 13.5735 20 13.5616 20C13.5496 20 13.5376 20 13.5256 20C13.5136 20 13.5016 20 13.4896 20C13.4776 20 13.4656 20 13.4536 20C13.4416 20 13.4295 20 13.4175 20C13.4055 20 13.3934 20 13.3814 20C13.3693 20 13.3572 20 13.3452 20C13.3331 20 13.321 20 13.3089 20C13.2969 20 13.2848 20 13.2727 20C13.2606 20 13.2485 20 13.2363 20C13.2242 20 13.2121 20 13.2 20C13.1878 20 13.1757 20 13.1636 20C13.1514 20 13.1393 20 13.1271 20C13.115 20 13.1028 20 13.0906 20C13.0785 20 13.0663 20 13.0541 20C13.0419 20 13.0297 20 13.0175 20C13.0053 20 12.9931 20 12.9809 20C12.9687 20 12.9565 20 12.9443 20C12.9321 20 12.9199 20 12.9076 20C12.8954 20 12.8832 20 12.8709 20C12.8587 20 12.8464 20 12.8342 20C12.8219 20 12.8097 20 12.7974 20C12.7852 20 12.7729 20 12.7606 20C12.7484 20 12.7361 20 12.7238 20C12.7116 20 12.6993 20 12.687 20C12.6747 20 12.6624 20 12.6501 20C12.6378 20 12.6255 20 12.6132 20C12.6009 20 12.5886 20 12.5763 20C12.564 20 12.5517 20 12.5394 20C12.5271 20 12.5148 20 12.5024 20C12.4901 20 12.4778 20 12.4655 20C12.4531 20 12.4408 20 12.4285 20C12.4161 20 12.4038 20 12.3915 20C12.3791 20 12.3668 20 12.3544 20C12.3421 20 12.3298 20 12.3174 20C12.3051 20 12.2927 20 12.2804 20C12.268 20 12.2557 20 12.2433 20C12.2309 20 12.2186 20 12.2062 20C12.1939 20 12.1815 20 12.1691 20C12.1568 20 12.1444 20 12.1321 20C12.1197 20 12.1073 20 12.095 20C12.0826 20 12.0702 20 12.0579 20C12.0455 20 12.0331 20 12.0208 20C12.0084 20 11.996 20 11.9837 20C11.9713 20 11.9589 20 11.9465 20C11.9342 20 11.9218 20 11.9094 20C11.8971 20 11.8847 20 11.8723 20C11.86 20 11.8476 20 11.8352 20C11.8229 20 11.8105 20 11.7981 20C11.7858 20 11.7734 20 11.761 20C11.7487 20 11.7363 20 11.7239 20C11.7116 20 11.6992 20 11.6868 20C11.6745 20 11.6621 20 11.6498 20C11.6374 20 11.625 20 11.6127 20C11.6003 20 11.588 20 11.5756 20C11.5633 20 11.5509 20 11.5386 20C11.5262 20 11.5139 20 11.5015 20C11.4892 20 11.4769 20 11.4645 20C11.4522 20 11.4398 20 11.4275 20C11.4152 20 11.4028 20 11.3905 20C11.3782 20 11.3659 20 11.3535 20C11.3412 20 11.3289 20 11.3166 20C11.3043 20 11.292 20 11.2796 20C11.2673 20 11.255 20 11.2427 20C11.2304 20 11.2181 20 11.2058 20C11.1935 20 11.1813 20 11.169 20C11.1567 20 11.1444 20 11.1321 20C11.1198 20 11.1076 20 11.0953 20C11.083 20 11.0708 20 11.0585 20C11.0463 20 11.034 20 11.0218 20C11.0095 20 10.9973 20 10.985 20C10.9728 20 10.9605 20 10.9483 20C10.9361 20 10.9239 20 10.9116 20C10.8994 20 10.8872 20 10.875 20C10.8628 20 10.8506 20 10.8384 20C10.8262 20 10.814 20 10.8018 20C10.7897 20 10.7775 20 10.7653 20C10.7531 20 10.741 20 10.7288 20C10.7167 20 10.7045 20 10.6924 20C10.6802 20 10.6681 20 10.6559 20C10.6438 20 10.6317 20 10.6196 20C10.6075 20 10.5953 20 10.5832 20C10.5711 20 10.559 20 10.547 20C10.5349 20 10.5228 20 10.5107 20C10.4986 20 10.4866 20 10.4745 20C10.4625 20 10.4504 20 10.4384 20C10.4263 20 10.4143 20 10.4023 20C10.3903 20 10.3782 20 10.3662 20C10.3542 20 10.3422 20 10.3302 20C10.3182 20 10.3063 20 10.2943 20C10.2823 20 10.2704 20 10.2584 20C10.2464 20 10.2345 20 10.2226 20C10.2106 20 10.1987 20 10.1868 20C10.1749 20 10.163 20 10.1511 20C10.1392 20 10.1273 20 10.1154 20C10.1035 20 10.0916 20 10.0798 20C10.0679 20 10.0561 20 10.0442 20C10.0324 20 10.0206 20 10.0088 20C9.99695 20 9.98515 20 9.97335 20C9.96156 20 9.94977 20 9.938 20C9.92622 20 9.91446 20 9.90271 20C9.89096 20 9.87922 20 9.86749 20C9.85576 20 9.84404 20 9.83234 20C9.82063 20 9.80894 20 9.79725 20C9.78557 20 9.7739 20 9.76224 20C9.75058 20 9.73893 20 9.7273 20C9.71567 20 9.70404 20 9.69243 20C9.68082 20 9.66922 20 9.65764 20C9.64605 20 9.63448 20 9.62292 20C9.61136 20 9.59981 20 9.58828 20C9.57674 20 9.56522 20 9.55371 20C9.54221 20 9.53071 20 9.51923 20C9.50775 20 9.49628 20 9.48482 20C9.47337 20 9.46193 20 9.4505 20C9.43907 20 9.42766 20 9.41626 20C9.40486 20 9.39348 20 9.3821 20C9.37073 20 9.35937 20 9.34803 20C9.33669 20 9.32536 20 9.31405 20C9.30273 20 9.29143 20 9.28015 20C9.26886 20 9.25759 20 9.24634 20C9.23508 20 9.22384 20 9.21262 20C9.20139 20 9.19018 20 9.17899 20C9.1678 20 9.15662 20 9.14545 20C9.13429 20 9.12314 20 9.11201 20C9.10088 20 9.08976 20 9.07866 20C9.06756 20 9.05648 20 9.04541 20C9.03434 20 9.02329 20 9.01225 20C9.00122 20 8.9902 20 8.9792 20C8.9682 20 8.95721 20 8.94624 20C8.93527 20 8.92432 20 8.91338 20C8.90245 20 8.89153 20 8.88063 20C8.86973 20 8.85884 20 8.84798 20C8.83711 20 8.82626 20 8.81543 20C8.8046 20 8.79378 20 8.78299 20C8.77219 20 8.76141 20 8.75065 20C8.73989 20 8.72915 20 8.71843 20C8.7077 20 8.697 20 8.68631 20C8.67562 20 8.66495 20 8.6543 20C8.64365 20 8.63302 20 8.6224 20C8.61179 20 8.6012 20 8.59062 20C8.58005 20 8.56949 20 8.55895 20C8.54842 20 8.5379 20 8.5274 20C8.5169 20 8.50642 20 8.49596 20C8.4855 20 8.47506 20 8.46464 20C8.45422 20 8.44382 20 8.43344 20C8.42306 20 8.4127 20 8.40236 20C8.39202 20 8.3817 20 8.3714 20C8.3611 20 8.35082 20 8.34056 20C8.3303 20 8.32007 20 8.30985 20C8.29963 20 8.28943 20 8.27926 20C8.26908 20 8.25893 20 8.2488 20C8.23866 20 8.22855 20 8.21846 20C8.20837 20 8.1983 20 8.18825 20C8.17821 20 8.16818 20 8.15818 20C8.14817 20 8.13819 20 8.12823 20C8.11827 20 8.10833 20 8.09842 20C8.0885 20 8.07861 20 8.06873 20C8.05886 20 8.04901 20 8.03919 20C8.02936 20 8.01956 20 8.00978 20C8 20 7.99024 20 7.9805 20C7.97077 20 7.96106 20 7.95137 20C7.94168 20 7.93201 20 7.92237 20C7.91273 20 7.90311 20 7.89351 20C7.88392 20 7.87435 20 7.8648 20C7.85525 20 7.84573 20 7.83623 20C7.82673 20 7.81725 20 7.8078 20C7.79835 20 7.78892 20 7.77952 20C7.77012 20 7.76074 20 7.75139 20C7.74203 20 7.7327 20 7.7234 20C7.71409 20 7.70481 20 7.69556 20C7.68631 20 7.67708 20 7.66787 20C7.65867 20 7.64949 20 7.64033 20C7.63118 20 7.62205 20 7.61295 20C7.60385 20 7.59477 20 7.58572 20C7.57667 20 7.56764 20 7.55865 20C7.54965 20 7.54067 20 7.53173 20C7.52278 20 7.51386 20 7.50496 20C7.49607 20 7.4872 20 7.47836 20C7.46952 20 7.46071 20 7.45192 20C7.44313 20 7.43437 20 7.42564 20C7.4169 20 7.4082 20 7.39952 20C7.39084 20 7.38219 20 7.37356 20C7.36494 20 7.35634 20 7.34777 20C7.3392 20 7.33066 20 7.32214 20C7.31363 20 7.30514 20 7.29669 20C7.28823 20 7.2798 20 7.2714 20C7.26299 20 7.25462 20 7.24627 20C7.23793 20 7.22961 20 7.22132 20C7.21304 20 7.20478 20 7.19655 20C7.18832 20 7.18011 20 7.17194 20C7.16377 20 7.15563 20 7.14751 20C7.1394 20 7.13131 20 7.12326 20C7.1152 20 7.10717 20 7.09918 20C7.09118 20 7.08321 20 7.07528 20C7.06734 20 7.05943 20 7.05156 20C7.04368 20 7.03583 20 7.02802 20C7.0202 20 7.01241 20 7.00466 20C6.9969 20 6.98918 20 6.98148 20C6.97379 20 6.96612 20 6.95849 20C6.95085 20 6.94325 20 6.93568 20C6.92811 20 6.92057 20 6.91306 20C6.90555 20 6.89807 20 6.89063 20C6.88318 20 6.87577 20 6.86838 20C6.861 20 6.85365 20 6.84633 20C6.83901 20 6.83172 20 6.82447 20C6.81721 20 6.80999 20 6.80279 20C6.7956 20 6.78844 20 6.78132 20C6.77419 20 6.7671 20 6.76004 20C6.75297 20 6.74595 20 6.73895 20C6.73195 20 6.72499 20 6.71806 20C6.71113 20 6.70423 20 6.69737 20C6.69051 20 6.68368 20 6.67688 20C6.67008 20 6.66332 20 6.65659 20C6.64986 20 6.64317 20 6.6365 20C6.62984 20 6.62321 20 6.61662 20C6.61003 20 6.60347 20 6.59694 20C6.59041 20 6.58392 20 6.57747 20C6.57101 20 6.56459 20 6.5582 20C6.55181 20 6.54546 20 6.53914 20C6.53282 20 6.52654 20 6.52029 20C6.51404 20 6.50783 20 6.50165 20C6.49547 20 6.48933 20 6.48322 20C6.47712 20 6.47105 20 6.46501 20C6.45897 20 6.45297 20 6.44701 20C6.44105 20 6.43512 20 6.42922 20C6.42333 20 6.41748 20 6.41166 20C6.40584 20 6.40005 20 6.39431 20C6.38856 20 6.38285 20 6.37718 20C6.3715 20 6.36586 20 6.36026 20C6.35466 20 6.3491 20 6.34357 20C6.33805 20 6.33256 20 6.32711 20C6.32166 20 6.31624 20 6.31086 20C6.30549 20 6.30015 20 6.29485 20C6.28954 20 6.28428 20 6.27905 20C6.27383 20 6.26864 20 6.26349 20C6.25834 20 6.25323 20 6.24815 20C6.24308 20 6.23804 20 6.23305 20C6.22805 20 6.22309 20 6.21817 20C6.21325 20 6.20837 20 6.20353 20C6.19869 20 6.19388 20 6.18912 20C6.18436 20 6.17963 20 6.17495 20C6.17026 20 6.16561 20 6.16101 20C6.1564 20 6.15183 20 6.14731 20C6.14278 20 6.13829 20 6.13384 20C6.1294 20 6.12499 20 6.12062 20C6.11625 20 6.11192 20 6.10764 20C6.10335 20 6.0991 20 6.0949 20C6.09069 20 6.08652 20 6.0824 20C6.07827 20 6.07419 20 6.07014 20C6.0661 20 6.0621 20 6.05814 20C6.05418 20 6.05025 20 6.04638 20C6.0425 20 6.03866 20 6.03486 20C6.03107 20 6.02731 20 6.0236 20C6.01989 20 6.01621 20 6.01258 20C6.00896 20 6.00537 20 6.00182 20C5.99828 20 5.99477 20 5.99131 20C5.98785 20 5.98443 20 5.98106 20C5.97768 20 5.97435 20 5.97106 20C5.96777 20 5.96452 20 5.96131 20C5.95811 20 5.95495 20 5.95183 20C5.94871 20 5.94563 20 5.9426 20C5.93957 20 5.93658 20 5.93363 20C5.93069 20 5.92779 20 5.92493 20C5.92207 20 5.91926 20 5.91649 20C5.91372 20 5.91099 20 5.90831 20C5.90562 20 5.90299 20 5.90039 20C5.8978 20 5.89525 20 5.89274 20C5.89024 20 5.88778 20 5.88536 20C5.88295 20 5.88057 20 5.87825 20C5.87592 20 5.87364 20 5.8714 20C5.86917 20 5.86698 20 5.86483 20C5.86269 20 5.86059 20 5.85853 20C5.85648 20 5.85447 20 5.85251 20C5.85054 20 5.84862 20 5.84675 20C5.84488 20 5.84306 20 5.84128 20C5.8395 20 5.83776 20 5.83608 20C5.83439 20 5.83275 20 5.83115 20C5.82956 20 5.82801 20 5.82651 20C5.82501 20 5.82356 20 5.82215 20C5.82074 20 5.81938 20 5.81807 20C5.81676 20 5.81549 20 5.81427 20C5.81306 20 5.81188 20 5.81076 20C5.80964 20 5.80856 20 5.80753 20C5.80651 20 5.80552 20 5.80459 20C5.80366 20 5.80278 20 5.80194 20C5.8011 20 5.80032 20 5.79958 20C5.79884 20 5.79814 20 5.7975 20C5.79686 20 5.79626 20 5.79572 20C5.79517 20 5.79468 20 5.79423 20C5.79378 20 5.79338 20 5.79303 20C5.79268 20 5.79238 20 5.79213 20C5.79188 20 5.79168 20 5.79153 20C5.79138 20 5.79127 20 5.79122 20C5.79117 20 5.79117 21 5.79121 22C5.79126 22 5.79136 22 5.7915 22C5.79165 22 5.79185 22 5.7921 22C5.79234 22 5.79264 22 5.79299 22C5.79334 22 5.79374 22 5.79419 22C5.79464 22 5.79514 22 5.79569 22C5.79624 22 5.79685 22 5.7975 22C5.79816 22 5.79886 22 5.79962 22C5.80037 22 5.80118 22 5.80204 22C5.8029 22 5.80381 22 5.80478 22C5.80574 22 5.80675 22 5.80782 22C5.80889 22 5.81001 22 5.81118 22C5.81235 22 5.81357 22 5.81485 22C5.81612 22 5.81745 22 5.81883 22C5.82021 22 5.82164 22 5.82313 22C5.82462 22 5.82615 22 5.82775 22C5.82934 22 5.83098 22 5.83268 22C5.83438 22 5.83613 22 5.83793 22C5.83974 22 5.8416 22 5.84351 22C5.84542 22 5.84738 22 5.8494 22C5.85142 22 5.85349 22 5.85562 22C5.85775 22 5.85993 22 5.86216 22C5.8644 22 5.86669 22 5.86903 22C5.87137 22 5.87377 22 5.87623 22C5.87868 22 5.88118 22 5.88375 22C5.88631 22 5.88893 22 5.8916 22C5.89427 22 5.897 22 5.89978 22C5.90256 22 5.9054 22 5.90829 22C5.91118 22 5.91413 22 5.91713 22C5.92014 22 5.9232 22 5.92631 22C5.92943 22 5.9326 22 5.93582 22C5.93905 22 5.94233 22 5.94567 22C5.94901 22 5.95241 22 5.95586 22C5.95931 22 5.96282 22 5.96638 22C5.96995 22 5.97357 22 5.97725 22C5.98093 22 5.98466 22 5.98845 22C5.99224 22 5.99609 22 6 22V20ZM18 22C18.8252 22 19.5668 21.5975 20.0821 21.0821C20.5975 20.5668 21 19.8252 21 19H19C19 19.1748 18.9026 19.4332 18.6679 19.6679C18.4333 19.9025 18.1748 20 18 20V22ZM21 19C21 18.9984 21 18.9969 21 18.9953C21 18.9938 21 18.9922 21 18.9906C21 18.9891 21 18.9875 21 18.986C21 18.9844 21 18.9829 21 18.9813C21 18.9797 21 18.9782 21 18.9766C21 18.9751 21 18.9735 21 18.972C21 18.9704 21 18.9689 21 18.9673C21 18.9658 21 18.9642 21 18.9627C21 18.9611 21 18.9596 21 18.9581C21 18.9565 21 18.955 21 18.9534C21 18.9519 21 18.9503 21 18.9488C21 18.9473 21 18.9457 21 18.9442C21 18.9426 21 18.9411 21 18.9396C21 18.938 21 18.9365 21 18.935C21 18.9334 21 18.9319 21 18.9304C21 18.9288 21 18.9273 21 18.9258C21 18.9242 21 18.9227 21 18.9212C21 18.9197 21 18.9181 21 18.9166C21 18.9151 21 18.9135 21 18.912C21 18.9105 21 18.909 21 18.9074C21 18.9059 21 18.9044 21 18.9029C21 18.9014 21 18.8998 21 18.8983C21 18.8968 21 18.8953 21 18.8938C21 18.8922 21 18.8907 21 18.8892C21 18.8877 21 18.8862 21 18.8847C21 18.8832 21 18.8816 21 18.8801C21 18.8786 21 18.8771 21 18.8756C21 18.8741 21 18.8726 21 18.8711C21 18.8696 21 18.8681 21 18.8666C21 18.8651 21 18.8635 21 18.862C21 18.8605 21 18.859 21 18.8575C21 18.856 21 18.8545 21 18.853C21 18.8515 21 18.85 21 18.8485C21 18.847 21 18.8455 21 18.844C21 18.8425 21 18.841 21 18.8395C21 18.8381 21 18.8366 21 18.8351C21 18.8336 21 18.8321 21 18.8306C21 18.8291 21 18.8276 21 18.8261C21 18.8246 21 18.8231 21 18.8217C21 18.8202 21 18.8187 21 18.8172C21 18.8157 21 18.8142 21 18.8127C21 18.8113 21 18.8098 21 18.8083C21 18.8068 21 18.8053 21 18.8038C21 18.8024 21 18.8009 21 18.7994C21 18.7979 21 18.7964 21 18.795C21 18.7935 21 18.792 21 18.7905C21 18.7891 21 18.7876 21 18.7861C21 18.7846 21 18.7832 21 18.7817C21 18.7802 21 18.7788 21 18.7773C21 18.7758 21 18.7744 21 18.7729C21 18.7714 21 18.7699 21 18.7685C21 18.767 21 18.7655 21 18.7641C21 18.7626 21 18.7612 21 18.7597C21 18.7582 21 18.7568 21 18.7553C21 18.7538 21 18.7524 21 18.7509C21 18.7495 21 18.748 21 18.7465C21 18.7451 21 18.7436 21 18.7422C21 18.7407 21 18.7393 21 18.7378C21 18.7364 21 18.7349 21 18.7334C21 18.732 21 18.7305 21 18.7291C21 18.7276 21 18.7262 21 18.7247C21 18.7233 21 18.7218 21 18.7204C21 18.7189 21 18.7175 21 18.7161C21 18.7146 21 18.7132 21 18.7117C21 18.7103 21 18.7088 21 18.7074C21 18.7059 21 18.7045 21 18.7031C21 18.7016 21 18.7002 21 18.6987C21 18.6973 21 18.6959 21 18.6944C21 18.693 21 18.6915 21 18.6901C21 18.6887 21 18.6872 21 18.6858C21 18.6844 21 18.6829 21 18.6815C21 18.6801 21 18.6786 21 18.6772C21 18.6758 21 18.6743 21 18.6729C21 18.6715 21 18.6701 21 18.6686C21 18.6672 21 18.6658 21 18.6643C21 18.6629 21 18.6615 21 18.6601C21 18.6586 21 18.6572 21 18.6558C21 18.6544 21 18.6529 21 18.6515C21 18.6501 21 18.6487 21 18.6473C21 18.6458 21 18.6444 21 18.643C21 18.6416 21 18.6402 21 18.6388C21 18.6373 21 18.6359 21 18.6345C21 18.6331 21 18.6317 21 18.6303C21 18.6288 21 18.6274 21 18.626C21 18.6246 21 18.6232 21 18.6218C21 18.6204 21 18.619 21 18.6176C21 18.6161 21 18.6147 21 18.6133C21 18.6119 21 18.6105 21 18.6091C21 18.6077 21 18.6063 21 18.6049C21 18.6035 21 18.6021 21 18.6007C21 18.5993 21 18.5979 21 18.5965C21 18.5951 21 18.5937 21 18.5923C21 18.5909 21 18.5895 21 18.5881C21 18.5867 21 18.5853 21 18.5839C21 18.5825 21 18.5811 21 18.5797C21 18.5783 21 18.5769 21 18.5755C21 18.5741 21 18.5727 21 18.5713C21 18.5699 21 18.5685 21 18.5671C21 18.5657 21 18.5643 21 18.563C21 18.5616 21 18.5602 21 18.5588C21 18.5574 21 18.556 21 18.5546C21 18.5532 21 18.5518 21 18.5505C21 18.5491 21 18.5477 21 18.5463C21 18.5449 21 18.5435 21 18.5422C21 18.5408 21 18.5394 21 18.538C21 18.5366 21 18.5352 21 18.5339C21 18.5325 21 18.5311 21 18.5297C21 18.5283 21 18.527 21 18.5256C21 18.5242 21 18.5228 21 18.5215C21 18.5201 21 18.5187 21 18.5173C21 18.516 21 18.5146 21 18.5132C21 18.5118 21 18.5105 21 18.5091C21 18.5077 21 18.5064 21 18.505C21 18.5036 21 18.5022 21 18.5009C21 18.4995 21 18.4981 21 18.4968C21 18.4954 21 18.494 21 18.4927C21 18.4913 21 18.4899 21 18.4886C21 18.4872 21 18.4858 21 18.4845C21 18.4831 21 18.4817 21 18.4804C21 18.479 21 18.4777 21 18.4763C21 18.4749 21 18.4736 21 18.4722C21 18.4709 21 18.4695 21 18.4681C21 18.4668 21 18.4654 21 18.4641C21 18.4627 21 18.4613 21 18.46C21 18.4586 21 18.4573 21 18.4559C21 18.4546 21 18.4532 21 18.4519C21 18.4505 21 18.4492 21 18.4478C21 18.4465 21 18.4451 21 18.4438C21 18.4424 21 18.441 21 18.4397C21 18.4383 21 18.437 21 18.4357C21 18.4343 21 18.433 21 18.4316C21 18.4303 21 18.4289 21 18.4276C21 18.4262 21 18.4249 21 18.4235C21 18.4222 21 18.4208 21 18.4195C21 18.4182 21 18.4168 21 18.4155C21 18.4141 21 18.4128 21 18.4114C21 18.4101 21 18.4088 21 18.4074C21 18.4061 21 18.4047 21 18.4034C21 18.4021 21 18.4007 21 18.3994C21 18.3981 21 18.3967 21 18.3954C21 18.3941 21 18.3927 21 18.3914C21 18.39 21 18.3887 21 18.3874C21 18.386 21 18.3847 21 18.3834C21 18.382 21 18.3807 21 18.3794C21 18.3781 21 18.3767 21 18.3754C21 18.3741 21 18.3727 21 18.3714C21 18.3701 21 18.3687 21 18.3674C21 18.3661 21 18.3648 21 18.3634C21 18.3621 21 18.3608 21 18.3595C21 18.3581 21 18.3568 21 18.3555C21 18.3542 21 18.3528 21 18.3515C21 18.3502 21 18.3489 21 18.3475C21 18.3462 21 18.3449 21 18.3436C21 18.3423 21 18.3409 21 18.3396C21 18.3383 21 18.337 21 18.3357C21 18.3343 21 18.333 21 18.3317C21 18.3304 21 18.3291 21 18.3278C21 18.3264 21 18.3251 21 18.3238C21 18.3225 21 18.3212 21 18.3199C21 18.3185 21 18.3172 21 18.3159C21 18.3146 21 18.3133 21 18.312C21 18.3107 21 18.3094 21 18.308C21 18.3067 21 18.3054 21 18.3041C21 18.3028 21 18.3015 21 18.3002C21 18.2989 21 18.2976 21 18.2963C21 18.295 21 18.2936 21 18.2923C21 18.291 21 18.2897 21 18.2884C21 18.2871 21 18.2858 21 18.2845C21 18.2832 21 18.2819 21 18.2806C21 18.2793 21 18.278 21 18.2767C21 18.2754 21 18.2741 21 18.2728C21 18.2715 21 18.2702 21 18.2689C21 18.2676 21 18.2663 21 18.265C21 18.2637 21 18.2624 21 18.2611C21 18.2598 21 18.2585 21 18.2572C21 18.2559 21 18.2546 21 18.2533C21 18.252 21 18.2507 21 18.2494C21 18.2481 21 18.2468 21 18.2455C21 18.2442 21 18.2429 21 18.2416C21 18.2403 21 18.239 21 18.2377C21 18.2365 21 18.2352 21 18.2339C21 18.2326 21 18.2313 21 18.23C21 18.2287 21 18.2274 21 18.2261C21 18.2248 21 18.2235 21 18.2223C21 18.221 21 18.2197 21 18.2184C21 18.2171 21 18.2158 21 18.2145C21 18.2132 21 18.212 21 18.2107C21 18.2094 21 18.2081 21 18.2068C21 18.2055 21 18.2042 21 18.203C21 18.2017 21 18.2004 21 18.1991C21 18.1978 21 18.1965 21 18.1953C21 18.194 21 18.1927 21 18.1914C21 18.1901 21 18.1888 21 18.1876C21 18.1863 21 18.185 21 18.1837C21 18.1824 21 18.1812 21 18.1799C21 18.1786 21 18.1773 21 18.176C21 18.1748 21 18.1735 21 18.1722C21 18.1709 21 18.1697 21 18.1684C21 18.1671 21 18.1658 21 18.1646C21 18.1633 21 18.162 21 18.1607C21 18.1595 21 18.1582 21 18.1569C21 18.1556 21 18.1544 21 18.1531C21 18.1518 21 18.1505 21 18.1493C21 18.148 21 18.1467 21 18.1455C21 18.1442 21 18.1429 21 18.1416C21 18.1404 21 18.1391 21 18.1378C21 18.1366 21 18.1353 21 18.134C21 18.1327 21 18.1315 21 18.1302C21 18.1289 21 18.1277 21 18.1264C21 18.1251 21 18.1239 21 18.1226C21 18.1213 21 18.1201 21 18.1188C21 18.1175 21 18.1163 21 18.115C21 18.1137 21 18.1125 21 18.1112C21 18.11 21 18.1087 21 18.1074C21 18.1062 21 18.1049 21 18.1036C21 18.1024 21 18.1011 21 18.0998C21 18.0986 21 18.0973 21 18.0961C21 18.0948 21 18.0935 21 18.0923C21 18.091 21 18.0898 21 18.0885C21 18.0872 21 18.086 21 18.0847C21 18.0835 21 18.0822 21 18.0809C21 18.0797 21 18.0784 21 18.0772C21 18.0759 21 18.0747 21 18.0734C21 18.0721 21 18.0709 21 18.0696C21 18.0684 21 18.0671 21 18.0659C21 18.0646 21 18.0634 21 18.0621C21 18.0608 21 18.0596 21 18.0583C21 18.0571 21 18.0558 21 18.0546C21 18.0533 21 18.0521 21 18.0508C21 18.0496 21 18.0483 21 18.0471C21 18.0458 21 18.0445 21 18.0433C21 18.042 21 18.0408 21 18.0395C21 18.0383 21 18.037 21 18.0358C21 18.0345 21 18.0333 21 18.032C21 18.0308 21 18.0295 21 18.0283C21 18.027 21 18.0258 21 18.0245C21 18.0233 21 18.0221 21 18.0208C21 18.0196 21 18.0183 21 18.0171C21 18.0158 21 18.0146 21 18.0133C21 18.0121 21 18.0108 21 18.0096C21 18.0083 21 18.0071 21 18.0058C21 18.0046 21 18.0034 21 18.0021C21 18.0009 21 17.9996 21 17.9984C21 17.9971 21 17.9959 21 17.9946C21 17.9934 21 17.9922 21 17.9909C21 17.9897 21 17.9884 21 17.9872C21 17.9859 21 17.9847 21 17.9835C21 17.9822 21 17.981 21 17.9797C21 17.9785 21 17.9773 21 17.976C21 17.9748 21 17.9735 21 17.9723C21 17.9711 21 17.9698 21 17.9686C21 17.9673 21 17.9661 21 17.9649C21 17.9636 21 17.9624 21 17.9611C21 17.9599 21 17.9587 21 17.9574C21 17.9562 21 17.9549 21 17.9537C21 17.9525 21 17.9512 21 17.95C21 17.9488 21 17.9475 21 17.9463C21 17.9451 21 17.9438 21 17.9426C21 17.9413 21 17.9401 21 17.9389C21 17.9376 21 17.9364 21 17.9352C21 17.9339 21 17.9327 21 17.9315C21 17.9302 21 17.929 21 17.9278C21 17.9265 21 17.9253 21 17.9241C21 17.9228 21 17.9216 21 17.9204C21 17.9191 21 17.9179 21 17.9167C21 17.9154 21 17.9142 21 17.913C21 17.9117 21 17.9105 21 17.9093C21 17.908 21 17.9068 21 17.9056C21 17.9043 21 17.9031 21 17.9019C21 17.9006 21 17.8994 21 17.8982C21 17.897 21 17.8957 21 17.8945C21 17.8933 21 17.892 21 17.8908C21 17.8896 21 17.8883 21 17.8871C21 17.8859 21 17.8847 21 17.8834C21 17.8822 21 17.881 21 17.8797C21 17.8785 21 17.8773 21 17.8761C21 17.8748 21 17.8736 21 17.8724C21 17.8712 21 17.8699 21 17.8687C21 17.8675 21 17.8662 21 17.865C21 17.8638 21 17.8626 21 17.8613C21 17.8601 21 17.8589 21 17.8577C21 17.8564 21 17.8552 21 17.854C21 17.8528 21 17.8515 21 17.8503C21 17.8491 21 17.8479 21 17.8466C21 17.8454 21 17.8442 21 17.843C21 17.8417 21 17.8405 21 17.8393C21 17.8381 21 17.8368 21 17.8356C21 17.8344 21 17.8332 21 17.8319C21 17.8307 21 17.8295 21 17.8283C21 17.827 21 17.8258 21 17.8246C21 17.8234 21 17.8221 21 17.8209C21 17.8197 21 17.8185 21 17.8173C21 17.816 21 17.8148 21 17.8136C21 17.8124 21 17.8111 21 17.8099C21 17.8087 21 17.8075 21 17.8063C21 17.805 21 17.8038 21 17.8026C21 17.8014 21 17.8001 21 17.7989C21 17.7977 21 17.7965 21 17.7953C21 17.794 21 17.7928 21 17.7916C21 17.7904 21 17.7892 21 17.7879C21 17.7867 21 17.7855 21 17.7843C21 17.7831 21 17.7818 21 17.7806C21 17.7794 21 17.7782 21 17.777C21 17.7757 21 17.7745 21 17.7733C21 17.7721 21 17.7709 21 17.7696C21 17.7684 21 17.7672 21 17.766C21 17.7648 21 17.7636 21 17.7623C21 17.7611 21 17.7599 21 17.7587C21 17.7575 21 17.7562 21 17.755C21 17.7538 21 17.7526 21 17.7514C21 17.7501 21 17.7489 21 17.7477C21 17.7465 21 17.7453 21 17.7441C21 17.7428 21 17.7416 21 17.7404C21 17.7392 21 17.738 21 17.7368C21 17.7355 21 17.7343 21 17.7331C21 17.7319 21 17.7307 21 17.7294C21 17.7282 21 17.727 21 17.7258C21 17.7246 21 17.7234 21 17.7221C21 17.7209 21 17.7197 21 17.7185C21 17.7173 21 17.7161 21 17.7148C21 17.7136 21 17.7124 21 17.7112C21 17.71 21 17.7088 21 17.7075C21 17.7063 21 17.7051 21 17.7039C21 17.7027 21 17.7015 21 17.7002C21 17.699 21 17.6978 21 17.6966C21 17.6954 21 17.6942 21 17.693C21 17.6917 21 17.6905 21 17.6893C21 17.6881 21 17.6869 21 17.6857C21 17.6844 21 17.6832 21 17.682C21 17.6808 21 17.6796 21 17.6784C21 17.6771 21 17.6759 21 17.6747C21 17.6735 21 17.6723 21 17.6711C21 17.6699 21 17.6686 21 17.6674C21 17.6662 21 17.665 21 17.6638C21 17.6626 21 17.6613 21 17.6601C21 17.6589 21 17.6577 21 17.6565C21 17.6553 21 17.6541 21 17.6528C21 17.6516 21 17.6504 21 17.6492C21 17.648 21 17.6468 21 17.6455C21 17.6443 21 17.6431 21 17.6419C21 17.6407 21 17.6395 21 17.6383C21 17.637 21 17.6358 21 17.6346C21 17.6334 21 17.6322 21 17.631C21 17.6297 21 17.6285 21 17.6273C21 17.6261 21 17.6249 21 17.6237C21 17.6225 21 17.6212 21 17.62C21 17.6188 21 17.6176 21 17.6164C21 17.6152 21 17.6139 21 17.6127C21 17.6115 21 17.6103 21 17.6091C21 17.6079 21 17.6067 21 17.6054C21 17.6042 21 17.603 21 17.6018C21 17.6006 21 17.5994 21 17.5981C21 17.5969 21 17.5957 21 17.5945C21 17.5933 21 17.5921 21 17.5909C21 17.5896 21 17.5884 21 17.5872C21 17.586 21 17.5848 21 17.5836C21 17.5823 21 17.5811 21 17.5799C21 17.5787 21 17.5775 21 17.5763C21 17.575 21 17.5738 21 17.5726C21 17.5714 21 17.5702 21 17.569C21 17.5677 21 17.5665 21 17.5653C21 17.5641 21 17.5629 21 17.5617C21 17.5604 21 17.5592 21 17.558C21 17.5568 21 17.5556 21 17.5544C21 17.5531 21 17.5519 21 17.5507C21 17.5495 21 17.5483 21 17.5471C21 17.5458 21 17.5446 21 17.5434C21 17.5422 21 17.541 21 17.5398C21 17.5385 21 17.5373 21 17.5361C21 17.5349 21 17.5337 21 17.5325C21 17.5312 21 17.53 21 17.5288C21 17.5276 21 17.5264 21 17.5251C21 17.5239 21 17.5227 21 17.5215C21 17.5203 21 17.5191 21 17.5178C21 17.5166 21 17.5154 21 17.5142C21 17.513 21 17.5117 21 17.5105C21 17.5093 21 17.5081 21 17.5069C21 17.5056 21 17.5044 21 17.5032C21 17.502 21 17.5008 21 17.4996C21 17.4983 21 17.4971 21 17.4959C21 17.4947 21 17.4935 21 17.4922C21 17.491 21 17.4898 21 17.4886C21 17.4874 21 17.4861 21 17.4849C21 17.4837 21 17.4825 21 17.4813C21 17.48 21 17.4788 21 17.4776C21 17.4764 21 17.4751 21 17.4739C21 17.4727 21 17.4715 21 17.4703C21 17.469 21 17.4678 21 17.4666C21 17.4654 21 17.4642 21 17.4629C21 17.4617 21 17.4605 21 17.4593C21 17.458 21 17.4568 21 17.4556C21 17.4544 21 17.4532 21 17.4519C21 17.4507 21 17.4495 21 17.4483C21 17.447 21 17.4458 21 17.4446C21 17.4434 21 17.4421 21 17.4409C21 17.4397 21 17.4385 21 17.4372C21 17.436 21 17.4348 21 17.4336C21 17.4323 21 17.4311 21 17.4299C21 17.4287 21 17.4274 21 17.4262C21 17.425 21 17.4238 21 17.4225C21 17.4213 21 17.4201 21 17.4189C21 17.4176 21 17.4164 21 17.4152C21 17.414 21 17.4127 21 17.4115C21 17.4103 21 17.4091 21 17.4078C21 17.4066 21 17.4054 21 17.4041C21 17.4029 21 17.4017 21 17.4005C21 17.3992 21 17.398 21 17.3968C21 17.3956 21 17.3943 21 17.3931C21 17.3919 21 17.3906 21 17.3894C21 17.3882 21 17.387 21 17.3857C21 17.3845 21 17.3833 21 17.382C21 17.3808 21 17.3796 21 17.3783C21 17.3771 21 17.3759 21 17.3747C21 17.3734 21 17.3722 21 17.371C21 17.3697 21 17.3685 21 17.3673C21 17.366 21 17.3648 21 17.3636C21 17.3623 21 17.3611 21 17.3599C21 17.3586 21 17.3574 21 17.3562C21 17.3549 21 17.3537 21 17.3525C21 17.3512 21 17.35 21 17.3488C21 17.3475 21 17.3463 21 17.3451C21 17.3438 21 17.3426 21 17.3414C21 17.3401 21 17.3389 21 17.3377C21 17.3364 21 17.3352 21 17.334C21 17.3327 21 17.3315 21 17.3303C21 17.329 21 17.3278 21 17.3265C21 17.3253 21 17.3241 21 17.3228C21 17.3216 21 17.3204 21 17.3191C21 17.3179 21 17.3166 21 17.3154C21 17.3142 21 17.3129 21 17.3117C21 17.3105 21 17.3092 21 17.308C21 17.3067 21 17.3055 21 17.3043C21 17.303 21 17.3018 21 17.3005C21 17.2993 21 17.2981 21 17.2968C21 17.2956 21 17.2943 21 17.2931C21 17.2919 21 17.2906 21 17.2894C21 17.2881 21 17.2869 21 17.2856C21 17.2844 21 17.2832 21 17.2819C21 17.2807 21 17.2794 21 17.2782C21 17.2769 21 17.2757 21 17.2745C21 17.2732 21 17.272 21 17.2707C21 17.2695 21 17.2682 21 17.267C21 17.2657 21 17.2645 21 17.2632C21 17.262 21 17.2608 21 17.2595C21 17.2583 21 17.257 21 17.2558C21 17.2545 21 17.2533 21 17.252C21 17.2508 21 17.2495 21 17.2483C21 17.247 21 17.2458 21 17.2445C21 17.2433 21 17.242 21 17.2408C21 17.2395 21 17.2383 21 17.237C21 17.2358 21 17.2345 21 17.2333C21 17.232 21 17.2308 21 17.2295C21 17.2283 21 17.227 21 17.2258C21 17.2245 21 17.2233 21 17.222C21 17.2208 21 17.2195 21 17.2183C21 17.217 21 17.2157 21 17.2145C21 17.2132 21 17.212 21 17.2107C21 17.2095 21 17.2082 21 17.207C21 17.2057 21 17.2044 21 17.2032C21 17.2019 21 17.2007 21 17.1994C21 17.1982 21 17.1969 21 17.1956C21 17.1944 21 17.1931 21 17.1919C21 17.1906 21 17.1894 21 17.1881C21 17.1868 21 17.1856 21 17.1843C21 17.1831 21 17.1818 21 17.1805C21 17.1793 21 17.178 21 17.1767C21 17.1755 21 17.1742 21 17.173C21 17.1717 21 17.1704 21 17.1692C21 17.1679 21 17.1666 21 17.1654C21 17.1641 21 17.1629 21 17.1616C21 17.1603 21 17.1591 21 17.1578C21 17.1565 21 17.1553 21 17.154C21 17.1527 21 17.1515 21 17.1502C21 17.1489 21 17.1477 21 17.1464C21 17.1451 21 17.1439 21 17.1426C21 17.1413 21 17.1401 21 17.1388C21 17.1375 21 17.1362 21 17.135C21 17.1337 21 17.1324 21 17.1312C21 17.1299 21 17.1286 21 17.1274C21 17.1261 21 17.1248 21 17.1235C21 17.1223 21 17.121 21 17.1197C21 17.1184 21 17.1172 21 17.1159C21 17.1146 21 17.1133 21 17.1121C21 17.1108 21 17.1095 21 17.1082C21 17.107 21 17.1057 21 17.1044C21 17.1031 21 17.1019 21 17.1006C21 17.0993 21 17.098 21 17.0967C21 17.0955 21 17.0942 21 17.0929C21 17.0916 21 17.0904 21 17.0891C21 17.0878 21 17.0865 21 17.0852C21 17.0839 21 17.0827 21 17.0814C21 17.0801 21 17.0788 21 17.0775C21 17.0763 21 17.075 21 17.0737C21 17.0724 21 17.0711 21 17.0698C21 17.0686 21 17.0673 21 17.066C21 17.0647 21 17.0634 21 17.0621C21 17.0608 21 17.0595 21 17.0583C21 17.057 21 17.0557 21 17.0544C21 17.0531 21 17.0518 21 17.0505C21 17.0492 21 17.048 21 17.0467C21 17.0454 21 17.0441 21 17.0428C21 17.0415 21 17.0402 21 17.0389C21 17.0376 21 17.0363 21 17.035C21 17.0337 21 17.0324 21 17.0312C21 17.0299 21 17.0286 21 17.0273C21 17.026 21 17.0247 21 17.0234C21 17.0221 21 17.0208 21 17.0195C21 17.0182 21 17.0169 21 17.0156C21 17.0143 21 17.013 21 17.0117C21 17.0104 21 17.0091 21 17.0078C21 17.0065 21 17.0052 21 17.0039C21 17.0026 21 17.0013 21 17H19C19 17.0013 19 17.0026 19 17.0039C19 17.0052 19 17.0065 19 17.0078C19 17.0091 19 17.0104 19 17.0117C19 17.013 19 17.0143 19 17.0156C19 17.0169 19 17.0182 19 17.0195C19 17.0208 19 17.0221 19 17.0234C19 17.0247 19 17.026 19 17.0273C19 17.0286 19 17.0299 19 17.0312C19 17.0324 19 17.0337 19 17.035C19 17.0363 19 17.0376 19 17.0389C19 17.0402 19 17.0415 19 17.0428C19 17.0441 19 17.0454 19 17.0467C19 17.048 19 17.0492 19 17.0505C19 17.0518 19 17.0531 19 17.0544C19 17.0557 19 17.057 19 17.0583C19 17.0595 19 17.0608 19 17.0621C19 17.0634 19 17.0647 19 17.066C19 17.0673 19 17.0686 19 17.0698C19 17.0711 19 17.0724 19 17.0737C19 17.075 19 17.0763 19 17.0775C19 17.0788 19 17.0801 19 17.0814C19 17.0827 19 17.0839 19 17.0852C19 17.0865 19 17.0878 19 17.0891C19 17.0904 19 17.0916 19 17.0929C19 17.0942 19 17.0955 19 17.0967C19 17.098 19 17.0993 19 17.1006C19 17.1019 19 17.1031 19 17.1044C19 17.1057 19 17.107 19 17.1082C19 17.1095 19 17.1108 19 17.1121C19 17.1133 19 17.1146 19 17.1159C19 17.1172 19 17.1184 19 17.1197C19 17.121 19 17.1223 19 17.1235C19 17.1248 19 17.1261 19 17.1274C19 17.1286 19 17.1299 19 17.1312C19 17.1324 19 17.1337 19 17.135C19 17.1362 19 17.1375 19 17.1388C19 17.1401 19 17.1413 19 17.1426C19 17.1439 19 17.1451 19 17.1464C19 17.1477 19 17.1489 19 17.1502C19 17.1515 19 17.1527 19 17.154C19 17.1553 19 17.1565 19 17.1578C19 17.1591 19 17.1603 19 17.1616C19 17.1629 19 17.1641 19 17.1654C19 17.1666 19 17.1679 19 17.1692C19 17.1704 19 17.1717 19 17.173C19 17.1742 19 17.1755 19 17.1767C19 17.178 19 17.1793 19 17.1805C19 17.1818 19 17.1831 19 17.1843C19 17.1856 19 17.1868 19 17.1881C19 17.1894 19 17.1906 19 17.1919C19 17.1931 19 17.1944 19 17.1956C19 17.1969 19 17.1982 19 17.1994C19 17.2007 19 17.2019 19 17.2032C19 17.2044 19 17.2057 19 17.207C19 17.2082 19 17.2095 19 17.2107C19 17.212 19 17.2132 19 17.2145C19 17.2157 19 17.217 19 17.2183C19 17.2195 19 17.2208 19 17.222C19 17.2233 19 17.2245 19 17.2258C19 17.227 19 17.2283 19 17.2295C19 17.2308 19 17.232 19 17.2333C19 17.2345 19 17.2358 19 17.237C19 17.2383 19 17.2395 19 17.2408C19 17.242 19 17.2433 19 17.2445C19 17.2458 19 17.247 19 17.2483C19 17.2495 19 17.2508 19 17.252C19 17.2533 19 17.2545 19 17.2558C19 17.257 19 17.2583 19 17.2595C19 17.2608 19 17.262 19 17.2632C19 17.2645 19 17.2657 19 17.267C19 17.2682 19 17.2695 19 17.2707C19 17.272 19 17.2732 19 17.2745C19 17.2757 19 17.2769 19 17.2782C19 17.2794 19 17.2807 19 17.2819C19 17.2832 19 17.2844 19 17.2856C19 17.2869 19 17.2881 19 17.2894C19 17.2906 19 17.2919 19 17.2931C19 17.2943 19 17.2956 19 17.2968C19 17.2981 19 17.2993 19 17.3005C19 17.3018 19 17.303 19 17.3043C19 17.3055 19 17.3067 19 17.308C19 17.3092 19 17.3105 19 17.3117C19 17.3129 19 17.3142 19 17.3154C19 17.3166 19 17.3179 19 17.3191C19 17.3204 19 17.3216 19 17.3228C19 17.3241 19 17.3253 19 17.3265C19 17.3278 19 17.329 19 17.3303C19 17.3315 19 17.3327 19 17.334C19 17.3352 19 17.3364 19 17.3377C19 17.3389 19 17.3401 19 17.3414C19 17.3426 19 17.3438 19 17.3451C19 17.3463 19 17.3475 19 17.3488C19 17.35 19 17.3512 19 17.3525C19 17.3537 19 17.3549 19 17.3562C19 17.3574 19 17.3586 19 17.3599C19 17.3611 19 17.3623 19 17.3636C19 17.3648 19 17.366 19 17.3673C19 17.3685 19 17.3697 19 17.371C19 17.3722 19 17.3734 19 17.3747C19 17.3759 19 17.3771 19 17.3783C19 17.3796 19 17.3808 19 17.382C19 17.3833 19 17.3845 19 17.3857C19 17.387 19 17.3882 19 17.3894C19 17.3906 19 17.3919 19 17.3931C19 17.3943 19 17.3956 19 17.3968C19 17.398 19 17.3992 19 17.4005C19 17.4017 19 17.4029 19 17.4041C19 17.4054 19 17.4066 19 17.4078C19 17.4091 19 17.4103 19 17.4115C19 17.4127 19 17.414 19 17.4152C19 17.4164 19 17.4176 19 17.4189C19 17.4201 19 17.4213 19 17.4225C19 17.4238 19 17.425 19 17.4262C19 17.4274 19 17.4287 19 17.4299C19 17.4311 19 17.4323 19 17.4336C19 17.4348 19 17.436 19 17.4372C19 17.4385 19 17.4397 19 17.4409C19 17.4421 19 17.4434 19 17.4446C19 17.4458 19 17.447 19 17.4483C19 17.4495 19 17.4507 19 17.4519C19 17.4532 19 17.4544 19 17.4556C19 17.4568 19 17.458 19 17.4593C19 17.4605 19 17.4617 19 17.4629C19 17.4642 19 17.4654 19 17.4666C19 17.4678 19 17.469 19 17.4703C19 17.4715 19 17.4727 19 17.4739C19 17.4751 19 17.4764 19 17.4776C19 17.4788 19 17.48 19 17.4813C19 17.4825 19 17.4837 19 17.4849C19 17.4861 19 17.4874 19 17.4886C19 17.4898 19 17.491 19 17.4922C19 17.4935 19 17.4947 19 17.4959C19 17.4971 19 17.4983 19 17.4996C19 17.5008 19 17.502 19 17.5032C19 17.5044 19 17.5056 19 17.5069C19 17.5081 19 17.5093 19 17.5105C19 17.5117 19 17.513 19 17.5142C19 17.5154 19 17.5166 19 17.5178C19 17.5191 19 17.5203 19 17.5215C19 17.5227 19 17.5239 19 17.5251C19 17.5264 19 17.5276 19 17.5288C19 17.53 19 17.5312 19 17.5325C19 17.5337 19 17.5349 19 17.5361C19 17.5373 19 17.5385 19 17.5398C19 17.541 19 17.5422 19 17.5434C19 17.5446 19 17.5458 19 17.5471C19 17.5483 19 17.5495 19 17.5507C19 17.5519 19 17.5531 19 17.5544C19 17.5556 19 17.5568 19 17.558C19 17.5592 19 17.5604 19 17.5617C19 17.5629 19 17.5641 19 17.5653C19 17.5665 19 17.5677 19 17.569C19 17.5702 19 17.5714 19 17.5726C19 17.5738 19 17.575 19 17.5763C19 17.5775 19 17.5787 19 17.5799C19 17.5811 19 17.5823 19 17.5836C19 17.5848 19 17.586 19 17.5872C19 17.5884 19 17.5896 19 17.5909C19 17.5921 19 17.5933 19 17.5945C19 17.5957 19 17.5969 19 17.5981C19 17.5994 19 17.6006 19 17.6018C19 17.603 19 17.6042 19 17.6054C19 17.6067 19 17.6079 19 17.6091C19 17.6103 19 17.6115 19 17.6127C19 17.6139 19 17.6152 19 17.6164C19 17.6176 19 17.6188 19 17.62C19 17.6212 19 17.6225 19 17.6237C19 17.6249 19 17.6261 19 17.6273C19 17.6285 19 17.6297 19 17.631C19 17.6322 19 17.6334 19 17.6346C19 17.6358 19 17.637 19 17.6383C19 17.6395 19 17.6407 19 17.6419C19 17.6431 19 17.6443 19 17.6455C19 17.6468 19 17.648 19 17.6492C19 17.6504 19 17.6516 19 17.6528C19 17.6541 19 17.6553 19 17.6565C19 17.6577 19 17.6589 19 17.6601C19 17.6613 19 17.6626 19 17.6638C19 17.665 19 17.6662 19 17.6674C19 17.6686 19 17.6699 19 17.6711C19 17.6723 19 17.6735 19 17.6747C19 17.6759 19 17.6771 19 17.6784C19 17.6796 19 17.6808 19 17.682C19 17.6832 19 17.6844 19 17.6857C19 17.6869 19 17.6881 19 17.6893C19 17.6905 19 17.6917 19 17.693C19 17.6942 19 17.6954 19 17.6966C19 17.6978 19 17.699 19 17.7002C19 17.7015 19 17.7027 19 17.7039C19 17.7051 19 17.7063 19 17.7075C19 17.7088 19 17.71 19 17.7112C19 17.7124 19 17.7136 19 17.7148C19 17.7161 19 17.7173 19 17.7185C19 17.7197 19 17.7209 19 17.7221C19 17.7234 19 17.7246 19 17.7258C19 17.727 19 17.7282 19 17.7294C19 17.7307 19 17.7319 19 17.7331C19 17.7343 19 17.7355 19 17.7368C19 17.738 19 17.7392 19 17.7404C19 17.7416 19 17.7428 19 17.7441C19 17.7453 19 17.7465 19 17.7477C19 17.7489 19 17.7501 19 17.7514C19 17.7526 19 17.7538 19 17.755C19 17.7562 19 17.7575 19 17.7587C19 17.7599 19 17.7611 19 17.7623C19 17.7636 19 17.7648 19 17.766C19 17.7672 19 17.7684 19 17.7696C19 17.7709 19 17.7721 19 17.7733C19 17.7745 19 17.7757 19 17.777C19 17.7782 19 17.7794 19 17.7806C19 17.7818 19 17.7831 19 17.7843C19 17.7855 19 17.7867 19 17.7879C19 17.7892 19 17.7904 19 17.7916C19 17.7928 19 17.794 19 17.7953C19 17.7965 19 17.7977 19 17.7989C19 17.8001 19 17.8014 19 17.8026C19 17.8038 19 17.805 19 17.8063C19 17.8075 19 17.8087 19 17.8099C19 17.8111 19 17.8124 19 17.8136C19 17.8148 19 17.816 19 17.8173C19 17.8185 19 17.8197 19 17.8209C19 17.8221 19 17.8234 19 17.8246C19 17.8258 19 17.827 19 17.8283C19 17.8295 19 17.8307 19 17.8319C19 17.8332 19 17.8344 19 17.8356C19 17.8368 19 17.8381 19 17.8393C19 17.8405 19 17.8417 19 17.843C19 17.8442 19 17.8454 19 17.8466C19 17.8479 19 17.8491 19 17.8503C19 17.8515 19 17.8528 19 17.854C19 17.8552 19 17.8564 19 17.8577C19 17.8589 19 17.8601 19 17.8613C19 17.8626 19 17.8638 19 17.865C19 17.8662 19 17.8675 19 17.8687C19 17.8699 19 17.8712 19 17.8724C19 17.8736 19 17.8748 19 17.8761C19 17.8773 19 17.8785 19 17.8797C19 17.881 19 17.8822 19 17.8834C19 17.8847 19 17.8859 19 17.8871C19 17.8883 19 17.8896 19 17.8908C19 17.892 19 17.8933 19 17.8945C19 17.8957 19 17.897 19 17.8982C19 17.8994 19 17.9006 19 17.9019C19 17.9031 19 17.9043 19 17.9056C19 17.9068 19 17.908 19 17.9093C19 17.9105 19 17.9117 19 17.913C19 17.9142 19 17.9154 19 17.9167C19 17.9179 19 17.9191 19 17.9204C19 17.9216 19 17.9228 19 17.9241C19 17.9253 19 17.9265 19 17.9278C19 17.929 19 17.9302 19 17.9315C19 17.9327 19 17.9339 19 17.9352C19 17.9364 19 17.9376 19 17.9389C19 17.9401 19 17.9413 19 17.9426C19 17.9438 19 17.9451 19 17.9463C19 17.9475 19 17.9488 19 17.95C19 17.9512 19 17.9525 19 17.9537C19 17.9549 19 17.9562 19 17.9574C19 17.9587 19 17.9599 19 17.9611C19 17.9624 19 17.9636 19 17.9649C19 17.9661 19 17.9673 19 17.9686C19 17.9698 19 17.9711 19 17.9723C19 17.9735 19 17.9748 19 17.976C19 17.9773 19 17.9785 19 17.9797C19 17.981 19 17.9822 19 17.9835C19 17.9847 19 17.9859 19 17.9872C19 17.9884 19 17.9897 19 17.9909C19 17.9922 19 17.9934 19 17.9946C19 17.9959 19 17.9971 19 17.9984C19 17.9996 19 18.0009 19 18.0021C19 18.0034 19 18.0046 19 18.0058C19 18.0071 19 18.0083 19 18.0096C19 18.0108 19 18.0121 19 18.0133C19 18.0146 19 18.0158 19 18.0171C19 18.0183 19 18.0196 19 18.0208C19 18.0221 19 18.0233 19 18.0245C19 18.0258 19 18.027 19 18.0283C19 18.0295 19 18.0308 19 18.032C19 18.0333 19 18.0345 19 18.0358C19 18.037 19 18.0383 19 18.0395C19 18.0408 19 18.042 19 18.0433C19 18.0445 19 18.0458 19 18.0471C19 18.0483 19 18.0496 19 18.0508C19 18.0521 19 18.0533 19 18.0546C19 18.0558 19 18.0571 19 18.0583C19 18.0596 19 18.0608 19 18.0621C19 18.0634 19 18.0646 19 18.0659C19 18.0671 19 18.0684 19 18.0696C19 18.0709 19 18.0721 19 18.0734C19 18.0747 19 18.0759 19 18.0772C19 18.0784 19 18.0797 19 18.0809C19 18.0822 19 18.0835 19 18.0847C19 18.086 19 18.0872 19 18.0885C19 18.0898 19 18.091 19 18.0923C19 18.0935 19 18.0948 19 18.0961C19 18.0973 19 18.0986 19 18.0998C19 18.1011 19 18.1024 19 18.1036C19 18.1049 19 18.1062 19 18.1074C19 18.1087 19 18.11 19 18.1112C19 18.1125 19 18.1137 19 18.115C19 18.1163 19 18.1175 19 18.1188C19 18.1201 19 18.1213 19 18.1226C19 18.1239 19 18.1251 19 18.1264C19 18.1277 19 18.1289 19 18.1302C19 18.1315 19 18.1327 19 18.134C19 18.1353 19 18.1366 19 18.1378C19 18.1391 19 18.1404 19 18.1416C19 18.1429 19 18.1442 19 18.1455C19 18.1467 19 18.148 19 18.1493C19 18.1505 19 18.1518 19 18.1531C19 18.1544 19 18.1556 19 18.1569C19 18.1582 19 18.1595 19 18.1607C19 18.162 19 18.1633 19 18.1646C19 18.1658 19 18.1671 19 18.1684C19 18.1697 19 18.1709 19 18.1722C19 18.1735 19 18.1748 19 18.176C19 18.1773 19 18.1786 19 18.1799C19 18.1812 19 18.1824 19 18.1837C19 18.185 19 18.1863 19 18.1876C19 18.1888 19 18.1901 19 18.1914C19 18.1927 19 18.194 19 18.1953C19 18.1965 19 18.1978 19 18.1991C19 18.2004 19 18.2017 19 18.203C19 18.2042 19 18.2055 19 18.2068C19 18.2081 19 18.2094 19 18.2107C19 18.212 19 18.2132 19 18.2145C19 18.2158 19 18.2171 19 18.2184C19 18.2197 19 18.221 19 18.2223C19 18.2235 19 18.2248 19 18.2261C19 18.2274 19 18.2287 19 18.23C19 18.2313 19 18.2326 19 18.2339C19 18.2352 19 18.2365 19 18.2377C19 18.239 19 18.2403 19 18.2416C19 18.2429 19 18.2442 19 18.2455C19 18.2468 19 18.2481 19 18.2494C19 18.2507 19 18.252 19 18.2533C19 18.2546 19 18.2559 19 18.2572C19 18.2585 19 18.2598 19 18.2611C19 18.2624 19 18.2637 19 18.265C19 18.2663 19 18.2676 19 18.2689C19 18.2702 19 18.2715 19 18.2728C19 18.2741 19 18.2754 19 18.2767C19 18.278 19 18.2793 19 18.2806C19 18.2819 19 18.2832 19 18.2845C19 18.2858 19 18.2871 19 18.2884C19 18.2897 19 18.291 19 18.2923C19 18.2936 19 18.295 19 18.2963C19 18.2976 19 18.2989 19 18.3002C19 18.3015 19 18.3028 19 18.3041C19 18.3054 19 18.3067 19 18.308C19 18.3094 19 18.3107 19 18.312C19 18.3133 19 18.3146 19 18.3159C19 18.3172 19 18.3185 19 18.3199C19 18.3212 19 18.3225 19 18.3238C19 18.3251 19 18.3264 19 18.3278C19 18.3291 19 18.3304 19 18.3317C19 18.333 19 18.3343 19 18.3357C19 18.337 19 18.3383 19 18.3396C19 18.3409 19 18.3423 19 18.3436C19 18.3449 19 18.3462 19 18.3475C19 18.3489 19 18.3502 19 18.3515C19 18.3528 19 18.3542 19 18.3555C19 18.3568 19 18.3581 19 18.3595C19 18.3608 19 18.3621 19 18.3634C19 18.3648 19 18.3661 19 18.3674C19 18.3687 19 18.3701 19 18.3714C19 18.3727 19 18.3741 19 18.3754C19 18.3767 19 18.3781 19 18.3794C19 18.3807 19 18.382 19 18.3834C19 18.3847 19 18.386 19 18.3874C19 18.3887 19 18.39 19 18.3914C19 18.3927 19 18.3941 19 18.3954C19 18.3967 19 18.3981 19 18.3994C19 18.4007 19 18.4021 19 18.4034C19 18.4047 19 18.4061 19 18.4074C19 18.4088 19 18.4101 19 18.4114C19 18.4128 19 18.4141 19 18.4155C19 18.4168 19 18.4182 19 18.4195C19 18.4208 19 18.4222 19 18.4235C19 18.4249 19 18.4262 19 18.4276C19 18.4289 19 18.4303 19 18.4316C19 18.433 19 18.4343 19 18.4357C19 18.437 19 18.4383 19 18.4397C19 18.441 19 18.4424 19 18.4438C19 18.4451 19 18.4465 19 18.4478C19 18.4492 19 18.4505 19 18.4519C19 18.4532 19 18.4546 19 18.4559C19 18.4573 19 18.4586 19 18.46C19 18.4613 19 18.4627 19 18.4641C19 18.4654 19 18.4668 19 18.4681C19 18.4695 19 18.4709 19 18.4722C19 18.4736 19 18.4749 19 18.4763C19 18.4777 19 18.479 19 18.4804C19 18.4817 19 18.4831 19 18.4845C19 18.4858 19 18.4872 19 18.4886C19 18.4899 19 18.4913 19 18.4927C19 18.494 19 18.4954 19 18.4968C19 18.4981 19 18.4995 19 18.5009C19 18.5022 19 18.5036 19 18.505C19 18.5064 19 18.5077 19 18.5091C19 18.5105 19 18.5118 19 18.5132C19 18.5146 19 18.516 19 18.5173C19 18.5187 19 18.5201 19 18.5215C19 18.5228 19 18.5242 19 18.5256C19 18.527 19 18.5283 19 18.5297C19 18.5311 19 18.5325 19 18.5339C19 18.5352 19 18.5366 19 18.538C19 18.5394 19 18.5408 19 18.5422C19 18.5435 19 18.5449 19 18.5463C19 18.5477 19 18.5491 19 18.5505C19 18.5518 19 18.5532 19 18.5546C19 18.556 19 18.5574 19 18.5588C19 18.5602 19 18.5616 19 18.563C19 18.5643 19 18.5657 19 18.5671C19 18.5685 19 18.5699 19 18.5713C19 18.5727 19 18.5741 19 18.5755C19 18.5769 19 18.5783 19 18.5797C19 18.5811 19 18.5825 19 18.5839C19 18.5853 19 18.5867 19 18.5881C19 18.5895 19 18.5909 19 18.5923C19 18.5937 19 18.5951 19 18.5965C19 18.5979 19 18.5993 19 18.6007C19 18.6021 19 18.6035 19 18.6049C19 18.6063 19 18.6077 19 18.6091C19 18.6105 19 18.6119 19 18.6133C19 18.6147 19 18.6161 19 18.6176C19 18.619 19 18.6204 19 18.6218C19 18.6232 19 18.6246 19 18.626C19 18.6274 19 18.6288 19 18.6303C19 18.6317 19 18.6331 19 18.6345C19 18.6359 19 18.6373 19 18.6388C19 18.6402 19 18.6416 19 18.643C19 18.6444 19 18.6458 19 18.6473C19 18.6487 19 18.6501 19 18.6515C19 18.6529 19 18.6544 19 18.6558C19 18.6572 19 18.6586 19 18.6601C19 18.6615 19 18.6629 19 18.6643C19 18.6658 19 18.6672 19 18.6686C19 18.6701 19 18.6715 19 18.6729C19 18.6743 19 18.6758 19 18.6772C19 18.6786 19 18.6801 19 18.6815C19 18.6829 19 18.6844 19 18.6858C19 18.6872 19 18.6887 19 18.6901C19 18.6915 19 18.693 19 18.6944C19 18.6959 19 18.6973 19 18.6987C19 18.7002 19 18.7016 19 18.7031C19 18.7045 19 18.7059 19 18.7074C19 18.7088 19 18.7103 19 18.7117C19 18.7132 19 18.7146 19 18.7161C19 18.7175 19 18.7189 19 18.7204C19 18.7218 19 18.7233 19 18.7247C19 18.7262 19 18.7276 19 18.7291C19 18.7305 19 18.732 19 18.7334C19 18.7349 19 18.7364 19 18.7378C19 18.7393 19 18.7407 19 18.7422C19 18.7436 19 18.7451 19 18.7465C19 18.748 19 18.7495 19 18.7509C19 18.7524 19 18.7538 19 18.7553C19 18.7568 19 18.7582 19 18.7597C19 18.7612 19 18.7626 19 18.7641C19 18.7655 19 18.767 19 18.7685C19 18.7699 19 18.7714 19 18.7729C19 18.7744 19 18.7758 19 18.7773C19 18.7788 19 18.7802 19 18.7817C19 18.7832 19 18.7846 19 18.7861C19 18.7876 19 18.7891 19 18.7905C19 18.792 19 18.7935 19 18.795C19 18.7964 19 18.7979 19 18.7994C19 18.8009 19 18.8024 19 18.8038C19 18.8053 19 18.8068 19 18.8083C19 18.8098 19 18.8113 19 18.8127C19 18.8142 19 18.8157 19 18.8172C19 18.8187 19 18.8202 19 18.8217C19 18.8231 19 18.8246 19 18.8261C19 18.8276 19 18.8291 19 18.8306C19 18.8321 19 18.8336 19 18.8351C19 18.8366 19 18.8381 19 18.8395C19 18.841 19 18.8425 19 18.844C19 18.8455 19 18.847 19 18.8485C19 18.85 19 18.8515 19 18.853C19 18.8545 19 18.856 19 18.8575C19 18.859 19 18.8605 19 18.862C19 18.8635 19 18.8651 19 18.8666C19 18.8681 19 18.8696 19 18.8711C19 18.8726 19 18.8741 19 18.8756C19 18.8771 19 18.8786 19 18.8801C19 18.8816 19 18.8832 19 18.8847C19 18.8862 19 18.8877 19 18.8892C19 18.8907 19 18.8922 19 18.8938C19 18.8953 19 18.8968 19 18.8983C19 18.8998 19 18.9014 19 18.9029C19 18.9044 19 18.9059 19 18.9074C19 18.909 19 18.9105 19 18.912C19 18.9135 19 18.9151 19 18.9166C19 18.9181 19 18.9197 19 18.9212C19 18.9227 19 18.9242 19 18.9258C19 18.9273 19 18.9288 19 18.9304C19 18.9319 19 18.9334 19 18.935C19 18.9365 19 18.938 19 18.9396C19 18.9411 19 18.9426 19 18.9442C19 18.9457 19 18.9473 19 18.9488C19 18.9503 19 18.9519 19 18.9534C19 18.955 19 18.9565 19 18.9581C19 18.9596 19 18.9611 19 18.9627C19 18.9642 19 18.9658 19 18.9673C19 18.9689 19 18.9704 19 18.972C19 18.9735 19 18.9751 19 18.9766C19 18.9782 19 18.9797 19 18.9813C19 18.9829 19 18.9844 19 18.986C19 18.9875 19 18.9891 19 18.9906C19 18.9922 19 18.9938 19 18.9953C19 18.9969 19 18.9984 19 19H21ZM20 16H8V18H20V16Z" fill="#05141F"/>
<path d="M19 16.5L19 3H14H4V21H7" stroke="#05141F" stroke-width="2" stroke-linejoin="round"/>
<path d="M8 8H15" stroke="#05141F" stroke-width="2" stroke-linecap="square"/>
<path d="M8 12H15" stroke="#05141F" stroke-width="2" stroke-linecap="square"/>
</svg>
