<svg width="24" height="24" viewBox="0 0 24 24" fill="none" xmlns="http://www.w3.org/2000/svg">
<path d="M10.2322 20.219L9.50265 20.9029L9.50265 20.9029L10.2322 20.219ZM9.50439 18.3333H8.50439C8.50439 18.352 8.50491 18.3706 8.50596 18.3892L9.50439 18.3333ZM13.5 18.3333C13.5 18.7954 13.3273 19.2267 13.0382 19.535L14.4973 20.9029C15.1459 20.211 15.5 19.2857 15.5 18.3333H13.5ZM13.0382 19.535C12.7512 19.8412 12.3762 20 12 20V22C12.9498 22 13.8466 21.5969 14.4973 20.9029L13.0382 19.535ZM12 20C11.6237 20 11.2487 19.8412 10.9617 19.535L9.50265 20.9029C10.1533 21.5969 11.0501 22 12 22V20ZM15.5 18.3333V17H13.5V18.3333H15.5ZM10.9617 19.535C10.7335 19.2916 10.5302 18.7673 10.5028 18.2775L8.50596 18.3892C8.55119 19.1979 8.86365 20.2213 9.50265 20.9029L10.9617 19.535ZM10.5044 18.3333V17H8.50439V18.3333H10.5044Z" fill="#05141F"/>
<path fill-rule="evenodd" clip-rule="evenodd" d="M12.0003 4C8.55168 4 6 6.54366 6 10C6 10.4497 6.00214 10.8953 6.00424 11.3314C6.00962 12.4512 6.01469 13.5075 5.98243 14.405C5.95986 15.0328 5.91828 15.6173 5.83959 16.1201C5.79367 16.4134 5.72994 16.7163 5.63212 17H18.3682C18.2704 16.7164 18.2067 16.4135 18.1607 16.1201C18.082 15.6174 18.0404 15.0329 18.0178 14.4051C17.9854 13.5067 17.9905 12.4491 17.9958 11.3281C17.9979 10.8931 18 10.4485 18 10C18 6.54356 15.4488 4 12.0003 4ZM4 10C4 5.43717 7.44903 2 12.0003 2C16.5516 2 20 5.43727 20 10C20 10.477 19.9978 10.9385 19.9957 11.3823C19.9904 12.4844 19.9857 13.4781 20.0165 14.3331C20.0379 14.9285 20.0758 15.4224 20.1367 15.8107C20.2008 16.2206 20.2771 16.4177 20.3182 16.4863C20.5207 16.8244 20.7273 17.1816 20.9111 17.5871C21.0515 17.8966 21.025 18.2562 20.8409 18.5418C20.6568 18.8275 20.3402 19 20.0004 19H4C3.66018 19 3.34361 18.8275 3.15949 18.5418C2.97538 18.2562 2.94891 17.8966 3.08924 17.5871C3.27307 17.1816 3.47967 16.8244 3.6822 16.4863L4.54012 17L3.6822 16.4863C3.72323 16.4178 3.79948 16.2207 3.86365 15.8108C3.92443 15.4224 3.96232 14.9286 3.98372 14.3332C4.01442 13.479 4.00965 12.4865 4.00436 11.3858C4.00223 10.9409 4 10.4783 4 10Z" fill="#05141F"/>
</svg>
