<svg width="24" height="24" viewBox="0 0 24 24" fill="none" xmlns="http://www.w3.org/2000/svg">
<path fill-rule="evenodd" clip-rule="evenodd" d="M9.83998 7.5C9.64116 7.5 9.47998 7.66118 9.47998 7.86V16.14C9.47998 16.3388 9.64116 16.5 9.83998 16.5H10.9249C11.1237 16.5 11.2849 16.3388 11.2849 16.14V13.2319H12.5659C13.0546 13.2319 13.4974 13.1619 13.8937 13.0212C14.2894 12.8808 14.6285 12.6842 14.9101 12.431C15.1877 12.182 15.4011 11.885 15.5502 11.5406C15.7036 11.1958 15.78 10.8204 15.78 10.4149C15.78 9.98123 15.7037 9.58555 15.5505 9.22851C15.4015 8.87195 15.1877 8.56431 14.9102 8.30697C14.6285 8.05382 14.2896 7.85725 13.8939 7.71682C13.4975 7.57202 13.0546 7.5 12.5659 7.5H9.83998ZM13.2185 9.01529C13.0325 8.93485 12.8146 8.89537 12.5657 8.89537H11.196V11.8365H12.5657C12.8143 11.8365 13.032 11.7991 13.2177 11.723C13.4019 11.6475 13.5584 11.5437 13.6852 11.4123C13.8074 11.2814 13.8982 11.1313 13.9572 10.9623C14.02 10.7902 14.0514 10.6117 14.0514 10.4271C14.0514 10.2148 14.0203 10.0162 13.9576 9.83173C13.8988 9.64682 13.8079 9.48384 13.6856 9.34445C13.5589 9.20478 13.403 9.09513 13.2185 9.01529Z" fill="#05141F"/>
<path d="M12 21C16.9706 21 21 16.9706 21 12C21 7.02944 16.9706 3 12 3C7.02944 3 3 7.02944 3 12C3 16.9706 7.02944 21 12 21Z" stroke="#05141F" stroke-width="2"/>
</svg>
