<svg width="24" height="24" viewBox="0 0 24 24" fill="none" xmlns="http://www.w3.org/2000/svg">
<path d="M12 21C16.9706 21 21 16.9706 21 12C21 7.02944 16.9706 3 12 3C7.02944 3 3 7.02944 3 12C3 16.9706 7.02944 21 12 21Z" stroke="#05141F" stroke-width="2"/>
<path fill-rule="evenodd" clip-rule="evenodd" d="M10.7948 9.705C10.7948 9.0395 11.3343 8.5 11.9998 8.5C12.6653 8.5 13.2048 9.0395 13.2048 9.705C13.2048 10.3705 12.6653 10.91 11.9998 10.91C11.3343 10.91 10.7948 10.3705 10.7948 9.705ZM11.9998 6.5C10.2298 6.5 8.79484 7.93493 8.79484 9.705C8.79484 11.4751 10.2298 12.91 11.9998 12.91C13.7699 12.91 15.2048 11.4751 15.2048 9.705C15.2048 7.93493 13.7699 6.5 11.9998 6.5ZM6.37168 18.7771C7.33567 17.0015 9.45821 15.7 12 15.7C14.5417 15.7 16.6643 17.0015 17.6283 18.7771L19.3859 17.8229C18.0388 15.3416 15.2026 13.7 12 13.7C8.79737 13.7 5.96115 15.3416 4.61401 17.8229L6.37168 18.7771Z" fill="#05141F"/>
</svg>
