<svg width="24" height="24" viewBox="0 0 24 24" fill="none" xmlns="http://www.w3.org/2000/svg">
<path d="M20.0001 11.375V17.2778C20.0001 20.1111 18.0385 22 15.0962 22H12.1539H7.25006L7.25 11.375L13.1347 5L14.1154 7.83333L12.0313 11.375H20.0001Z" stroke="#05141F" stroke-width="2" stroke-linejoin="round"/>
<path d="M7.25 11.375H3V22H7.25" stroke="#05141F" stroke-width="2" stroke-linejoin="round"/>
<path d="M18.2643 4.61518L17.7368 5.78939C17.5954 6.10416 17.1485 6.10416 17.0071 5.78939L16.4795 4.61518C16.4394 4.52586 16.3679 4.45437 16.2786 4.41424L15.1044 3.88669C14.7896 3.74528 14.7896 3.29838 15.1044 3.15696L16.2786 2.62941C16.3679 2.58929 16.4394 2.51779 16.4795 2.42847L17.0071 1.25426C17.1485 0.939498 17.5954 0.939497 17.7368 1.25426L18.2643 2.42847C18.3045 2.51779 18.376 2.58929 18.4653 2.62941L19.6395 3.15696C19.9543 3.29838 19.9543 3.74528 19.6395 3.88669L18.4653 4.41424C18.376 4.45437 18.3045 4.52586 18.2643 4.61518Z" fill="#05141F"/>
<path d="M22.0524 8.40319L21.843 8.86908C21.7016 9.18384 21.2547 9.18384 21.1133 8.86908L20.904 8.40319C20.8639 8.31388 20.7924 8.24238 20.7031 8.20225L20.2372 7.99294C19.9224 7.85153 19.9224 7.40462 20.2372 7.26321L20.7031 7.0539C20.7924 7.01377 20.8639 6.94227 20.904 6.85296L21.1133 6.38708C21.2547 6.07231 21.7016 6.07231 21.843 6.38708L22.0524 6.85296C22.0925 6.94228 22.164 7.01377 22.2533 7.0539L22.7192 7.26321C23.0339 7.40462 23.0339 7.85153 22.7192 7.99294L22.2533 8.20225C22.164 8.24238 22.0925 8.31388 22.0524 8.40319Z" fill="#05141F"/>
</svg>
