<svg width="24" height="24" viewBox="0 0 24 24" fill="none" xmlns="http://www.w3.org/2000/svg">
<path d="M13.7206 2L10.2791 2L9.2791 4.28374L6.69559 5.78112L4.22058 5.50414L2.49982 8.49587L3.97366 10.5042L3.97366 13.4958L2.49976 15.5041L4.22052 18.4959L6.69557 18.2189L9.2791 19.7163L10.2791 22L13.7206 22L14.7206 19.7163L17.3041 18.2189L19.779 18.4959L21.4998 15.5041L20.0261 13.4959L20.026 10.5041L21.4997 8.49587L19.7789 5.50414L17.3041 5.78104L14.7206 4.28374L13.7206 2Z" stroke="#05141F" stroke-width="2" stroke-linejoin="round"/>
<path d="M15 12C15 13.6569 13.6569 15 12 15C10.3431 15 9 13.6569 9 12C9 10.3431 10.3431 9 12 9C13.6569 9 15 10.3431 15 12Z" stroke="#05141F" stroke-width="2"/>
</svg>
