<svg width="24" height="24" viewBox="0 0 24 24" fill="none" xmlns="http://www.w3.org/2000/svg">
<circle cx="9.5" cy="14.5" r="7.5" stroke="#05141F" stroke-width="2"/>
<path d="M10.4322 10.2215C10.6783 10.2775 10.9087 10.3616 11.1219 10.4751C11.4119 10.6295 11.6612 10.8309 11.8676 11.0784L11.8713 11.0828C12.0735 11.3342 12.2259 11.6256 12.3313 11.9525C12.4419 12.2809 12.4947 12.6427 12.4947 13.0342C12.4947 13.2068 12.3548 13.3467 12.1822 13.3467H10.7817C10.5608 13.3467 10.389 13.1675 10.38 12.9468C10.374 12.8 10.357 12.6545 10.3117 12.5138C10.2662 12.3722 10.2068 12.2694 10.1405 12.1955C10.0827 12.1338 10.013 12.0864 9.92714 12.0528L9.92427 12.0517C9.84109 12.0181 9.7426 11.9987 9.62428 11.9987C9.47502 11.9987 9.35959 12.02 9.27109 12.0538L9.26634 12.0556C9.17764 12.0879 9.11415 12.1298 9.06758 12.1773C9.01506 12.2346 8.97451 12.3014 8.94617 12.3807C8.91903 12.4665 8.90389 12.5649 8.90389 12.678C8.90389 12.7903 8.91881 12.8822 8.94364 12.9571C8.96768 13.0169 9.00952 13.0802 9.07827 13.1463L9.08242 13.1503C9.15038 13.2182 9.24992 13.2922 9.38925 13.3694C9.53106 13.4443 9.71359 13.5241 9.93988 13.608L9.94488 13.6099C10.3094 13.752 10.6422 13.9007 10.9428 14.0564C11.2548 14.2142 11.5286 14.4005 11.761 14.6167L11.7651 14.6206C11.9996 14.8468 12.1802 15.1095 12.3058 15.4066C12.4389 15.7094 12.5 16.0556 12.5 16.437C12.5 16.7908 12.4437 17.1199 12.3253 17.4201L12.3248 17.4215C12.2073 17.7155 12.0372 17.9734 11.8143 18.1916C11.593 18.4081 11.3291 18.5795 11.0269 18.7072L11.0234 18.7087C10.8048 18.7981 10.5704 18.8636 10.3212 18.9064V19.6C10.3212 19.8209 10.1421 20 9.92118 20H9.23747C9.01656 20 8.83747 19.8209 8.83747 19.6V18.9057C8.61026 18.8657 8.38785 18.8047 8.17048 18.7231L8.16702 18.7218C7.84641 18.5972 7.56223 18.4178 7.31679 18.1846C7.06224 17.9461 6.86443 17.6508 6.71953 17.3059L6.71904 17.3047C6.56935 16.9442 6.5 16.5262 6.5 16.0589C6.5 15.8863 6.63991 15.7464 6.8125 15.7464H8.30582C8.47841 15.7464 8.61832 15.8863 8.61832 16.0589C8.61832 16.295 8.65176 16.4733 8.70575 16.6044C8.76498 16.7443 8.83582 16.8395 8.91084 16.9035L8.91865 16.9102C8.99887 16.9833 9.08897 17.0336 9.19236 17.0635C9.31413 17.0988 9.43838 17.1163 9.5661 17.1163C9.7383 17.1163 9.87376 17.0945 9.97872 17.0588C10.0883 17.0178 10.1672 16.9663 10.2243 16.9094C10.2743 16.8597 10.3141 16.7986 10.3417 16.7224L10.3445 16.7147C10.3753 16.6361 10.3923 16.5482 10.3923 16.448C10.3923 16.3243 10.3737 16.2281 10.3446 16.1538L10.3405 16.1435C10.3142 16.0683 10.2711 15.9973 10.2063 15.9296C10.1369 15.8608 10.0387 15.7906 9.90411 15.7224L9.89615 15.7183C9.75906 15.6441 9.58622 15.5681 9.37467 15.4915L9.37264 15.4908C9.00708 15.3558 8.67161 15.2124 8.36686 15.0602C8.0505 14.9022 7.77514 14.7153 7.54478 14.4974C7.30623 14.2751 7.12119 14.016 6.99141 13.7218L6.99076 13.7203C6.85746 13.4139 6.79615 13.0638 6.79615 12.678C6.79615 12.3341 6.85281 12.0122 6.97107 11.7162C7.0877 11.4206 7.25445 11.1602 7.47229 10.9387C7.68949 10.7179 7.94957 10.5421 8.24845 10.41C8.46523 10.3141 8.6972 10.2444 8.94324 10.1995V9.4C8.94324 9.17909 9.12232 9 9.34324 9H10.0322C10.2532 9 10.4322 9.17909 10.4322 9.4V10.2215Z" fill="#05141F" stroke="white" stroke-width="0.2"/>
<path d="M6 7.5V2H18.5714L22 5.33333V22H11" stroke="#05141F" stroke-width="2" stroke-linecap="round" stroke-linejoin="round"/>
</svg>
