<svg width="24" height="24" viewBox="0 0 24 24" fill="none" xmlns="http://www.w3.org/2000/svg">
<g clip-path="url(#clip0_13905_195337)">
<path d="M4.99341 21.0198L16.6387 21.0198" stroke="#05141F" stroke-width="2" stroke-linecap="square" stroke-linejoin="round"/>
<path d="M3.86505 9.04593L3.74084 10.0382C3.42362 9.99848 3.14452 9.8095 2.98986 9.52971C2.8352 9.24992 2.82363 8.91305 2.95874 8.62332L3.86505 9.04593ZM19.2166 16.2045L20.1229 16.6271C19.9771 16.9397 19.6805 17.1551 19.3381 17.1971C18.9958 17.239 18.6559 17.1015 18.439 16.8333L19.2166 16.2045ZM14.4192 13.9674L14.4509 14.9669C14.1831 14.9754 13.923 14.8761 13.7291 14.6911L14.4192 13.9674ZM8.6624 11.283L8.55408 12.2771C8.33936 12.2537 8.13798 12.1614 7.98008 12.014L8.6624 11.283ZM11.7693 12.0181L12.1864 11.1092L11.7693 12.0181ZM8.54909 21.4365C8.31882 21.9385 7.72521 22.1588 7.22322 21.9285C6.72123 21.6983 6.50096 21.1046 6.73123 20.6027L8.54909 21.4365ZM15.4179 1.9445L15.8405 1.03819L17.6532 1.88342L17.2305 2.78973L15.4179 1.9445ZM6.52622 9.71759L6.0973 10.6209L6.52622 9.71759ZM17.0124 14.3185L16.6175 15.2372L17.0124 14.3185ZM4.99506 8.98882L4.77136 9.46855L2.95874 8.62332L3.18244 8.14358L4.99506 8.98882ZM18.3103 15.7819L18.534 15.3021L20.3466 16.1474L20.1229 16.6271L18.3103 15.7819ZM15.4949 5.45822C12.3324 5.94158 10.9616 8.71852 9.56871 11.7056L7.75609 10.8604C9.04765 8.09061 10.8087 4.15125 15.1927 3.48118L15.4949 5.45822ZM16.1982 3.95004C18.5028 7.73911 16.6171 11.6203 15.3255 14.39L13.5129 13.5448C14.9058 10.5577 16.1519 7.72263 14.4894 4.98937L16.1982 3.95004ZM3.18244 8.14358C5.39262 3.40383 11.0267 1.35321 15.7664 3.5634L14.9212 5.37601C11.1825 3.63264 6.73843 5.25015 4.99506 8.98882L3.18244 8.14358ZM18.534 15.3021C20.2773 11.5634 18.6598 7.11938 14.9212 5.37601L15.7664 3.5634C20.5061 5.77358 22.5568 11.4076 20.3466 16.1474L18.534 15.3021ZM12.6782 12.435L8.54909 21.4365L6.73123 20.6027L10.8604 11.6011L12.6782 12.435ZM17.2305 2.78973L16.2501 4.89232L14.4375 4.04708L15.4179 1.9445L17.2305 2.78973ZM3.86505 9.04593C3.98926 8.05368 3.98936 8.05369 3.98947 8.0537C3.98951 8.05371 3.98963 8.05372 3.98972 8.05374C3.9899 8.05376 3.9901 8.05378 3.99033 8.05381C3.9908 8.05387 3.99136 8.05394 3.99203 8.05403C3.99337 8.0542 3.99511 8.05442 3.99726 8.0547C4.00156 8.05525 4.00746 8.05601 4.01489 8.05699C4.02974 8.05895 4.05073 8.06176 4.07726 8.06545C4.13029 8.07281 4.20562 8.08368 4.29845 8.09812C4.48362 8.12693 4.74099 8.1704 5.03142 8.22934C5.58933 8.34255 6.35506 8.52932 6.95514 8.81424L6.0973 10.6209C5.72914 10.4461 5.16428 10.2971 4.63367 10.1894C4.37984 10.1379 4.15345 10.0996 3.99094 10.0743C3.90993 10.0617 3.84544 10.0524 3.8021 10.0464C3.78045 10.0434 3.76412 10.0412 3.7537 10.0399C3.7485 10.0392 3.74477 10.0387 3.7426 10.0384C3.74152 10.0383 3.74082 10.0382 3.74053 10.0382C3.74038 10.0381 3.74033 10.0381 3.74038 10.0381C3.74041 10.0381 3.74046 10.0381 3.74053 10.0382C3.74057 10.0382 3.74065 10.0382 3.74067 10.0382C3.74075 10.0382 3.74084 10.0382 3.86505 9.04593ZM6.95514 8.81424C7.53408 9.08913 8.14394 9.5433 8.57173 9.88767C8.79441 10.0669 8.98535 10.2309 9.12095 10.3503C9.18893 10.4102 9.24347 10.4593 9.28166 10.494C9.30076 10.5114 9.31581 10.5252 9.32643 10.535C9.33174 10.5399 9.33595 10.5438 9.33902 10.5466C9.34055 10.548 9.34179 10.5492 9.34275 10.5501C9.34322 10.5505 9.34362 10.5509 9.34395 10.5512C9.34412 10.5514 9.34426 10.5515 9.34439 10.5516C9.34446 10.5517 9.34454 10.5518 9.34457 10.5518C9.34465 10.5519 9.34472 10.5519 8.6624 11.283C7.98008 12.014 7.98014 12.0141 7.9802 12.0141C7.98022 12.0142 7.98027 12.0142 7.9803 12.0142C7.98035 12.0143 7.98039 12.0143 7.98041 12.0143C7.98044 12.0144 7.98041 12.0143 7.98031 12.0142C7.98009 12.014 7.9796 12.0136 7.97883 12.0129C7.97729 12.0114 7.97464 12.009 7.97092 12.0056C7.96348 11.9987 7.95179 11.988 7.93621 11.9738C7.90501 11.9454 7.85836 11.9034 7.79906 11.8512C7.6801 11.7464 7.51218 11.6022 7.31759 11.4456C6.91086 11.1182 6.45263 10.7896 6.0973 10.6209L6.95514 8.81424ZM8.6624 11.283C8.77072 10.2889 8.77082 10.2889 8.77093 10.2889C8.77098 10.2889 8.7711 10.2889 8.77119 10.2889C8.77138 10.2889 8.7716 10.289 8.77185 10.289C8.77235 10.289 8.77297 10.2891 8.77371 10.2892C8.77519 10.2894 8.77714 10.2896 8.77957 10.2898C8.78441 10.2904 8.79112 10.2911 8.79961 10.2921C8.81658 10.2941 8.8407 10.2969 8.87125 10.3007C8.93233 10.3082 9.01933 10.3193 9.12668 10.3343C9.34088 10.3642 9.63867 10.4097 9.97473 10.4725C10.6236 10.5939 11.502 10.7951 12.1864 11.1092L11.3522 12.9269C10.9034 12.721 10.2284 12.5547 9.60708 12.4385C9.30806 12.3825 9.0416 12.3418 8.85032 12.3151C8.75493 12.3018 8.67888 12.2921 8.62759 12.2858C8.60196 12.2826 8.58257 12.2804 8.57008 12.2789C8.56383 12.2782 8.55932 12.2777 8.55663 12.2774C8.55528 12.2772 8.55439 12.2771 8.55396 12.2771C8.55375 12.2771 8.55365 12.277 8.55367 12.277C8.55368 12.277 8.55372 12.2771 8.55379 12.2771C8.55382 12.2771 8.5539 12.2771 8.55391 12.2771C8.55399 12.2771 8.55408 12.2771 8.6624 11.283ZM12.1864 11.1092C12.8916 11.4328 13.6357 11.9886 14.1633 12.4181C14.4366 12.6405 14.6707 12.8447 14.8368 12.9935C14.92 13.0681 14.9867 13.1292 15.0332 13.1724C15.0565 13.194 15.0747 13.2111 15.0876 13.2231C15.094 13.2292 15.0991 13.234 15.1027 13.2374C15.1045 13.2391 15.106 13.2405 15.1071 13.2416C15.1077 13.2421 15.1081 13.2426 15.1085 13.2429C15.1087 13.2431 15.1088 13.2433 15.109 13.2434C15.1091 13.2435 15.1092 13.2435 15.1092 13.2436C15.1093 13.2437 15.1093 13.2437 14.4192 13.9674C13.7291 14.6911 13.7292 14.6912 13.7292 14.6912C13.7292 14.6913 13.7293 14.6913 13.7293 14.6913C13.7294 14.6914 13.7294 14.6914 13.7294 14.6914C13.7294 14.6914 13.7293 14.6914 13.7292 14.6912C13.7289 14.6909 13.7282 14.6903 13.7272 14.6893C13.7251 14.6874 13.7217 14.6841 13.717 14.6797C13.7076 14.6708 13.6928 14.657 13.6733 14.6389C13.6342 14.6027 13.5759 14.5492 13.502 14.4829C13.3536 14.3499 13.1441 14.1672 12.9009 13.9693C12.3955 13.558 11.8146 13.1391 11.3522 12.9269L12.1864 11.1092ZM14.4192 13.9674C14.3875 12.9679 14.3876 12.9679 14.3878 12.9679C14.3878 12.9679 14.388 12.9679 14.3881 12.9679C14.3883 12.9679 14.3886 12.9679 14.3888 12.9679C14.3894 12.9679 14.39 12.9679 14.3908 12.9678C14.3923 12.9678 14.3942 12.9677 14.3965 12.9677C14.401 12.9675 14.4072 12.9674 14.4149 12.9672C14.4302 12.9668 14.4516 12.9664 14.4784 12.9661C14.532 12.9653 14.6076 12.9648 14.7005 12.9656C14.8857 12.9671 15.1431 12.9736 15.4339 12.9941C15.9825 13.0327 16.7739 13.1275 17.4073 13.3998L16.6175 15.2372C16.312 15.1059 15.8069 15.0253 15.2936 14.9892C15.0535 14.9723 14.8386 14.9668 14.6842 14.9655C14.6074 14.9649 14.5464 14.9653 14.5059 14.9659C14.4856 14.9661 14.4705 14.9665 14.4612 14.9667C14.4565 14.9668 14.4533 14.9669 14.4515 14.9669C14.4507 14.9669 14.4502 14.9669 14.4501 14.967C14.45 14.967 14.4501 14.967 14.4502 14.9669C14.4503 14.9669 14.4504 14.9669 14.4505 14.9669C14.4506 14.9669 14.4507 14.9669 14.4507 14.9669C14.4508 14.9669 14.4509 14.9669 14.4192 13.9674ZM17.4073 13.3998C18.1104 13.7021 18.773 14.2889 19.2073 14.7176C19.4377 14.9451 19.6315 15.1561 19.7679 15.3106C19.8364 15.3881 19.8912 15.4522 19.9296 15.4978C19.9488 15.5207 19.964 15.539 19.9749 15.5521C19.9803 15.5587 19.9847 15.564 19.9879 15.568C19.9895 15.5699 19.9908 15.5716 19.9919 15.5728C19.9924 15.5735 19.9928 15.574 19.9932 15.5745C19.9934 15.5747 19.9936 15.575 19.9937 15.5751C19.9938 15.5752 19.9939 15.5754 19.9939 15.5754C19.994 15.5755 19.9941 15.5756 19.2166 16.2045C18.439 16.8333 18.4391 16.8334 18.4392 16.8335C18.4392 16.8335 18.4393 16.8336 18.4393 16.8337C18.4394 16.8338 18.4395 16.8338 18.4395 16.8339C18.4396 16.834 18.4396 16.8341 18.4396 16.834C18.4395 16.8339 18.4392 16.8335 18.4385 16.8327C18.4373 16.8312 18.435 16.8283 18.4316 16.8243C18.4249 16.8161 18.4141 16.8031 18.3995 16.7857C18.3702 16.751 18.326 16.6991 18.2691 16.6348C18.1549 16.5056 17.9928 16.329 17.8022 16.1409C17.3947 15.7386 16.9552 15.3824 16.6175 15.2372L17.4073 13.3998Z" fill="#05141F"/>
</g>
<defs>
<clipPath id="clip0_13905_195337">
<rect width="24" height="24" fill="white"/>
</clipPath>
</defs>
</svg>
