<svg width="24" height="24" viewBox="0 0 24 24" fill="none" xmlns="http://www.w3.org/2000/svg">
<path d="M21 8H22C22 7.44772 21.5523 7 21 7V8ZM21 20V21C21.5523 21 22 20.5523 22 20H21ZM3 20H2C2 20.5523 2.44772 21 3 21V20ZM20 8V20H22V8H20ZM21 19H3V21H21V19ZM5 9H21V7H5V9ZM4 20V9H2V20H4ZM5 7C4.82523 7 4.56676 6.90255 4.33211 6.66789C4.09745 6.43324 4 6.17477 4 6L2 6C2 6.82523 2.40255 7.56676 2.91789 8.08211C3.43324 8.59745 4.17477 9 5 9V7Z" fill="#05141F"/>
<path d="M19 4H5C3.89543 4 3 4.89543 3 6V8" stroke="#05141F" stroke-width="2" stroke-linecap="square" stroke-linejoin="round"/>
<path d="M16 14C16 12.8954 16.8954 12 18 12H21V16H18C16.8954 16 16 15.1046 16 14Z" stroke="#05141F" stroke-width="2"/>
</svg>
