<svg width="24" height="24" viewBox="0 0 24 24" fill="none" xmlns="http://www.w3.org/2000/svg">
<path d="M9.60678 2V1C9.23131 1 8.88748 1.21032 8.71649 1.5446L9.60678 2ZM6.44305 5.98904L5.98764 6.87933L7.76822 7.79013L8.22362 6.89985L6.44305 5.98904ZM14.3333 2L15.2187 1.53517C15.046 1.20611 14.705 1 14.3333 1V2ZM15.7813 6.90928L16.2461 7.79468L18.0169 6.86501L17.5521 5.97961L15.7813 6.90928ZM19 12H18V12H19ZM9.60678 22L8.71649 22.4554C8.88748 22.7897 9.23131 23 9.60678 23V22ZM8.22362 17.1002L7.76822 16.2099L5.98764 17.1207L6.44305 18.011L8.22362 17.1002ZM14.3333 22V23C14.705 23 15.046 22.7939 15.2187 22.4648L14.3333 22ZM17.5521 18.0204L18.0169 17.135L16.2461 16.2053L15.7813 17.0907L17.5521 18.0204ZM8.71649 1.5446L6.44305 5.98904L8.22362 6.89985L10.4971 2.4554L8.71649 1.5446ZM13.4479 2.46483L15.7813 6.90928L17.5521 5.97961L15.2187 1.53517L13.4479 2.46483ZM14.3333 1H9.60678V3H14.3333V1ZM12 17.6667C8.63975 17.6667 6 15.0842 6 12H4C4 16.2796 7.62826 19.6667 12 19.6667V17.6667ZM6 12C6 8.9158 8.63975 6.33333 12 6.33333V4.33333C7.62826 4.33333 4 7.7204 4 12H6ZM12 6.33333C15.3602 6.33333 18 8.9158 18 12H20C20 7.7204 16.3717 4.33333 12 4.33333V6.33333ZM18 12C18 15.0668 15.312 17.6667 12 17.6667V19.6667C16.3165 19.6667 20 16.2688 20 12H18ZM10.4971 21.5446L8.22362 17.1002L6.44305 18.011L8.71649 22.4554L10.4971 21.5446ZM15.2187 22.4648L17.5521 18.0204L15.7813 17.0907L13.4479 21.5352L15.2187 22.4648ZM14.3333 21H9.60678V23H14.3333V21Z" fill="#05141F"/>
</svg>
