<svg width="24" height="24" viewBox="0 0 24 24" fill="none" xmlns="http://www.w3.org/2000/svg">
<path d="M6.69995 6.6V3H18.0142L21.1 6V21H11.2H6.69995V16.5" stroke="#05141F" stroke-width="2" stroke-linecap="round" stroke-linejoin="round"/>
<path d="M13 7.5H4V16.5H13V7.5Z" stroke="#05141F" stroke-width="2" stroke-linejoin="round"/>
<path fill-rule="evenodd" clip-rule="evenodd" d="M6.88707 14.43C6.69663 14.43 6.53259 14.2958 6.49496 14.1091L5.67663 10.0491C5.62671 9.8014 5.81608 9.57005 6.06875 9.57005H6.79647C6.99572 9.57005 7.16458 9.71668 7.19252 9.91396L7.45968 11.8005L7.8505 9.88988C7.88858 9.70372 8.05237 9.57005 8.24239 9.57005H8.75306C8.94294 9.57005 9.10665 9.70353 9.14487 9.88952L9.53722 11.7987L9.80285 9.91421C9.83067 9.71682 9.99959 9.57005 10.1989 9.57005H10.9312C11.1839 9.57005 11.3732 9.8014 11.3233 10.0491L10.505 14.1091C10.4674 14.2958 10.3033 14.43 10.1129 14.43H9.32708C9.14092 14.43 8.97936 14.3016 8.93739 14.1202L8.49183 12.1951L8.0619 14.1174C8.02102 14.3001 7.85882 14.43 7.67154 14.43H6.88707Z" fill="#05141F"/>
</svg>
