<svg width="24" height="24" viewBox="0 0 24 24" fill="none" xmlns="http://www.w3.org/2000/svg">
<path d="M21.0292 2.38014C21.0293 4.45958 19.0386 8.74964 13.1027 10.5787" stroke="#1F2023" stroke-width="1.5" stroke-linecap="square"/>
<path d="M13.7573 6.17041L12.4891 10.9034C12.4748 10.9568 12.5065 11.0116 12.5598 11.0259L17.2929 12.2941" stroke="#1F2023" stroke-width="1.5" stroke-linecap="square"/>
<path d="M6.12695 16.6555H18.3176" stroke="#1F2023" stroke-width="1.5" stroke-miterlimit="10" stroke-linecap="square"/>
<path d="M1 13H6" stroke="#1F2023" stroke-width="1.5" stroke-miterlimit="10" stroke-linecap="square"/>
<path d="M4.8999 8.5L2.23044 14.9118C2.07832 15.2772 2 15.6691 2 16.0649V21.9C2 21.9552 2.04477 22 2.1 22H5.9C5.95523 22 6 21.9552 6 21.9V20.0593C6 20.0041 6.04477 19.9593 6.1 19.9593H17.9C17.9552 19.9593 18 20.0041 18 20.0593V21.9C18 21.9552 18.0448 22 18.1 22H21.9C21.9552 22 22 21.9552 22 21.9V16.787" stroke="#1F2023" stroke-width="1.5" stroke-linecap="square"/>
</svg>
