<svg width="24" height="24" viewBox="0 0 24 24" fill="none" xmlns="http://www.w3.org/2000/svg">
<path d="M3.5 3.1C3.5 3.04477 3.54477 3 3.6 3H20.4C20.4552 3 20.5 3.04477 20.5 3.1V6.4C20.5 6.45523 20.4552 6.5 20.4 6.5H3.6C3.54477 6.5 3.5 6.45523 3.5 6.4V3.1Z" stroke="#1F2023" stroke-width="1.5"/>
<path d="M3.5 17.6C3.5 17.5448 3.54477 17.5 3.6 17.5H20.4C20.4552 17.5 20.5 17.5448 20.5 17.6V20.9C20.5 20.9552 20.4552 21 20.4 21H3.6C3.54477 21 3.5 20.9552 3.5 20.9V17.6Z" stroke="#1F2023" stroke-width="1.5"/>
<path d="M5.40039 6V17.9998" stroke="#1F2023" stroke-width="1.5"/>
<path d="M9.7998 6V17.9998" stroke="#1F2023" stroke-width="1.5"/>
<path d="M14.1997 6V17.9998" stroke="#1F2023" stroke-width="1.5"/>
<path d="M18.5996 6V17.9998" stroke="#1F2023" stroke-width="1.5"/>
</svg>
