<svg width="24" height="24" viewBox="0 0 24 24" fill="none" xmlns="http://www.w3.org/2000/svg">
<path d="M18 11.668V2.76797C18 2.71274 17.9552 2.66797 17.9 2.66797H4.1C4.04477 2.66797 4 2.71274 4 2.76797V20.568C4 20.6232 4.04477 20.668 4.1 20.668H13" stroke="#1F2023" stroke-width="1.5"/>
<path d="M6.5 5.26797C6.5 5.21274 6.54477 5.16797 6.6 5.16797H15.4C15.4552 5.16797 15.5 5.21274 15.5 5.26797V9.06797C15.5 9.1232 15.4552 9.16797 15.4 9.16797H6.6C6.54477 9.16797 6.5 9.1232 6.5 9.06797V5.26797Z" stroke="#1F2023" stroke-width="1.5"/>
<path d="M7 11.918H6.25V13.418H7V11.918ZM7 13.418H8V11.918H7V13.418Z" fill="#1F2023"/>
<path d="M10 11.918H9.25V13.418H10V11.918ZM10 13.418H11V11.918H10V13.418Z" fill="#1F2023"/>
<path d="M7 14.4189H6.25V15.9189H7V14.4189ZM7 15.9189H8V14.4189H7V15.9189Z" fill="#1F2023"/>
<path d="M7 16.9189H6.25V18.4189H7V16.9189ZM7 18.4189H8V16.9189H7V18.4189Z" fill="#1F2023"/>
<path d="M10 14.4189H9.25V15.9189H10V14.4189ZM10 15.9189H11V14.4189H10V15.9189Z" fill="#1F2023"/>
<path d="M10 16.9189H9.25V18.4189H10V16.9189ZM10 18.4189H11V16.9189H10V18.4189Z" fill="#1F2023"/>
<path d="M16.5 11.668C14.567 11.668 13 12.3749 13 13.2469V20.089C13 20.9611 14.567 21.668 16.5 21.668C18.433 21.668 20 20.9611 20 20.089V13.2469C20 12.3749 18.433 11.668 16.5 11.668Z" stroke="#1F2023" stroke-width="1.5"/>
<path d="M13 14.089C13 14.9611 14.567 15.668 16.5 15.668C18.433 15.668 20 14.9611 20 14.089" stroke="#1F2023" stroke-width="1.5"/>
<path d="M13 16.9308C13 17.8028 14.567 18.5098 16.5 18.5098C18.433 18.5098 20 17.8028 20 16.9308" stroke="#1F2023" stroke-width="1.5"/>
</svg>
