<svg width="24" height="24" viewBox="0 0 24 24" fill="none" xmlns="http://www.w3.org/2000/svg">
<path d="M1.30308 17.2229L1.02595 17.9198L2.41978 18.4741L2.69692 17.7771L1.30308 17.2229ZM6.37423 6.5L7.06765 6.21423L5.67731 6.22286L6.37423 6.5ZM10.2141 17.7858L10.4999 18.4792L11.8867 17.9077L11.6009 17.2142L10.2141 17.7858ZM2.69692 17.7771L7.07115 6.77714L5.67731 6.22286L1.30308 17.2229L2.69692 17.7771ZM5.68081 6.78577L10.2141 17.7858L11.6009 17.2142L7.06765 6.21423L5.68081 6.78577ZM3.09759 15.4899H9.77003V13.9899H3.09759V15.4899Z" fill="#1F2023"/>
<path d="M22 14.6877C21.1057 16.2198 19.4596 17.25 17.5802 17.25C14.7417 17.25 12.4346 14.8991 12.4346 12.0066C12.4346 9.11415 14.7287 6.75 17.5802 6.75C19.4467 6.75 21.0798 7.76698 21.9871 9.27264" stroke="#1F2023" stroke-width="1.5" stroke-miterlimit="10"/>
<path d="M20.6758 3L2.67578 21" stroke="#1F2023" stroke-width="1.5" stroke-linecap="square"/>
</svg>
