<svg width="24" height="24" viewBox="0 0 24 24" fill="none" xmlns="http://www.w3.org/2000/svg">
<path d="M15.8523 14.75H8.14771C8.07696 14.75 8.02859 14.6785 8.05487 14.6129L11.9077 4.98211C11.9412 4.8983 12.0599 4.89831 12.0934 4.98212L15.9452 14.6129C15.9714 14.6786 15.923 14.75 15.8523 14.75Z" stroke="#1F2023" stroke-width="1.5" stroke-linecap="round" stroke-linejoin="round"/>
<path d="M12.75 15.25L12.75 14.5L11.25 14.5L11.25 15.25L12.75 15.25ZM11.25 15.25L11.25 19.25L12.75 19.25L12.75 15.25L11.25 15.25Z" fill="#1F2023"/>
<path d="M21.7284 14.035C20.8926 18.1236 17.5457 21.3937 13.2183 21.8965C9.49924 22.3286 6.02663 20.604 4.02445 17.7045L2.94092 16.1035" stroke="#1F2023" stroke-width="1.5" stroke-linecap="square"/>
<path d="M6.35797 17.0802L2.33061 15.2484C2.25973 15.2162 2.18107 15.2736 2.19024 15.351L2.7157 19.7847" stroke="#1F2023" stroke-width="1.5"/>
<path d="M2.27162 9.96504C3.10745 5.87643 6.45431 2.60629 10.7817 2.10348C14.5008 1.67136 17.9734 3.39604 19.9756 6.29549L21.0591 7.89648" stroke="#1F2023" stroke-width="1.5" stroke-linecap="square"/>
<path d="M17.642 6.91976L21.6694 8.75159C21.7403 8.78383 21.8189 8.72637 21.8098 8.64904L21.2843 4.21528" stroke="#1F2023" stroke-width="1.5"/>
</svg>
