<svg width="24" height="24" viewBox="0 0 24 24" fill="none" xmlns="http://www.w3.org/2000/svg">
<path d="M21.9999 8.48576C21.9999 8.48576 20.8814 9.59105 18.4515 9.59105C16.0215 9.59105 14.7989 8 12.365 8C9.93113 8 9 9.39825 9 9.39825" stroke="#1F2023" stroke-width="1.5" stroke-linecap="square"/>
<path d="M21.9999 11.6903C21.9999 11.6903 20.8814 12.7956 18.4515 12.7956C16.0215 12.7956 14.7989 11.2046 12.365 11.2046C9.93113 11.2046 9 12.6028 9 12.6028" stroke="#1F2023" stroke-width="1.5" stroke-linecap="square"/>
<path d="M21.9999 14.8947C21.9999 14.8947 20.8814 16 18.4515 16C16.0215 16 14.7989 14.4089 12.365 14.4089C9.93113 14.4089 9 15.8072 9 15.8072" stroke="#1F2023" stroke-width="1.5" stroke-linecap="square"/>
<path d="M19.7558 5.55748C17.9106 3.38214 15.1472 2 12.0587 2C6.50344 2 2 6.47162 2 11.9876C2 17.5037 6.50344 21.9753 12.0587 21.9753C14.906 21.9753 17.477 20.8006 19.3069 18.9128" stroke="#1F2023" stroke-width="1.5" stroke-linecap="square"/>
</svg>
