<svg width="24" height="24" viewBox="0 0 24 24" fill="none" xmlns="http://www.w3.org/2000/svg">
<path d="M17.2629 8H19.8698C19.9355 8 19.9834 8.06228 19.9665 8.12577L17.2198 18.4258C17.2081 18.4695 17.1685 18.5 17.1232 18.5H11.057C11.0182 18.5 10.9828 18.5225 10.9664 18.5577L9.38693 21.9423C9.3705 21.9775 9.33517 22 9.29631 22H6.15797C6.08457 22 6.03618 21.9236 6.06758 21.8572L9.28625 15.0572C9.30279 15.0223 9.33798 15 9.37664 15H13.7771C13.8155 15 13.8506 14.9779 13.8672 14.9433L17.1728 8.05673C17.1894 8.02206 17.2245 8 17.2629 8Z" stroke="#1F2023" stroke-width="1.5"/>
<path d="M11.4985 11.3177L19.0002 21" stroke="#1F2023" stroke-width="1.5"/>
<ellipse cx="18.598" cy="4.4" rx="1.40224" ry="1.4" stroke="#1F2023" stroke-width="1.5"/>
<circle cx="8" cy="6" r="4" stroke="#1F2023" stroke-width="1.5"/>
</svg>
