<svg width="24" height="24" viewBox="0 0 24 24" fill="none" xmlns="http://www.w3.org/2000/svg">
<path d="M4.5 9.5V14.9638C4.5 14.9872 4.4918 15.0098 4.47682 15.0278L2.13668 17.836C2.0824 17.9011 2.12872 18 2.21351 18H21.7865C21.8713 18 21.9176 17.9011 21.8633 17.836L19.5232 15.0278C19.5082 15.0098 19.5 14.9872 19.5 14.9638V9.5C19.5 5.35786 16.1421 2 12 2C7.85786 2 4.5 5.35786 4.5 9.5Z" stroke="#1F2023" stroke-width="1.5" stroke-linecap="square"/>
<path d="M9 18V18.4V19C9 20.6569 10.3431 22 12 22V22C13.6569 22 15 20.6569 15 19V18.4V18" stroke="#1F2023" stroke-width="1.5" stroke-linecap="square"/>
</svg>
