<svg width="24" height="24" viewBox="0 0 24 24" fill="none" xmlns="http://www.w3.org/2000/svg">
<path d="M1.08151 21.8518L11.9124 2.15931C11.9504 2.09023 12.0496 2.09023 12.0876 2.15931L22.9185 21.8518C22.9551 21.9185 22.9069 22 22.8309 22L1.16913 22C1.09307 22 1.04485 21.9185 1.08151 21.8518Z" stroke="#1F2023" stroke-width="1.5" stroke-linecap="square"/>
<path d="M11.25 10.71L11.25 9.95996L12.75 9.95996L12.75 10.71L11.25 10.71ZM11.25 15.71L11.25 10.71L12.75 10.71L12.75 15.71L11.25 15.71Z" fill="#1F2023"/>
<path d="M12 18.79C11.4477 18.79 11 18.3423 11 17.79C11 17.2378 11.4477 16.79 12 16.79C12.5523 16.79 13 17.2378 13 17.79C13 18.3423 12.5523 18.79 12 18.79Z" fill="#1F2023"/>
</svg>
