<svg width="24" height="24" viewBox="0 0 24 24" fill="none" xmlns="http://www.w3.org/2000/svg">
<path d="M4 17.1C4 17.0448 4.04477 17 4.1 17H12.9C12.9552 17 13 17.0448 13 17.1V20.9C13 20.9552 12.9552 21 12.9 21H4.1C4.04477 21 4 20.9552 4 20.9V17.1Z" stroke="#1F2023" stroke-width="1.5" stroke-linecap="square"/>
<path d="M10.25 17L12 9.96296C12 9.57386 11.9095 9.18857 11.7336 8.82909C11.5577 8.4696 11.2999 8.14297 10.9749 7.86783C10.6499 7.5927 10.264 7.37444 9.83939 7.22554C9.41475 7.07664 8.95963 7 8.5 7C8.04037 7 7.58525 7.07664 7.16061 7.22554C6.73597 7.37444 6.35013 7.5927 6.02513 7.86783C5.70012 8.14297 5.44231 8.4696 5.26642 8.82909C5.09053 9.18857 5 9.57386 5 9.96296L6.75 17" stroke="#1F2023" stroke-width="1.5"/>
<path d="M8 7V3.1C8 3.04477 8.04477 3 8.1 3H15.9586C15.9851 3 16.0105 3.01054 16.0293 3.02929L19.9707 6.97071C19.9895 6.98946 20 7.0149 20 7.04142V18.9C20 18.9552 19.9552 19 19.9 19H13" stroke="#1F2023" stroke-width="1.5" stroke-linecap="square"/>
</svg>
