<svg width="24" height="24" viewBox="0 0 24 24" fill="none" xmlns="http://www.w3.org/2000/svg">
<g clip-path="url(#clip0_6035_21110)">
<path fill-rule="evenodd" clip-rule="evenodd" d="M9.84265 7.08742C9.91123 7.04932 9.91123 6.95068 9.84265 6.91258L5.64856 4.58254C5.58191 4.54551 5.5 4.5937 5.5 4.66995L5.5 9.33005C5.5 9.4063 5.58191 9.45449 5.64856 9.41746L9.84265 7.08742Z" stroke="#1F2023" stroke-width="1.5" stroke-linejoin="round"/>
<path d="M10.4277 18.002H19.5706" stroke="#1F2023" stroke-width="1.5" stroke-miterlimit="10" stroke-linecap="square"/>
<path d="M7.38086 22.9V18.4222C7.38086 18.1034 7.43167 17.7866 7.53139 17.4838L9.64394 11.0687C9.65745 11.0277 9.69575 11 9.73893 11H14.9999H20.2609C20.3041 11 20.3424 11.0277 20.3559 11.0687L22.4686 17.4876C22.5682 17.7903 22.619 18.1069 22.619 18.4255V22.9C22.619 22.9552 22.5742 23 22.519 23H19.6713C19.6161 23 19.5713 22.9552 19.5713 22.9V21.5201C19.5713 21.4649 19.5266 21.4201 19.4713 21.4201H10.5285C10.4732 21.4201 10.4285 21.4649 10.4285 21.5201V22.9C10.4285 22.9552 10.3837 23 10.3285 23H7.48086C7.42563 23 7.38086 22.9552 7.38086 22.9Z" stroke="#1F2023" stroke-width="1.5" stroke-linecap="square"/>
<path d="M7 15.2578H23" stroke="#1F2023" stroke-width="1.5" stroke-miterlimit="10" stroke-linecap="square"/>
<path d="M14 7.33239C14 3.83511 11.0899 1 7.5 1C3.91015 1 1 3.83511 1 7.33239C1 9.81349 2.46467 11.9613 4.59762 13" stroke="#1F2023" stroke-width="1.5"/>
</g>
<defs>
<clipPath id="clip0_6035_21110">
<rect width="24" height="24" fill="white"/>
</clipPath>
</defs>
</svg>
