<svg width="24" height="24" viewBox="0 0 24 24" fill="none" xmlns="http://www.w3.org/2000/svg">
<path d="M6.95576 8.5L3.1 8.5C3.04477 8.5 3 8.54477 3 8.6L3 15.4C3 15.4552 3.04477 15.5 3.1 15.5L6.95576 15.5C6.98394 15.5 7.0108 15.5119 7.02976 15.5327L11.826 20.8086C11.8875 20.8762 12 20.8327 12 20.7413L12 3.25866C12 3.16726 11.8875 3.12376 11.826 3.19139L7.02976 8.46727C7.0108 8.48811 6.98394 8.5 6.95576 8.5Z" stroke="#1F2023" stroke-width="1.5" stroke-linecap="square" stroke-linejoin="round"/>
<path d="M17.4143 17.9048L16.8191 18.3611L17.7317 19.5515L18.3269 19.0952L17.4143 17.9048ZM20.141 15.6901L20.8157 16.0177L20.8157 16.0177L20.141 15.6901ZM20.9989 12.0578L21.7488 12.0698L21.7488 12.0698L20.9989 12.0578ZM20.2573 8.39496L20.9424 8.0898L20.2573 8.39496ZM15.5437 14.9794L14.9485 15.4358L15.8611 16.6262L16.4563 16.1698L15.5437 14.9794ZM17.2613 14.0136L16.5867 13.686L16.5867 13.686L17.2613 14.0136ZM17.7379 11.9956L16.988 11.9837L16.988 11.9837L17.7379 11.9956ZM17.3259 9.96072L16.6408 10.2659L16.6408 10.2659L17.3259 9.96072ZM16.5925 7.77391L16.014 7.29658L15.0593 8.45357L15.6378 8.9309L16.5925 7.77391ZM18.3269 19.0952C19.3721 18.2939 20.2231 17.2379 20.8157 16.0177L19.4663 15.3625C18.9714 16.3816 18.2665 17.2514 17.4143 17.9048L18.3269 19.0952ZM20.8157 16.0177C21.4081 14.7977 21.7269 13.445 21.7488 12.0698L20.249 12.0459C20.2305 13.2064 19.9613 14.3432 19.4663 15.3625L20.8157 16.0177ZM21.7488 12.0698C21.7707 10.6945 21.4952 9.33096 20.9424 8.0898L19.5722 8.70013C20.0347 9.73851 20.2675 10.8853 20.249 12.0459L21.7488 12.0698ZM20.9424 8.0898C20.3895 6.8485 19.5732 5.76151 18.5552 4.9215L17.6005 6.0785C18.4323 6.76482 19.1097 7.66188 19.5722 8.70013L20.9424 8.0898ZM16.4563 16.1698C17.0798 15.6918 17.5851 15.0637 17.936 14.3412L16.5867 13.686C16.3334 14.2075 15.9742 14.6493 15.5437 14.9794L16.4563 16.1698ZM17.936 14.3412C18.2868 13.6188 18.4749 12.8193 18.4878 12.0076L16.988 11.9837C16.9785 12.5808 16.84 13.1643 16.5867 13.686L17.936 14.3412ZM18.4878 12.0076C18.5008 11.1959 18.3383 10.3902 18.011 9.65555L16.6408 10.2659C16.8777 10.7977 16.9975 11.3866 16.988 11.9837L18.4878 12.0076ZM18.011 9.65555C17.6838 8.92082 17.1994 8.27473 16.5925 7.77391L15.6378 8.9309C16.0585 9.27804 16.404 9.73421 16.6408 10.2659L18.011 9.65555Z" fill="#1F2023"/>
<path d="M21 3L3 21" stroke="#1F2023" stroke-width="1.5" stroke-linecap="square"/>
</svg>
