<svg width="24" height="24" viewBox="0 0 24 24" fill="none" xmlns="http://www.w3.org/2000/svg">
<path d="M5 7.71266L12.0426 12M12.0426 12L12.0522 12.0058M12.0426 12L12.0522 11.9941M12.0426 12L5 16.2873M12.0522 12.185L12.0522 20.3897C12.0522 20.4745 12.1393 20.5275 12.209 20.4851L18.9478 16.3827C19.0174 16.3403 19.0174 16.2343 18.9478 16.1919L12.209 12.0896C12.1393 12.0472 12.0522 12.1002 12.0522 12.185ZM12.0522 3.61033L12.0522 11.815C12.0522 11.8998 12.1393 11.9528 12.209 11.9104L18.9478 7.80808C19.0174 7.76568 19.0174 7.65968 18.9478 7.61728L12.209 3.51492C12.1393 3.47252 12.0522 3.52552 12.0522 3.61033Z" stroke="#1F2023" stroke-width="1.5"/>
</svg>
