<svg width="24" height="24" viewBox="0 0 24 24" fill="none" xmlns="http://www.w3.org/2000/svg">
<path d="M14.5 18.25H13.75V19.75H14.5V18.25ZM2.1 3.75H21.9V2.25H2.1V3.75ZM2.75 19V3.1H1.25V19H2.75ZM21.25 3.1V18.9H22.75V3.1H21.25ZM21.9 18.25H14.5V19.75H21.9V18.25ZM21.25 18.9C21.25 18.541 21.541 18.25 21.9 18.25V19.75C22.3694 19.75 22.75 19.3694 22.75 18.9H21.25ZM21.9 3.75C21.541 3.75 21.25 3.45898 21.25 3.1H22.75C22.75 2.63056 22.3694 2.25 21.9 2.25V3.75ZM2.1 2.25C1.63055 2.25 1.25 2.63056 1.25 3.1H2.75C2.75 3.45898 2.45899 3.75 2.1 3.75V2.25Z" fill="#1F2023"/>
<circle cx="15" cy="11" r="3" stroke="#1F2023" stroke-width="1.5"/>
<circle cx="15" cy="11" r="1" fill="#1F2023"/>
<path fill-rule="evenodd" clip-rule="evenodd" d="M11.3616 19.0852C11.4251 19.0461 11.4251 18.9539 11.3616 18.9148L5.15241 15.0938C5.08578 15.0528 5 15.1007 5 15.179L5 22.821C5 22.8993 5.08578 22.9472 5.15241 22.9062L11.3616 19.0852Z" stroke="#1F2023" stroke-width="1.5" stroke-linejoin="round"/>
</svg>
