<svg width="24" height="24" viewBox="0 0 24 24" fill="none" xmlns="http://www.w3.org/2000/svg">
<path d="M2 13.4883H22" stroke="#1F2023" stroke-width="1.5" stroke-linecap="square"/>
<path d="M7 16.4863H17" stroke="#1F2023" stroke-width="1.5" stroke-linecap="square"/>
<path d="M19.9 2.5H4.1C4.04477 2.5 4 2.54477 4 2.6V21.4C4 21.4552 4.04477 21.5 4.1 21.5H7.9C7.95523 21.5 8 21.4552 8 21.4V19.6C8 19.5448 8.04477 19.5 8.1 19.5H15.9C15.9552 19.5 16 19.5448 16 19.6V21.4C16 21.4552 16.0448 21.5 16.1 21.5H19.9C19.9552 21.5 20 21.4552 20 21.4V2.6C20 2.54477 19.9552 2.5 19.9 2.5Z" stroke="#1F2023" stroke-width="1.5" stroke-linecap="square"/>
<path d="M4 5.5L19 5.5" stroke="#1F2023" stroke-width="1.5" stroke-linecap="square"/>
</svg>
