<svg width="24" height="24" viewBox="0 0 24 24" fill="none" xmlns="http://www.w3.org/2000/svg">
<path d="M2 20.9V5.9125C2 5.85727 2.04477 5.8125 2.1 5.8125H7.49858C7.5339 5.8125 7.5666 5.79387 7.5846 5.76348L9.19317 3.04902C9.21118 3.01863 9.24388 3 9.2792 3H14.1738C14.2044 3 14.2333 3.014 14.2523 3.038L16.4144 5.7745C16.4334 5.7985 16.4623 5.8125 16.4929 5.8125H21.9C21.9552 5.8125 22 5.85727 22 5.9125V20.9C22 20.9552 21.9552 21 21.9 21H2.1C2.04477 21 2 20.9552 2 20.9Z" stroke="#1F2023" stroke-width="1.5" stroke-linecap="square" stroke-linejoin="round"/>
<ellipse cx="12" cy="13" rx="4" ry="4" stroke="#1F2023" stroke-width="1.5" stroke-linecap="square"/>
</svg>
