<svg width="24" height="24" viewBox="0 0 24 24" fill="none" xmlns="http://www.w3.org/2000/svg">
<path d="M6.12109 16.6562H18.3117" stroke="#1F2023" stroke-width="1.5" stroke-miterlimit="10" stroke-linecap="square"/>
<path d="M1 13H6" stroke="#1F2023" stroke-width="1.5" stroke-miterlimit="10" stroke-linecap="square"/>
<path d="M4.8999 8.5L2.23044 14.9118C2.07832 15.2772 2 15.6691 2 16.0649V21.9C2 21.9552 2.04477 22 2.1 22H5.9C5.95523 22 6 21.9552 6 21.9V20.0593C6 20.0041 6.04477 19.9593 6.1 19.9593H17.9C17.9552 19.9593 18 20.0041 18 20.0593V21.9C18 21.9552 18.0448 22 18.1 22H21.9C21.9552 22 22 21.9552 22 21.9V16.787" stroke="#1F2023" stroke-width="1.5" stroke-linecap="square"/>
<circle cx="13.3613" cy="12.25" r="1.25" stroke="#1F2023" stroke-width="1.5"/>
<circle cx="18.3613" cy="12.25" r="1.25" stroke="#1F2023" stroke-width="1.5"/>
<path d="M8 2H10.2202C10.2641 2 10.3029 2.02866 10.3158 2.07065L12.4215 8.92935C12.4343 8.97134 12.4731 9 12.517 9H19.4139C19.458 9 19.4969 8.97114 19.5097 8.92894L20.961 4.12894C20.9804 4.06474 20.9324 4 20.8653 4H10.9496" stroke="#1F2023" stroke-width="1.5"/>
</svg>
