<svg width="24" height="24" viewBox="0 0 24 24" fill="none" xmlns="http://www.w3.org/2000/svg">
<path d="M17 15L7.5 15L7.30965 15M3.56975 15.0727C3.74296 15.9436 4.51143 16.6 5.4332 16.6C6.38046 16.6 7.16582 15.9068 7.30965 15M3.56975 15.0727C3.54577 14.9522 3.5332 14.8276 3.5332 14.7C3.5332 13.6507 4.38386 12.8 5.4332 12.8C6.48254 12.8 7.3332 13.6507 7.3332 14.7C7.3332 14.8021 7.32515 14.9023 7.30965 15M3.56975 15.0727L3.25 15L1.07831 14.5174C1.03255 14.5072 1 14.4667 1 14.4198V10.5048C1 10.027 1.3379 9.61603 1.80661 9.52365L6.98194 8.50356C6.99388 8.50121 7.00529 8.49669 7.01561 8.49025L10.8784 6.076C10.9579 6.02633 11.0497 6 11.1434 6H17.4193C17.5239 6 17.6259 6.03284 17.7109 6.0939L21.2 8.6L22.9216 8.98051C22.9674 8.99063 23 9.03124 23 9.07815V14.0749C23 14.12 22.9699 14.1594 22.9265 14.1714L20.8547 14.7402L20.7893 14.7615M20.7893 14.7615C20.7899 14.7411 20.7902 14.7206 20.7902 14.7C20.7902 13.6507 19.9396 12.8 18.8902 12.8C17.8409 12.8 16.9902 13.6507 16.9902 14.7C16.9902 15.7494 17.8409 16.6 18.8902 16.6C19.919 16.6 20.7568 15.7824 20.7893 14.7615Z" stroke="#1F2023" stroke-width="1.5"/>
</svg>
