<svg width="24" height="24" viewBox="0 0 24 24" fill="none" xmlns="http://www.w3.org/2000/svg">
<path d="M6 17.55C6 19.1917 7.1659 21.3288 7.71734 22.2478C7.88938 22.5345 8.19993 22.7002 8.53428 22.7002L12 22.7002L15.4657 22.7002C15.8001 22.7002 16.1106 22.5345 16.2827 22.2477C16.8341 21.3288 17.9999 19.1917 17.9999 17.55V8.20836C17.9999 8.02642 17.9834 7.84899 17.9505 7.67004L17.1556 3.34652C17.0563 2.80628 16.7392 2.32882 16.2387 2.1023C15.3943 1.72005 13.8971 1.2002 12 1.2002C10.1029 1.2002 8.60571 1.72006 7.76125 2.10231C7.26084 2.32882 6.94373 2.80627 6.8444 3.3465L6.04946 7.67002C6.01655 7.84898 6 8.02643 6 8.20839V17.55Z" stroke="#1F2023" stroke-width="1.5"/>
<path d="M6 9L3.5 11" stroke="#1F2023" stroke-width="1.5"/>
<path d="M18 9L20.5 11" stroke="#1F2023" stroke-width="1.5"/>
<path d="M8.5 8.78906C8.5 8.78906 9.8125 7.78906 12 7.78906C14.1875 7.78906 15.5 8.78906 15.5 8.78906" stroke="#1F2023" stroke-width="1.5"/>
<path d="M8.5 18C8.5 18 10.25 18.5 12 18.5C13.75 18.5 15.5 18 15.5 18" stroke="#1F2023" stroke-width="1.5"/>
</svg>
