<svg width="24" height="24" viewBox="0 0 24 24" fill="none" xmlns="http://www.w3.org/2000/svg">
<path d="M14.6966 9.25L12.9108 6.29824C12.8927 6.26829 12.8603 6.25 12.8253 6.25H8.6875" stroke="#1F2023" stroke-width="1.5"/>
<path d="M5.63477 11.6191L6.47532 8.26916C6.48876 8.2156 6.45661 8.15985 6.40351 8.14466L3.27694 7.25002" stroke="#1F2023" stroke-width="1.5"/>
<path d="M6.45215 8.29517C4.63065 8.93672 1.10516 10.6691 2.41157 15.665" stroke="#1F2023" stroke-width="1.5"/>
<path d="M10.7676 16.25L8.59588 15.7674C8.55013 15.7572 8.51758 15.7167 8.51758 15.6698V11.7548C8.51758 11.277 8.85548 10.866 9.32419 10.7736L14.4995 9.75356C14.5115 9.75121 14.5229 9.74669 14.5332 9.74025L18.396 7.326C18.4754 7.27633 18.5673 7.25 18.661 7.25H22.5M14.7299 16.25H22.5" stroke="#1F2023" stroke-width="1.5"/>
<circle cx="12.9508" cy="15.85" r="1.9" stroke="#1F2023" stroke-width="1.5"/>
</svg>
