<svg width="24" height="24" viewBox="0 0 24 24" fill="none" xmlns="http://www.w3.org/2000/svg">
<path d="M15.5129 7.47856L16.9143 5.14292C16.9531 5.07818 17.0469 5.07818 17.0857 5.14292L18.4871 7.47856C18.4956 7.49264 18.5074 7.50442 18.5214 7.51286L20.8571 8.91425C20.9218 8.95309 20.9218 9.04691 20.8571 9.08575L18.5214 10.4871C18.5074 10.4956 18.4956 10.5074 18.4871 10.5214L17.0857 12.8571C17.0469 12.9218 16.9531 12.9218 16.9143 12.8571L15.5129 10.5214C15.5044 10.5074 15.4926 10.4956 15.4786 10.4871L13.1429 9.08575C13.0782 9.04691 13.0782 8.95309 13.1429 8.91425L15.4786 7.51286C15.4926 7.50442 15.5044 7.49264 15.5129 7.47856Z" stroke="#1F2023" stroke-width="1.5" stroke-linecap="round" stroke-linejoin="round"/>
<path d="M9.73161 3.69731L10.6643 2.14292C10.7031 2.07818 10.7969 2.07818 10.8357 2.14292L11.7684 3.69731C11.7768 3.71139 11.7886 3.72317 11.8027 3.73161L13.3571 4.66425C13.4218 4.70309 13.4218 4.79691 13.3571 4.83575L11.8027 5.76839C11.7886 5.77683 11.7768 5.78861 11.7684 5.80269L10.8357 7.35708C10.7969 7.42182 10.7031 7.42182 10.6643 7.35708L9.73161 5.80269C9.72317 5.78861 9.71139 5.77683 9.69731 5.76839L8.14292 4.83575C8.07818 4.79691 8.07818 4.70309 8.14292 4.66425L9.69731 3.73161C9.71139 3.72317 9.72317 3.71139 9.73161 3.69731Z" stroke="#1F2023" stroke-width="1.5" stroke-linecap="round" stroke-linejoin="round"/>
<path d="M6.12012 16.6553H18.3108" stroke="#1F2023" stroke-width="1.5" stroke-miterlimit="10" stroke-linecap="square"/>
<path d="M1 13H6" stroke="#1F2023" stroke-width="1.5" stroke-miterlimit="10" stroke-linecap="square"/>
<path d="M4.8999 8.5L2.23044 14.9118C2.07832 15.2772 2 15.6691 2 16.0649V21.9C2 21.9552 2.04477 22 2.1 22H5.9C5.95523 22 6 21.9552 6 21.9V20.0593C6 20.0041 6.04477 19.9593 6.1 19.9593H17.9C17.9552 19.9593 18 20.0041 18 20.0593V21.9C18 21.9552 18.0448 22 18.1 22H21.9C21.9552 22 22 21.9552 22 21.9V16.787" stroke="#1F2023" stroke-width="1.5" stroke-linecap="square"/>
</svg>
