<svg width="24" height="24" viewBox="0 0 24 24" fill="none" xmlns="http://www.w3.org/2000/svg">
<path d="M18.0506 17.5998C18.0506 18.3983 17.7725 19.314 17.4228 20.1497C17.0531 21.0333 16.6034 21.8276 16.3178 22.2994C16.1454 22.5842 15.8349 22.75 15.5019 22.75C14.6933 22.75 13.1295 22.75 12.0002 22.75C10.8709 22.75 9.30712 22.75 8.49845 22.75C8.16547 22.75 7.85591 22.5857 7.68346 22.3008C7.12818 21.3836 5.94971 19.2434 5.94971 17.5998C5.94971 16.9709 5.94971 16.2682 5.94971 15.05V10.05C5.94971 9.13796 5.94971 8.56778 5.94971 8.26415C5.94971 8.08069 5.96654 7.89806 5.99998 7.71767L6.80076 3.39879C6.90119 2.85711 7.22054 2.3791 7.72306 2.15333C8.57412 1.77098 10.0851 1.25 12.0002 1.25C13.9153 1.25 15.4263 1.77097 16.2773 2.15333C16.7799 2.3791 17.0992 2.85712 17.1996 3.39881L18.045 7.95835C18.0486 7.9782 18.0582 7.99647 18.0725 8.01076L20.5564 10.5" stroke="#1F2023" stroke-width="1.5"/>
<path d="M8.5 8.78888C8.5 8.78888 9.8125 7.78888 12 7.78888C14.1875 7.78888 15.5 8.78888 15.5 8.78888" stroke="#1F2023" stroke-width="1.5"/>
<path d="M8.5 18C8.5 18 10.25 18.5 12 18.5C13.75 18.5 15.5 18 15.5 18" stroke="#1F2023" stroke-width="1.5"/>
<path d="M16.9287 12.8141L16.9287 16.0141L20.1287 16.0141" stroke="#1F2023" stroke-width="1.5"/>
<path d="M17.3726 15.6277L20.9998 11.9998" stroke="#1F2023" stroke-width="1.5"/>
</svg>
