<svg width="24" height="24" viewBox="0 0 24 24" fill="none" xmlns="http://www.w3.org/2000/svg">
<path d="M6.125 16.6553H18.3156" stroke="#1F2023" stroke-width="1.5" stroke-miterlimit="10" stroke-linecap="square"/>
<path d="M1 13H6" stroke="#1F2023" stroke-width="1.5" stroke-miterlimit="10" stroke-linecap="square"/>
<path d="M4.8999 8.5L2.23044 14.9118C2.07832 15.2772 2 15.6691 2 16.0649V21.9C2 21.9552 2.04477 22 2.1 22H5.9C5.95523 22 6 21.9552 6 21.9V20.0593C6 20.0041 6.04477 19.9593 6.1 19.9593H17.9C17.9552 19.9593 18 20.0041 18 20.0593V21.9C18 21.9552 18.0448 22 18.1 22H21.9C21.9552 22 22 21.9552 22 21.9V16.787" stroke="#1F2023" stroke-width="1.5" stroke-linecap="square"/>
<path d="M14.2664 2.56073L14.6344 3.21426L14.2664 2.56073ZM14.312 2.50594L13.6023 2.26335L14.312 2.50594ZM12.7188 3.40882L12.6174 4.15194L12.7188 3.40882ZM12.7814 3.39687L12.4134 2.74334L12.7814 3.39687ZM11.103 3.25595L10.4354 2.91412L11.103 3.25595ZM11.2055 3.20245L11.1042 3.94557L11.2055 3.20245ZM10.0967 5.37622L9.57376 5.91387L10.0967 5.37622ZM10.0774 5.25896L10.745 5.60079L10.0774 5.25896ZM11.1647 6.41499L11.6876 5.87734L11.1647 6.41499ZM11.1647 7.43508L11.6879 7.97244L11.1647 7.43508ZM10.0081 8.65983L9.34071 9.00202L10.0081 8.65983ZM10.0273 8.54255L10.5505 9.07991L10.0273 8.54255ZM11.1374 10.7157L11.2391 11.4588L11.1374 10.7157ZM11.0348 10.6623L11.7022 10.3201L11.0348 10.6623ZM12.6178 10.5335L12.9858 9.87998L12.6178 10.5335ZM12.5552 10.5216L12.6569 11.2646L12.5552 10.5216ZM14.2119 11.4602L13.5022 11.7028L14.2119 11.4602ZM14.1664 11.4054L14.5343 10.7519L14.1664 11.4054ZM14.7145 12.9304L14.0048 13.173L14.7145 12.9304ZM17.1563 12.9304L17.866 13.173L17.1563 12.9304ZM17.6602 11.5347L18.0282 12.1883L17.6602 11.5347ZM17.6146 11.5895L18.3243 11.8321L17.6146 11.5895ZM19.3264 10.6199L19.4277 9.8768L19.3264 10.6199ZM19.2638 10.6319L18.8959 9.97833L19.2638 10.6319ZM20.9588 10.7751L20.2913 10.4332L20.9588 10.7751ZM20.8563 10.8286L20.9576 10.0854L20.8563 10.8286ZM21.9652 8.65479L22.4881 8.11715L21.9652 8.65479ZM21.9845 8.77206L21.3169 8.43023L21.9845 8.77206ZM20.8916 7.61064L21.4145 7.073L20.8916 7.61064ZM20.8916 6.45264L20.3684 5.91528L20.8916 6.45264ZM21.9905 5.28411L22.6579 4.94191L21.9905 5.28411ZM21.9713 5.40138L21.448 4.86402L21.9713 5.40138ZM20.9637 3.28167L21.6311 2.93947L20.9637 3.28167ZM19.3776 3.43136L19.4794 4.17443L19.3776 3.43136ZM17.7371 2.50186L17.0274 2.74444L17.7371 2.50186ZM17.7826 2.55665L18.1506 1.90312L17.7826 2.55665ZM14.8043 1.0657L14.0946 0.823121L14.8043 1.0657ZM17.2462 1.0657L17.9558 0.823121L17.2462 1.0657ZM17.1515 0.248047H14.8989V1.74805H17.1515V0.248047ZM18.4467 2.25928L17.9558 0.823121L16.5365 1.30828L17.0274 2.74444L18.4467 2.25928ZM19.683 2.76589L18.1506 1.90312L17.4147 3.21019L18.9471 4.07296L19.683 2.76589ZM20.7594 2.48515L19.2759 2.6883L19.4794 4.17443L20.9629 3.97128L20.7594 2.48515ZM22.6579 4.94191L21.6311 2.93947L20.2964 3.62386L21.3231 5.6263L22.6579 4.94191ZM21.4148 6.98999L22.4945 5.93874L21.448 4.86402L20.3684 5.91528L21.4148 6.98999ZM21.6113 7.53896V6.52428H20.1113V7.53896H21.6113ZM22.4881 8.11715L21.4145 7.073L20.3687 8.14829L21.4423 9.19244L22.4881 8.11715ZM21.6264 11.1169L22.652 9.11389L21.3169 8.43023L20.2913 10.4332L21.6264 11.1169ZM19.225 11.363L20.755 11.5717L20.9576 10.0854L19.4277 9.8768L19.225 11.363ZM18.0282 12.1883L19.6318 11.2854L18.8959 9.97833L17.2922 10.8812L18.0282 12.1883ZM17.866 13.173L18.3243 11.8321L16.9049 11.347L16.4466 12.6878L17.866 13.173ZM14.8091 13.748H17.0617V12.248H14.8091V13.748ZM13.5022 11.7028L14.0048 13.173L15.4241 12.6878L14.9216 11.2176L13.5022 11.7028ZM12.2498 11.187L13.7984 12.0589L14.5343 10.7519L12.9858 9.87998L12.2498 11.187ZM11.2391 11.4588L12.6569 11.2646L12.4534 9.77851L11.0356 9.97264L11.2391 11.4588ZM9.34071 9.00202L10.3674 11.0045L11.7022 10.3201L10.6755 8.31763L9.34071 9.00202ZM10.6415 6.89773L9.50411 8.00519L10.5505 9.07991L11.6879 7.97244L10.6415 6.89773ZM10.445 6.48667V7.36344H11.945V6.48667H10.445ZM9.57376 5.91387L10.6418 6.95263L11.6876 5.87734L10.6196 4.83858L9.57376 5.91387ZM10.4354 2.91412L9.40981 4.91713L10.745 5.60079L11.7706 3.59778L10.4354 2.91412ZM12.8201 2.66569L11.3069 2.45933L11.1042 3.94557L12.6174 4.15194L12.8201 2.66569ZM13.8985 1.90719L12.4134 2.74334L13.1493 4.05041L14.6344 3.21426L13.8985 1.90719ZM14.0946 0.823121L13.6023 2.26335L15.0217 2.74852L15.514 1.30828L14.0946 0.823121ZM14.6344 3.21426C14.8163 3.11184 14.9542 2.94606 15.0217 2.74852L13.6023 2.26335C13.654 2.11229 13.7594 1.98552 13.8985 1.90719L14.6344 3.21426ZM12.6174 4.15194C12.8011 4.17698 12.9878 4.14132 13.1493 4.05041L12.4134 2.74334C12.5369 2.67381 12.6797 2.64655 12.8201 2.66569L12.6174 4.15194ZM11.7706 3.59778C11.6448 3.84342 11.3776 3.98286 11.1042 3.94557L11.3069 2.45933C10.9493 2.41056 10.5999 2.59291 10.4354 2.91412L11.7706 3.59778ZM10.6196 4.83858C10.8242 5.03757 10.875 5.34675 10.745 5.60079L9.40981 4.91713C9.2397 5.24934 9.3062 5.65365 9.57376 5.91387L10.6196 4.83858ZM11.945 6.48667C11.945 6.25714 11.8521 6.03737 11.6876 5.87734L10.6418 6.95263C10.516 6.83025 10.445 6.66219 10.445 6.48667H11.945ZM11.6879 7.97244C11.8523 7.81243 11.945 7.5928 11.945 7.36344H10.445C10.445 7.18804 10.5159 7.02008 10.6415 6.89773L11.6879 7.97244ZM10.6755 8.31763C10.8057 8.5716 10.755 8.88081 10.5505 9.07991L9.50411 8.00519C9.2367 8.26556 9.17042 8.66991 9.34071 9.00202L10.6755 8.31763ZM11.0356 9.97264C11.309 9.93521 11.5763 10.0745 11.7022 10.3201L10.3674 11.0045C10.5321 11.3256 10.8816 11.5077 11.2391 11.4588L11.0356 9.97264ZM12.9858 9.87998C12.8241 9.78898 12.6372 9.75334 12.4534 9.77851L12.6569 11.2646C12.5164 11.2839 12.3734 11.2566 12.2498 11.187L12.9858 9.87998ZM14.9216 11.2176C14.8541 11.0201 14.7162 10.8543 14.5343 10.7519L13.7984 12.0589C13.6593 11.9806 13.5539 11.8538 13.5022 11.7028L14.9216 11.2176ZM14.8091 12.248C15.087 12.248 15.3342 12.4248 15.4241 12.6878L14.0048 13.173C14.1223 13.5169 14.4456 13.748 14.8091 13.748V12.248ZM16.4466 12.6878C16.5365 12.4248 16.7837 12.248 17.0617 12.248V13.748C17.4252 13.748 17.7484 13.5169 17.866 13.173L16.4466 12.6878ZM17.2922 10.8812C17.1103 10.9836 16.9725 11.1494 16.9049 11.347L18.3243 11.8321C18.2727 11.9832 18.1673 12.11 18.0282 12.1883L17.2922 10.8812ZM19.4277 9.8768C19.2441 9.85176 19.0573 9.88742 18.8959 9.97833L19.6318 11.2854C19.5083 11.3549 19.3655 11.3822 19.225 11.363L19.4277 9.8768ZM20.2913 10.4332C20.417 10.1876 20.6842 10.0482 20.9576 10.0854L20.755 11.5717C21.1125 11.6205 21.4619 11.4381 21.6264 11.1169L20.2913 10.4332ZM21.4423 9.19244C21.2377 8.99345 21.1868 8.68427 21.3169 8.43023L22.652 9.11389C22.8221 8.78168 22.7556 8.37737 22.4881 8.11715L21.4423 9.19244ZM20.1113 7.53896C20.1113 7.76848 20.2042 7.98826 20.3687 8.14829L21.4145 7.073C21.5403 7.19537 21.6113 7.36344 21.6113 7.53896H20.1113ZM20.3684 5.91528C20.204 6.07529 20.1113 6.29492 20.1113 6.52428H21.6113C21.6113 6.69968 21.5404 6.86764 21.4148 6.98999L20.3684 5.91528ZM21.3231 5.6263C21.1929 5.37233 21.2436 5.06313 21.448 4.86402L22.4945 5.93874C22.7619 5.67837 22.8282 5.27402 22.6579 4.94191L21.3231 5.6263ZM20.9629 3.97128C20.6895 4.00872 20.4223 3.86943 20.2964 3.62386L21.6311 2.93947C21.4665 2.61834 21.117 2.43619 20.7594 2.48515L20.9629 3.97128ZM18.9471 4.07296C19.1087 4.16396 19.2956 4.19959 19.4794 4.17443L19.2759 2.6883C19.4164 2.66906 19.5594 2.69631 19.683 2.76589L18.9471 4.07296ZM17.0274 2.74444C17.0949 2.94198 17.2328 3.10777 17.4147 3.21019L18.1506 1.90312C18.2897 1.98144 18.3951 2.10822 18.4467 2.25928L17.0274 2.74444ZM14.8989 0.248047C14.5354 0.248047 14.2122 0.479174 14.0946 0.823121L15.514 1.30828C15.4241 1.5713 15.1769 1.74805 14.8989 1.74805V0.248047ZM17.1515 1.74805C16.8736 1.74805 16.6264 1.5713 16.5365 1.30828L17.9558 0.823121C17.8383 0.479174 17.515 0.248047 17.1515 0.248047V1.74805Z" fill="#1F2023"/>
<ellipse cx="16.0006" cy="6.99824" rx="1.79751" ry="1.8" stroke="#1F2023" stroke-width="1.5"/>
</svg>
