<svg width="24" height="24" viewBox="0 0 24 24" fill="none" xmlns="http://www.w3.org/2000/svg">
<path d="M4.25 19.5L2.07831 19.0174C2.03255 19.0072 2 18.9667 2 18.9198V15.0048C2 14.527 2.3379 14.116 2.80661 14.0236L7.98194 13.0036C7.99388 13.0012 8.00529 12.9967 8.01561 12.9902L11.8784 10.576C11.9579 10.5263 12.0497 10.5 12.1434 10.5H14M22 19.5H8.35818" stroke="#1F2023" stroke-width="1.5"/>
<circle cx="6.4332" cy="19.1" r="1.9" stroke="#1F2023" stroke-width="1.5"/>
<path d="M18 10.5H22" stroke="#1F2023" stroke-width="1.5"/>
<path d="M19.5967 3L21.9315 5.47388C21.9694 5.51405 21.9682 5.57795 21.9287 5.61662L19.4978 8" stroke="#1F2023" stroke-width="1.5"/>
<path d="M21.4941 5.50012L15.4999 5.50012" stroke="#1F2023" stroke-width="1.5"/>
</svg>
