<svg width="24" height="24" viewBox="0 0 24 24" fill="none" xmlns="http://www.w3.org/2000/svg">
<path d="M4 3.1C4 3.04477 4.04477 3 4.1 3H8.9C8.95523 3 9 3.04477 9 3.1V5.9C9 5.95523 9.04477 6 9.1 6H14.9C14.9552 6 15 5.95523 15 5.9V3.1C15 3.04477 15.0448 3 15.1 3H19.9C19.9552 3 20 3.04477 20 3.1V5.9C20 5.95523 20.0448 6 20.1 6H21.9C21.9552 6 22 6.04477 22 6.1V20.9C22 20.9552 21.9552 21 21.9 21H2.1C2.04477 21 2 20.9552 2 20.9V6.1C2 6.04477 2.04477 6 2.1 6H3.9C3.95523 6 4 5.95523 4 5.9V3.1Z" stroke="#1F2023" stroke-width="1.5"/>
<path d="M6 13H9M14 13H18M16 15V11" stroke="#1F2023" stroke-width="1.5" stroke-linecap="square"/>
</svg>
