<svg width="24" height="24" viewBox="0 0 24 24" fill="none" xmlns="http://www.w3.org/2000/svg">
<path d="M18.5713 9.89111H9.42843" stroke="#1F2023" stroke-width="1.5" stroke-miterlimit="10" stroke-linecap="square"/>
<path d="M6.38105 9.83429L8.64392 3.06828C8.65756 3.0275 8.69575 3 8.73876 3H14.0001H19.2614C19.3044 3 19.3426 3.02749 19.3563 3.06827L21.4641 9.36736C21.5668 9.67425 21.6191 9.99573 21.6191 10.3193V14.7095C21.6191 14.7648 21.5744 14.8095 21.5191 14.8095H18.6715C18.6163 14.8095 18.5715 14.7648 18.5715 14.7095V13.3547C18.5715 13.2995 18.5267 13.2547 18.4715 13.2547H14.0001" stroke="#1F2023" stroke-width="1.5" stroke-linecap="square"/>
<path d="M22 7.19043H6" stroke="#1F2023" stroke-width="1.5" stroke-miterlimit="10" stroke-linecap="square"/>
<path d="M1.99991 17.926L2.00074 20.3092C2.00076 20.3644 2.04552 20.4092 2.10074 20.4092L4.53866 20.4092C4.59389 20.4092 4.63866 20.3644 4.63866 20.3092L4.63784 15.3663C4.63783 15.3111 4.59306 15.2663 4.53784 15.2663L2.09991 15.2663C2.04468 15.2663 1.99991 15.3111 1.99991 15.3663L1.99991 17.94" stroke="#1F2023" stroke-width="1.5"/>
<path d="M4.64941 15.9521L6.77925 15.2296C7.21681 15.0811 7.69227 15.0888 8.12484 15.2512L10.5719 16.17C11.1879 16.4013 11.4777 17.1071 11.2022 17.7046V17.7046C11.0019 18.1388 10.5504 18.4005 10.074 18.3584L7.0216 18.0885" stroke="#1F2023" stroke-width="1.5"/>
<path d="M11.1312 16.747L15.7046 15.9685C16.1058 15.9002 16.5118 16.0596 16.7593 16.3827V16.3827C17.1553 16.8995 17.0163 17.6456 16.4608 17.9853L12.4591 20.432C11.8587 20.7991 11.1483 20.9435 10.4523 20.8398L4.61619 19.9708" stroke="#1F2023" stroke-width="1.5"/>
</svg>
