<svg width="24" height="24" viewBox="0 0 24 24" fill="none" xmlns="http://www.w3.org/2000/svg">
<path d="M19 21H21.9C21.9552 21 22 20.9552 22 20.9V6.1C22 6.04477 21.9552 6 21.9 6H20.1C20.0448 6 20 5.95523 20 5.9V3.1C20 3.04477 19.9552 3 19.9 3H15.1C15.0448 3 15 3.04477 15 3.1V5.9C15 5.95523 14.9552 6 14.9 6H9.1C9.04477 6 9 5.95523 9 5.9V3.1C9 3.04477 8.95523 3 8.9 3H4.1C4.04477 3 4 3.04477 4 3.1V5.9C4 5.95523 3.95523 6 3.9 6H2.1C2.04477 6 2 6.04477 2 6.1V20.9C2 20.9552 2.04477 21 2.1 21H5" stroke="#1F2023" stroke-width="1.5" stroke-linecap="square"/>
<path d="M6 11H9M14 11H18M16 13V9" stroke="#1F2023" stroke-width="1.5" stroke-linecap="square"/>
<path d="M12 15V23M8 19H16M10.2222 15.8889L12 17.6667L13.7778 15.8889M10.2222 22.1111L12 20.3333L13.7778 22.1111M15.1111 17.2222L13.3333 19L15.1111 20.7778M8.88889 17.2222L10.6667 19L8.88889 20.7778" stroke="#1F2023" stroke-width="1.5" stroke-linecap="square" stroke-linejoin="round"/>
</svg>
