<svg width="24" height="24" viewBox="0 0 24 24" fill="none" xmlns="http://www.w3.org/2000/svg">
<path d="M4.25 19.5L2.07831 19.0174C2.03255 19.0072 2 18.9667 2 18.9198V15.0048C2 14.527 2.3379 14.116 2.80661 14.0236L7.98194 13.0036C7.99388 13.0012 8.00529 12.9967 8.01561 12.9902L11.8784 10.576C11.9579 10.5263 12.0497 10.5 12.1434 10.5H14M22 19.5H8.67661" stroke="#1F2023" stroke-width="1.5"/>
<circle cx="6.4332" cy="19.1002" r="1.9" stroke="#1F2023" stroke-width="1.5"/>
<path d="M20 10.5H22" stroke="#1F2023" stroke-width="1.5"/>
<path d="M15 10.5H19" stroke="#1F2023" stroke-width="1.5"/>
<path d="M17.9033 3L15.5685 5.47388C15.5306 5.51405 15.5318 5.57795 15.5713 5.61662L18.0022 8" stroke="#1F2023" stroke-width="1.5"/>
<path d="M16.0059 5.5L22.0001 5.5" stroke="#1F2023" stroke-width="1.5"/>
</svg>
