<svg width="24" height="24" viewBox="0 0 24 24" fill="none" xmlns="http://www.w3.org/2000/svg">
<path d="M2.5 8.1449H8.3353C8.43988 8.1449 8.54183 8.17769 8.6268 8.23866L12.1721 10.7826L13.9216 11.1689C13.9674 11.179 14 11.2196 14 11.2665V16.3379C14 16.383 13.9699 16.4225 13.9265 16.4344L12.4302 16.8448L11.0067 17.1813M2.5 17.2754H6.77451" stroke="#1F2023" stroke-width="1.5"/>
<circle cx="8.71445" cy="17.1001" r="1.9" stroke="#1F2023" stroke-width="1.5"/>
<path d="M8.5 8.04348L10.6391 5.04196C10.6579 5.01563 10.6882 5 10.7205 5H14.5" stroke="#1F2023" stroke-width="1.5"/>
<path d="M17.5 12.3853L17.5 16.2853C17.5 16.3405 17.5448 16.3853 17.6 16.3853L21.5 16.3853" stroke="#1F2023" stroke-width="1.5"/>
<path d="M17.6475 16.1763C19.3272 15.0748 22.4538 12.4783 19.8642 8.09997" stroke="#1F2023" stroke-width="1.5"/>
</svg>
