<svg width="24" height="24" viewBox="0 0 24 24" fill="none" xmlns="http://www.w3.org/2000/svg">
<path d="M18.0281 16C18.0281 16.9274 18.0281 17.044 18.0281 17.5498C18.0281 19.1925 16.8552 21.3313 16.3017 22.2493C16.1294 22.535 15.8194 22.6999 15.4858 22.6999C14.6793 22.7 13.1237 22.7 12 22.7C10.8763 22.7 9.32081 22.7 8.51427 22.6999C8.18068 22.6999 7.87069 22.535 7.69842 22.2493C7.14484 21.3313 5.97195 19.1925 5.97195 17.5498C5.97195 17.044 5.97195 16.9274 5.97195 16M21.5 13.4604L18.0281 10C18.0281 9.39328 18.0281 8.61789 18.0281 8.21297C18.0281 8.03019 18.0113 7.84834 17.9782 7.6686L17.18 3.34767C17.0801 2.80661 16.7617 2.32884 16.2601 2.10273C15.412 1.72043 13.9071 1.19995 12 1.19995C10.0929 1.19995 8.58807 1.72043 7.73994 2.10274C7.23835 2.32884 6.91999 2.8066 6.82005 3.34764L6.02186 7.66858C5.98865 7.84833 5.97195 8.0302 5.97195 8.213C5.97195 8.61792 5.97195 9.3933 5.97195 10L2.5 13.4604" stroke="#1F2023" stroke-width="1.5"/>
<path d="M8.5 8.78882C8.5 8.78882 9.8125 7.78882 12 7.78882C14.1875 7.78882 15.5 8.78882 15.5 8.78882" stroke="#1F2023" stroke-width="1.5"/>
<path d="M8.5 18C8.5 18 10.25 18.5 12 18.5C13.75 18.5 15.5 18 15.5 18" stroke="#1F2023" stroke-width="1.5"/>
</svg>
