<svg width="24" height="25" viewBox="0 0 24 25" fill="none" xmlns="http://www.w3.org/2000/svg">
<path d="M20.3464 16.9629H16.9936V16.5329C17.5547 16.3209 18.3445 15.7339 18.3445 15.7339C19.0098 15.2569 19.3586 14.9697 19.3939 14.499C19.3493 13.6465 18.549 13.4533 18.1544 13.4632C17.4308 13.527 17.0416 13.9811 16.9375 14.2002" stroke="#1F2023" stroke-width="1.5"/>
<circle cx="12.4814" cy="15.2129" r="2.25" stroke="#1F2023" stroke-width="1.5"/>
<path d="M8.34692 14.0938C7.95872 13.418 7.22978 12.9629 6.39453 12.9629C5.15189 12.9629 4.14453 13.9702 4.14453 15.2129C4.14453 16.4555 5.15189 17.4629 6.39453 17.4629C7.22978 17.4629 7.95872 17.0078 8.34692 16.332" stroke="#1F2023" stroke-width="1.5"/>
<path d="M22.5 15.1618C22.5 18.5598 19.9834 19.6911 18.725 19.832H6.20763C2.59772 19.832 1.56508 16.7185 1.5 15.1618C1.5 11.4256 4.63842 10.269 6.20763 10.1577C6.20763 6.52826 9.5 5.33203 11.9537 5.33203C15.5 5.33203 17.2262 8.14121 17.2262 10.1899C20.4716 10.1899 22.5 11.7638 22.5 15.1618Z" stroke="#1F2023" stroke-width="1.5"/>
</svg>
