<svg width="24" height="24" viewBox="0 0 24 24" fill="none" xmlns="http://www.w3.org/2000/svg">
<path d="M12 2C17.5228 2 22 6.47715 22 12C22 17.5228 17.5228 22 12 22C6.47715 22 2 17.5228 2 12C2 6.47715 6.47715 2 12 2Z" stroke="#1F2023" stroke-width="1.5" stroke-miterlimit="10"/>
<path d="M11.25 7.20996L11.25 6.45996L12.75 6.45996L12.75 7.20996L11.25 7.20996ZM11.25 13.71L11.25 7.20996L12.75 7.20996L12.75 13.71L11.25 13.71Z" fill="#1F2023"/>
<path d="M12 16.79C11.4477 16.79 11 16.3423 11 15.79C11 15.2378 11.4477 14.79 12 14.79C12.5523 14.79 13 15.2378 13 15.79C13 16.3423 12.5523 16.79 12 16.79Z" fill="#1F2023"/>
</svg>
