<svg width="24" height="24" viewBox="0 0 24 24" fill="none" xmlns="http://www.w3.org/2000/svg">
<path d="M3.0422 11.901L6.37347 4.0863C6.39415 4.03777 6.44898 4.01366 6.49873 4.03121L21.8402 9.44361C21.912 9.46895 21.9303 9.56203 21.8734 9.61264L14.7359 15.9612C14.709 15.9852 14.6712 15.9928 14.6371 15.9811L3.10182 12.0348C3.04684 12.016 3.01941 11.9545 3.0422 11.901Z" stroke="#1F2023" stroke-width="1.5"/>
<path d="M19.7635 11.8122L21.7331 12.486C21.7881 12.5048 21.8155 12.5664 21.7928 12.6198L20.3087 16.1012C20.288 16.1497 20.2332 16.1738 20.1835 16.1563L16.476 14.8483" stroke="#1F2023" stroke-width="1.5"/>
<path d="M2 15V17.9091V20" stroke="#1F2023" stroke-width="1.5" stroke-linecap="square" stroke-linejoin="round"/>
<path d="M2 18L6.57782 16.271C6.59852 16.2631 6.61605 16.2487 6.62765 16.2298L8 14" stroke="#1F2023" stroke-width="1.5" stroke-linejoin="round"/>
</svg>
