<svg width="24" height="24" viewBox="0 0 24 24" fill="none" xmlns="http://www.w3.org/2000/svg">
<path d="M8.03332 11.7178L3.57825 7.55697C3.53593 7.51744 3.53593 7.45034 3.57825 7.41081L8.03332 3.25" stroke="#1F2023" stroke-width="1.5" stroke-miterlimit="10" stroke-linecap="square"/>
<path d="M20.4997 6.73437L21.2497 6.73437L21.2497 8.23437L20.4997 8.23437L20.4997 6.73437ZM3.75928 6.73438L20.4997 6.73437L20.4997 8.23437L3.75928 8.23438L3.75928 6.73438Z" fill="#1F2023"/>
<path d="M15.9662 20.75L20.4213 16.5892C20.4636 16.5497 20.4636 16.4826 20.4213 16.443L15.9662 12.2822" stroke="#1F2023" stroke-width="1.5" stroke-miterlimit="10" stroke-linecap="square"/>
<path d="M3.49985 15.7666L2.74985 15.7666L2.74985 17.2666L3.49985 17.2666L3.49985 15.7666ZM20.2402 15.7666L3.49985 15.7666L3.49985 17.2666L20.2402 17.2666L20.2402 15.7666Z" fill="#1F2023"/>
</svg>
