<svg width="24" height="24" viewBox="0 0 24 24" fill="none" xmlns="http://www.w3.org/2000/svg">
<path d="M8.24965 9L5.75 13H8.25L5.75 17" stroke="#1F2023" stroke-width="1.5"/>
<path d="M1.5 4.1C1.5 4.04477 1.54477 4 1.6 4H12.4C12.4552 4 12.5 4.04477 12.5 4.1V21.9C12.5 21.9552 12.4552 22 12.4 22H1.6C1.54477 22 1.5 21.9552 1.5 21.9V4.1Z" stroke="#1F2023" stroke-width="1.5"/>
<path d="M12.5 12.9997H16.4C16.4552 12.9997 16.5 13.0445 16.5 13.0997V18.9997C16.5 18.9997 16.5 20.9997 18.5 20.9997C20.5 20.9997 20.5 18.9997 20.5 18.9997V10" stroke="#1F2023" stroke-width="1.5"/>
<path d="M22.9 5.30078L18.1 5.30078C18.0448 5.30078 18 5.34555 18 5.40078L18 8.95194C18 8.98232 18.0138 9.01105 18.0375 9.03002L20.4375 10.95C20.4741 10.9792 20.5259 10.9792 20.5625 10.95L22.9625 9.03002C22.9862 9.01105 23 8.98232 23 8.95194L23 5.40078C23 5.34555 22.9552 5.30078 22.9 5.30078Z" stroke="#1F2023" stroke-width="1.5"/>
<path d="M19 5L19 3" stroke="#1F2023" stroke-width="1.5"/>
<path d="M22 5L22 3" stroke="#1F2023" stroke-width="1.5"/>
</svg>
