<svg width="24" height="24" viewBox="0 0 24 24" fill="none" xmlns="http://www.w3.org/2000/svg">
<path d="M5.5 11L3.49993 11.0001C2.39539 11.0001 1.5 11.8955 1.5 13.0001L1.5 22" stroke="#1F2023" stroke-width="1.5"/>
<path d="M18.5 17.9L18.5 4.1C18.5 4.04477 18.4552 4 18.4 4L9.05459 4C9.02057 4 8.98888 4.0173 8.97048 4.04592L4.53476 10.9459C4.51359 10.9789 4.51359 11.0211 4.53476 11.0541L8.97048 17.9541C8.98888 17.9827 9.02057 18 9.05459 18L18.4 18C18.4552 18 18.5 17.9552 18.5 17.9Z" stroke="#1F2023" stroke-width="1.5"/>
<path d="M22.5 8.75L23.25 8.75L23.25 7.25L22.5 7.25L22.5 8.75ZM18.5 8.75L22.5 8.75L22.5 7.25L18.5 7.25L18.5 8.75Z" fill="#1F2023"/>
<path d="M22.5 14.75L23.25 14.75L23.25 13.25L22.5 13.25L22.5 14.75ZM18.5 14.75L22.5 14.75L22.5 13.25L18.5 13.25L18.5 14.75Z" fill="#1F2023"/>
<path d="M9.5 10.6667L11.3257 12.915C11.3628 12.9607 11.431 12.9646 11.4731 12.9236L15.5 9" stroke="#1F2023" stroke-width="1.5" stroke-linecap="square"/>
</svg>
