<svg width="24" height="24" viewBox="0 0 24 24" fill="none" xmlns="http://www.w3.org/2000/svg">
<path d="M0.75 22L0.75 22.75L2.25 22.75L2.25 22L0.75 22ZM3.49994 11.75L4.50004 11.75L4.49996 10.25L3.49987 10.25L3.49994 11.75ZM2.25 22L2.25 13L0.75 13L0.75 22L2.25 22ZM3.49987 10.25C1.98114 10.2501 0.75 11.4813 0.75 13L2.25 13C2.25 12.3097 2.80961 11.7501 3.49994 11.75L3.49987 10.25Z" fill="#1F2023"/>
<path d="M18.5 17.9L18.5 4.1C18.5 4.04477 18.4552 4 18.4 4L9.05459 4C9.02057 4 8.98888 4.0173 8.97048 4.04592L4.53476 10.9459C4.51359 10.9789 4.51359 11.0211 4.53476 11.0541L8.97048 17.9541C8.98888 17.9827 9.02057 18 9.05459 18L18.4 18C18.4552 18 18.5 17.9552 18.5 17.9Z" stroke="#1F2023" stroke-width="1.5"/>
<path d="M13.4997 7.5L11.5 11H13.5L11.5 14.5" stroke="#1F2023" stroke-width="1.5"/>
<path d="M22.5 8.75L23.25 8.75L23.25 7.25L22.5 7.25L22.5 8.75ZM18.5 8.75L22.5 8.75L22.5 7.25L18.5 7.25L18.5 8.75Z" fill="#1F2023"/>
<path d="M22.5 14.75L23.25 14.75L23.25 13.25L22.5 13.25L22.5 14.75ZM18.5 14.75L22.5 14.75L22.5 13.25L18.5 13.25L18.5 14.75Z" fill="#1F2023"/>
<path d="M1 23L23 1" stroke="#1F2023" stroke-width="1.5"/>
</svg>
