<svg width="24" height="24" viewBox="0 0 24 24" fill="none" xmlns="http://www.w3.org/2000/svg">
<path d="M2.16 20.88L5.97333 18.02C5.99064 18.007 6.0117 18 6.03333 18H21.9C21.9552 18 22 17.9552 22 17.9V4.1C22 4.04477 21.9552 4 21.9 4H2.1C2.04477 4 2 4.04477 2 4.1V20.8C2 20.8824 2.09408 20.9294 2.16 20.88Z" stroke="#1F2023" stroke-width="1.5" stroke-linecap="square" stroke-linejoin="round"/>
<path d="M13.25 10.75C13.25 10.0596 12.6904 9.5 12 9.5C11.3096 9.5 10.75 10.0596 10.75 10.75C10.75 11.4404 11.3096 12 12 12C12.6904 12 13.25 11.4404 13.25 10.75Z" fill="#1F2023"/>
<path d="M17.75 10.75C17.75 10.0596 17.1904 9.5 16.5 9.5C15.8096 9.5 15.25 10.0596 15.25 10.75C15.25 11.4404 15.8096 12 16.5 12C17.1904 12 17.75 11.4404 17.75 10.75Z" fill="#1F2023"/>
<path d="M8.75 10.75C8.75 10.0596 8.19036 9.5 7.5 9.5C6.80964 9.5 6.25 10.0596 6.25 10.75C6.25 11.4404 6.80964 12 7.5 12C8.19036 12 8.75 11.4404 8.75 10.75Z" fill="#1F2023"/>
</svg>
