<svg width="24" height="24" viewBox="0 0 24 24" fill="none" xmlns="http://www.w3.org/2000/svg">
<path d="M6.87891 11.4056V12.1556H8.37891V11.4056H6.87891ZM12.6289 1.75H13.7282V0.25H12.6289V1.75ZM8.37891 11.4056V6H6.87891V11.4056H8.37891ZM17.9782 6V8.28394H19.4782V6H17.9782ZM17.9782 8.28394V9.86701H19.4782V8.28394H17.9782ZM14.001 15.3443C17.026 15.3443 19.4782 12.892 19.4782 9.86701H17.9782C17.9782 12.0636 16.1976 13.8443 14.001 13.8443V15.3443ZM13.7282 1.75C16.0754 1.75 17.9782 3.65279 17.9782 6H19.4782C19.4782 2.82436 16.9039 0.25 13.7282 0.25V1.75ZM12.6289 0.25C9.45327 0.25 6.87891 2.82437 6.87891 6H8.37891C8.37891 3.65279 10.2817 1.75 12.6289 1.75V0.25Z" fill="#1F2023"/>
<path d="M19.2773 7.24414H21.3972C21.4524 7.24414 21.4972 7.28891 21.4972 7.34414V11.3064C21.4972 11.3616 21.4524 11.4064 21.3972 11.4064H19.2773" stroke="#1F2023" stroke-width="1.5" stroke-linecap="square"/>
<path d="M7.73814 7.24414H4.95081C4.89558 7.24414 4.85081 7.28891 4.85081 7.34414V11.3064C4.85081 11.3616 4.89558 11.4064 4.95081 11.4064H7.6195" stroke="#1F2023" stroke-width="1.5"/>
<circle cx="13.25" cy="14.75" r="1.25" stroke="#1F2023" stroke-width="1.5"/>
<path d="M2.50186 19.927L2.50269 22.3102C2.50271 22.3654 2.54748 22.4102 2.60269 22.4102L5.04061 22.4102C5.09584 22.4102 5.14062 22.3654 5.14061 22.3101L5.13979 17.3673C5.13978 17.3121 5.09501 17.2673 5.03979 17.2673L2.60186 17.2673C2.54664 17.2673 2.50187 17.3121 2.50187 17.3673L2.50187 19.941" stroke="#1F2023" stroke-width="1.5"/>
<path d="M5.14844 17.9521L7.27827 17.2296C7.71583 17.0811 8.19129 17.0888 8.62386 17.2512L11.0709 18.17C11.6869 18.4013 11.9768 19.1071 11.7012 19.7046V19.7046C11.5009 20.1388 11.0494 20.4005 10.5731 20.3584L7.52062 20.0885" stroke="#1F2023" stroke-width="1.5"/>
<path d="M11.6321 18.747L16.2056 17.9685C16.6068 17.9002 17.0128 18.0596 17.2602 18.3827V18.3827C17.6562 18.8995 17.5173 19.6456 16.9617 19.9853L12.96 22.432C12.3596 22.7991 11.6493 22.9435 10.9532 22.8398L5.11717 21.9708" stroke="#1F2023" stroke-width="1.5"/>
</svg>
