<svg width="24" height="24" viewBox="0 0 24 24" fill="none" xmlns="http://www.w3.org/2000/svg">
<path d="M9 5L12.1048 7.93227C12.1445 7.96982 12.2071 7.96846 12.2452 7.92921L18 2" stroke="#1F2023" stroke-width="1.5"/>
<path d="M6 15.5449H18" stroke="#1F2023" stroke-width="1.5" stroke-miterlimit="10" stroke-linecap="square"/>
<path d="M7 6.5H5.07199C5.02899 6.5 4.9908 6.52749 4.97716 6.56827L2.15505 15.002C2.05236 15.3089 2 15.6303 2 15.954V21.9C2 21.9552 2.04477 22 2.1 22H5.9C5.95523 22 6 21.9552 6 21.9V20.0593C6 20.0041 6.04477 19.9593 6.1 19.9593H17.9C17.9552 19.9593 18 20.0041 18 20.0593V21.9C18 21.9552 18.0448 22 18.1 22H21.9C21.9552 22 22 21.9552 22 21.9V15.9584C22 15.6349 21.9477 15.3136 21.8451 15.0068L19.0228 6.56828C19.0092 6.5275 18.971 6.5 18.928 6.5H17" stroke="#1F2023" stroke-width="1.5"/>
<path d="M1.5 12H22.5" stroke="#1F2023" stroke-width="1.5" stroke-miterlimit="10" stroke-linecap="square"/>
</svg>
