<svg width="24" height="24" viewBox="0 0 24 24" fill="none" xmlns="http://www.w3.org/2000/svg">
<path d="M3.41797 20.5002L1.24627 20.0175C1.20052 20.0074 1.16797 19.9668 1.16797 19.9199V16.0049C1.16797 15.5272 1.50587 15.1162 1.97458 15.0238L7.14991 14.0037C7.16185 14.0013 7.17326 13.9968 7.18357 13.9904L8.38226 13.2412M23.168 15.0001V19.5751C23.168 19.6201 23.1379 19.6596 23.0944 19.6715L21.6222 20.0757L21.1189 20.2139M7.38028 20.5002H17.0529" stroke="#1F2023" stroke-width="1.5"/>
<circle cx="5.59922" cy="20.1002" r="1.9" stroke="#1F2023" stroke-width="1.5"/>
<circle cx="19.0562" cy="20.1002" r="1.9" stroke="#1F2023" stroke-width="1.5"/>
<path d="M14.6205 3.6888L14.2525 3.03526L14.6205 3.6888ZM14.666 3.63401L15.3757 3.87659L14.666 3.63401ZM12.9415 4.61082L12.8401 5.35394L12.9415 4.61082ZM13.0041 4.59888L12.6361 3.94534L13.0041 4.59888ZM11.1935 4.43993L11.861 4.78175L11.1935 4.43993ZM11.296 4.38642L11.1946 5.12954L11.296 4.38642ZM10.0966 6.73699L9.57368 7.27464L10.0966 6.73699ZM10.0773 6.61973L10.7449 6.96156L10.0773 6.61973ZM9.9993 10.2918L9.33192 10.634L9.9993 10.2918ZM10.0185 10.1745L10.5417 10.7119L10.0185 10.1745ZM11.2192 12.5244L11.321 13.2675L11.2192 12.5244ZM11.1167 12.471L10.4493 12.8132L11.1167 12.471ZM12.8263 12.3249L13.1943 11.6713L12.8263 12.3249ZM12.7637 12.3129L12.6619 11.5699L12.7637 12.3129ZM14.5572 13.3285L13.8475 13.5711L14.5572 13.3285ZM14.5116 13.2737L14.8796 12.6202L14.5116 13.2737ZM15.1038 14.9276L14.3941 15.1702L15.1038 14.9276ZM17.7443 14.9276L17.0346 14.685L17.7443 14.9276ZM18.2897 13.4104L18.6577 14.0639L18.2897 13.4104ZM18.2442 13.4652L18.9539 13.7078L18.2442 13.4652ZM20.0915 12.4193L19.9901 13.1624L20.0915 12.4193ZM20.0289 12.4312L20.3969 13.0847L20.0289 12.4312ZM21.8611 12.5931L21.1935 12.2513L21.8611 12.5931ZM21.7586 12.6466L21.8599 11.9035L21.7586 12.6466ZM22.958 10.296L22.4351 10.8337L22.958 10.296ZM21.7863 9.15651L21.2634 9.69415L21.7863 9.15651ZM21.7863 7.91025L21.2631 7.37289L21.7863 7.91025ZM22.9825 6.64701L22.3151 6.98921L22.9825 6.64701ZM22.9632 6.76429L23.4865 7.30164L22.9632 6.76429ZM21.7626 4.41437L21.6608 3.67131L21.7626 4.41437ZM21.8651 4.46782L21.1977 4.81002L21.8651 4.46782ZM20.0841 4.62369L19.7162 5.27723L20.0841 4.62369ZM20.1467 4.63563L20.045 3.89256L20.1467 4.63563ZM18.3772 3.63352L19.0869 3.39093L18.3772 3.63352ZM18.4228 3.68831L18.0548 4.34184L18.4228 3.68831ZM15.2014 2.06766L15.9111 2.31024L15.2014 2.06766ZM17.842 2.06766L17.1323 2.31024L17.1323 2.31024L17.842 2.06766ZM17.7473 1.25H15.2961V2.75H17.7473V1.25ZM19.0869 3.39093L18.5516 1.82507L17.1323 2.31024L17.6675 3.8761L19.0869 3.39093ZM20.4521 3.97016L18.7907 3.03477L18.0548 4.34184L19.7162 5.27723L20.4521 3.97016ZM21.6608 3.67131L20.045 3.89256L20.2485 5.3787L21.8643 5.15744L21.6608 3.67131ZM23.6499 6.30482L22.5325 4.12563L21.1977 4.81002L22.3151 6.98921L23.6499 6.30482ZM22.3095 8.44761L23.4865 7.30164L22.44 6.22693L21.2631 7.37289L22.3095 8.44761ZM22.5061 9.08482V7.9819H21.0061V9.08482H22.5061ZM23.4809 9.75839L22.3092 8.61887L21.2634 9.69415L22.4351 10.8337L23.4809 9.75839ZM22.5287 12.9349L23.6448 10.7551L22.3097 10.0715L21.1935 12.2513L22.5287 12.9349ZM19.9901 13.1624L21.6572 13.3897L21.8599 11.9035L20.1928 11.6761L19.9901 13.1624ZM18.6577 14.0639L20.3969 13.0847L19.6609 11.7777L17.9218 12.7569L18.6577 14.0639ZM18.454 15.1702L18.9539 13.7078L17.5345 13.2226L17.0346 14.685L18.454 15.1702ZM15.1984 15.7452H17.6497V14.2452H15.1984V15.7452ZM13.8475 13.5711L14.3941 15.1702L15.8135 14.685L15.2669 13.086L13.8475 13.5711ZM12.4584 12.9784L14.1437 13.9273L14.8796 12.6202L13.1943 11.6713L12.4584 12.9784ZM11.321 13.2675L12.8654 13.056L12.6619 11.5699L11.1175 11.7814L11.321 13.2675ZM9.33192 10.634L10.4493 12.8132L11.784 12.1288L10.6667 9.94959L9.33192 10.634ZM10.7346 8.43051L9.49532 9.63715L10.5417 10.7119L11.781 9.50523L10.7346 8.43051ZM10.538 7.93804V8.89622H12.038V7.93804H10.538ZM9.57368 7.27464L10.7348 8.40399L11.7807 7.3287L10.6195 6.19935L9.57368 7.27464ZM10.5259 4.0981L9.40973 6.2779L10.7449 6.96156L11.861 4.78175L10.5259 4.0981ZM13.0428 3.8677L11.3973 3.6433L11.1946 5.12954L12.8401 5.35394L13.0428 3.8677ZM14.2525 3.03526L12.6361 3.94534L13.372 5.25241L14.9884 4.34234L14.2525 3.03526ZM14.4917 1.82507L13.9563 3.39142L15.3757 3.87659L15.9111 2.31024L14.4917 1.82507ZM14.9884 4.34234C15.1703 4.23991 15.3082 4.07413 15.3757 3.87659L13.9563 3.39142C14.008 3.24036 14.1134 3.11359 14.2525 3.03526L14.9884 4.34234ZM12.8401 5.35394C13.0238 5.37898 13.2105 5.34333 13.372 5.25241L12.6361 3.94534C12.7596 3.87582 12.9024 3.84855 13.0428 3.8677L12.8401 5.35394ZM11.861 4.78175C11.7353 5.02739 11.4681 5.16683 11.1946 5.12954L11.3973 3.6433C11.0398 3.59453 10.6904 3.77688 10.5259 4.0981L11.861 4.78175ZM10.6195 6.19935C10.8241 6.39834 10.875 6.70752 10.7449 6.96156L9.40973 6.2779C9.23962 6.61011 9.30612 7.01442 9.57368 7.27464L10.6195 6.19935ZM12.038 7.93804C12.038 7.70851 11.9452 7.48874 11.7807 7.3287L10.7348 8.40399C10.609 8.28162 10.538 8.11356 10.538 7.93804H12.038ZM11.781 9.50523C11.9453 9.34522 12.038 9.12559 12.038 8.89622H10.538C10.538 8.72083 10.6089 8.55287 10.7346 8.43051L11.781 9.50523ZM10.6667 9.94959C10.7969 10.2036 10.7462 10.5128 10.5417 10.7119L9.49532 9.63715C9.22791 9.89752 9.16163 10.3019 9.33192 10.634L10.6667 9.94959ZM11.1175 11.7814C11.3909 11.7439 11.6581 11.8832 11.784 12.1288L10.4493 12.8132C10.6139 13.1343 10.9634 13.3164 11.321 13.2675L11.1175 11.7814ZM13.1943 11.6713C13.0327 11.5803 12.8457 11.5447 12.6619 11.5699L12.8654 13.056C12.7249 13.0752 12.582 13.048 12.4584 12.9784L13.1943 11.6713ZM15.2669 13.086C15.1994 12.8884 15.0615 12.7226 14.8796 12.6202L14.1437 13.9273C14.0046 13.849 13.8991 13.7222 13.8475 13.5711L15.2669 13.086ZM15.1984 14.2452C15.4764 14.2452 15.7236 14.422 15.8135 14.685L14.3941 15.1702C14.5117 15.5141 14.8349 15.7452 15.1984 15.7452V14.2452ZM17.0346 14.685C17.1245 14.422 17.3717 14.2452 17.6497 14.2452V15.7452C18.0132 15.7452 18.3364 15.5141 18.454 15.1702L17.0346 14.685ZM17.9218 12.7569C17.7399 12.8593 17.602 13.0251 17.5345 13.2226L18.9539 13.7078C18.9022 13.8588 18.7968 13.9856 18.6577 14.0639L17.9218 12.7569ZM20.1928 11.6761C20.0092 11.6511 19.8224 11.6868 19.6609 11.7777L20.3969 13.0847C20.2734 13.1543 20.1305 13.1815 19.9901 13.1624L20.1928 11.6761ZM21.1935 12.2513C21.3193 12.0056 21.5865 11.8662 21.8599 11.9035L21.6572 13.3897C22.0148 13.4385 22.3642 13.2562 22.5287 12.9349L21.1935 12.2513ZM22.4351 10.8337C22.2305 10.6347 22.1796 10.3255 22.3097 10.0715L23.6448 10.7551C23.8149 10.4229 23.7484 10.0186 23.4809 9.75839L22.4351 10.8337ZM21.0061 9.08482C21.0061 9.31435 21.0989 9.53412 21.2634 9.69415L22.3092 8.61887C22.4351 8.74124 22.5061 8.9093 22.5061 9.08482H21.0061ZM21.2631 7.37289C21.0988 7.5329 21.0061 7.75253 21.0061 7.9819H22.5061C22.5061 8.15729 22.4352 8.32525 22.3095 8.44761L21.2631 7.37289ZM22.3151 6.98921C22.1849 6.73524 22.2356 6.42603 22.44 6.22693L23.4865 7.30164C23.7539 7.04128 23.8201 6.63693 23.6499 6.30482L22.3151 6.98921ZM21.8643 5.15744C21.5909 5.19488 21.3236 5.05559 21.1977 4.81002L22.5325 4.12563C22.3678 3.8045 22.0184 3.62235 21.6608 3.67131L21.8643 5.15744ZM19.7162 5.27723C19.8778 5.36823 20.0647 5.40386 20.2485 5.3787L20.045 3.89256C20.1855 3.87332 20.3285 3.90057 20.4521 3.97016L19.7162 5.27723ZM17.6675 3.8761C17.735 4.07364 17.8729 4.23942 18.0548 4.34184L18.7907 3.03477C18.9298 3.1131 19.0352 3.23987 19.0869 3.39093L17.6675 3.8761ZM15.2961 1.25C14.9326 1.25 14.6093 1.48113 14.4917 1.82507L15.9111 2.31024C15.8212 2.57326 15.574 2.75 15.2961 2.75V1.25ZM17.7473 2.75C17.4694 2.75 17.2222 2.57326 17.1323 2.31024L18.5516 1.82507C18.4341 1.48113 18.1108 1.25 17.7473 1.25V2.75Z" fill="#1F2023"/>
<ellipse cx="16.4974" cy="8.49762" rx="1.94659" ry="1.94928" stroke="#1F2023" stroke-width="1.5"/>
</svg>
