<svg width="24" height="25" viewBox="0 0 24 25" fill="none" xmlns="http://www.w3.org/2000/svg">
<path d="M7.3999 4.93164H3.39991" stroke="#1F2023" stroke-width="1.5"/>
<path d="M7.3999 7.33203H4.59991" stroke="#1F2023" stroke-width="1.5"/>
<path d="M7.3999 9.73145H3.39991" stroke="#1F2023" stroke-width="1.5"/>
<path d="M11.1499 17.332C9.35498 17.332 7.8999 15.8264 7.8999 13.9691C7.8999 12.5902 8.70206 11.405 9.8499 10.8861V3.43203C9.8499 3.3768 9.89467 3.33203 9.9499 3.33203H12.3499C12.4051 3.33203 12.4499 3.3768 12.4499 3.43203V10.8861C13.5977 11.405 14.3999 12.5902 14.3999 13.9691C14.3999 15.8264 12.9448 17.332 11.1499 17.332Z" stroke="#1F2023" stroke-width="1.5"/>
<path d="M9.49658 8.16211H12.1278" stroke="#1F2023" stroke-width="1.5"/>
<path d="M21 20.832C21 20.832 19.3125 22.332 16.5 22.332C13.6875 22.332 10.3125 19.832 7.5 19.832C4.6875 19.832 3 20.832 3 20.832" stroke="#1F2023" stroke-width="1.5" stroke-linecap="square"/>
<path d="M20.5017 16.2715L21.0623 15.7732L22.0588 16.8943L21.4983 17.3926L20.5017 16.2715ZM3.38235 17.4772L2.73713 17.8596L1.97243 16.5692L2.61765 16.1868L3.38235 17.4772ZM21 16.832C21.4983 17.3926 21.498 17.3928 21.4978 17.393C21.4977 17.3931 21.4975 17.3933 21.4973 17.3935C21.4969 17.3938 21.4966 17.3941 21.4961 17.3945C21.4953 17.3952 21.4944 17.396 21.4934 17.3969C21.4913 17.3987 21.4888 17.4009 21.4859 17.4034C21.4801 17.4084 21.4726 17.4148 21.4635 17.4226C21.4451 17.438 21.4201 17.4586 21.3885 17.4838C21.3253 17.534 21.2357 17.6021 21.1207 17.6821C20.891 17.8419 20.5584 18.0501 20.1319 18.2569C19.2787 18.6705 18.042 19.082 16.5 19.082L16.5 17.582C17.7705 17.582 18.7838 17.2435 19.4775 16.9072C19.8244 16.739 20.0895 16.5722 20.2641 16.4507C20.3513 16.3901 20.4154 16.341 20.4555 16.3092C20.4755 16.2933 20.4895 16.2817 20.4973 16.2752C20.5011 16.2719 20.5035 16.2699 20.5042 16.2693C20.5046 16.2689 20.5046 16.269 20.5042 16.2693C20.504 16.2695 20.5036 16.2698 20.5032 16.2701C20.503 16.2703 20.5028 16.2705 20.5026 16.2707C20.5024 16.2708 20.5022 16.271 20.5022 16.2711C20.5019 16.2713 20.5017 16.2715 21 16.832ZM6.37457 16.6403C5.40278 16.7424 4.63936 16.9605 4.12552 17.1493C3.86869 17.2436 3.67471 17.3304 3.54887 17.3914C3.48598 17.4218 3.4402 17.4457 3.4122 17.4608C3.39821 17.4684 3.38866 17.4737 3.38366 17.4766C3.38115 17.478 3.37979 17.4788 3.37957 17.4789C3.37945 17.479 3.37963 17.4789 3.38009 17.4786C3.38033 17.4784 3.38063 17.4783 3.38101 17.478C3.38119 17.4779 3.3814 17.4778 3.38162 17.4777C3.38174 17.4776 3.38192 17.4775 3.38197 17.4775C3.38216 17.4774 3.38235 17.4772 3 16.832C2.61765 16.1868 2.61785 16.1867 2.61805 16.1866C2.61813 16.1865 2.61834 16.1864 2.61849 16.1863C2.61878 16.1861 2.6191 16.186 2.61944 16.1858C2.62011 16.1854 2.62086 16.1849 2.62168 16.1844C2.62333 16.1835 2.62527 16.1823 2.62752 16.181C2.63202 16.1784 2.63772 16.1752 2.64461 16.1713C2.65839 16.1635 2.67694 16.1531 2.70018 16.1406C2.74665 16.1155 2.81192 16.0816 2.8953 16.0412C3.062 15.9605 3.30148 15.854 3.60831 15.7413C4.22179 15.5159 5.10649 15.2653 6.21792 15.1485L6.37457 16.6403ZM16.5 19.082C15.8838 19.082 15.2639 18.9783 14.6576 18.8221L15.0318 17.3695C15.5593 17.5054 16.0481 17.582 16.5 17.582L16.5 19.082Z" fill="#1F2023"/>
</svg>
