<svg width="24" height="24" viewBox="0 0 24 24" fill="none" xmlns="http://www.w3.org/2000/svg">
<path d="M6.03333 14H17.9C17.9552 14 18 13.9552 18 13.9V9.57145V5.74219V3.1C18 3.04477 17.9552 3 17.9 3H9H2.1C2.04477 3 2 3.04477 2 3.1V9.57145V16.8C2 16.8824 2.09408 16.9294 2.16 16.88L5.97333 14.02C5.99064 14.007 6.0117 14 6.03333 14Z" stroke="#1F2023" stroke-width="1.5" stroke-linecap="square"/>
<path d="M8 14.2466V17.9C8 17.9552 8.04477 18 8.1 18H17.9667C17.9883 18 18.0094 18.007 18.0267 18.02L21.84 20.8805C21.9059 20.93 22 20.8829 22 20.8005V13.3815V7.1C22 7.04477 21.9552 7 21.9 7H18" stroke="#1F2023" stroke-width="1.5" stroke-linecap="square"/>
<path d="M6.25 7.74219C5.69772 7.74219 5.25 8.1899 5.25 8.74219C5.25 9.29447 5.69772 9.74219 6.25 9.74219C6.80228 9.74219 7.25 9.29447 7.25 8.74219C7.25 8.1899 6.80228 7.74219 6.25 7.74219Z" fill="#1F2023"/>
<path d="M10 7.74219C9.44772 7.74219 9 8.1899 9 8.74219C9 9.29447 9.44772 9.74219 10 9.74219C10.5523 9.74219 11 9.29447 11 8.74219C11 8.1899 10.5523 7.74219 10 7.74219Z" fill="#1F2023"/>
<path d="M13.75 7.74219C13.1977 7.74219 12.75 8.1899 12.75 8.74219C12.75 9.29447 13.1977 9.74219 13.75 9.74219C14.3023 9.74219 14.75 9.29447 14.75 8.74219C14.75 8.1899 14.3023 7.74219 13.75 7.74219Z" fill="#1F2023"/>
</svg>
