<svg width="24" height="24" viewBox="0 0 24 24" fill="none" xmlns="http://www.w3.org/2000/svg">
<path d="M21.9 4H2.1C2.04477 4 2 4.04477 2 4.1V9.95094C2 9.97804 2.02196 10 2.04906 10H2.50195C3.60652 10 4.50195 10.8954 4.50195 12C4.50195 13.1046 3.60652 14 2.50195 14H2.04906C2.02196 14 2 14.022 2 14.0491V19.9C2 19.9552 2.04477 20 2.1 20H21.9C21.9552 20 22 19.9552 22 19.9V14.049C22 14.0219 21.9781 14 21.951 14H21.502C20.3974 14 19.502 13.1046 19.502 12C19.502 10.8954 20.3974 10 21.502 10H21.951C21.9781 10 22 9.97807 22 9.95102V4.1C22 4.04477 21.9552 4 21.9 4Z" stroke="#1F2023" stroke-width="1.5" stroke-linecap="square"/>
<path d="M8.5 15.5L15.5 8.5" stroke="#1F2023" stroke-width="1.5" stroke-linecap="square"/>
<circle cx="9.5" cy="9.5" r="1.25" fill="#1F2023"/>
<circle cx="14.5" cy="14.5" r="1.25" fill="#1F2023"/>
</svg>
