<svg width="24" height="24" viewBox="0 0 24 24" fill="none" xmlns="http://www.w3.org/2000/svg">
<path d="M15.9301 18.4878L14.5259 16.1039C14.3737 15.8455 14.6623 15.5526 14.9229 15.7009L17.3642 17.0902C17.6841 17.2723 17.8817 17.612 17.8817 17.9802C17.8817 18.5457 17.4232 19.0041 16.8577 19.0041H16.8334C16.4621 19.0041 16.1185 18.8077 15.9301 18.4878Z" fill="#1F2023"/>
<path d="M16.6455 12.5264C13.6883 12.5264 11.291 14.8828 11.291 17.7895C11.291 19.1026 11.8083 20.6986 12.6228 21.6978C12.7883 21.9008 13.0441 22.0001 13.306 22.0001H20.0541C20.316 22.0001 20.5721 21.901 20.7362 21.6968C21.5392 20.6976 21.9999 19.1021 21.9999 17.7895C21.9999 14.8828 19.6027 12.5264 16.6455 12.5264Z" stroke="#1F2023" stroke-width="1.5" stroke-linecap="square"/>
<path d="M5.42871 8.89117H14.5716" stroke="#1F2023" stroke-width="1.5" stroke-miterlimit="10" stroke-linecap="square"/>
<path d="M17.619 8.83429L15.3561 2.06828C15.3424 2.0275 15.3042 2 15.2612 2H9.99991H4.73856C4.69556 2 4.65738 2.02749 4.64373 2.06827L2.53591 8.36736C2.43322 8.67425 2.38086 8.99573 2.38086 9.31935V13.7095C2.38086 13.7648 2.42563 13.8095 2.48086 13.8095H5.32848C5.38371 13.8095 5.42848 13.7648 5.42848 13.7095V12.3547C5.42848 12.2995 5.47325 12.2547 5.52848 12.2547H9.99991" stroke="#1F2023" stroke-width="1.5" stroke-linecap="square"/>
<path d="M2 6.19049H18" stroke="#1F2023" stroke-width="1.5" stroke-miterlimit="10" stroke-linecap="square"/>
</svg>
