<svg width="24" height="24" viewBox="0 0 24 24" fill="none" xmlns="http://www.w3.org/2000/svg">
<path d="M6 9.5H3.1C3.04477 9.5 3 9.54477 3 9.6V14.4C3 14.4552 3.04477 14.5 3.1 14.5H5.9C5.95523 14.5 6 14.4552 6 14.4V10.7098" stroke="#1F2023" stroke-width="1.5"/>
<path d="M18 9.5H20.9C20.9552 9.5 21 9.54477 21 9.6V14.4C21 14.4552 20.9552 14.5 20.9 14.5H18" stroke="#1F2023" stroke-width="1.5"/>
<path d="M6 13.5V8.5C6 5.18629 8.68629 2.5 12 2.5V2.5C15.3137 2.5 18 5.18629 18 8.5V13.0882V15.5C18 17.9853 15.9853 20 13.5 20V20" stroke="#1F2023" stroke-width="1.5"/>
<circle cx="12" cy="19.75" r="1.75" stroke="#1F2023" stroke-width="1.5"/>
</svg>
