<svg width="24" height="25" viewBox="0 0 24 25" fill="none" xmlns="http://www.w3.org/2000/svg">
<circle cx="6.25" cy="5.83203" r="2" stroke="#1F2023" stroke-width="1.5"/>
<path d="M9.08333 17.6654V21.232C9.08333 21.2873 9.03856 21.332 8.98333 21.332H3.85C3.79477 21.332 3.75 21.2873 3.75 21.232V12.332C3.75 11.2275 4.64543 10.332 5.75 10.332H6.79474C7.2094 10.332 7.58105 10.5879 7.72896 10.9753L9.08333 14.5225L11.25 15.5225" stroke="#1F2023" stroke-width="1.5"/>
<circle cx="17.75" cy="5.83203" r="2" stroke="#1F2023" stroke-width="1.5"/>
<path d="M14.9167 17.6654V21.232C14.9167 21.2873 14.9614 21.332 15.0167 21.332H20.15C20.2052 21.332 20.25 21.2873 20.25 21.232V12.332C20.25 11.2275 19.3546 10.332 18.25 10.332H17.2053C16.7906 10.332 16.419 10.5879 16.271 10.9753L14.9167 14.5225L12.75 15.5225" stroke="#1F2023" stroke-width="1.5"/>
</svg>
