<svg width="24" height="25" viewBox="0 0 24 25" fill="none" xmlns="http://www.w3.org/2000/svg">
<path d="M20.5 14.833V20.733C20.5 20.7882 20.4552 20.833 20.4 20.833H16.5" stroke="#1F2023" stroke-width="1.5"/>
<path d="M3.5 10.833L3.5 5.93301C3.5 5.87778 3.54477 5.83301 3.6 5.83301L11.5 5.83301" stroke="#1F2023" stroke-width="1.5"/>
<path d="M4.28516 18.6665H11.7137" stroke="#1F2023" stroke-width="1.5" stroke-miterlimit="10" stroke-linecap="square"/>
<path d="M1.80957 22.7311V19.0849C1.80957 18.7736 1.85802 18.4642 1.95319 18.1678L3.64442 12.9005C3.6577 12.8591 3.69618 12.8311 3.73963 12.8311H8.00005H12.2604C12.3039 12.8311 12.3424 12.8591 12.3557 12.9005L14.047 18.171C14.1421 18.4673 14.1905 18.7766 14.1905 19.0877V22.7311C14.1905 22.7863 14.1458 22.8311 14.0905 22.8311H11.8143C11.7591 22.8311 11.7143 22.7863 11.7143 22.7311V21.6145C11.7143 21.5592 11.6696 21.5145 11.6143 21.5145H4.38576C4.33053 21.5145 4.28576 21.5592 4.28576 21.6145V22.7311C4.28576 22.7863 4.24099 22.8311 4.18576 22.8311H1.90957C1.85434 22.8311 1.80957 22.7863 1.80957 22.7311Z" stroke="#1F2023" stroke-width="1.5" stroke-linecap="square"/>
<path d="M1.5 16.3794H14.5" stroke="#1F2023" stroke-width="1.5" stroke-miterlimit="10" stroke-linecap="square"/>
<path d="M22.5 6.7421C22.5 9.78745 18.6036 13.3051 18.0621 13.7792C18.0253 13.8114 17.9747 13.8114 17.9379 13.7792C17.3964 13.3051 13.5 9.78745 13.5 6.7421C13.5 4.01483 15.1875 1.83301 18 1.83301C20.8125 1.83301 22.5 4.01483 22.5 6.7421Z" stroke="#1F2023" stroke-width="1.5" stroke-linecap="square"/>
<path d="M18 7.83301C18.8284 7.83301 19.5 7.16144 19.5 6.33301C19.5 5.50458 18.8284 4.83301 18 4.83301C17.1716 4.83301 16.5 5.50458 16.5 6.33301C16.5 7.16144 17.1716 7.83301 18 7.83301Z" stroke="#1F2023" stroke-width="1.5" stroke-miterlimit="10" stroke-linecap="square"/>
</svg>
