<svg width="24" height="24" viewBox="0 0 24 24" fill="none" xmlns="http://www.w3.org/2000/svg">
<g clip-path="url(#clip0_6035_25401)">
<path d="M8.70508 15.4907V16.2407H10.2051V15.4907H8.70508ZM11.9551 11.7407C12.6782 11.7407 13.6782 11.7407 14.4974 11.7407C14.907 11.7407 15.2715 11.7407 15.5335 11.7407C15.6645 11.7407 15.7699 11.7407 15.8425 11.7407C15.889 11.7407 15.8029 11.7407 15.8492 11.7407C15.8963 11.7407 15.8087 11.7407 15.8558 11.7407C15.9035 11.7407 15.8144 11.7407 15.8621 11.7407C15.9105 11.7407 15.8198 11.7407 15.8682 11.7407C15.9078 11.7407 15.8522 11.7407 15.8908 11.7407C15.9099 11.7407 15.9113 11.7407 15.926 11.7407C15.9266 11.7407 15.9272 11.7407 15.9278 11.7407C15.9284 11.7407 15.929 11.7407 15.9295 11.7407C15.9881 11.7407 15.8742 11.7407 15.9328 11.7407C15.9922 11.7407 15.8765 11.7407 15.9358 11.7407C15.9363 11.7407 15.9368 11.7407 15.9372 11.7407C15.9377 11.7407 15.9382 11.7407 15.9386 11.7407C15.9391 11.7407 15.9395 11.7407 15.94 11.7407C15.9404 11.7407 15.9408 11.7407 15.9412 11.7407C15.9416 11.7407 15.942 11.7407 15.9424 11.7407C15.9428 11.7407 15.9432 11.7407 15.9436 11.7407C15.944 11.7407 15.9444 11.7407 15.9447 11.7407C15.9451 11.7407 15.9454 11.7407 15.9458 11.7407C15.9461 11.7407 15.9464 11.7407 15.9468 11.7407C15.9471 11.7407 15.9474 11.7407 15.9477 11.7407C15.948 11.7407 15.9483 11.7407 15.9486 11.7407C15.9489 11.7407 15.9492 11.7407 15.9494 11.7407C15.9497 11.7407 15.95 11.7407 15.9502 11.7407C15.9504 11.7407 15.9507 11.7407 15.9509 11.7407C15.9511 11.7407 15.9514 11.7407 15.9516 11.7407C15.9518 11.7407 15.952 11.7407 15.9522 11.7407C15.9524 11.7407 15.9526 11.7407 15.9527 11.7407C15.9529 11.7407 15.9531 11.7407 15.9532 11.7407C15.9534 11.7407 15.9535 11.7407 15.9537 11.7407C15.9538 11.7407 15.9539 11.7407 15.954 11.7407C15.9541 11.7407 15.9543 11.7407 15.9544 11.7407C15.9544 11.7407 15.9545 11.7407 15.9546 11.7407C15.9547 11.7407 15.9548 11.7407 15.9548 11.7407C15.9549 11.7407 15.9549 11.7407 15.955 11.7407C15.955 11.7407 15.955 11.7407 15.955 11.7407C15.9551 11.7407 15.9551 11.7407 15.9551 10.9907C15.9551 10.2407 15.9551 10.2407 15.955 10.2407C15.955 10.2407 15.955 10.2407 15.955 10.2407C15.9549 10.2407 15.9549 10.2407 15.9548 10.2407C15.9548 10.2407 15.9547 10.2407 15.9546 10.2407C15.9545 10.2407 15.9544 10.2407 15.9544 10.2407C15.9543 10.2407 15.9541 10.2407 15.954 10.2407C15.9539 10.2407 15.9538 10.2407 15.9537 10.2407C15.9535 10.2407 15.9534 10.2407 15.9532 10.2407C15.9531 10.2407 15.9529 10.2407 15.9527 10.2407C15.9526 10.2407 15.9524 10.2407 15.9522 10.2407C15.952 10.2407 15.9518 10.2407 15.9516 10.2407C15.9514 10.2407 15.9511 10.2407 15.9509 10.2407C15.9507 10.2407 15.9504 10.2407 15.9502 10.2407C15.95 10.2407 15.9497 10.2407 15.9494 10.2407C15.9492 10.2407 15.9489 10.2407 15.9486 10.2407C15.9483 10.2407 15.948 10.2407 15.9477 10.2407C15.9474 10.2407 15.9471 10.2407 15.9468 10.2407C15.9464 10.2407 15.9461 10.2407 15.9458 10.2407C15.9454 10.2407 15.9451 10.2407 15.9447 10.2407C15.9444 10.2407 15.944 10.2407 15.9436 10.2407C15.9432 10.2407 15.9428 10.2407 15.9424 10.2407C15.942 10.2407 15.9416 10.2407 15.9412 10.2407C15.9408 10.2407 15.9404 10.2407 15.94 10.2407C15.9395 10.2407 15.9391 10.2407 15.9386 10.2407C15.9382 10.2407 15.9377 10.2407 15.9372 10.2407C15.9368 10.2407 15.9363 10.2407 15.9358 10.2407C15.8765 10.2407 15.9922 10.2407 15.9328 10.2407C15.8742 10.2407 15.9881 10.2407 15.9295 10.2407C15.929 10.2407 15.9284 10.2407 15.9278 10.2407C15.9272 10.2407 15.9266 10.2407 15.926 10.2407C15.9113 10.2407 15.9099 10.2407 15.8908 10.2407C15.8522 10.2407 15.9078 10.2407 15.8682 10.2407C15.8198 10.2407 15.9105 10.2407 15.8621 10.2407C15.8144 10.2407 15.9035 10.2407 15.8558 10.2407C15.8087 10.2407 15.8963 10.2407 15.8492 10.2407C15.8029 10.2407 15.889 10.2407 15.8425 10.2407C15.7699 10.2407 15.6645 10.2407 15.5335 10.2407C15.2715 10.2407 14.907 10.2407 14.4974 10.2407C13.6782 10.2407 12.6782 10.2407 11.9551 10.2407V11.7407ZM8.70508 13.4907V15.4907H10.2051V13.4907H8.70508ZM11.9551 10.2407C10.7409 10.2407 9.88437 10.71 9.35508 11.4157C8.85304 12.0851 8.70508 12.8861 8.70508 13.4907H10.2051C10.2051 13.0954 10.3071 12.6463 10.5551 12.3157C10.7758 12.0214 11.1692 11.7407 11.9551 11.7407V10.2407Z" fill="#1F2023"/>
<path d="M12.9551 7.99072L15.8844 10.92C15.9234 10.9591 15.9234 11.0224 15.8844 11.0614L12.9551 13.9907" stroke="#1F2023" stroke-width="1.5" stroke-linecap="square"/>
<rect x="1.39355" y="12" width="15" height="15" rx="0.1" transform="rotate(-45 1.39355 12)" stroke="#1F2023" stroke-width="1.5" stroke-linecap="square"/>
</g>
<defs>
<clipPath id="clip0_6035_25401">
<rect width="24" height="24" rx="0.1" fill="white"/>
</clipPath>
</defs>
</svg>
