<svg width="24" height="24" viewBox="0 0 24 24" fill="none" xmlns="http://www.w3.org/2000/svg">
<path d="M12.0833 15.3188C12.1194 15.2912 12.1696 15.2915 12.2055 15.3195L14.5964 17.1846C14.6714 17.2431 14.63 17.3635 14.5349 17.3635H9.69918C9.60349 17.3635 9.56245 17.242 9.63852 17.184L12.0833 15.3188Z" fill="#1F2023"/>
<path d="M8.49034 18.1159C8.50815 18.1019 8.5302 18.0943 8.55287 18.0945L15.7811 18.1386C15.8037 18.1387 15.8255 18.1465 15.8431 18.1606L18.0824 19.9608C18.156 20.02 18.1142 20.1388 18.0198 20.1388H6.21346C6.11858 20.1388 6.07704 20.019 6.15154 19.9602L8.49034 18.1159Z" fill="#1F2023"/>
<path d="M4.8074 21.0183C4.82428 21.0064 4.84442 21 4.86507 21H19.4649C19.4876 21 19.5097 21.0078 19.5274 21.0219L21.7774 22.822C21.8512 22.881 21.8094 23 21.7149 23H2.31507C2.2175 23 2.17769 22.8746 2.2574 22.8183L4.8074 21.0183Z" fill="#1F2023"/>
<path d="M7.14258 9.29407H16.8569" stroke="#1F2023" stroke-width="1.5" stroke-miterlimit="10" stroke-linecap="square"/>
<path d="M3.90479 14.4V9.72049C3.90479 9.39572 3.95752 9.07311 4.06093 8.76525L6.31046 2.06816C6.32414 2.02744 6.3623 2 6.40526 2H12H17.5948C17.6377 2 17.6759 2.02744 17.6896 2.06817L19.9393 8.76922C20.0426 9.07695 20.0953 9.3994 20.0953 9.72401V14.4C20.0953 14.4552 20.0505 14.5 19.9953 14.5H16.9572C16.9019 14.5 16.8572 14.4552 16.8572 14.4V12.9543C16.8572 12.899 16.8124 12.8543 16.7572 12.8543H7.24288C7.18765 12.8543 7.14288 12.899 7.14288 12.9543V14.4C7.14288 14.4552 7.09811 14.5 7.04288 14.5H4.00479C3.94956 14.5 3.90479 14.4552 3.90479 14.4Z" stroke="#1F2023" stroke-width="1.5" stroke-linecap="square"/>
<path d="M3.5 6.43555H20.5" stroke="#1F2023" stroke-width="1.5" stroke-miterlimit="10" stroke-linecap="square"/>
</svg>
