<svg width="24" height="24" viewBox="0 0 24 24" fill="none" xmlns="http://www.w3.org/2000/svg">
<path d="M3.92263 3C3.92263 3 4.8457 4.01234 4.8457 5.23776C4.8457 7.03339 2.99955 8.81276 2.99955 10.6084C2.99955 11.8338 3.92263 12.8462 3.92263 12.8462" stroke="#1F2023" stroke-width="1.5" stroke-linecap="square"/>
<path d="M6.99977 3C6.99977 3 7.92285 4.01234 7.92285 5.23776C7.92285 7.03339 6.0767 8.81276 6.0767 10.6084C6.0767 11.8338 6.99977 12.8462 6.99977 12.8462" stroke="#1F2023" stroke-width="1.5" stroke-linecap="square"/>
<path d="M10.0769 3C10.0769 3 11 4.01234 11 5.23776C11 7.03339 9.15385 8.81276 9.15385 10.6084C9.15385 11.8338 10.0769 12.8462 10.0769 12.8462" stroke="#1F2023" stroke-width="1.5" stroke-linecap="square"/>
<path d="M5.04364 22.8685L6.97366 17.0528C6.98891 17.0068 7.03486 16.9784 7.08277 16.9853L13.9062 17.9644C13.9588 17.9719 14.0081 17.937 14.0185 17.8849L14.9941 12.9853C14.9979 12.966 15.0074 12.9483 15.0213 12.9343L18.9562 8.98196C18.983 8.95503 19.0228 8.94562 19.0588 8.95769L21.92 9.91562C21.9662 9.9311 21.9945 9.97764 21.987 10.0258L19.9837 22.9153C19.9761 22.964 19.9342 23 19.8849 23H5.13855C5.07035 23 5.02216 22.9332 5.04364 22.8685Z" stroke="#1F2023" stroke-width="1.5"/>
<path d="M13.6167 17.6907L19.6408 22.9058" stroke="#1F2023" stroke-width="1.5"/>
<path d="M19.2946 9.41803L19.0074 6.16374C19.0031 6.11544 19.0341 6.07105 19.0809 6.05841L22.8447 5.04194C22.9163 5.02262 22.9832 5.0851 22.9689 5.15781L21.8836 10.6658" stroke="#1F2023" stroke-width="1.5"/>
</svg>
