<svg width="24" height="24" viewBox="0 0 24 24" fill="none" xmlns="http://www.w3.org/2000/svg">
<path d="M12 3C6.47715 3 2 7.47715 2 13C2 16.2117 3.51408 19.0698 5.86739 20.8994C5.9529 20.9659 6.05856 21.0007 6.16687 21.0007H17.8331C17.9414 21.0007 18.0471 20.9659 18.1326 20.8994C20.4859 19.0698 22 16.2117 22 13C22 7.47715 17.5228 3 12 3Z" stroke="#1F2023" stroke-width="1.5" stroke-linecap="round"/>
<path d="M12 3V5" stroke="#1F2023" stroke-width="1.5" stroke-linecap="square"/>
<path d="M12 9V14" stroke="#1F2023" stroke-width="1.5" stroke-linecap="square"/>
<path d="M5 9L4 8.5" stroke="#1F2023" stroke-width="1.5" stroke-linecap="square"/>
<path d="M19 9L20 8.5" stroke="#1F2023" stroke-width="1.5" stroke-linecap="square"/>
<path d="M3 16H10" stroke="#1F2023" stroke-width="1.5" stroke-linecap="round"/>
<path d="M14 16H21" stroke="#1F2023" stroke-width="1.5" stroke-linecap="round"/>
<circle cx="12" cy="16" r="2" stroke="#1F2023" stroke-width="1.5"/>
</svg>
