<svg width="24" height="24" viewBox="0 0 24 24" fill="none" xmlns="http://www.w3.org/2000/svg">
<path d="M5.97977 5.18562L7.36081 3.14156C8.17116 1.94219 9.8366 1.68183 10.984 2.57515L12.0708 3.42129C12.3802 3.66217 12.308 4.15148 11.9476 4.30456C10.6549 4.85364 8.64874 5.83512 7.05205 7.02962" stroke="#1F2023" stroke-width="1.5"/>
<path d="M7.77204 8.70758L6.31541 10.8607C5.50467 12.0591 3.84 12.3188 2.69308 11.4259L1.605 10.5787C1.2956 10.3378 1.36796 9.84909 1.72986 9.69955C3.05652 9.15137 5.15766 8.18394 6.7742 7.15302" stroke="#1F2023" stroke-width="1.5"/>
<path d="M5.24316 7.91459L3.12646 6.46768C1.94005 5.65668 1.67787 4.02358 2.55231 2.89145L3.39089 1.80576C3.63015 1.496 4.12428 1.56662 4.28061 1.92608C4.84628 3.22672 5.85515 5.25047 7.072 6.86624" stroke="#1F2023" stroke-width="1.5"/>
<path d="M8.75684 6.06002L10.8735 7.50693C12.0599 8.31793 12.3221 9.95103 11.4477 11.0832L10.6091 12.1688C10.3698 12.4786 9.87572 12.408 9.71939 12.0485C9.15372 10.7479 8.14485 8.72414 6.928 7.10837L6.78224 6.85771" stroke="#1F2023" stroke-width="1.5"/>
<path d="M5.04364 22.868L6.97366 17.0523C6.98891 17.0063 7.03486 16.9779 7.08277 16.9848L13.9062 17.9639C13.9588 17.9714 14.0081 17.9365 14.0185 17.8844L14.9941 12.9848C14.9979 12.9655 15.0074 12.9478 15.0213 12.9338L18.9562 8.98147C18.983 8.95454 19.0228 8.94513 19.0588 8.9572L21.92 9.91513C21.9662 9.93061 21.9945 9.97715 21.987 10.0253L19.9837 22.9148C19.9761 22.9636 19.9342 22.9995 19.8849 22.9995H5.13855C5.07035 22.9995 5.02216 22.9327 5.04364 22.868Z" stroke="#1F2023" stroke-width="1.5"/>
<path d="M13.6172 17.6914L19.6413 22.9065" stroke="#1F2023" stroke-width="1.5"/>
<path d="M19.2946 9.41803L19.0074 6.16374C19.0031 6.11544 19.0341 6.07105 19.0809 6.05841L22.8447 5.04194C22.9163 5.02262 22.9832 5.0851 22.9689 5.15781L21.8836 10.6658" stroke="#1F2023" stroke-width="1.5"/>
</svg>
