<svg width="24" height="24" viewBox="0 0 24 24" fill="none" xmlns="http://www.w3.org/2000/svg">
<path d="M3.04364 20.8685L4.97366 15.0528C4.98891 15.0068 5.03486 14.9784 5.08277 14.9853L11.9062 15.9644C11.9588 15.9719 12.0081 15.937 12.0185 15.8849L12.9941 10.9853C12.9979 10.966 13.0074 10.9483 13.0213 10.9343L16.9562 6.98196C16.983 6.95503 17.0228 6.94562 17.0588 6.95769L19.92 7.91562C19.9662 7.9311 19.9945 7.97764 19.987 8.02581L17.9837 20.9153C17.9761 20.964 17.9342 21 17.8849 21H3.13855C3.07035 21 3.02216 20.9332 3.04364 20.8685Z" stroke="#1F2023" stroke-width="1.5"/>
<path d="M11.6167 15.6907L17.6408 20.9058" stroke="#1F2023" stroke-width="1.5"/>
<path d="M17.2946 7.41803L17.0074 4.16374C17.0031 4.11544 17.0341 4.07105 17.0809 4.05841L20.8447 3.04194C20.9163 3.02262 20.9832 3.0851 20.9689 3.15781L19.8836 8.66584" stroke="#1F2023" stroke-width="1.5"/>
</svg>
