<svg width="24" height="24" viewBox="0 0 24 24" fill="none" xmlns="http://www.w3.org/2000/svg">
<path d="M16.5952 9.30044C16.5952 9.30044 15.5248 9.4852 13.7417 10.5772C11.9585 11.6693 11.5 13.4328 11.5 13.4328" stroke="#1F2023" stroke-width="1.5" stroke-linecap="square" stroke-linejoin="round"/>
<path d="M11.5484 21V14.0963M11.5484 14.0963L18.8996 13.3605C20.9442 13.1558 22.5012 11.4352 22.5012 9.38038V4C22.5012 3.44772 22.0535 3 21.5012 3H17.5258C14.2016 3 11.511 5.70258 11.5258 9.02668L11.5484 14.0963Z" stroke="#1F2023" stroke-width="1.5" stroke-linecap="square"/>
<path d="M11.656 7.66932L10.386 6.59554C9.22948 5.61763 7.61979 5.37681 6.22768 5.97343L2.60401 7.52643C2.02933 7.77272 1.81906 8.48006 2.16588 9.00028L4.60842 12.6641C5.16482 13.4987 6.10152 14 7.10457 14H11.499" stroke="#1F2023" stroke-width="1.5"/>
</svg>
