<svg width="24" height="24" viewBox="0 0 24 24" fill="none" xmlns="http://www.w3.org/2000/svg">
<path d="M6 18.5H3C2.44772 18.5 2 18.0523 2 17.5V5.50001C2 4.94772 2.44772 4.5 3.00001 4.50001L10 4.50004" stroke="#1F2023" stroke-width="1.5"/>
<path d="M9.42871 17.0024H18.5716" stroke="#1F2023" stroke-width="1.5" stroke-miterlimit="10" stroke-linecap="square"/>
<path d="M6.38086 21.9V17.4222C6.38086 17.1034 6.43167 16.7866 6.53139 16.4838L8.64394 10.0687C8.65745 10.0277 8.69575 10 8.73893 10H13.9999H19.2609C19.3041 10 19.3424 10.0277 19.3559 10.0687L21.4686 16.4876C21.5682 16.7903 21.619 17.1069 21.619 17.4255V21.9C21.619 21.9552 21.5742 22 21.519 22H18.6713C18.6161 22 18.5713 21.9552 18.5713 21.9V20.5201C18.5713 20.4649 18.5266 20.4201 18.4713 20.4201H9.52848C9.47325 20.4201 9.42848 20.4649 9.42848 20.5201V21.9C9.42848 21.9552 9.38371 22 9.32848 22H6.48086C6.42563 22 6.38086 21.9552 6.38086 21.9Z" stroke="#1F2023" stroke-width="1.5" stroke-linecap="square"/>
<path d="M6 14.2583H22" stroke="#1F2023" stroke-width="1.5" stroke-miterlimit="10" stroke-linecap="square"/>
<path d="M11.97 1.53546C11.989 1.51297 12.017 1.5 12.0464 1.5H14.9C14.9552 1.5 15 1.54477 15 1.6V6.9C15 6.95523 14.9552 7 14.9 7H12.0419C12.0151 7 11.9894 6.98924 11.9706 6.97013L9.56396 4.52395C9.52772 4.48712 9.52551 4.42875 9.55886 4.38928L11.97 1.53546Z" stroke="#1F2023" stroke-width="1.5"/>
<path d="M15 5.5H18" stroke="#1F2023" stroke-width="1.5"/>
<path d="M15 3H18" stroke="#1F2023" stroke-width="1.5"/>
</svg>
