<svg width="24" height="24" viewBox="0 0 24 24" fill="none" xmlns="http://www.w3.org/2000/svg">
<g clip-path="url(#clip0_6035_27928)">
<path d="M18.9445 19.1145L15.8222 15.4688C15.7863 15.4269 15.7232 15.422 15.6812 15.4579L12.795 17.9297C12.7531 17.9657 12.69 17.9608 12.654 17.9188L6.27935 10.4755C6.24342 10.4335 6.2483 10.3704 6.29025 10.3345L9.17644 7.86267C9.21839 7.82674 9.22327 7.76362 9.18735 7.72167L6.06505 4.07595C6.02912 4.03401 5.966 4.02912 5.92405 4.06505L2.96406 6.60007C2.96264 6.60128 2.96153 6.60281 2.9608 6.60454C1.89684 9.12853 2.35023 12.037 4.13195 14.1174L6.4286 16.7991L8.72525 19.4807C10.507 21.5611 13.3112 22.4563 15.9687 21.7931C15.9705 21.7926 15.9722 21.7918 15.9736 21.7905L18.9336 19.2555C18.9756 19.2196 18.9805 19.1565 18.9445 19.1145Z" stroke="#1F2023" stroke-width="1.5"/>
<path d="M19.6094 5.72116L19.6094 5.72117L19.6103 5.72176C19.7656 5.82368 19.9421 5.90577 20.1394 5.96835C20.3387 6.03152 20.561 6.06273 20.8059 6.06273C21.0655 6.06273 21.3068 6.02667 21.5294 5.95406L21.5294 5.95407L21.5304 5.95375C21.7526 5.87646 21.9446 5.76975 22.1056 5.63313C22.2667 5.49641 22.3915 5.3326 22.4795 5.14206C22.5726 4.95088 22.6189 4.74288 22.6189 4.51882C22.6189 4.29609 22.5802 4.09565 22.5015 3.91848C22.4283 3.74303 22.3257 3.59132 22.1936 3.46392C22.0668 3.33239 21.916 3.22313 21.7416 3.13596C21.5687 3.04949 21.3863 2.9799 21.1944 2.92714L21.1944 2.92714L20.8333 2.82802L20.8332 2.82799C20.6288 2.77224 20.4925 2.70678 20.4165 2.63554C20.348 2.56239 20.3108 2.45837 20.3108 2.3169C20.3108 2.19356 20.3549 2.08538 20.4456 1.99034L20.4456 1.99035L20.4464 1.98953C20.5335 1.89411 20.6623 1.84297 20.8413 1.84297C21.1752 1.84297 21.451 2.00613 21.6702 2.34411L21.6993 2.38886L21.742 2.35701L22.4076 1.8614L22.4455 1.83317L22.4194 1.79374C22.2501 1.5373 22.0344 1.33364 21.7728 1.18337C21.5094 1.02736 21.2078 0.95 20.8696 0.95C20.6056 0.95 20.3685 0.986005 20.1593 1.05899L20.1593 1.05899L20.159 1.05911C19.9551 1.13191 19.7815 1.23434 19.6391 1.36695C19.5018 1.4944 19.3963 1.64412 19.3227 1.81576L19.3227 1.81575L19.3222 1.81688C19.2536 1.98835 19.2195 2.17169 19.2195 2.36646C19.2195 2.56985 19.251 2.75323 19.3151 2.9158L19.3151 2.9158L19.3153 2.91629C19.3789 3.07296 19.4673 3.21053 19.5804 3.32856C19.6927 3.44574 19.8242 3.54555 19.9747 3.62809L19.9747 3.62812L19.9764 3.62897C20.1306 3.70606 20.2966 3.76856 20.4741 3.81656C20.4742 3.81657 20.4742 3.81659 20.4743 3.8166L20.8349 3.91559C20.8349 3.9156 20.835 3.91562 20.835 3.91563C21.1009 3.99027 21.2789 4.08382 21.378 4.19159C21.4778 4.30006 21.5277 4.42946 21.5277 4.58254C21.5277 4.73772 21.468 4.87374 21.3447 4.9926L21.3447 4.99259L21.3441 4.99324C21.2288 5.10849 21.0592 5.16975 20.8272 5.16975C20.676 5.16975 20.54 5.14916 20.4184 5.10869C20.3003 5.06777 20.194 5.01345 20.0993 4.94587C20.0034 4.87275 19.9167 4.79057 19.839 4.6993C19.7609 4.60272 19.6919 4.49924 19.6321 4.38881L19.6043 4.33741L19.5578 4.37288L18.8993 4.87557L18.8638 4.9027L18.8868 4.94103C18.9735 5.08552 19.0769 5.22492 19.1968 5.35926C19.3176 5.4945 19.4552 5.61514 19.6094 5.72116Z" fill="#1F2023" stroke="#1F2023" stroke-width="0.1"/>
<path d="M15.3355 5.87427L15.3358 5.8744C15.6213 6.00023 15.9375 6.06273 16.2835 6.06273C16.6294 6.06273 16.9432 6.00025 17.2242 5.87433C17.509 5.7488 17.7509 5.5723 17.9494 5.34489C18.1523 5.11772 18.3065 4.84756 18.4123 4.53518C18.5229 4.22245 18.5779 3.87935 18.5779 3.50636C18.5779 3.13338 18.5229 2.79028 18.4123 2.47755C18.3065 2.16517 18.1523 1.89501 17.9494 1.66784C17.7509 1.44043 17.509 1.26393 17.2242 1.13839C16.9432 1.01247 16.6294 0.95 16.2835 0.95C15.9375 0.95 15.6213 1.0125 15.3358 1.13833L15.3358 1.13833L15.3355 1.13846C15.0554 1.26403 14.8136 1.44049 14.6107 1.66762L14.6107 1.66761L14.6103 1.66806C14.4122 1.89514 14.2581 2.1651 14.1477 2.47723L14.1477 2.47723L14.1475 2.47788C14.0417 2.7905 13.9891 3.13348 13.9891 3.50636C13.9891 3.87925 14.0417 4.22223 14.1475 4.53485L14.1475 4.53485L14.1477 4.5355C14.2581 4.84762 14.4122 5.11759 14.6103 5.34466L14.6103 5.34467L14.6107 5.34511C14.8136 5.57224 15.0554 5.7487 15.3355 5.87427ZM15.7541 1.99319L15.7541 1.9932L15.7552 1.99263C15.9023 1.9124 16.0778 1.87129 16.2835 1.87129C16.4891 1.87129 16.6647 1.9124 16.8118 1.99263L16.8118 1.99264L16.8128 1.99319C16.9609 2.06947 17.0845 2.17942 17.1839 2.32399L17.1839 2.32399L17.1843 2.3246C17.284 2.46497 17.3596 2.63601 17.4103 2.8388C17.4611 3.04199 17.4866 3.26442 17.4866 3.50636C17.4866 3.7483 17.4611 3.97074 17.4103 4.17393C17.3596 4.37663 17.284 4.5502 17.1841 4.69551C17.0848 4.8354 16.961 4.9457 16.8123 5.0269C16.6651 5.10261 16.4893 5.14143 16.2835 5.14143C16.0776 5.14143 15.9019 5.10261 15.7546 5.0269C15.606 4.94571 15.4821 4.8354 15.3828 4.69552C15.283 4.55021 15.2073 4.37663 15.1567 4.17393C15.1059 3.97074 15.0803 3.7483 15.0803 3.50636C15.0803 3.26442 15.1059 3.04199 15.1567 2.8388C15.2074 2.63601 15.283 2.46497 15.3826 2.3246L15.3826 2.3246L15.383 2.32399C15.4824 2.17942 15.606 2.06947 15.7541 1.99319Z" fill="#1F2023" stroke="#1F2023" stroke-width="0.1"/>
<path d="M10.6797 5.72116L10.6797 5.72117L10.6806 5.72176C10.8359 5.82368 11.0124 5.90577 11.2097 5.96835C11.409 6.03152 11.6313 6.06273 11.8762 6.06273C12.1358 6.06273 12.3771 6.02667 12.5997 5.95406L12.5997 5.95407L12.6007 5.95375C12.8229 5.87646 13.0149 5.76975 13.1759 5.63313C13.3371 5.49641 13.4618 5.3326 13.5498 5.14206C13.6429 4.95088 13.6892 4.74288 13.6892 4.51882C13.6892 4.29609 13.6505 4.09565 13.5718 3.91848C13.4986 3.74303 13.396 3.59132 13.2639 3.46392C13.1371 3.33239 12.9863 3.22313 12.8119 3.13596C12.639 3.04949 12.4566 2.9799 12.2647 2.92714L12.2647 2.92714L11.9036 2.82802L11.9035 2.82799C11.6991 2.77224 11.5628 2.70678 11.4868 2.63554C11.4183 2.56238 11.3811 2.45837 11.3811 2.3169C11.3811 2.19356 11.4252 2.08538 11.5159 1.99034L11.5159 1.99035L11.5167 1.98953C11.6038 1.89411 11.7326 1.84297 11.9116 1.84297C12.2455 1.84297 12.5213 2.00613 12.7405 2.34411L12.7696 2.38886L12.8124 2.35701L13.4779 1.8614L13.5158 1.83317L13.4897 1.79374C13.3204 1.5373 13.1047 1.33364 12.8431 1.18337C12.5797 1.02736 12.2781 0.95 11.94 0.95C11.6759 0.95 11.4389 0.986005 11.2296 1.05899L11.2296 1.05899L11.2293 1.05911C11.0255 1.13191 10.8518 1.23434 10.7094 1.36695C10.5721 1.4944 10.4666 1.64412 10.393 1.81576L10.393 1.81575L10.3925 1.81688C10.324 1.98835 10.2898 2.17169 10.2898 2.36646C10.2898 2.56985 10.3213 2.75323 10.3854 2.9158L10.3854 2.9158L10.3856 2.91629C10.4492 3.07296 10.5376 3.21053 10.6507 3.32856C10.763 3.44574 10.8946 3.54555 11.0451 3.62809L11.045 3.62812L11.0467 3.62897C11.2009 3.70606 11.3669 3.76856 11.5445 3.81656C11.5445 3.81657 11.5445 3.81659 11.5446 3.8166L11.9052 3.91559C11.9052 3.9156 11.9053 3.91561 11.9053 3.91562C12.1712 3.99026 12.3492 4.08382 12.4483 4.19159C12.5481 4.30006 12.598 4.42946 12.598 4.58254C12.598 4.73772 12.5383 4.87374 12.415 4.9926L12.415 4.99259L12.4144 4.99324C12.2991 5.10849 12.1295 5.16975 11.8975 5.16975C11.7464 5.16975 11.6103 5.14916 11.4887 5.10869C11.3706 5.06777 11.2643 5.01345 11.1696 4.94587C11.0737 4.87275 10.987 4.79057 10.9093 4.6993C10.8312 4.60272 10.7622 4.49924 10.7024 4.38881L10.6746 4.33741L10.6281 4.37288L9.96966 4.87557L9.93412 4.9027L9.95713 4.94103C10.0438 5.08552 10.1472 5.22492 10.2671 5.35926C10.3879 5.4945 10.5255 5.61514 10.6797 5.72116Z" fill="#1F2023" stroke="#1F2023" stroke-width="0.1"/>
</g>
<defs>
<clipPath id="clip0_6035_27928">
<rect width="24" height="24" fill="white"/>
</clipPath>
</defs>
</svg>
