<svg width="24" height="24" viewBox="0 0 24 24" fill="none" xmlns="http://www.w3.org/2000/svg">
<g clip-path="url(#clip0_6035_11268)">
<path d="M2.08254 20.8514L11.9126 3.15735C11.9507 3.08877 12.0493 3.08877 12.0874 3.15735L21.9175 20.8514C21.9545 20.9181 21.9063 21 21.83 21L2.16995 21C2.0937 21 2.04551 20.9181 2.08254 20.8514Z" stroke="#1F2023" stroke-width="1.5"/>
<path d="M8.43655 17.2549L11.9104 10.3767C11.9474 10.3035 12.0519 10.3035 12.0889 10.3767L15.5627 17.2549C15.5963 17.3214 15.548 17.4 15.4735 17.4L8.52582 17.4C8.4513 17.4 8.40296 17.3214 8.43655 17.2549Z" stroke="#1F2023" stroke-width="1.5"/>
<path d="M22 2L2 22" stroke="#1F2023" stroke-width="1.5" stroke-linecap="square"/>
</g>
<defs>
<clipPath id="clip0_6035_11268">
<rect width="24" height="24" fill="white"/>
</clipPath>
</defs>
</svg>
