<svg width="24" height="24" viewBox="0 0 24 24" fill="none" xmlns="http://www.w3.org/2000/svg">
<path d="M4 3.1C4 3.04477 4.04477 3 4.1 3H19.9C19.9552 3 20 3.04477 20 3.1V20.9C20 20.9552 19.9552 21 19.9 21H4.1C4.04477 21 4 20.9552 4 20.9V3.1Z" stroke="#1F2023" stroke-width="1.5" stroke-linecap="square" stroke-linejoin="round"/>
<path d="M17 21V20C17 18.3431 15.6569 17 14 17H10C8.34315 17 7 18.3431 7 20V21" stroke="#1F2023" stroke-width="1.5" stroke-linecap="square"/>
<path d="M9.5 6H14.5" stroke="#1F2023" stroke-width="1.5" stroke-linecap="square" stroke-linejoin="round"/>
<path d="M12 14C13.1046 14 14 13.1046 14 12C14 10.8954 13.1046 10 12 10C10.8954 10 10 10.8954 10 12C10 13.1046 10.8954 14 12 14Z" stroke="#1F2023" stroke-width="1.5" stroke-miterlimit="10" stroke-linecap="square"/>
</svg>
