<svg width="24" height="24" viewBox="0 0 24 24" fill="none" xmlns="http://www.w3.org/2000/svg">
<path d="M5.1 22H18.9C18.9552 22 19 21.9552 19 21.9V10.5276C19 10.5027 18.9907 10.4787 18.9739 10.4603L14.0297 5.03266C14.0108 5.01186 13.984 5 13.9558 5H5.1C5.04477 5 5 5.04477 5 5.1V21.9C5 21.9552 5.04477 22 5.1 22Z" stroke="#1F2023" stroke-width="1.5"/>
<path d="M7 5V2.1C7 2.04477 7.04477 2 7.1 2H11.9C11.9552 2 12 2.04477 12 2.1V5" stroke="#1F2023" stroke-width="1.5"/>
<path d="M14.25 13.8462C14.25 15.0357 13.2426 16 12 16C10.7574 16 9.75 15.0357 9.75 13.8462C9.75 12.1302 11.5296 9.6334 11.9234 9.10185C11.9625 9.04919 12.0375 9.04919 12.0766 9.10185C12.4704 9.6334 14.25 12.1302 14.25 13.8462Z" stroke="#1F2023" stroke-width="1.5"/>
<path d="M9 19H15" stroke="#1F2023" stroke-width="1.5"/>
</svg>
