<svg width="24" height="24" viewBox="0 0 24 24" fill="none" xmlns="http://www.w3.org/2000/svg">
<path d="M5 16.8231V9.84367C5 9.78844 5.04477 9.74367 5.1 9.74367H6.92321C6.9685 9.74367 7.00813 9.71323 7.01982 9.66947L7.98018 6.07419C7.99187 6.03044 8.0315 6 8.07679 6H14.94C14.977 6 15.0109 6.02033 15.0282 6.05288L16.9718 9.69079C16.9891 9.72334 17.023 9.74367 17.06 9.74367H21.8993C21.9545 9.74367 21.9993 9.78844 21.9993 9.84367V15.7975C21.9993 15.8527 21.9545 15.8975 21.8993 15.8975H18.0625C18.0243 15.8975 17.9894 15.9193 17.9726 15.9537L16.0274 19.9439C16.0106 19.9783 15.9757 20.0001 15.9375 20.0001H9.05427C9.02042 20.0001 8.98887 19.9829 8.97042 19.9546L7.02958 16.9686C7.01113 16.9403 6.97958 16.9231 6.94573 16.9231H5.1C5.04477 16.9231 5 16.8784 5 16.8231Z" stroke="#1F2023" stroke-width="1.5" stroke-linecap="square"/>
<path d="M5 13.1111H2M2 10V16.2222" stroke="#1F2023" stroke-width="1.5" stroke-linecap="square"/>
<path d="M11.7273 6L11.7273 3M14 3L9.45455 3" stroke="#1F2023" stroke-width="1.5" stroke-linecap="square"/>
</svg>
