<svg width="24" height="24" viewBox="0 0 24 24" fill="none" xmlns="http://www.w3.org/2000/svg">
<path d="M21 20.8487V6.04873C21 5.9935 20.9552 5.94873 20.9 5.94873H15.5474C15.5174 5.94873 15.489 5.96219 15.47 5.98541L6.53001 16.9121C6.51101 16.9353 6.48261 16.9487 6.45261 16.9487H3.1C3.04477 16.9487 3 16.9935 3 17.0487V20.8487C3 20.904 3.04477 20.9487 3.1 20.9487H20.9C20.9552 20.9487 21 20.904 21 20.8487Z" stroke="#1F2023" stroke-width="1.5"/>
<path d="M8.5 20.9487L17.47 9.4871C17.4889 9.46288 17.518 9.44873 17.5487 9.44873H20.5" stroke="#1F2023" stroke-width="1.5"/>
<circle cx="8" cy="5" r="1.5" stroke="#1F2023" stroke-width="1.5"/>
<path d="M6 16.4487V10.4487C6 9.34416 6.89543 8.44873 8 8.44873V8.44873C9.10457 8.44873 10 9.34416 10 10.4487V12.9487" stroke="#1F2023" stroke-width="1.5"/>
</svg>
