<svg width="24" height="24" viewBox="0 0 24 24" fill="none" xmlns="http://www.w3.org/2000/svg">
<circle cx="12" cy="12" r="10" stroke="#1F2023" stroke-width="1.5"/>
<path d="M6 10.5H11.5M6 13.5H11.5M16 8.46447C15.3146 7.76521 14.4413 7.289 13.4907 7.09608C12.54 6.90315 11.5546 7.00217 10.659 7.3806C9.76352 7.75904 8.9981 8.39991 8.45959 9.22215C7.92107 10.0444 7.63363 11.0111 7.63363 12C7.63363 12.9889 7.92107 13.9556 8.45959 14.7779C8.9981 15.6001 9.76352 16.241 10.659 16.6194C11.5546 16.9978 12.54 17.0969 13.4907 16.9039C14.4413 16.711 15.3146 16.2348 16 15.5355" stroke="#1F2023" stroke-width="1.5" stroke-linecap="square" stroke-linejoin="round"/>
</svg>
