<svg width="24" height="24" viewBox="0 0 24 24" fill="none" xmlns="http://www.w3.org/2000/svg">
<path d="M13.9029 15.5H10.1C10.0448 15.5 10 15.5448 10 15.6V20.9385C10 20.9937 10.0448 21.0385 10.1 21.0385H13.9029" stroke="#1F2023" stroke-width="1.5" stroke-linecap="square"/>
<path d="M16.0811 15.5L18.4479 21.2743C18.4819 21.357 18.5991 21.357 18.633 21.2743L20.9999 15.5" stroke="#1F2023" stroke-width="1.5" stroke-linecap="square" stroke-linejoin="bevel"/>
<path d="M10.5605 18.2693L13.9334 18.2671" stroke="#1F2023" stroke-width="1.5" stroke-linecap="square"/>
<path d="M15 12.5V5.6C15 5.54477 14.9552 5.5 14.9 5.5H3.1C3.04477 5.5 3 5.54477 3 5.6V21.4C3 21.4552 3.04477 21.5 3.1 21.5H8" stroke="#1F2023" stroke-width="1.5"/>
<path d="M12 5.5V2.6C12 2.54477 11.9552 2.5 11.9 2.5H6.1C6.04477 2.5 6 2.54477 6 2.6V5.5" stroke="#1F2023" stroke-width="1.5"/>
</svg>
