<svg width="24" height="24" viewBox="0 0 24 24" fill="none" xmlns="http://www.w3.org/2000/svg">
<path d="M9.30176 16V19C9.30176 20.1046 10.1972 21 11.3018 21H15.3018" stroke="#1F2023" stroke-width="1.5"/>
<path d="M4.30176 7.1C4.30176 7.04477 4.34653 7 4.40176 7H14.2018C14.257 7 14.3018 7.04477 14.3018 7.1V13.4831C14.3018 13.5213 14.2801 13.5561 14.2458 13.5729L9.34583 15.9784C9.31803 15.992 9.28548 15.992 9.25769 15.9784L4.35769 13.5729C4.32345 13.5561 4.30176 13.5213 4.30176 13.4831V7.1Z" stroke="#1F2023" stroke-width="1.5"/>
<path d="M6.80176 3V7" stroke="#1F2023" stroke-width="1.5" stroke-miterlimit="10"/>
<path d="M11.8018 3V7" stroke="#1F2023" stroke-width="1.5" stroke-miterlimit="10"/>
<path d="M18.6855 14L17.3018 17.4461L19.699 17.4461L18.3881 21" stroke="#1F2023" stroke-width="1.5" stroke-linecap="square"/>
</svg>
