<svg width="24" height="24" viewBox="0 0 24 24" fill="none" xmlns="http://www.w3.org/2000/svg">
<path d="M2.5 3.1C2.5 3.04477 2.54477 3 2.6 3H13.4C13.4552 3 13.5 3.04477 13.5 3.1V20.9C13.5 20.9552 13.4552 21 13.4 21H2.6C2.54477 21 2.5 20.9552 2.5 20.9V3.1Z" stroke="#1F2023" stroke-width="1.5"/>
<path d="M9.24965 8L6.75 12H9.25L6.75 16" stroke="#1F2023" stroke-width="1.5"/>
<path d="M13.5 13.8186H17.4C17.4552 13.8186 17.5 13.8634 17.5 13.9186V18.9547C17.5 18.9547 17.5 21 19.5 21C21.5 21 21.5 18.9547 21.5 18.9547V7.70529L16 3" stroke="#1F2023" stroke-width="1.5"/>
<path d="M18.2148 5.31104L16.7148 8.81079C16.7148 9.81079 19.2148 10.311 21.2148 10.311" stroke="#1F2023" stroke-width="1.5"/>
</svg>
