<svg width="24" height="24" viewBox="0 0 24 24" fill="none" xmlns="http://www.w3.org/2000/svg">
<path d="M12 15C13.6569 15 15 13.6569 15 12C15 10.3431 13.6569 9 12 9C10.3431 9 9 10.3431 9 12C9 13.6569 10.3431 15 12 15Z" stroke="#1F2023" stroke-width="1.5" stroke-miterlimit="10" stroke-linecap="square"/>
<path d="M2.83888 10.8499C7.55568 4.38336 16.4443 4.38336 21.1611 10.8499L21.957 11.9411C21.9826 11.9762 21.9826 12.0238 21.957 12.0589L21.1611 13.1501C16.4443 19.6166 7.55568 19.6166 2.83888 13.1501L2.04298 12.0589C2.01737 12.0238 2.01737 11.9762 2.04298 11.9411L2.83888 10.8499Z" stroke="#1F2023" stroke-width="1.5" stroke-linecap="square"/>
</svg>
