<svg width="24" height="24" viewBox="0 0 24 24" fill="none" xmlns="http://www.w3.org/2000/svg">
<path d="M21 8V4.1C21 4.04477 20.9552 4 20.9 4H3.1C3.04477 4 3 4.04477 3 4.1V9.9C3 9.95523 3.04477 10 3.1 10H13" stroke="#1F2023" stroke-width="1.5"/>
<path d="M3 14H7" stroke="#1F2023" stroke-width="1.5" stroke-linecap="square"/>
<path d="M3 17H7" stroke="#1F2023" stroke-width="1.5" stroke-linecap="square"/>
<path d="M17.0894 10.0225L13.7414 13.37C13.7203 13.3911 13.6908 13.4017 13.6611 13.3988L11.6461 13.2051C11.6164 13.2023 11.5869 13.2128 11.5658 13.2339L11.092 13.7077C11.0529 13.7468 11.0529 13.8101 11.092 13.8492L16.1518 18.9083C16.1908 18.9474 16.2541 18.9474 16.2932 18.9083L16.7671 18.4345C16.7882 18.4134 16.7987 18.384 16.7959 18.3542L16.6021 16.3395C16.5993 16.3098 16.6099 16.2803 16.631 16.2592L19.9789 12.9117L20.4861 13.4188C20.5252 13.4579 20.5885 13.4579 20.6276 13.4188L21.9309 12.1156C21.97 12.0766 21.97 12.0132 21.9309 11.9742L18.0269 8.0707C17.9879 8.03165 17.9246 8.03165 17.8855 8.0707L16.5822 9.37389C16.5431 9.41295 16.5431 9.47627 16.5822 9.51532L17.0894 10.0225Z" stroke="#1F2023" stroke-width="1.5"/>
<path d="M13.6248 16.3789L9.00143 21.0017" stroke="#1F2023" stroke-width="1.5"/>
</svg>
