<svg width="24" height="24" viewBox="0 0 24 24" fill="none" xmlns="http://www.w3.org/2000/svg">
<path d="M3.19721 8.17476L21.7845 3.0593C21.8678 3.03637 21.9391 3.12278 21.9006 3.20018L13.1501 20.8277C13.1141 20.9002 13.0114 20.9021 12.9727 20.8309L8.26073 12.1613C8.25382 12.1486 8.24423 12.1375 8.23262 12.1289L3.16398 8.35135C3.09723 8.30161 3.11694 8.19684 3.19721 8.17476Z" stroke="#1F2023" stroke-width="1.5" stroke-linecap="square"/>
<path d="M10.4649 16.7377L11.1301 16.3913L10.4373 15.0608L9.77213 15.4072L10.4649 16.7377ZM4.47435 18.8061L3.81081 18.4565L4.47435 18.8061ZM8.03136 12.086L8.41721 12.7292L8.03136 12.086ZM7.99434 12.1252L7.3308 11.7756L7.99434 12.1252ZM20.7793 3.56341L7.64552 11.4429L8.41721 12.7292L21.551 4.84968L20.7793 3.56341ZM7.3308 11.7756L3.81081 18.4565L5.13789 19.1557L8.65788 12.4747L7.3308 11.7756ZM4.95541 19.6066L10.4649 16.7377L9.77213 15.4072L4.26261 18.2762L4.95541 19.6066ZM3.81081 18.4565C3.42243 19.1937 4.21639 19.9915 4.95541 19.6066L4.26261 18.2762C4.82774 17.9819 5.43488 18.592 5.13789 19.1557L3.81081 18.4565ZM7.64552 11.4429C7.51215 11.5229 7.4033 11.638 7.3308 11.7756L8.65788 12.4747C8.60244 12.58 8.5192 12.668 8.41721 12.7292L7.64552 11.4429Z" fill="#1F2023"/>
</svg>
