<svg width="24" height="24" viewBox="0 0 24 24" fill="none" xmlns="http://www.w3.org/2000/svg">
<path d="M5.56836 20H15.5123" stroke="#1F2023" stroke-width="1.5" stroke-linecap="square"/>
<path d="M15.2606 3.0043L15.2922 3.75364L15.2606 3.0043ZM22.0002 9.10991L21.2502 9.10991L21.2502 9.10991L22.0002 9.10991ZM18.9674 12V11.25V12ZM19.6413 6.30384H18.8913V6.89304L19.4638 7.03252L19.6413 6.30384ZM18.315 3.9L17.8718 4.50501L18.315 3.9ZM19.1842 4.8L19.8116 4.38908L19.8116 4.38908L19.1842 4.8ZM11.9124 4.8L12.5182 5.24216L12.5182 5.24216L11.9124 4.8ZM21.0184 11.3164L21.495 11.8954L21.0184 11.3164ZM22.7502 9.10991C22.7502 7.1513 21.2237 5.91748 19.8189 5.57517L19.4638 7.03252C20.4115 7.26345 21.2502 8.04196 21.2502 9.10991L22.7502 9.10991ZM18.7583 3.29499C17.7861 2.58276 16.5004 2.20148 15.2291 2.25497L15.2922 3.75364C16.2405 3.71374 17.1878 4.0039 17.8718 4.50501L18.7583 3.29499ZM20.3913 6.30384C20.3913 5.59088 20.174 4.94241 19.8116 4.38908L18.5568 5.21092C18.7726 5.5404 18.8913 5.90631 18.8913 6.30384H20.3913ZM19.8116 4.38908C19.5323 3.96264 19.1696 3.59637 18.7583 3.29499L17.8718 4.50501C18.1563 4.71347 18.3877 4.95271 18.5568 5.21092L19.8116 4.38908ZM15.2291 2.25497C13.5951 2.32372 12.1668 3.17919 11.3066 4.35784L12.5182 5.24216C13.1273 4.40757 14.1446 3.80193 15.2922 3.75364L15.2291 2.25497ZM11.3066 4.35784C10.8418 4.99461 10.5313 5.74118 10.4538 6.52913L11.9466 6.67604C11.9949 6.18467 12.1925 5.68843 12.5182 5.24216L11.3066 4.35784ZM18.9674 12.75C19.9105 12.75 20.8046 12.4637 21.495 11.8954L20.5418 10.7373C20.1553 11.0554 19.6116 11.25 18.9674 11.25L18.9674 12.75ZM21.495 11.8954C22.2817 11.2479 22.7502 10.2777 22.7502 9.10991L21.2502 9.10991C21.2502 9.85309 20.9644 10.3895 20.5418 10.7373L21.495 11.8954ZM18.9674 11.25H18.4837V12.75H18.9674V11.25Z" fill="#1F2023"/>
<path d="M5.14233 13.0627C4.44755 10.5939 6.95565 7.23087 10.1646 7.01148C12.7036 6.83789 15.4391 8.65654 16.0375 10.9165" stroke="#1F2023" stroke-width="1.5"/>
<path d="M13.388 12.0825C14.0858 11.4559 14.977 11.0801 15.9478 11.0801C18.1858 11.0801 20 13.0768 20 15.5398C20 18.0028 18.1858 19.9995 15.9478 19.9995H5.15169C3.41106 19.9995 2 18.4465 2 16.5308C2 14.6151 3.41106 13.0622 5.15169 13.0622C5.89242 13.0622 6.57347 13.3434 7.11148 13.8142" stroke="#1F2023" stroke-width="1.5" stroke-linecap="square"/>
</svg>
