<svg width="24" height="24" viewBox="0 0 24 24" fill="none" xmlns="http://www.w3.org/2000/svg">
<path d="M22 18.5L11 18.5M5 18.5H2M22 5.5L11.5 5.5M5.5 5.5L2 5.5M22 12H19M13 12L2 12M5.75 18.5C5.75 17.1193 6.86929 16 8.25 16C9.63071 16 10.75 17.1193 10.75 18.5C10.75 19.8807 9.63071 21 8.25 21C6.86929 21 5.75 19.8807 5.75 18.5ZM5.75 5.5C5.75 4.11929 6.86929 3 8.25 3C9.63071 3 10.75 4.11929 10.75 5.5C10.75 6.88071 9.63071 8 8.25 8C6.86929 8 5.75 6.88071 5.75 5.5ZM13.25 12C13.25 10.6193 14.3693 9.5 15.75 9.5C17.1307 9.5 18.25 10.6193 18.25 12C18.25 13.3807 17.1307 14.5 15.75 14.5C14.3693 14.5 13.25 13.3807 13.25 12Z" stroke="#1F2023" stroke-width="1.5" stroke-miterlimit="10" stroke-linecap="square"/>
</svg>
