<svg width="24" height="25" viewBox="0 0 24 25" fill="none" xmlns="http://www.w3.org/2000/svg">
<path d="M16.5525 13.0195C16.5525 13.0195 16.5525 13.582 18.1321 11.4374C22.0131 13.1532 22.6271 20.7859 15.7201 22.2785C15.6508 22.2935 15.5864 22.2328 15.5992 22.163C15.9311 20.3654 15.9062 19.7131 14.7326 18.5029C14.6767 18.4453 14.5787 18.475 14.5598 18.5531C14.1614 20.1962 12.7059 21.179 11.6306 21.7126C11.5545 21.7504 11.4699 21.6798 11.4874 21.5966C11.9043 19.6126 10.548 18.3682 10.548 18.3682C8.99226 16.9612 8.98913 15.7482 9.15541 14.6396C9.16776 14.5572 9.07593 14.4984 9.00343 14.5394C3.15678 17.845 7.19903 21.8108 6.7978 22.3004C6.7772 22.3255 6.74417 22.3254 6.71636 22.3086C5.91234 21.8229 -1.52434 16.8062 7.20972 9.1497C8.64831 8.00162 10.4281 5.20978 10.5446 2.42917C10.5469 2.37507 10.5902 2.33184 10.6443 2.33363C14.209 2.4513 19.1378 9.03982 16.5525 13.0195Z" stroke="#1F2023" stroke-width="1.5"/>
</svg>
