<svg width="24" height="24" viewBox="0 0 24 24" fill="none" xmlns="http://www.w3.org/2000/svg">
<path d="M5.5 5.74146L5.5 2M5.5 22L5.5 11.8707M18.5 5L18.5 2M18.5 22L18.5 11.6918M12 12.5L12 2M12 22L12 18.5M5.5 5.75C6.88071 5.75 8 6.86929 8 8.25C8 9.63071 6.88071 10.75 5.5 10.75C4.11929 10.75 3 9.63071 3 8.25C3 6.86929 4.11929 5.75 5.5 5.75ZM18.5 5.75C19.8807 5.75 21 6.86929 21 8.25C21 9.63071 19.8807 10.75 18.5 10.75C17.1193 10.75 16 9.63071 16 8.25C16 6.86929 17.1193 5.75 18.5 5.75ZM12 13.25C13.3807 13.25 14.5 14.3693 14.5 15.75C14.5 17.1307 13.3807 18.25 12 18.25C10.6193 18.25 9.5 17.1307 9.5 15.75C9.5 14.3693 10.6193 13.25 12 13.25Z" stroke="#1F2023" stroke-width="1.5" stroke-miterlimit="10" stroke-linecap="square"/>
</svg>
