<svg width="24" height="25" viewBox="0 0 24 25" fill="none" xmlns="http://www.w3.org/2000/svg">
<path d="M2 7.75V2.85C2 2.79477 2.04477 2.75 2.1 2.75H7" stroke="#1F2023" stroke-width="1.5" stroke-linecap="square"/>
<path d="M22 17.75L22 22.65C22 22.7052 21.9552 22.75 21.9 22.75L17 22.75" stroke="#1F2023" stroke-width="1.5" stroke-linecap="square"/>
<path d="M17 2.75L21.9 2.75C21.9552 2.75 22 2.79477 22 2.85L22 7.75" stroke="#1F2023" stroke-width="1.5" stroke-linecap="square"/>
<path d="M7 22.75L2.1 22.75C2.04477 22.75 2 22.7052 2 22.65L2 17.75" stroke="#1F2023" stroke-width="1.5" stroke-linecap="square"/>
<path d="M15.8183 15.5424L8.56373 15.5424L8.41838 15.5425M5.56245 15.5973C5.69472 16.2546 6.28155 16.75 6.98545 16.75C7.70882 16.75 8.30854 16.2268 8.41838 15.5425M5.56245 15.5973C5.54414 15.5064 5.53454 15.4123 5.53454 15.316C5.53454 14.5241 6.18414 13.8821 6.98545 13.8821C7.78677 13.8821 8.43636 14.5241 8.43636 15.316C8.43636 15.3931 8.43021 15.4687 8.41838 15.5425M5.56245 15.5973L5.31828 15.5425L3.65989 15.1782C3.62496 15.1705 3.6001 15.1399 3.6001 15.1045V12.1498C3.6001 11.7893 3.85813 11.4791 4.21606 11.4093L8.16813 10.6395C8.17724 10.6377 8.18595 10.6343 8.19383 10.6294L11.1436 8.80736C11.2043 8.76988 11.2744 8.75 11.346 8.75H16.1384C16.2184 8.75 16.2963 8.77479 16.3612 8.82087L19.0256 10.7123L20.3402 10.9994C20.3752 11.0071 20.4001 11.0377 20.4001 11.0731V14.8443C20.4001 14.8782 20.3771 14.908 20.344 14.917L18.7619 15.3464L18.7119 15.3624M18.7119 15.3624C18.7124 15.347 18.7126 15.3316 18.7126 15.316C18.7126 14.5241 18.063 13.8821 17.2617 13.8821C16.4604 13.8821 15.8108 14.5241 15.8108 15.316C15.8108 16.108 16.4604 16.75 17.2617 16.75C18.0473 16.75 18.6871 16.1329 18.7119 15.3624Z" stroke="#1F2023" stroke-width="1.5"/>
</svg>
