<svg width="24" height="25" viewBox="0 0 24 25" fill="none" xmlns="http://www.w3.org/2000/svg">
<path d="M2 7.75V2.85C2 2.79477 2.04477 2.75 2.1 2.75H7" stroke="#1F2023" stroke-width="1.5" stroke-linecap="square"/>
<path d="M22 17.75L22 22.65C22 22.7052 21.9552 22.75 21.9 22.75L17 22.75" stroke="#1F2023" stroke-width="1.5" stroke-linecap="square"/>
<path d="M17 2.75L21.9 2.75C21.9552 2.75 22 2.79477 22 2.85L22 7.75" stroke="#1F2023" stroke-width="1.5" stroke-linecap="square"/>
<path d="M7 22.75L2.1 22.75C2.04477 22.75 2 22.7052 2 22.65L2 17.75" stroke="#1F2023" stroke-width="1.5" stroke-linecap="square"/>
<path d="M14.6807 7.62646C14.7737 7.66319 14.8545 7.55604 14.7946 7.47607L12.08 3.85667C12.04 3.80333 11.96 3.80333 11.92 3.85667L9.20544 7.47607C9.14547 7.55604 9.22629 7.66319 9.31925 7.62646C10.1349 7.30414 11.0433 6.91484 12 6.91484C12.9567 6.91484 13.8651 7.30414 14.6807 7.62646Z" fill="#1F2023"/>
<path d="M12 16.75C13.1046 16.75 14 15.8546 14 14.75C14 13.6454 13.1046 12.75 12 12.75C10.8954 12.75 10 13.6454 10 14.75C10 15.8546 10.8954 16.75 12 16.75Z" stroke="#1F2023" stroke-width="1.5" stroke-miterlimit="10" stroke-linecap="square"/>
<path d="M12 19.75C14.7614 19.75 17 17.5114 17 14.75C17 11.9886 14.7614 9.75 12 9.75C9.23858 9.75 7 11.9886 7 14.75C7 17.5114 9.23858 19.75 12 19.75Z" stroke="#1F2023" stroke-width="1.5" stroke-miterlimit="10" stroke-linecap="square"/>
</svg>
