<svg width="24" height="24" viewBox="0 0 24 24" fill="none" xmlns="http://www.w3.org/2000/svg">
<path d="M5.96643 19.4028L2.02081 8.00081C2.00811 7.96411 2.01726 7.92385 2.0453 7.89699C4.05747 5.96959 7.86227 3.97368 12 4.00026C16.061 4.02635 19.9528 5.48209 22.4546 7.89659C22.4825 7.92348 22.4919 7.96401 22.4793 8.00061L18.5373 19.3921C18.5175 19.4492 18.4517 19.4757 18.3975 19.4489C16.4483 18.4829 14.9571 18 12.5 18C9.6004 18 7.07016 19.0869 6.09559 19.4634C6.04311 19.4837 5.98482 19.456 5.96643 19.4028Z" stroke="#1F2023" stroke-width="1.5" stroke-linecap="round"/>
<path d="M1.5 13.5H7.12419C7.15986 13.5 7.19283 13.481 7.21071 13.4501L9.41671 9.64371C9.4545 9.57851 9.54809 9.57695 9.58803 9.64085L11.916 13.3655C11.9549 13.4279 12.0456 13.4283 12.0851 13.3662L14.4595 9.635C14.4992 9.57265 14.5905 9.57339 14.6291 9.63638L16.9707 13.4523C16.9889 13.4819 17.0212 13.5 17.056 13.5H23" stroke="#1F2023" stroke-width="1.5" stroke-linecap="square" stroke-linejoin="round"/>
</svg>
