<svg width="24" height="24" viewBox="0 0 24 24" fill="none" xmlns="http://www.w3.org/2000/svg">
<path d="M21 18.9V6.1C21 6.04477 20.9552 6 20.9 6H12H7.5H3.1C3.04477 6 3 6.04477 3 6.1V18.9C3 18.9552 3.04477 19 3.1 19H15V21.4C15 21.4552 15.0448 21.5 15.1 21.5H18.9C18.9552 21.5 19 21.4552 19 21.4V19H20.9C20.9552 19 21 18.9552 21 18.9Z" stroke="#1F2023" stroke-width="1.5"/>
<path d="M3 2.5H10" stroke="#1F2023" stroke-width="1.5"/>
<path d="M5 6V2.5" stroke="#1F2023" stroke-width="1.5"/>
<path d="M8 6V2.5" stroke="#1F2023" stroke-width="1.5"/>
<path d="M14.25 13.5C14.25 14.6046 13.6875 16 12 16C10.3125 16 9.75 14.6046 9.75 13.5C9.75 11.75 12 9 12 9C12 9 14.25 11.75 14.25 13.5Z" stroke="#1F2023" stroke-width="1.5"/>
</svg>
