<svg width="24" height="24" viewBox="0 0 24 24" fill="none" xmlns="http://www.w3.org/2000/svg">
<path d="M10.5399 17.8836L8.49903 12.5C8.44012 12.3527 8.63647 12.2307 8.76818 12.3328L13.2 15.8001C14 16.5001 14.013 17.2465 13.9 17.8001C13.7571 18.5001 13.0439 19.1733 12 19.0001C11.3277 18.8885 10.7718 18.4634 10.5399 17.8836Z" stroke="#1F2023" stroke-width="1.5" stroke-linecap="square"/>
<path d="M5.23025 14.9L2.08919 13.9402C2.03896 13.9248 2.00912 13.8732 2.02141 13.8221C2.53946 11.6681 3.74265 9.77961 5.38857 8.39805M5.38857 8.39805C7.17129 6.90165 9.47339 6 11.9868 6C14.5061 6 16.813 6.90582 18.5974 8.40841M5.38857 8.39805L7.48752 10.5992M18.5974 8.40841C20.267 9.81427 21.4792 11.7426 21.9799 13.9401C21.9915 13.9909 21.9617 14.0419 21.9119 14.0571L18.826 15M18.5974 8.40841L16.5084 10.5992M12 6.00911V11.4582" stroke="#1F2023" stroke-width="1.5" stroke-linejoin="round"/>
</svg>
