<svg width="24" height="24" viewBox="0 0 24 24" fill="none" xmlns="http://www.w3.org/2000/svg">
<path d="M5 21.4L5 6.6C5 6.54477 5.04477 6.5 5.1 6.5L9.49838 6.5C9.49927 6.5 9.5 6.50073 9.5 6.50163C9.5 6.50252 9.50073 6.50325 9.50163 6.50325L14.4984 6.50325C14.4993 6.50325 14.5 6.50252 14.5 6.50163C14.5 6.50073 14.5007 6.5 14.5016 6.5L18.9 6.5C18.9552 6.5 19 6.54477 19 6.6L19 8.9375L19 15.4375L19 21.4C19 21.4552 18.9552 21.5 18.9 21.5L5.1 21.5C5.04477 21.5 5 21.4552 5 21.4Z" stroke="#1F2023" stroke-width="1.5"/>
<path d="M8 2.5H16" stroke="#1F2023" stroke-width="1.5"/>
<path d="M12 2.5V6.5" stroke="#1F2023" stroke-width="1.5"/>
<path d="M16.5 9H8.75C8.05964 9 7.5 9.55964 7.5 10.25V10.25C7.5 10.9404 8.05964 11.5 8.75 11.5H15.25C15.9404 11.5 16.5 12.0596 16.5 12.75V12.75C16.5 13.4404 15.9404 14 15.25 14H8.75C8.05964 14 7.5 14.5596 7.5 15.25V15.25C7.5 15.9404 8.05964 16.5 8.75 16.5H15.25C15.9404 16.5 16.5 17.0596 16.5 17.75V17.75C16.5 18.4404 15.9404 19 15.25 19H7.5" stroke="#1F2023" stroke-width="1.5"/>
</svg>
