<svg width="24" height="24" viewBox="0 0 24 24" fill="none" xmlns="http://www.w3.org/2000/svg">
<path d="M6.12695 16.6555H18.3176" stroke="#1F2023" stroke-width="1.5" stroke-miterlimit="10" stroke-linecap="square"/>
<path d="M1 13H6" stroke="#1F2023" stroke-width="1.5" stroke-miterlimit="10" stroke-linecap="square"/>
<path d="M4.8999 8.5L2.23044 14.9118C2.07832 15.2772 2 15.6691 2 16.0649V21.9C2 21.9552 2.04477 22 2.1 22H5.9C5.95523 22 6 21.9552 6 21.9V20.0593C6 20.0041 6.04477 19.9593 6.1 19.9593H17.9C17.9552 19.9593 18 20.0041 18 20.0593V21.9C18 21.9552 18.0448 22 18.1 22H21.9C21.9552 22 22 21.9552 22 21.9V16.787" stroke="#1F2023" stroke-width="1.5" stroke-linecap="square"/>
<path d="M13.9798 6.18562L15.3608 4.14156C16.1712 2.94219 17.8366 2.68183 18.984 3.57515L20.0708 4.42129C20.3802 4.66217 20.308 5.15148 19.9476 5.30456C18.6549 5.85364 16.6487 6.83512 15.052 8.02962" stroke="#1F2023" stroke-width="1.5"/>
<path d="M15.772 9.70758L14.3154 11.8607C13.5047 13.0591 11.84 13.3188 10.6931 12.4259L9.605 11.5787C9.2956 11.3378 9.36796 10.8491 9.72986 10.6996C11.0565 10.1514 13.1577 9.18394 14.7742 8.15302" stroke="#1F2023" stroke-width="1.5"/>
<path d="M13.2432 8.9141L11.1265 7.46719C9.94005 6.65619 9.67787 5.02309 10.5523 3.89097L11.3909 2.80527C11.6302 2.49552 12.1243 2.56613 12.2806 2.92559C12.8463 4.22623 13.8551 6.24998 15.072 7.86576" stroke="#1F2023" stroke-width="1.5"/>
<path d="M16.7568 7.06026L18.8735 8.50718C20.0599 9.31817 20.3221 10.9513 19.4477 12.0834L18.6091 13.1691C18.3698 13.4788 17.8757 13.4082 17.7194 13.0488C17.1537 11.7481 16.1449 9.72438 14.928 8.10861L14.7822 7.85796" stroke="#1F2023" stroke-width="1.5"/>
</svg>
