<svg width="24" height="24" viewBox="0 0 24 24" fill="none" xmlns="http://www.w3.org/2000/svg">
<path d="M1.5 9L11.9504 3.02835C11.9811 3.01078 12.0189 3.01078 12.0496 3.02835L22.5 9" stroke="#1F2023" stroke-width="1.5"/>
<path d="M3.25 21V21.75H4.75V21H3.25ZM3.25 8V21H4.75V8H3.25Z" fill="#1F2023"/>
<path d="M10 16.4189H18" stroke="#1F2023" stroke-width="1.5" stroke-miterlimit="10" stroke-linecap="square"/>
<path d="M7.3335 20.9V16.8229C7.3335 16.5177 7.38005 16.2144 7.47156 15.9233L9.31149 10.07C9.32459 10.0283 9.36321 10 9.40689 10H14.0002H18.5934C18.6371 10 18.6757 10.0284 18.6888 10.07L20.5289 15.9268C20.6203 16.2178 20.6668 16.521 20.6668 16.826V20.9C20.6668 20.9552 20.6221 21 20.5668 21H18.1002C18.0449 21 18.0002 20.9552 18.0002 20.9V19.6518C18.0002 19.5965 17.9554 19.5518 17.9002 19.5518H10.1002C10.0449 19.5518 10.0002 19.5965 10.0002 19.6518V20.9C10.0002 20.9552 9.95539 21 9.90016 21H7.4335C7.37827 21 7.3335 20.9552 7.3335 20.9Z" stroke="#1F2023" stroke-width="1.5" stroke-linecap="square"/>
<path d="M7 13.9033H21" stroke="#1F2023" stroke-width="1.5" stroke-miterlimit="10" stroke-linecap="square"/>
</svg>
