<svg width="24" height="24" viewBox="0 0 24 24" fill="none" xmlns="http://www.w3.org/2000/svg">
<path d="M12 19C15.866 19 19 15.866 19 12C19 8.13401 15.866 5 12 5C8.13401 5 5 8.13401 5 12C5 15.866 8.13401 19 12 19Z" stroke="#1F2023" stroke-width="1.5" stroke-miterlimit="10" stroke-linecap="square"/>
<path d="M15.3726 14.9799L12.097 8.18644C12.0607 8.11108 11.9534 8.11099 11.9169 8.18629L8.62782 14.9801C8.58625 15.066 8.6771 15.1558 8.76248 15.1132L11.9624 13.5165C11.9905 13.5024 12.0237 13.5025 12.0518 13.5166L15.2377 15.1128C15.323 15.1555 15.414 15.0659 15.3726 14.9799Z" stroke="#1F2023" stroke-width="1.5" stroke-linecap="square"/>
<path d="M12 2L12 4.78017M12 19.1758V22" stroke="#1F2023" stroke-width="1.5" stroke-linecap="square"/>
<path d="M2 12L4.9648 12M19.1346 12L22 12" stroke="#1F2023" stroke-width="1.5" stroke-linecap="square"/>
</svg>
