<svg width="24" height="24" viewBox="0 0 24 24" fill="none" xmlns="http://www.w3.org/2000/svg">
<path d="M6 12.75H6.75V11.25H6V12.75ZM6 11.25H5V12.75H6V11.25ZM1.25 15V17.5H2.75V15H1.25ZM2.5 18.75H4V17.25H2.5V18.75ZM1.25 17.5C1.25 18.1904 1.80964 18.75 2.5 18.75V17.25C2.63807 17.25 2.75 17.3619 2.75 17.5H1.25ZM5 11.25C2.92893 11.25 1.25 12.9289 1.25 15H2.75C2.75 13.7574 3.75736 12.75 5 12.75V11.25Z" fill="#1F2023"/>
<path d="M18 12.75H17.25V11.25H18V12.75ZM18 11.25H19V12.75H18V11.25ZM22.75 15V17.5H21.25V15H22.75ZM21.5 18.75H20V17.25H21.5V18.75ZM22.75 17.5C22.75 18.1904 22.1904 18.75 21.5 18.75V17.25C21.3619 17.25 21.25 17.3619 21.25 17.5H22.75ZM19 11.25C21.0711 11.25 22.75 12.9289 22.75 15H21.25C21.25 13.7574 20.2426 12.75 19 12.75V11.25Z" fill="#1F2023"/>
<path d="M16.5659 5.02368L15.9322 5.42479L15.1299 4.15734L15.7637 3.75623L16.5659 5.02368ZM19.25 6.50391C19.25 5.53741 18.4665 4.75391 17.5 4.75391V3.25391C19.2949 3.25391 20.75 4.70898 20.75 6.50391H19.25ZM17.5 8.25391C18.4665 8.25391 19.25 7.4704 19.25 6.50391H20.75C20.75 8.29883 19.2949 9.75391 17.5 9.75391V8.25391ZM17.5 4.75391C17.1552 4.75391 16.8357 4.85288 16.5659 5.02368L15.7637 3.75623C16.2664 3.43801 16.8629 3.25391 17.5 3.25391V4.75391Z" fill="#1F2023"/>
<path d="M7.43411 5.02368L8.06783 5.42479L8.87006 4.15734L8.23633 3.75623L7.43411 5.02368ZM4.75 6.50391C4.75 5.53741 5.5335 4.75391 6.5 4.75391V3.25391C4.70507 3.25391 3.25 4.70898 3.25 6.50391H4.75ZM6.5 8.25391C5.5335 8.25391 4.75 7.4704 4.75 6.50391H3.25C3.25 8.29883 4.70507 9.75391 6.5 9.75391V8.25391ZM6.5 4.75391C6.84484 4.75391 7.16426 4.85288 7.43411 5.02368L8.23633 3.75623C7.73358 3.43801 7.13715 3.25391 6.5 3.25391V4.75391Z" fill="#1F2023"/>
<circle cx="12" cy="8" r="3" stroke="#1F2023" stroke-width="1.5"/>
<path d="M6 17C6 15.3431 7.34315 14 9 14H15C16.6569 14 18 15.3431 18 17V20.5C18 20.7761 17.7761 21 17.5 21H6.5C6.22386 21 6 20.7761 6 20.5V17Z" stroke="#1F2023" stroke-width="1.5"/>
</svg>
