<svg width="24" height="24" viewBox="0 0 24 24" fill="none" xmlns="http://www.w3.org/2000/svg">
<path d="M1.25 10.2849V11.0349H2.75V10.2849H1.25ZM2.1 3.25H21.9V1.75H2.1V3.25ZM2.75 10.2849V2.6H1.25V10.2849H2.75ZM21.25 2.6V18.4H22.75V2.6H21.25ZM21.9 17.75H10.6523V19.25H21.9V17.75ZM21.25 18.4C21.25 18.041 21.541 17.75 21.9 17.75V19.25C22.3694 19.25 22.75 18.8694 22.75 18.4H21.25ZM21.9 3.25C21.541 3.25 21.25 2.95898 21.25 2.6H22.75C22.75 2.13056 22.3694 1.75 21.9 1.75V3.25ZM2.1 1.75C1.63056 1.75 1.25 2.13056 1.25 2.6H2.75C2.75 2.95898 2.45899 3.25 2.1 3.25V1.75Z" fill="#1F2023"/>
<circle cx="15" cy="10.5215" r="3" stroke="#1F2023" stroke-width="1.5" stroke-linecap="square"/>
<circle cx="15" cy="10.5215" r="1" fill="#1F2023"/>
<path d="M7 21V16.4999C7 15.1192 5.88071 13.9999 4.5 13.9999V13.9999C3.11929 13.9999 2 15.1192 2 16.4999L2 21" stroke="#1F2023" stroke-width="1.5"/>
</svg>
