<svg width="24" height="24" viewBox="0 0 24 24" fill="none" xmlns="http://www.w3.org/2000/svg">
<path d="M14.75 3.3649C13.9797 2.53392 12.8384 2 11.5461 2H7.05625C4.42896 2 2.41429 4.16729 2.79671 6.58222L3.03529 8.08889C3.34097 10.0192 3.34098 11.9808 3.03529 13.9111L2.79671 15.4178C2.41429 17.8327 4.42896 20 7.05625 20H11.749" stroke="#1F2023" stroke-width="1.5"/>
<path d="M18.7287 10.364V7.51626C18.7287 6.85216 19.2671 6.31381 19.9312 6.31381V6.31381C20.6389 6.31381 21.1936 6.92196 21.1286 7.62667L20.5456 13.9487C20.4558 14.9232 20.1624 15.868 19.6844 16.722L18.9918 17.9594C18.7642 18.3661 18.6443 18.8241 18.6434 19.2901L18.643 19.5M18.7287 7.97071V5.08889C18.7287 4.39277 18.1644 3.82845 17.4683 3.82845V3.82845C16.7722 3.82845 16.2079 4.39277 16.2079 5.08889V10.364M16.2079 7.14226V4.26044C16.2079 3.56432 15.6435 3 14.9474 3V3C14.2513 3 13.687 3.56432 13.687 4.26044V7.14226M13.687 10.364V5.91735C13.687 5.22122 13.1227 4.6569 12.4265 4.6569V4.6569C11.7304 4.6569 11.1661 5.22122 11.1661 5.91735V12.8169C11.1661 12.828 11.1522 12.8331 11.1451 12.8246L10.026 11.5067C9.70278 11.1262 9.17323 10.9934 8.70875 11.1766V11.1766C8.02385 11.4467 7.75732 12.2759 8.15658 12.8945L10.1931 16.0497C10.2806 16.1851 10.3959 16.3004 10.5316 16.3876L11.2561 16.854C11.7419 17.1666 12.1071 17.6348 12.2922 18.182V18.182C12.3811 18.4452 12.4265 18.7212 12.4265 18.9991V19.5" stroke="#1F2023" stroke-width="1.5"/>
<path d="M11.4932 19.6C11.4932 19.5448 11.5379 19.5 11.5932 19.5H19.6094C19.6646 19.5 19.7094 19.5448 19.7094 19.6V21.9C19.7094 21.9552 19.6646 22 19.6094 22H11.5932C11.5379 22 11.4932 21.9552 11.4932 21.9V19.6Z" stroke="#1F2023" stroke-width="1.5"/>
<path d="M5.97363 4.83691V5.83691" stroke="#1F2023" stroke-width="1.5" stroke-linecap="round"/>
<path d="M8.75 7.13867V8.13867" stroke="#1F2023" stroke-width="1.5" stroke-linecap="round"/>
<path d="M7.38477 16.0874V17.0874" stroke="#1F2023" stroke-width="1.5" stroke-linecap="round"/>
<path d="M5.97363 10V11" stroke="#1F2023" stroke-width="1.5" stroke-linecap="round"/>
</svg>
