<svg width="24" height="24" viewBox="0 0 24 24" fill="none" xmlns="http://www.w3.org/2000/svg">
<path d="M22 18H2" stroke="#1F2023" stroke-width="1.5" stroke-linecap="square"/>
<path d="M2.1 15L6.9 15C6.95523 15 7 14.9552 7 14.9L7 11.1C7 11.0448 7.04477 11 7.1 11L16.9 11C16.9552 11 17 11.0448 17 11.1L17 14.9C17 14.9552 17.0448 15 17.1 15L21.9 15C21.9552 15 22 14.9552 22 14.9L22 11.0028C22 11.001 21.9996 10.9991 21.9987 10.9975C20.7738 8.54755 18.2698 7 15.5307 7L12 7L8.46929 7C5.73022 7 3.22623 8.54755 2.00127 10.9975C2.00044 10.9991 2 11.001 2 11.0028L2 14.9C2 14.9552 2.04477 15 2.1 15Z" stroke="#1F2023" stroke-width="1.5"/>
</svg>
