<svg width="24" height="24" viewBox="0 0 24 24" fill="none" xmlns="http://www.w3.org/2000/svg">
<path d="M3 16.6599L8 16.6599" stroke="#1F2023" stroke-width="1.5" stroke-linecap="square"/>
<path d="M3 11.6599L8 11.6599" stroke="#1F2023" stroke-width="1.5" stroke-linecap="square"/>
<path d="M3 6.65991L8 6.65991" stroke="#1F2023" stroke-width="1.5" stroke-linecap="square"/>
<path d="M12 20.5599C12 20.6151 12.0448 20.66 12.1001 20.6595C16.6032 20.6219 21 18.0412 21 11.6599C21 5.27859 16.6032 2.69792 12.1001 2.66033C12.0448 2.65987 12 2.70468 12 2.75991L12 20.5599Z" stroke="#1F2023" stroke-width="1.5" stroke-linecap="square"/>
<path d="M5 3.65991C5 3.65991 6.5 5.15991 6.5 7.65991C6.5 10.1599 4 13.1599 4 15.6599C4 18.1599 5 19.6599 5 19.6599" stroke="#1F2023" stroke-width="1.5" stroke-linecap="square"/>
</svg>
