<svg width="24" height="24" viewBox="0 0 24 24" fill="none" xmlns="http://www.w3.org/2000/svg">
<path d="M19.3178 4.92776C21.2602 6.56113 21.5614 9.90334 20.0074 11.9451C17.7611 14.8965 12.7212 19.3772 12.0827 19.941C12.0442 19.975 11.9891 19.9752 11.9516 19.9403C11.2757 19.3101 5.45566 13.8673 3.99259 11.9451C2.43864 9.90334 2.73975 6.56113 4.68219 4.92776C6.62464 3.29439 9.45904 3.92745 11.013 5.96917C11.5128 6.62582 11.7919 7.04926 11.9224 7.25853C11.9641 7.32543 12.0664 7.3249 12.1069 7.25724C12.246 7.02475 12.5428 6.55279 12.987 5.96917C14.5409 3.92745 17.3753 3.29439 19.3178 4.92776Z" stroke="#1F2023" stroke-width="1.5" stroke-linecap="square"/>
</svg>
