<svg width="24" height="24" viewBox="0 0 24 24" fill="none" xmlns="http://www.w3.org/2000/svg">
<path d="M18.5 13.5L21.9496 15.4712C21.9808 15.489 22 15.5221 22 15.558V17.4C22 17.4552 21.9552 17.5 21.9 17.5H17" stroke="#1F2023" stroke-width="1.5"/>
<path d="M7 17.5H6.47341C5.59719 17.5 4.82299 16.9296 4.56328 16.0928L2.426 9.206C2.17145 8.3858 2.46472 7.48937 3.17983 7.01383C5.64354 5.37548 10.2189 2.79768 15.5745 2.52378C16.1606 2.4938 16.719 2.75777 17.099 3.20501L20.2495 6.91302C20.7137 7.45932 20.85 8.21225 20.6067 8.88659L17.5238 17.4339C17.5095 17.4736 17.4719 17.5 17.4298 17.5H16" stroke="#1F2023" stroke-width="1.5"/>
<path d="M9.08886 13.1005C9.08886 13.1005 10.2655 13.9047 10.3693 14.9998C10.5215 16.6044 8.49064 18.3956 8.64281 20.0002C8.74666 21.0953 9.92328 21.8995 9.92328 21.8995" stroke="#1F2023" stroke-width="1.5" stroke-linecap="square"/>
<path d="M13.0732 13.1005C13.0732 13.1005 14.2499 13.9047 14.3537 14.9998C14.5059 16.6044 12.475 18.3956 12.6272 20.0002C12.731 21.0953 13.9077 21.8995 13.9077 21.8995" stroke="#1F2023" stroke-width="1.5" stroke-linecap="square"/>
</svg>
