<svg width="24" height="24" viewBox="0 0 24 24" fill="none" xmlns="http://www.w3.org/2000/svg">
<path d="M3.5 15H6.43043C7.06876 15 7.68409 15.2595 8.13839 15.7254L9.53007 17.1525C9.98437 17.6184 10.2374 18.2494 10.2374 18.904V22M14.1651 22V18.904C14.1651 18.2494 14.4182 17.6184 14.8725 17.1525L16.2642 15.7254C16.7185 15.2595 17.3338 15 17.9721 15H20.5" stroke="#1F2023" stroke-width="1.5" stroke-linejoin="round"/>
<path d="M12 4C8.06849 4 4.72576 6.48645 3.50002 10M3.50002 10C3.17608 10.9286 3 11.961 3 13C3 17.9706 7.02944 22 12 22C16.9706 22 21 17.9706 21 13C21 11.961 20.8239 10.9286 20.5 10H3.50002Z" stroke="#1F2023" stroke-width="1.5" stroke-linejoin="round"/>
<path d="M14.4465 2V2C15.1098 2.7497 15.2525 3.82657 14.8075 4.72319L14.6984 4.94299C14.2814 5.78312 14.4494 6.79588 15.1154 7.45636V7.45636" stroke="#1F2023" stroke-width="1.5" stroke-linecap="square"/>
<path d="M17.4033 2.01344V2.01344C18.0406 2.78273 18.1464 3.86328 17.6709 4.74604L17.5543 4.96255C17.1088 5.78969 17.2421 6.80692 17.8851 7.48711V7.48711" stroke="#1F2023" stroke-width="1.5" stroke-linecap="square"/>
<path d="M10.5059 11.7476V15.2476" stroke="#1F2023" stroke-width="1.5" stroke-linejoin="round"/>
<path d="M13.5 11.7476V15.2476" stroke="#1F2023" stroke-width="1.5" stroke-linejoin="round"/>
<path d="M10.5 13.4976H13.5" stroke="#1F2023" stroke-width="1.5" stroke-linejoin="round"/>
</svg>
