<svg width="24" height="24" viewBox="0 0 24 24" fill="none" xmlns="http://www.w3.org/2000/svg">
<path d="M20.9 3.5H3.1C3.04477 3.5 3 3.54477 3 3.6V19.4C3 19.4552 3.04477 19.5 3.1 19.5H20.9C20.9552 19.5 21 19.4552 21 19.4V3.6C21 3.54477 20.9552 3.5 20.9 3.5Z" stroke="#1F2023" stroke-width="1.5" stroke-linecap="round" stroke-linejoin="round"/>
<path d="M8.57989 10.501L9.36504 12.7504C9.80796 14.0193 9.76842 15.4069 9.25395 16.6485L8.87056 17.5738C8.32373 18.8936 8.55793 20.4081 9.47787 21.501V21.501" stroke="#1F2023" stroke-width="1.5" stroke-linecap="square"/>
<path d="M15.5154 10.501L16.3006 12.7504C16.7435 14.0193 16.704 15.4069 16.1895 16.6485L15.8061 17.5738C15.2593 18.8936 15.4935 20.4081 16.4134 21.501V21.501" stroke="#1F2023" stroke-width="1.5" stroke-linecap="square"/>
<path d="M6.76862 12.3818L8.10373 9.17476C8.12865 9.1149 8.20425 9.09535 8.25685 9.13516L11.0745 11.2683" stroke="#1F2023" stroke-width="1.5" stroke-linecap="square"/>
<path d="M13.7038 12.3821L15.0384 9.17567C15.0633 9.11581 15.139 9.09628 15.1916 9.1361L18.0099 11.2695" stroke="#1F2023" stroke-width="1.5" stroke-linecap="square"/>
</svg>
