<svg width="24" height="24" viewBox="0 0 24 24" fill="none" xmlns="http://www.w3.org/2000/svg">
<path d="M4.64425 4.88428C4.64425 4.88428 5.59584 8.41753 5.59584 10.4228C5.59584 13.2948 4.16846 14.5334 4.16846 17.4718C4.16846 19.477 5.12004 21.4998 5.12004 21.4998" stroke="#1F2023" stroke-width="1.5" stroke-miterlimit="10" stroke-linecap="square"/>
<path d="M7.76611 7.4629L4.58027 3.08629C4.53166 3.01951 4.42755 3.03742 4.40372 3.11667L2.84152 8.31014" stroke="#1F2023" stroke-width="1.5"/>
<path d="M11.7614 4.88428C11.7614 4.88428 12.713 8.41753 12.713 10.4228C12.713 13.2948 11.2856 14.5334 11.2856 17.4718C11.2856 19.477 12.2372 21.4998 12.2372 21.4998" stroke="#1F2023" stroke-width="1.5" stroke-miterlimit="10" stroke-linecap="square"/>
<path d="M14.8833 7.4629L11.6975 3.08629C11.6488 3.01951 11.5447 3.03742 11.5209 3.11667L9.95871 8.31014" stroke="#1F2023" stroke-width="1.5"/>
<path d="M18.8786 4.88428C18.8786 4.88428 19.8302 8.41753 19.8302 10.4228C19.8302 13.2948 18.4028 14.5334 18.4028 17.4718C18.4028 19.477 19.3544 21.4998 19.3544 21.4998" stroke="#1F2023" stroke-width="1.5" stroke-miterlimit="10" stroke-linecap="square"/>
<path d="M22.0005 7.4629L18.8146 3.08629C18.766 3.01951 18.6619 3.03742 18.6381 3.11667L17.0759 8.31014" stroke="#1F2023" stroke-width="1.5"/>
<path d="M20.1758 3L2.17578 21" stroke="#1F2023" stroke-width="1.5" stroke-linecap="square"/>
</svg>
