<svg width="24" height="24" viewBox="0 0 24 24" fill="none" xmlns="http://www.w3.org/2000/svg">
<path d="M5.96643 18.4028L2.02081 7.00081C2.00811 6.96411 2.01726 6.92385 2.0453 6.89699C4.05747 4.96959 7.86227 2.97368 12 3.00026C16.061 3.02635 19.9528 4.48209 22.4546 6.89659C22.4825 6.92348 22.4919 6.96401 22.4793 7.00061L18.5373 18.3921C18.5175 18.4492 18.4517 18.4757 18.3975 18.4489C16.4483 17.4829 14.9571 17 12.5 17C9.6004 17 7.07016 18.0869 6.09559 18.4634C6.04311 18.4837 5.98482 18.456 5.96643 18.4028Z" stroke="#1F2023" stroke-width="1.5" stroke-linecap="round"/>
<path d="M8.5838 10.001L9.36895 12.2504C9.81187 13.5193 9.77233 14.9069 9.25786 16.1485L8.87446 17.0738C8.32763 18.3936 8.56184 19.9081 9.48178 21.001V21.001" stroke="#1F2023" stroke-width="1.5" stroke-linecap="square"/>
<path d="M15.5193 10.001L16.3045 12.2504C16.7474 13.5193 16.7079 14.9069 16.1934 16.1485L15.81 17.0738C15.2632 18.3936 15.4974 19.9081 16.4173 21.001V21.001" stroke="#1F2023" stroke-width="1.5" stroke-linecap="square"/>
<path d="M6.77252 11.8818L8.10763 8.67476C8.13255 8.6149 8.20816 8.59535 8.26076 8.63516L11.0784 10.7683" stroke="#1F2023" stroke-width="1.5" stroke-linecap="square"/>
<path d="M13.7077 11.8821L15.0423 8.67567C15.0672 8.61581 15.1429 8.59628 15.1955 8.6361L18.0138 10.7695" stroke="#1F2023" stroke-width="1.5" stroke-linecap="square"/>
</svg>
