<svg width="24" height="24" viewBox="0 0 24 24" fill="none" xmlns="http://www.w3.org/2000/svg">
<path d="M7.5 4C7.5 4 9 5.64506 9 7.63636C9 10.5543 6 13.4457 6 16.3636C6 18.3549 7.5 20 7.5 20" stroke="#1F2023" stroke-width="1.5" stroke-linecap="square"/>
<path d="M12.5 4C12.5 4 14 5.64506 14 7.63636C14 10.5543 11 13.4457 11 16.3636C11 18.3549 12.5 20 12.5 20" stroke="#1F2023" stroke-width="1.5" stroke-linecap="square"/>
<path d="M17.5 4C17.5 4 19 5.64506 19 7.63636C19 10.5543 16 13.4457 16 16.3636C16 18.3549 17.5 20 17.5 20" stroke="#1F2023" stroke-width="1.5" stroke-linecap="square"/>
</svg>
