<svg width="24" height="24" viewBox="0 0 24 24" fill="none" xmlns="http://www.w3.org/2000/svg">
<path d="M3.69109 21.8606L6.60116 15.0704C6.61897 15.0289 6.66245 15.0044 6.70722 15.0108L13.5324 15.9859C13.587 15.9937 13.6377 15.9557 13.6455 15.901L14.6266 9.033C14.6297 9.01158 14.6396 8.99173 14.6549 8.97643L18.5876 5.0437C18.6144 5.01692 18.654 5.00757 18.69 5.01954L21.5485 5.97237C21.5959 5.9882 21.6244 6.03668 21.6151 6.08584L18.6173 21.9186C18.6083 21.9658 18.5671 22 18.519 22H3.783C3.71121 22 3.66281 21.9266 3.69109 21.8606Z" stroke="#1F2023" stroke-width="1.5"/>
<path d="M13.1313 15.5L18.1313 21.2726" stroke="#1F2023" stroke-width="1.5"/>
<path d="M5.0736 3C5.0736 3 6.07422 3.92535 6.07422 5.04545C6.07422 6.68677 4.07299 8.31323 4.07299 9.95455C4.07299 11.0747 5.0736 12 5.0736 12" stroke="#1F2023" stroke-width="1.5" stroke-linecap="square"/>
<path d="M9.04724 3C9.04724 3 10.0479 3.92535 10.0479 5.04545C10.0479 6.68677 8.04662 8.31323 8.04662 9.95455C8.04662 11.0747 9.04724 12 9.04724 12" stroke="#1F2023" stroke-width="1.5" stroke-linecap="square"/>
</svg>
