<svg width="24" height="24" viewBox="0 0 24 24" fill="none" xmlns="http://www.w3.org/2000/svg">
<path d="M4.64474 4.88428C4.64474 4.88428 5.59632 8.41753 5.59632 10.4228C5.59632 13.2948 4.16895 14.5334 4.16895 17.4718C4.16895 19.477 5.12053 21.4998 5.12053 21.4998" stroke="#1F2023" stroke-width="1.5" stroke-miterlimit="10" stroke-linecap="square"/>
<path d="M7.7666 7.4629L4.58076 3.08629C4.53215 3.01951 4.42804 3.03742 4.40421 3.11667L2.84201 8.31014" stroke="#1F2023" stroke-width="1.5"/>
<path d="M11.7619 4.88428C11.7619 4.88428 12.7135 8.41753 12.7135 10.4228C12.7135 13.2948 11.2861 14.5334 11.2861 17.4718C11.2861 19.477 12.2377 21.4998 12.2377 21.4998" stroke="#1F2023" stroke-width="1.5" stroke-miterlimit="10" stroke-linecap="square"/>
<path d="M14.8838 7.4629L11.6979 3.08629C11.6493 3.01951 11.5452 3.03742 11.5214 3.11667L9.95919 8.31014" stroke="#1F2023" stroke-width="1.5"/>
<path d="M18.8781 4.88428C18.8781 4.88428 19.8297 8.41753 19.8297 10.4228C19.8297 13.2948 18.4023 14.5334 18.4023 17.4718C18.4023 19.477 19.3539 21.4998 19.3539 21.4998" stroke="#1F2023" stroke-width="1.5" stroke-miterlimit="10" stroke-linecap="square"/>
<path d="M22 7.4629L18.8142 3.08629C18.7655 3.01951 18.6614 3.03742 18.6376 3.11667L17.0754 8.31014" stroke="#1F2023" stroke-width="1.5"/>
</svg>
