<svg width="24" height="24" viewBox="0 0 24 24" fill="none" xmlns="http://www.w3.org/2000/svg">
<path d="M12 22C17.5228 22 22 17.5228 22 12C22 6.47715 17.5228 2 12 2C6.47715 2 2 6.47715 2 12C2 17.5228 6.47715 22 12 22Z" stroke="#1F2023" stroke-width="1.5" stroke-miterlimit="10"/>
<path d="M12 14.875C11.4477 14.875 11 15.3227 11 15.875C11 16.4273 11.4477 16.875 12 16.875C12.5523 16.875 13 16.4273 13 15.875C13 15.3227 12.5523 14.875 12 14.875Z" fill="#1F2023"/>
<path d="M10 9.02976C10 7.97779 10.8954 7.125 12 7.125C13.1046 7.125 14 7.97779 14 9.02976C14 9.39992 13.8891 9.74542 13.6973 10.0378C13.0913 10.9613 12 11.8299 12 12.9345L12 13.125" stroke="#1F2023" stroke-width="1.5" stroke-linecap="square"/>
</svg>
