<svg width="24" height="24" viewBox="0 0 24 24" fill="none" xmlns="http://www.w3.org/2000/svg">
<path d="M17.0894 10.0225L13.7414 13.37C13.7203 13.3911 13.6909 13.4017 13.6612 13.3988L11.6462 13.2051C11.6164 13.2023 11.587 13.2128 11.5659 13.2339L11.092 13.7077C11.053 13.7468 11.053 13.8101 11.092 13.8492L16.1518 18.9083C16.1909 18.9474 16.2542 18.9474 16.2933 18.9083L16.7671 18.4345C16.7882 18.4134 16.7988 18.384 16.7959 18.3542L16.6022 16.3395C16.5993 16.3098 16.6099 16.2803 16.631 16.2592L19.979 12.9117L20.4862 13.4188C20.5253 13.4579 20.5886 13.4579 20.6276 13.4188L21.931 12.1156C21.97 12.0766 21.97 12.0132 21.931 11.9742L18.027 8.0707C17.9879 8.03165 17.9246 8.03165 17.8856 8.0707L16.5822 9.37389C16.5432 9.41295 16.5432 9.47627 16.5822 9.51532L17.0894 10.0225Z" stroke="#1F2023" stroke-width="1.5"/>
<path d="M13.6248 16.3789L9.00149 21.0017" stroke="#1F2023" stroke-width="1.5"/>
<path d="M4.75 9V8.25H3.25V9H4.75ZM4 19H3.25V19.75H4V19ZM3.25 9V19H4.75V9H3.25ZM4 19.75H7V18.25H4V19.75Z" fill="#1F2023"/>
<path d="M11.2444 3L11.7271 2.42603L11.2689 2.04064L10.7916 2.40208L11.2444 3ZM1.54724 9.40208L0.949321 9.85484L1.85484 11.0507L2.45276 10.5979L1.54724 9.40208ZM10.7916 2.40208L1.54724 9.40208L2.45276 10.5979L11.6971 3.59792L10.7916 2.40208ZM16.4828 6.42603L11.7271 2.42603L10.7616 3.57397L15.5172 7.57397L16.4828 6.42603Z" fill="#1F2023"/>
</svg>
