<svg width="24" height="25" viewBox="0 0 24 25" fill="none" xmlns="http://www.w3.org/2000/svg">
<path d="M7.5 9.43203C7.5 9.3768 7.54477 9.33203 7.6 9.33203H16.4C16.4552 9.33203 16.5 9.3768 16.5 9.43203V17.3567C16.5 17.3969 16.476 17.4331 16.4391 17.4488L12.0391 19.3155C12.0141 19.3261 11.9859 19.3261 11.9609 19.3155L7.56094 17.4488C7.524 17.4331 7.5 17.3969 7.5 17.3567V9.43203Z" stroke="#1F2023" stroke-width="1.5"/>
<path d="M9.96484 6.33203V9.33203" stroke="#1F2023" stroke-width="1.5" stroke-miterlimit="10"/>
<path d="M14.0557 6.33203V9.33203" stroke="#1F2023" stroke-width="1.5" stroke-miterlimit="10"/>
<path d="M2.75 22.332V23.082H4.25V22.332H2.75ZM11.9493 2.36186L12.3296 3.00831L11.9493 2.36186ZM12.0507 2.36186L11.6704 3.00831L12.0507 2.36186ZM20.4507 7.30303L20.0704 7.94948L20.4507 7.30303ZM3.5493 7.30303L3.16903 6.65658L3.5493 7.30303ZM4.25 22.332V7.38923H2.75V22.332H4.25ZM19.75 7.38923V22.232H21.25V7.38923H19.75ZM3.92956 7.94948L12.3296 3.00831L11.569 1.71541L3.16903 6.65658L3.92956 7.94948ZM11.6704 3.00831L20.0704 7.94948L20.831 6.65658L12.431 1.71541L11.6704 3.00831ZM20.4 21.582H14V23.082H20.4V21.582ZM12.75 20.332V19.2835H11.25V20.332H12.75ZM14 21.582C13.3096 21.582 12.75 21.0224 12.75 20.332H11.25C11.25 21.8508 12.4812 23.082 14 23.082V21.582ZM12.3296 3.00831C12.1261 3.12796 11.8739 3.12796 11.6704 3.00831L12.431 1.71541C12.165 1.55893 11.835 1.55893 11.569 1.71541L12.3296 3.00831ZM19.75 22.232C19.75 21.8731 20.041 21.582 20.4 21.582V23.082C20.8694 23.082 21.25 22.7015 21.25 22.232H19.75ZM21.25 7.38923C21.25 7.08802 21.0906 6.8093 20.831 6.65658L20.0704 7.94948C19.8719 7.8327 19.75 7.61956 19.75 7.38923H21.25ZM4.25 7.38923C4.25 7.61956 4.1281 7.8327 3.92956 7.94948L3.16903 6.65658C2.90941 6.8093 2.75 7.08802 2.75 7.38923H4.25Z" fill="#1F2023"/>
<path d="M12.9997 11.124L11 13.874H13L11 16.624" stroke="#1F2023" stroke-width="1.5"/>
</svg>
