<svg width="24" height="24" viewBox="0 0 24 24" fill="none" xmlns="http://www.w3.org/2000/svg">
<path fill-rule="evenodd" clip-rule="evenodd" d="M12.5 17L10 21H15L12.5 17Z" stroke="#1F2023" stroke-width="1.5" stroke-linejoin="round"/>
<path d="M2.5 12.8636L13.5289 12.8636C15.0211 12.8636 16.4598 13.4197 17.5641 14.4233L21.3327 17.848C21.397 17.9064 21.5 17.8608 21.5 17.774L21.5 3.226C21.5 3.13919 21.397 3.09361 21.3327 3.15199L17.5641 6.57674C16.4598 7.58031 15.0211 8.13636 13.5289 8.13636L2.5 8.13636" stroke="#1F2023" stroke-width="1.5"/>
<path d="M5.5 13.3334L5.5 15.2334C5.5 15.2886 5.54477 15.3334 5.6 15.3334H10.4C10.4552 15.3334 10.5 15.2886 10.5 15.2334V13.3334" stroke="#1F2023" stroke-width="1.5"/>
<path d="M2.5 5.5V15.5" stroke="#1F2023" stroke-width="1.5"/>
</svg>
