<svg width="24" height="25" viewBox="0 0 24 25" fill="none" xmlns="http://www.w3.org/2000/svg">
<path d="M7.83887 10.3633V17.3633M11.6942 10.3633V17.3633M7.86045 13.8768H11.7157" stroke="#1F2023" stroke-width="1.5"/>
<path d="M17.7189 16.3852H14.2544V15.8597C14.8452 15.6005 15.6768 14.8831 15.6768 14.8831C16.3774 14.3001 16.7447 13.9491 16.7819 13.3738C16.7349 12.3319 15.8922 12.0957 15.4767 12.1079C14.7147 12.1857 14.3049 12.7408 14.1953 13.0086" stroke="#1F2023" stroke-width="1.5"/>
<path d="M20 14.332C20 18.7503 16.4183 22.332 12 22.332C7.58172 22.332 4 18.7503 4 14.332C4 9.0996 11.2406 2.96209 11.945 2.37732C11.9804 2.34801 12.0205 2.34742 12.0569 2.3754C12.7724 2.92601 20 8.62902 20 14.332Z" stroke="#1F2023" stroke-width="1.5"/>
</svg>
