<svg width="24" height="24" viewBox="0 0 24 24" fill="none" xmlns="http://www.w3.org/2000/svg">
<g clip-path="url(#clip0_6035_7653)">
<path d="M16.3744 16.1109C16.3354 16.15 16.2721 16.15 16.233 16.1109L7.88914 7.76707C7.85009 7.72802 7.85009 7.6647 7.88914 7.62565L14.8188 0.696003C14.8578 0.65695 14.9212 0.65695 14.9602 0.696002L23.3041 9.03986C23.3431 9.07891 23.3431 9.14223 23.3041 9.18128L16.3744 16.1109Z" stroke="#1F2023" stroke-width="1.5"/>
<path d="M10.2926 10.1715L2.54841 17.9157C2.52693 17.9372 2.51637 17.9672 2.51973 17.9974L2.85914 21.0521C2.86431 21.0986 2.901 21.1353 2.94749 21.1405L5.97356 21.4767C6.01861 21.4817 6.06139 21.4558 6.07781 21.4136L6.93128 19.2186C6.94284 19.1888 6.9679 19.1664 6.99873 19.1582L8.81775 18.6734C8.85447 18.6637 8.88247 18.6339 8.89001 18.5967L9.224 16.9483C9.23192 16.9092 9.2623 16.8786 9.3013 16.8703L11.0018 16.5104C11.0207 16.5064 11.0381 16.497 11.0518 16.4833L13.8281 13.707" stroke="#1F2023" stroke-width="1.5"/>
<path d="M17.3643 8.75781L15.2429 6.63649" stroke="#1F2023" stroke-width="1.5" stroke-linecap="square"/>
</g>
<defs>
<clipPath id="clip0_6035_7653">
<rect width="24" height="24" fill="white"/>
</clipPath>
</defs>
</svg>
