<svg width="24" height="24" viewBox="0 0 24 24" fill="none" xmlns="http://www.w3.org/2000/svg">
<path d="M21.5 15.5V4.1C21.5 4.04477 21.4552 4 21.4 4H2.6C2.54477 4 2.5 4.04477 2.5 4.1V15.5" stroke="#1F2023" stroke-width="1.5" stroke-linejoin="round"/>
<path d="M15.2536 16C15.2269 16 15.2013 16.0107 15.1825 16.0297L14.2516 16.9703C14.2328 16.9893 14.2072 17 14.1805 17H9.8195C9.7928 17 9.76721 16.9893 9.74843 16.9703L8.81747 16.0297C8.79869 16.0107 8.7731 16 8.7464 16H1.1C1.04477 16 1 16.0448 1 16.1V18.4586C1 18.4851 1.01054 18.5105 1.02929 18.5293L2.47071 19.9707C2.48946 19.9895 2.5149 20 2.54142 20H21.4586C21.4851 20 21.5105 19.9895 21.5293 19.9707L22.9707 18.5293C22.9895 18.5105 23 18.4851 23 18.4586V16.1C23 16.0448 22.9552 16 22.9 16H15.2536Z" stroke="#1F2023" stroke-width="1.5" stroke-miterlimit="10" stroke-linecap="square"/>
</svg>
