<svg width="24" height="24" viewBox="0 0 24 24" fill="none" xmlns="http://www.w3.org/2000/svg">
<path d="M11.9493 3.02982C11.9806 3.01142 12.0194 3.01142 12.0507 3.02982L20.3535 7.91381C20.4192 7.95247 20.4192 8.04753 20.3535 8.08619L12.0507 12.9702C12.0194 12.9886 11.9806 12.9886 11.9493 12.9702L3.64653 8.08619C3.5808 8.04753 3.5808 7.95247 3.64653 7.91381L11.9493 3.02982Z" stroke="#1F2023" stroke-width="1.5" stroke-linecap="square"/>
<path d="M20.4852 12.4854L12.0508 17.4699C12.0194 17.4885 11.9804 17.4885 11.9491 17.4699L3.51465 12.4854" stroke="#1F2023" stroke-width="1.5" stroke-linecap="square"/>
<path d="M20.4852 16.4854L12.0508 21.4699C12.0194 21.4885 11.9804 21.4885 11.9491 21.4699L3.51465 16.4854" stroke="#1F2023" stroke-width="1.5" stroke-linecap="square"/>
</svg>
