<svg width="24" height="24" viewBox="0 0 24 24" fill="none" xmlns="http://www.w3.org/2000/svg">
<path d="M19.0654 3.52187C20.1446 4.44064 20.3119 6.32063 19.4486 7.4691C18.2304 9.08963 15.5336 11.5298 15.0755 11.9404C15.0369 11.9749 14.9821 11.975 14.9445 11.9394C14.4578 11.4794 11.3465 8.52681 10.5514 7.4691C9.68813 6.32063 9.85542 4.44064 10.9346 3.52187C12.0137 2.60309 13.5884 2.95919 14.4517 4.10766C14.6827 4.41495 14.8288 4.63145 14.9132 4.76332C14.9559 4.83014 15.0604 4.82941 15.1017 4.76172C15.1899 4.61737 15.3399 4.38491 15.5483 4.10766C16.4116 2.95919 17.9863 2.60309 19.0654 3.52187Z" stroke="#1F2023" stroke-width="1.5"/>
<path d="M3.00014 17.414L3.00111 20.2111C3.00113 20.2663 3.04589 20.311 3.10111 20.311L5.96444 20.311C6.01967 20.311 6.06445 20.2663 6.06444 20.211L6.06348 14.411C6.06347 14.3558 6.0187 14.311 5.96348 14.311L3.10014 14.311C3.04492 14.311 3.00014 14.3558 3.00014 14.411L3.00014 17.4303" stroke="#1F2023" stroke-width="1.5"/>
<path d="M6.07617 15.1108L8.65579 14.2316C9.09505 14.0819 9.57271 14.0896 10.0069 14.2534L12.9524 15.3645C13.6692 15.6349 14.0066 16.4562 13.687 17.1525V17.1525C13.4537 17.6606 12.9259 17.967 12.369 17.9175L8.83091 17.6032" stroke="#1F2023" stroke-width="1.5"/>
<path d="M13.6037 16.0378L18.9088 15.1305C19.3781 15.0503 19.8531 15.2373 20.1418 15.6158V15.6158C20.601 16.2181 20.4394 17.0853 19.7941 17.4817L14.9987 20.4274C14.3966 20.7972 13.6834 20.9427 12.9846 20.8381L6.03807 19.799" stroke="#1F2023" stroke-width="1.5"/>
</svg>
