<svg width="24" height="24" viewBox="0 0 24 24" fill="none" xmlns="http://www.w3.org/2000/svg">
<path d="M12.6667 11L10 15.5H14L11.3333 20" stroke="#1F2023" stroke-width="1.5" stroke-linecap="square"/>
<path d="M6 9C6 5.68629 8.68629 3 12 3C14.5501 3 16.7287 4.59093 17.5973 6.83441" stroke="#1F2023" stroke-width="1.5"/>
<path d="M5.50188 16C3.56785 16 2 14.433 2 12.5C2 10.567 3.56785 9 5.50188 9C6.32491 9 7.08163 9.28378 7.67943 9.75877M17.4976 16C19.9842 16 22 13.9853 22 11.5C22 9.01472 19.9842 7 17.4976 7C16.4188 7 15.4287 7.37917 14.6533 8.01143" stroke="#1F2023" stroke-width="1.5" stroke-linecap="square"/>
</svg>
