<svg width="24" height="24" viewBox="0 0 24 24" fill="none" xmlns="http://www.w3.org/2000/svg">
<path d="M3 10.1C3 10.0448 3.04477 10 3.1 10H7.9C7.95523 10 8 10.0448 8 10.1V20.9C8 20.9552 7.95523 21 7.9 21H3.1C3.04477 21 3 20.9552 3 20.9V10.1Z" stroke="#1F2023" stroke-width="1.5" stroke-linecap="square"/>
<path d="M10.974 3.06061L8.00809 9.98113C8.00275 9.99358 8 10.007 8 10.0205V20.9C8 20.9552 8.04477 21 8.1 21H20.8999C20.9552 21 20.9999 20.9552 20.9999 20.9V10.1C20.9999 10.0448 20.9552 10 20.8999 10H14.1C14.0448 10 14 9.95523 14 9.9V3.1C14 3.04477 13.9552 3 13.9 3H11.0659C11.0259 3 10.9898 3.02384 10.974 3.06061Z" stroke="#1F2023" stroke-width="1.5" stroke-linecap="square" stroke-linejoin="round"/>
</svg>
