<svg width="24" height="24" viewBox="0 0 24 24" fill="none" xmlns="http://www.w3.org/2000/svg">
<path d="M15.3014 16.75C17.5028 17.2424 19 18.212 19 19.3276C19 20.9416 15.866 22.25 12 22.25C8.13401 22.25 5 20.9416 5 19.3276C5 18.212 6.49725 17.2424 8.69857 16.75" stroke="#1F2023" stroke-width="1.5" stroke-linecap="square"/>
<path d="M8.82613 8.74264L10.9463 10.864L15.1865 6.62132" stroke="#1F2023" stroke-width="1.5"/>
<path d="M19 8.90909C19 13.4263 12.7294 18.6561 12.058 19.2031C12.0219 19.2325 11.9781 19.2325 11.942 19.2031C11.2705 18.6561 5 13.4263 5 8.90909C5 4.93182 7.625 1.75 12 1.75C16.375 1.75 19 4.93182 19 8.90909Z" stroke="#1F2023" stroke-width="1.5" stroke-linecap="square"/>
</svg>
