<svg width="24" height="24" viewBox="0 0 24 24" fill="none" xmlns="http://www.w3.org/2000/svg">
<path d="M20 10.1818C20 15.3668 12.7711 21.3733 12.0567 21.9543C12.0206 21.9836 11.9794 21.9836 11.9433 21.9543C11.2289 21.3733 4 15.3668 4 10.1818C4 5.63636 7 2 12 2C17 2 20 5.63636 20 10.1818Z" stroke="#1F2023" stroke-width="1.5" stroke-linecap="square"/>
<path d="M12 13C13.6569 13 15 11.6569 15 10C15 8.34315 13.6569 7 12 7C10.3431 7 9 8.34315 9 10C9 11.6569 10.3431 13 12 13Z" stroke="#1F2023" stroke-width="1.5" stroke-miterlimit="10" stroke-linecap="square"/>
</svg>
