<svg width="24" height="24" viewBox="0 0 24 24" fill="none" xmlns="http://www.w3.org/2000/svg">
<path d="M3.96512 18.9685C2.59414 14.6997 1.59717 5.42374 8.95082 3.29105C9.99909 2.98704 12.9674 2.5389 16.042 4.22457M18.6182 6.86874C18.9787 7.44782 20.0817 8.81102 19.7821 12.3915C19.7264 13.057 19.7821 14.5436 21 16.0993M7.20605 14.751C7.49313 16.3586 8.32196 19.8591 9.34069 20.9999M7.20353 11.1213C7.15807 9.6518 8.22021 6.43414 12.6065 7.10201C13.8891 7.29731 16.1724 8.75437 15.6537 12.2101C15.5045 13.204 15.9451 16.0386 17.8974 17.7847M11.2636 11.034C11.0884 13.0997 11.5328 17.7125 14.214 20.7409" stroke="#1F2023" stroke-width="1.5" stroke-linecap="square"/>
</svg>
