<svg width="24" height="24" viewBox="0 0 24 24" fill="none" xmlns="http://www.w3.org/2000/svg">
<path d="M2 7V2.1C2 2.04477 2.04477 2 2.1 2H7" stroke="#1F2023" stroke-width="1.5" stroke-linecap="square"/>
<path d="M22 17L22 21.9C22 21.9552 21.9552 22 21.9 22L17 22" stroke="#1F2023" stroke-width="1.5" stroke-linecap="square"/>
<path d="M17 2L21.9 2C21.9552 2 22 2.04477 22 2.1L22 7" stroke="#1F2023" stroke-width="1.5" stroke-linecap="square"/>
<path d="M7 22L2.1 22C2.04477 22 2 21.9552 2 21.9L2 17" stroke="#1F2023" stroke-width="1.5" stroke-linecap="square"/>
<path d="M9.02344 17.0376C9.02344 17.0376 11.7412 19.2032 14.7652 17.0376" stroke="#1F2023" stroke-width="1.5" stroke-miterlimit="10" stroke-linecap="square"/>
<path d="M11.5177 9.80957L10.6367 13.5172C10.6218 13.5801 10.6694 13.6404 10.734 13.6404H13.2815" stroke="#1F2023" stroke-width="1.5" stroke-linecap="square"/>
<circle cx="16" cy="8" r="1" fill="#1F2023"/>
<circle cx="8" cy="8" r="1" fill="#1F2023"/>
</svg>
