<svg width="24" height="24" viewBox="0 0 24 24" fill="none" xmlns="http://www.w3.org/2000/svg">
<path d="M20.8287 17.172L17.4346 13.7779C17.3956 13.7388 17.3323 13.7388 17.2932 13.7779L14.6062 16.4649C14.5672 16.504 14.5038 16.504 14.4648 16.4649L7.53514 9.53526C7.49609 9.49621 7.49609 9.43289 7.53514 9.39384L10.2221 6.70683C10.2612 6.66778 10.2612 6.60446 10.2221 6.56541L6.82803 3.1713C6.78898 3.13224 6.72567 3.13224 6.68661 3.1713L3.93091 5.927C3.92959 5.92832 3.92859 5.92994 3.928 5.93171C3.06183 8.53023 3.73813 11.3951 5.67495 13.3319L8.17154 15.8285L10.6681 18.3251C12.6049 20.2619 15.4698 20.9382 18.0683 20.072C18.0701 20.0715 18.0717 20.0705 18.073 20.0691L20.8287 17.3134C20.8678 17.2744 20.8678 17.2111 20.8287 17.172Z" stroke="#1F2023" stroke-width="1.5"/>
</svg>
