<svg width="24" height="24" viewBox="0 0 24 24" fill="none" xmlns="http://www.w3.org/2000/svg">
<path d="M2 19.8646V6.07386C2 6.02996 2.02863 5.99119 2.07059 5.97828L8.47256 4.00844C8.49049 4.00293 8.50961 4.00256 8.52774 4.0074L15.971 5.99228C15.9899 5.99732 16.0099 5.99671 16.0284 5.99052L21.8684 4.04387C21.9331 4.02229 22 4.07049 22 4.13874V17.9279C22 17.971 21.9725 18.0092 21.9316 18.0228L16.0284 19.9905C16.0099 19.9967 15.9899 19.9973 15.971 19.9923L8.52774 18.0074C8.50961 18.0026 8.49049 18.0029 8.47256 18.0084L2.12941 19.9602C2.0651 19.98 2 19.9319 2 19.8646Z" stroke="#1F2023" stroke-width="1.5"/>
<path d="M8.5 4.12109V17.9982" stroke="#1F2023" stroke-width="1.5"/>
<path d="M16 5.95703V19.7672" stroke="#1F2023" stroke-width="1.5"/>
</svg>
