<svg width="24" height="24" viewBox="0 0 24 24" fill="none" xmlns="http://www.w3.org/2000/svg">
<path d="M2 2.1C2 2.04477 2.04477 2 2.1 2H21.9C21.9552 2 22 2.04477 22 2.1V18.5667C22 18.6219 21.9552 18.6667 21.9 18.6667H2.1C2.04477 18.6667 2 18.6219 2 18.5667V2.1Z" stroke="#1F2023" stroke-width="1.5" stroke-linecap="square" stroke-linejoin="round"/>
<path d="M2 22H22" stroke="#1F2023" stroke-width="1.5" stroke-linecap="square" stroke-linejoin="round"/>
<path fill-rule="evenodd" clip-rule="evenodd" d="M15.8933 10.413C15.9467 10.373 15.9467 10.293 15.8933 10.253L10.16 5.95301C10.0941 5.90356 10 5.9506 10 6.03301L10 14.633C10 14.7154 10.0941 14.7625 10.16 14.713L15.8933 10.413Z" stroke="#1F2023" stroke-width="1.5" stroke-linejoin="round"/>
</svg>
