<svg width="24" height="24" viewBox="0 0 24 24" fill="none" xmlns="http://www.w3.org/2000/svg">
<path d="M11 8L5 8C3.89543 8 3 8.89543 3 10L3 13C3 14.1046 3.89543 15 5 15L11 15" stroke="#1F2023" stroke-width="1.5"/>
<path d="M5.5 15V20.9C5.5 20.9552 5.54477 21 5.6 21L8.4 21C8.45523 21 8.5 20.9552 8.5 20.9V15" stroke="#1F2023" stroke-width="1.5"/>
<path d="M11 7.85714L19.822 3.09607C19.9024 3.05268 20 3.11091 20 3.20229V19.7977C20 19.8891 19.9024 19.9473 19.822 19.9039L11 15.1429V11.5V7.85714Z" stroke="#1F2023" stroke-width="1.5"/>
</svg>
