<svg width="24" height="24" viewBox="0 0 24 24" fill="none" xmlns="http://www.w3.org/2000/svg">
<path d="M18.9 3C18.9552 3 19 3.04477 19 3.1L19 20.9C19 20.9552 18.9552 21 18.9 21L5.1 21C5.04477 21 5 20.9552 5 20.9L5 3.1C5 3.04477 5.04477 3 5.1 3L18.9 3Z" stroke="#1F2023" stroke-width="1.5" stroke-linecap="square"/>
<path d="M9.25 12.8056V7.35C9.25 7.29477 9.29477 7.25 9.35 7.25H9.82182C9.86378 7.25 9.90127 7.27619 9.91571 7.31557L11.9061 12.7439C11.9382 12.8314 12.0618 12.8314 12.0939 12.7439L14.0843 7.31557C14.0987 7.27619 14.1362 7.25 14.1782 7.25H14.65C14.7052 7.25 14.75 7.29477 14.75 7.35V12.8056" stroke="#1F2023" stroke-width="1.5" stroke-linecap="square"/>
<path d="M9 16.75H15" stroke="#1F2023" stroke-width="1.5" stroke-linecap="square"/>
</svg>
