<svg width="24" height="24" viewBox="0 0 24 24" fill="none" xmlns="http://www.w3.org/2000/svg">
<path d="M2 21H14" stroke="#1F2023" stroke-width="1.5" stroke-linecap="square"/>
<path d="M8 18H20" stroke="#1F2023" stroke-width="1.5" stroke-linecap="square"/>
<path d="M7.14233 8.06275C6.44755 5.59392 8.95565 2.23087 12.1646 2.01148C14.7036 1.83789 17.4391 3.65654 18.0375 5.91654" stroke="#1F2023" stroke-width="1.5"/>
<path d="M7.15174 14.9995C5.41111 14.9995 4.00004 13.4465 4.00004 11.5308C4.00004 9.61515 5.41111 8.06217 7.15174 8.06217C7.89247 8.06217 8.57351 8.34341 9.11153 8.81415M15.388 7.08245C16.0859 6.45585 16.977 6.08008 17.9479 6.08008C20.1858 6.08008 22 8.07676 22 10.5398C22 13.0028 20.1858 14.9995 17.9479 14.9995H2" stroke="#1F2023" stroke-width="1.5" stroke-linecap="square"/>
</svg>
