<svg width="24" height="24" viewBox="0 0 24 24" fill="none" xmlns="http://www.w3.org/2000/svg">
<path d="M22 7.041V2.1C22 2.04477 21.9552 2 21.9 2H2.1C2.04477 2 2 2.04477 2 2.1V18.9C2 18.9552 2.04477 19 2.1 19H7" stroke="#1F2023" stroke-width="1.5" stroke-linecap="square" stroke-linejoin="round"/>
<path d="M13.2016 9.8761L13.5679 10.5305L13.2016 9.8761ZM13.2473 9.82135L13.9565 10.0652L13.2473 9.82135ZM12.448 10.2705L12.3021 11.0061L12.448 10.2705ZM12.5164 10.2597L12.8827 10.9141L12.5164 10.2597ZM10.47 9.94586L9.82558 9.56213L10.47 9.94586ZM10.5754 9.89894L10.4294 10.6346L10.5754 9.89894ZM8.931 12.6693L8.37756 13.1755L8.931 12.6693ZM8.91887 12.5506L8.27447 12.1669L8.91887 12.5506ZM10.193 14.0491L9.63955 14.5553L10.193 14.0491ZM10.193 14.9506L9.63948 14.4445L10.193 14.9506ZM8.91909 16.4492L8.27461 16.8328L8.91909 16.4492ZM8.93121 16.3306L8.3777 15.8245L8.93121 16.3306ZM10.5751 19.1012L10.429 18.3656L10.5751 19.1012ZM10.4697 19.0543L11.1142 18.6707L10.4697 19.0543ZM12.516 18.7402L12.8823 18.0858L12.516 18.7402ZM12.4477 18.7294L12.3016 17.9938L12.4477 18.7294ZM13.2473 19.1788L12.5381 19.4226L13.2473 19.1788ZM13.2016 19.124L13.5679 18.4696L13.2016 19.124ZM13.8503 20.9325L13.141 21.1764L13.8503 20.9325ZM17.1472 20.9325L16.4379 20.6887L17.1472 20.9325ZM17.7965 19.1221L17.4302 18.4676L17.7965 19.1221ZM17.7508 19.1768L17.0415 18.933L17.7508 19.1768ZM18.5475 18.7291L18.6934 17.9935L18.5475 18.7291ZM18.4792 18.74L18.8455 19.3944L18.4792 18.74ZM20.5264 19.0539L21.1708 19.4377L20.5264 19.0539ZM20.421 19.1008L20.275 19.8365L20.421 19.1008ZM22.0653 16.3305L22.6188 15.8243L22.0653 16.3305ZM22.0775 16.4492L22.7219 16.8329L22.0775 16.4492ZM20.8017 14.9489L20.2483 15.4551L20.8017 14.9489ZM20.8017 14.0534L21.3551 14.5596L20.8017 14.0534ZM22.0798 12.5506L22.7242 12.1669L22.0798 12.5506ZM22.0677 12.6693L22.6211 13.1755L22.0677 12.6693ZM20.4233 9.89894L20.2773 9.16328L20.4233 9.89894ZM20.5287 9.94586L19.8843 10.3296L20.5287 9.94586ZM18.4794 10.2602L18.113 10.9147L18.4794 10.2602ZM18.5477 10.2711L18.4017 9.5354L18.5477 10.2711ZM17.7508 9.82327L18.4601 9.57943L18.4601 9.57943L17.7508 9.82327ZM17.7966 9.87802L18.1629 9.22358L17.7966 9.87802ZM13.8503 8.06749L14.5595 8.31133L13.8503 8.06749ZM17.1472 8.06749L17.8564 7.82364L17.1472 8.06749ZM17.0526 7.25H13.9448V8.75H17.0526V7.25ZM18.4601 9.57943L17.8564 7.82364L16.4379 8.31133L17.0416 10.0671L18.4601 9.57943ZM18.8457 9.60579L18.1629 9.22358L17.4302 10.5325L18.113 10.9147L18.8457 9.60579ZM20.2773 9.16328L18.4017 9.5354L18.6936 11.0067L20.5693 10.6346L20.2773 9.16328ZM22.7242 12.1669L21.1731 9.56213L19.8843 10.3296L21.4354 12.9344L22.7242 12.1669ZM21.3551 14.5596L22.6211 13.1755L21.5142 12.1631L20.2483 13.5473L21.3551 14.5596ZM21.5255 14.8814V14.1209H20.0255V14.8814H21.5255ZM22.6188 15.8243L21.3551 14.4427L20.2483 15.4551L21.5119 16.8367L22.6188 15.8243ZM21.1708 19.4377L22.7219 16.8329L21.4331 16.0654L19.882 18.6702L21.1708 19.4377ZM18.4015 19.4648L20.275 19.8365L20.5669 18.3652L18.6934 17.9935L18.4015 19.4648ZM18.1629 19.7765L18.8455 19.3944L18.1128 18.0855L17.4302 18.4676L18.1629 19.7765ZM17.8564 21.1764L18.4601 19.4207L17.0415 18.933L16.4379 20.6887L17.8564 21.1764ZM13.9448 21.75H17.0526V20.25H13.9448V21.75ZM12.5381 19.4226L13.141 21.1764L14.5595 20.6887L13.9566 18.9349L12.5381 19.4226ZM12.1497 19.3947L12.8353 19.7785L13.5679 18.4696L12.8823 18.0858L12.1497 19.3947ZM10.7212 19.8369L12.5938 19.4651L12.3016 17.9938L10.429 18.3656L10.7212 19.8369ZM8.27461 16.8328L9.82522 19.4379L11.1142 18.6707L9.56356 16.0656L8.27461 16.8328ZM9.63948 14.4445L8.3777 15.8245L9.48472 16.8367L10.7465 15.4567L9.63948 14.4445ZM9.46919 14.1166V14.8831H10.9692V14.1166H9.46919ZM8.37756 13.1755L9.63955 14.5553L10.7464 13.5429L9.48443 12.1631L8.37756 13.1755ZM9.82558 9.56213L8.27447 12.1669L9.56327 12.9344L11.1144 10.3296L9.82558 9.56213ZM12.594 9.53482L10.7213 9.16328L10.4294 10.6346L12.3021 11.0061L12.594 9.53482ZM12.8352 9.22165L12.15 9.60521L12.8827 10.9141L13.5679 10.5305L12.8352 9.22165ZM13.141 7.82364L12.538 9.5775L13.9565 10.0652L14.5595 8.31133L13.141 7.82364ZM13.5679 10.5305C13.7502 10.4285 13.8886 10.2628 13.9565 10.0652L12.538 9.5775C12.59 9.42639 12.6958 9.2997 12.8352 9.22165L13.5679 10.5305ZM12.3021 11.0061C12.5004 11.0455 12.7063 11.0129 12.8827 10.9141L12.15 9.60521C12.2849 9.52969 12.4423 9.50473 12.594 9.53482L12.3021 11.0061ZM11.1144 10.3296C10.9736 10.566 10.6993 10.6881 10.4294 10.6346L10.7213 9.16328C10.3684 9.09326 10.0097 9.25301 9.82558 9.56213L11.1144 10.3296ZM9.48443 12.1631C9.67793 12.3747 9.70996 12.688 9.56327 12.9344L8.27447 12.1669C8.08264 12.489 8.12453 12.8988 8.37756 13.1755L9.48443 12.1631ZM10.9692 14.1166C10.9692 13.9042 10.8897 13.6996 10.7464 13.5429L9.63955 14.5553C9.52996 14.4354 9.46919 14.279 9.46919 14.1166H10.9692ZM10.7465 15.4567C10.8898 15.3 10.9692 15.0954 10.9692 14.8831H9.46919C9.46919 14.7208 9.52994 14.5643 9.63948 14.4445L10.7465 15.4567ZM9.56356 16.0656C9.71016 16.3119 9.67813 16.6251 9.48472 16.8367L8.3777 15.8245C8.12478 16.1011 8.0829 16.5107 8.27461 16.8328L9.56356 16.0656ZM10.429 18.3656C10.699 18.312 10.9734 18.4342 11.1142 18.6707L9.82522 19.4379C10.0093 19.7472 10.3682 19.907 10.7212 19.8369L10.429 18.3656ZM12.8823 18.0858C12.7059 17.987 12.5 17.9544 12.3016 17.9938L12.5938 19.4651C12.4421 19.4952 12.2846 19.4702 12.1497 19.3947L12.8823 18.0858ZM13.9566 18.9349C13.8886 18.7373 13.7503 18.5716 13.5679 18.4696L12.8353 19.7785C12.6958 19.7004 12.59 19.5737 12.5381 19.4226L13.9566 18.9349ZM13.9448 20.25C14.2224 20.25 14.4693 20.4262 14.5595 20.6887L13.141 21.1764C13.259 21.5196 13.5819 21.75 13.9448 21.75V20.25ZM16.4379 20.6887C16.5282 20.4262 16.7751 20.25 17.0526 20.25V21.75C17.4156 21.75 17.7384 21.5196 17.8564 21.1764L16.4379 20.6887ZM17.4302 18.4676C17.2478 18.5697 17.1095 18.7354 17.0415 18.933L18.4601 19.4207C18.4081 19.5718 18.3023 19.6985 18.1629 19.7765L17.4302 18.4676ZM18.6934 17.9935C18.4951 17.9541 18.2893 17.9868 18.1128 18.0855L18.8455 19.3944C18.7106 19.4699 18.5532 19.4949 18.4015 19.4648L18.6934 17.9935ZM19.882 18.6702C20.0227 18.4338 20.2971 18.3116 20.5669 18.3652L20.275 19.8365C20.6279 19.9065 20.9867 19.7468 21.1708 19.4377L19.882 18.6702ZM21.5119 16.8367C21.3184 16.6251 21.2864 16.3118 21.4331 16.0654L22.7219 16.8329C22.9137 16.5108 22.8718 16.101 22.6188 15.8243L21.5119 16.8367ZM20.0255 14.8814C20.0255 15.0937 20.105 15.2984 20.2483 15.4551L21.3551 14.4427C21.4647 14.5625 21.5255 14.719 21.5255 14.8814H20.0255ZM20.2483 13.5473C20.105 13.7039 20.0255 13.9086 20.0255 14.1209H21.5255C21.5255 14.2833 21.4647 14.4398 21.3551 14.5596L20.2483 13.5473ZM21.4354 12.9344C21.2887 12.688 21.3207 12.3747 21.5142 12.1631L22.6211 13.1755C22.8741 12.8988 22.916 12.489 22.7242 12.1669L21.4354 12.9344ZM20.5693 10.6346C20.2994 10.6881 20.0251 10.566 19.8843 10.3296L21.1731 9.56213C20.989 9.25301 20.6302 9.09326 20.2773 9.16328L20.5693 10.6346ZM18.113 10.9147C18.2895 11.0134 18.4953 11.0461 18.6936 11.0067L18.4017 9.5354C18.5534 9.50531 18.7108 9.53027 18.8457 9.60579L18.113 10.9147ZM17.0416 10.0671C17.1095 10.2647 17.2479 10.4304 17.4302 10.5325L18.1629 9.22358C18.3023 9.30163 18.4081 9.42831 18.4601 9.57943L17.0416 10.0671ZM13.9448 7.25C13.5819 7.25 13.259 7.48043 13.141 7.82364L14.5595 8.31133C14.4693 8.57379 14.2224 8.75 13.9448 8.75V7.25ZM17.0526 8.75C16.7751 8.75 16.5282 8.57379 16.4379 8.31133L17.8564 7.82364C17.7384 7.48043 17.4156 7.25 17.0526 7.25V8.75Z" fill="#1F2023"/>
<ellipse cx="15.4974" cy="14.4998" rx="1.93876" ry="1.94998" stroke="#1F2023" stroke-width="1.5" stroke-linecap="square"/>
<path d="M2 22H7" stroke="#1F2023" stroke-width="1.5" stroke-linecap="square" stroke-linejoin="round"/>
</svg>
