<svg width="24" height="24" viewBox="0 0 24 24" fill="none" xmlns="http://www.w3.org/2000/svg">
<path d="M6.95576 8.5L3.1 8.5C3.04477 8.5 3 8.54477 3 8.6L3 15.4C3 15.4552 3.04477 15.5 3.1 15.5L6.95576 15.5C6.98394 15.5 7.0108 15.5119 7.02976 15.5327L11.826 20.8086C11.8875 20.8762 12 20.8327 12 20.7413L12 3.25866C12 3.16726 11.8875 3.12376 11.826 3.19139L7.02976 8.46727C7.0108 8.48811 6.98394 8.5 6.95576 8.5Z" stroke="#1F2023" stroke-width="1.5" stroke-linecap="square" stroke-linejoin="round"/>
<path d="M15 15L20.8336 9M21 15L15.1664 9" stroke="#1F2023" stroke-width="1.5" stroke-linejoin="round"/>
</svg>
