<svg width="24" height="24" viewBox="0 0 24 24" fill="none" xmlns="http://www.w3.org/2000/svg">
<path d="M6.12695 16.6562H18.3176" stroke="#1F2023" stroke-width="1.5" stroke-miterlimit="10" stroke-linecap="square"/>
<path d="M1 13H6" stroke="#1F2023" stroke-width="1.5" stroke-miterlimit="10" stroke-linecap="square"/>
<path d="M4.8999 8.5L2.23044 14.9118C2.07832 15.2772 2 15.6691 2 16.0649V21.9C2 21.9552 2.04477 22 2.1 22H5.9C5.95523 22 6 21.9552 6 21.9V20.0593C6 20.0041 6.04477 19.9593 6.1 19.9593H17.9C17.9552 19.9593 18 20.0041 18 20.0593V21.9C18 21.9552 18.0448 22 18.1 22H21.9C21.9552 22 22 21.9552 22 21.9V16.787" stroke="#1F2023" stroke-width="1.5" stroke-linecap="square"/>
<path d="M16.5 2C18.9853 2 21 3.65 21 6.4C21 9.48001 17.08 12.56 16.5573 12.957C16.5226 12.9834 16.4774 12.9834 16.4427 12.957C15.9201 12.5596 12 9.47316 12 6.29688C12 3.65 14.0147 2 16.5 2Z" stroke="#1F2023" stroke-width="1.5"/>
<path d="M16.5 7.78906C17.3284 7.78906 18 7.11749 18 6.28906C18 5.46064 17.3284 4.78906 16.5 4.78906C15.6716 4.78906 15 5.46064 15 6.28906C15 7.11749 15.6716 7.78906 16.5 7.78906Z" stroke="#1F2023" stroke-width="1.5"/>
</svg>
