<svg width="24" height="24" viewBox="0 0 24 24" fill="none" xmlns="http://www.w3.org/2000/svg">
<path d="M5.75 16C6.57843 16 7.25 15.3284 7.25 14.5C7.25 13.6716 6.57843 13 5.75 13C4.92157 13 4.25 13.6716 4.25 14.5C4.25 15.3284 4.92157 16 5.75 16Z" fill="#1F2023"/>
<path d="M4.75 9.5V9.5C8.06371 9.5 10.75 12.1863 10.75 15.5V15.5" stroke="#1F2023" stroke-width="1.5"/>
<path d="M4.75 5.5V5.5C10.2728 5.5 14.75 9.97715 14.75 15.5V15.5" stroke="#1F2023" stroke-width="1.5"/>
<path d="M4.75 1.5V1.5C12.482 1.5 18.75 7.76801 18.75 15.5V15.5" stroke="#1F2023" stroke-width="1.5"/>
<path d="M17.3803 22.5C16.9841 22.5 16.6213 22.4329 16.292 22.2986C15.9626 22.1592 15.677 21.9681 15.4352 21.7254C15.1985 21.4826 15.0132 21.1934 14.8794 20.8577C14.7456 20.5169 14.6787 20.1477 14.6787 19.75C14.6787 19.3523 14.7456 18.9857 14.8794 18.65C15.0132 18.3143 15.1985 18.0251 15.4352 17.7824C15.677 17.5345 15.9626 17.3434 16.292 17.2092C16.6213 17.0697 16.9841 17 17.3803 17C17.9361 17 18.4095 17.1136 18.8006 17.3408C19.1969 17.5629 19.5133 17.865 19.7501 18.2472L18.8624 18.9211C18.6977 18.6732 18.5047 18.477 18.2835 18.3324C18.0622 18.1878 17.7689 18.1155 17.4035 18.1155C17.1719 18.1155 16.9635 18.1568 16.7783 18.2394C16.5982 18.3221 16.4438 18.4383 16.3151 18.588C16.1916 18.7326 16.0939 18.9056 16.0218 19.107C15.9549 19.3033 15.9215 19.5176 15.9215 19.75C15.9215 19.9824 15.9549 20.1993 16.0218 20.4007C16.0939 20.5969 16.1916 20.77 16.3151 20.9197C16.4438 21.0643 16.5982 21.1779 16.7783 21.2606C16.9635 21.3432 17.1719 21.3845 17.4035 21.3845C17.7689 21.3845 18.0622 21.3122 18.2835 21.1676C18.5047 21.023 18.6977 20.8268 18.8624 20.5789L19.7501 21.2528C19.5133 21.635 19.1969 21.9397 18.8006 22.1669C18.4095 22.389 17.9361 22.5 17.3803 22.5Z" fill="#1F2023"/>
<path d="M10.6372 17.1162H14.3423V18.162H11.8414V19.2387H14.0413V20.2845H11.8414V22.3838H10.6372V17.1162Z" fill="#1F2023"/>
<path d="M4.75 17.1162H5.79978L8.4165 20.3852V17.1162H9.62065V22.3838H8.57859L5.95415 19.1148V22.3838H4.75V17.1162Z" fill="#1F2023"/>
</svg>
