<svg width="24" height="24" viewBox="0 0 24 24" fill="none" xmlns="http://www.w3.org/2000/svg">
<path d="M14.1993 5.80014L9.55114 10.4477C9.53003 10.4689 9.50058 10.4794 9.47086 10.4766L6.64493 10.2049C6.61521 10.202 6.58576 10.2126 6.56465 10.2337L5.86858 10.9297C5.82952 10.9687 5.82952 11.0321 5.86858 11.0711L12.9284 18.1301C12.9675 18.1691 13.0308 18.1691 13.0698 18.1301L13.7659 17.4341C13.787 17.413 13.7976 17.3835 13.7947 17.3538L13.523 14.5282C13.5202 14.4985 13.5307 14.4691 13.5518 14.4479L18.2 9.80034L18.9295 10.5297C18.9685 10.5687 19.0318 10.5687 19.0709 10.5297L20.9298 8.671C20.9688 8.63194 20.9688 8.56862 20.9298 8.52957L15.4702 3.0707C15.4312 3.03165 15.3679 3.03165 15.3288 3.0707L13.4699 4.92939C13.4308 4.96844 13.4308 5.03176 13.4699 5.07082L14.1993 5.80014Z" stroke="#1F2023" stroke-width="1.5"/>
<path d="M9.40332 14.6006L3.0022 21.0009" stroke="#1F2023" stroke-width="1.5"/>
</svg>
