<svg width="24" height="24" viewBox="0 0 24 24" fill="none" xmlns="http://www.w3.org/2000/svg">
<path d="M2.5 3.1C2.5 3.04477 2.54477 3 2.6 3H13.4C13.4552 3 13.5 3.04477 13.5 3.1V20.9C13.5 20.9552 13.4552 21 13.4 21H2.6C2.54477 21 2.5 20.9552 2.5 20.9V3.1Z" stroke="#1F2023" stroke-width="1.5"/>
<path d="M10 12.8571C10 13.8039 9.5 15 8 15C6.5 15 6 13.8039 6 12.8571C6 11.3571 8 9 8 9C8 9 10 11.3571 10 12.8571Z" stroke="#1F2023" stroke-width="1.5"/>
<path d="M13.5 13.8186H17.4C17.4552 13.8186 17.5 13.8634 17.5 13.9186V18.9547C17.5 18.9547 17.5 21 19.5 21C21.5 21 21.5 18.9547 21.5 18.9547V7.70529L16 3" stroke="#1F2023" stroke-width="1.5"/>
<path d="M18.2202 5.31055L16.7202 8.8103C16.7202 9.8103 19.2202 10.3105 21.2202 10.3105" stroke="#1F2023" stroke-width="1.5"/>
</svg>
