<svg width="24" height="24" viewBox="0 0 24 24" fill="none" xmlns="http://www.w3.org/2000/svg">
<path d="M8.08653 5.05458L4.68906 5.05458C4.45613 5.05458 4.23051 5.13589 4.05113 5.28448L1.21531 7.63357C1.17453 7.66736 1.16716 7.72709 1.19851 7.76978L2.35355 9.34241C2.38788 9.38915 2.45465 9.39698 2.49886 9.35944L4.74878 7.44932C4.92952 7.29588 5.15889 7.21165 5.39598 7.21165L8.08653 7.21165" stroke="#1F2023" stroke-width="1.5"/>
<path d="M19.5697 16.4602L22.9103 14.5513C22.9593 14.5232 22.9754 14.4601 22.9458 14.412L16.7948 4.42657C16.2486 3.53998 15.2818 3 14.2405 3H10.016C9.96079 3 9.91602 3.04477 9.91602 3.1V11.9C9.91602 11.9552 9.96079 12 10.016 12H15.3717C15.3999 12 15.4268 12.0119 15.4458 12.0328L19.446 16.4405C19.4776 16.4753 19.529 16.4834 19.5697 16.4602Z" stroke="#1F2023" stroke-width="1.5" stroke-linecap="square"/>
<path d="M9.41602 4H8.01602C7.96079 4 7.91602 4.04477 7.91602 4.1V8.44648C7.91602 8.47992 7.93273 8.51114 7.96055 8.52969L9.41602 9.5" stroke="#1F2023" stroke-width="1.5" stroke-linecap="square"/>
<path d="M21 15.5L22.1813 18.0111C22.9098 19.4622 21.8543 21.1719 20.23 21.1719H13.416" stroke="#1F2023" stroke-width="1.5"/>
<path d="M6 14.8571C6 15.8039 5.5 17 4 17C2.5 17 2 15.8039 2 14.8571C2 13.5307 3.56406 11.5339 3.92591 11.0896C3.96489 11.0418 4.03511 11.0418 4.07409 11.0896C4.43594 11.5339 6 13.5307 6 14.8571Z" stroke="#1F2023" stroke-width="1.5"/>
</svg>
