<svg width="24" height="24" viewBox="0 0 24 24" fill="none" xmlns="http://www.w3.org/2000/svg">
<rect x="4" y="10" width="16" height="12" rx="0.1" stroke="#1F2023" stroke-width="1.5"/>
<path d="M12 14V18" stroke="#1F2023" stroke-width="1.5" stroke-linecap="square"/>
<path d="M11.75 10C11.75 10.4142 12.0858 10.75 12.5 10.75C12.9142 10.75 13.25 10.4142 13.25 10H11.75ZM13.25 10V7H11.75V10H13.25ZM13.25 7C13.25 6.45335 13.4202 5.61668 13.9087 4.93823C14.3696 4.29802 15.1444 3.75 16.5 3.75V2.25C14.6556 2.25 13.4304 3.03532 12.6913 4.06177C11.9798 5.04998 11.75 6.21332 11.75 7H13.25ZM16.5 3.75C17.0466 3.75 17.8833 3.92016 18.5618 4.40865C19.202 4.8696 19.75 5.64444 19.75 7H21.25C21.25 5.15556 20.4647 3.9304 19.4382 3.19135C18.45 2.47984 17.2867 2.25 16.5 2.25V3.75Z" fill="#1F2023"/>
</svg>
