<svg width="24" height="24" viewBox="0 0 24 24" fill="none" xmlns="http://www.w3.org/2000/svg">
<path d="M21 5C22.2469 6.88238 23 9.3275 23 12C23 14.6725 22.2469 17.1176 21 19M3 5C1.75313 6.88238 1 9.3275 1 12C1 14.6725 1.75313 17.1176 3 19M20 12C20 16.4183 16.4183 20 12 20C7.58172 20 4 16.4183 4 12C4 7.58172 7.58172 4 12 4C16.4183 4 20 7.58172 20 12Z" stroke="#1F2023" stroke-width="1.5" stroke-linecap="square"/>
<path d="M10.4722 15.5999V12.5142M10.4722 12.5142V8.4044C10.4722 8.40192 10.4742 8.3999 10.4767 8.3999H12.915C14.0512 8.3999 14.9722 9.32092 14.9722 10.457V10.457C14.9722 11.5932 14.0512 12.5142 12.915 12.5142H10.4722Z" stroke="#1F2023" stroke-width="1.5" stroke-linecap="square"/>
</svg>
