<svg width="24" height="24" viewBox="0 0 24 24" fill="none" xmlns="http://www.w3.org/2000/svg">
<path d="M6.12012 16.6553H18.3108" stroke="#1F2023" stroke-width="1.5" stroke-miterlimit="10" stroke-linecap="square"/>
<path d="M1 13H6" stroke="#1F2023" stroke-width="1.5" stroke-miterlimit="10" stroke-linecap="square"/>
<path d="M4.8999 8.5L2.23044 14.9118C2.07832 15.2772 2 15.6691 2 16.0649V21.9C2 21.9552 2.04477 22 2.1 22H5.9C5.95523 22 6 21.9552 6 21.9V20.0593C6 20.0041 6.04477 19.9593 6.1 19.9593H17.9C17.9552 19.9593 18 20.0041 18 20.0593V21.9C18 21.9552 18.0448 22 18.1 22H21.9C21.9552 22 22 21.9552 22 21.9V16.787" stroke="#1F2023" stroke-width="1.5" stroke-linecap="square"/>
<circle cx="15.5" cy="7.5" r="5.5" stroke="#1F2023" stroke-width="1.5" stroke-linecap="square"/>
<path d="M14.3232 9.75V7.82143M14.3232 7.82143V5.253C14.3232 5.25134 14.3246 5.25 14.3262 5.25H16.0375C16.7476 5.25 17.3232 5.82563 17.3232 6.53571V6.53571C17.3232 7.24579 16.7476 7.82143 16.0375 7.82143H14.3232Z" stroke="#1F2023" stroke-width="1.5" stroke-linecap="square"/>
</svg>
