<svg width="24" height="24" viewBox="0 0 24 24" fill="none" xmlns="http://www.w3.org/2000/svg">
<path d="M12 2C16.4183 2 20 5 20 10C20 15.7099 12.755 21.4197 12.0543 21.9586C12.0191 21.9857 11.9809 21.9857 11.9457 21.9586C11.2451 21.4193 4 15.7008 4 9.8125C4 5 7.58172 2 12 2Z" stroke="#1F2023" stroke-width="1.5" stroke-linejoin="round"/>
<path d="M10 15V11.5714M10 11.5714V7.00499C10 7.00224 10.0022 7 10.005 7H12.7143C13.9767 7 15 8.02335 15 9.28571V9.28571C15 10.5481 13.9767 11.5714 12.7143 11.5714H10Z" stroke="#1F2023" stroke-width="1.5" stroke-linecap="square"/>
</svg>
