<svg width="24" height="24" viewBox="0 0 24 24" fill="none" xmlns="http://www.w3.org/2000/svg">
<path d="M3.97031 17.5445C3.98886 17.5167 4.02008 17.5 4.05352 17.5H20.9C20.9552 17.5 21 17.5448 21 17.6V20.4C21 20.4552 20.9552 20.5 20.9 20.5H2.18685C2.10698 20.5 2.05934 20.411 2.10365 20.3445L3.97031 17.5445Z" stroke="#1F2023" stroke-width="1.5"/>
<path d="M5.91016 17.5L13.5185 9.8917" stroke="#1F2023" stroke-width="1.5"/>
<path d="M17.3766 4.45511C17.4156 4.41606 17.4789 4.41606 17.518 4.45511L20.8286 7.76577C20.8677 7.80482 20.8677 7.86814 20.8286 7.90719L16.1371 12.5987C16.0981 12.6377 16.0348 12.6377 15.9957 12.5987L12.6851 9.28802C12.646 9.24897 12.646 9.18565 12.6851 9.1466L17.3766 4.45511Z" stroke="#1F2023" stroke-width="1.5"/>
<path d="M20.6191 6.95208L21.9293 5.64196C21.9683 5.6029 21.9683 5.53959 21.9293 5.50054L19.9994 3.57071C19.9604 3.53166 19.8971 3.53166 19.858 3.57071L18.5479 4.88083" stroke="#1F2023" stroke-width="1.5"/>
<path d="M15.5497 12.0655L13.201 14.4143C12.8259 14.7893 12.6152 15.298 12.6152 15.8285V17.5001" stroke="#1F2023" stroke-width="1.5"/>
</svg>
