<svg width="24" height="24" viewBox="0 0 24 24" fill="none" xmlns="http://www.w3.org/2000/svg">
<path d="M11.7507 6L11.7507 5" stroke="#1F2023" stroke-width="1.5" stroke-linecap="square"/>
<path d="M15.2507 6.5L15.2507 2.6C15.2507 2.54477 15.206 2.5 15.1507 2.5L4.85073 2.5C4.7955 2.5 4.75073 2.54477 4.75073 2.6L4.75073 16.4C4.75073 16.4552 4.7955 16.5 4.85073 16.5L13.0716 16.5" stroke="#1F2023" stroke-width="1.5"/>
<path d="M7.75073 16.5L7.75073 2.5" stroke="#1F2023" stroke-width="1.5" stroke-linecap="square"/>
<path d="M15.9233 21.5001L18.514 21.4993C18.5693 21.4992 18.614 21.4545 18.614 21.3993L18.614 19.0463C18.614 18.9911 18.5692 18.9463 18.514 18.9463L13.1413 18.9471C13.086 18.9471 13.0413 18.9919 13.0413 19.0471L13.0413 21.4001C13.0413 21.4553 13.0861 21.5001 13.1413 21.5001L15.9385 21.5001" stroke="#1F2023" stroke-width="1.5"/>
<path d="M13.7824 18.9365L13.0348 16.9683C12.8524 16.4882 12.8617 15.9564 13.0608 15.483L14.0073 13.2316C14.2703 12.6059 14.989 12.3096 15.6166 12.5681V12.5681C16.1208 12.7758 16.4291 13.2895 16.3754 13.832L16.0974 16.6407" stroke="#1F2023" stroke-width="1.5"/>
<path d="M14.6404 12.6636L13.8216 8.36769C13.7335 7.90515 13.9277 7.43432 14.3163 7.16842V7.16842C14.8561 6.79909 15.593 6.93717 15.9625 7.47686L18.5669 11.2813C19.0047 11.9208 19.1781 12.7049 19.0506 13.4693L18.1337 18.9688" stroke="#1F2023" stroke-width="1.5"/>
</svg>
