<svg width="24" height="24" viewBox="0 0 24 24" fill="none" xmlns="http://www.w3.org/2000/svg">
<path d="M8.98756 1.41616C8.99617 1.31134 8.85791 1.26598 8.80275 1.35553L2.5939 11.4358C2.55286 11.5024 2.60079 11.5882 2.67904 11.5882H6.47841C6.53686 11.5882 6.58286 11.6382 6.57807 11.6964L6.01244 18.5838C6.00383 18.6887 6.14209 18.734 6.19725 18.6445L12.4061 8.56421C12.4471 8.49758 12.3992 8.41177 12.321 8.41177L8.52159 8.41177C8.46314 8.41177 8.41714 8.36184 8.42193 8.30358L8.98756 1.41616Z" stroke="#1F2023" stroke-width="1.5"/>
<path d="M17.9876 5.41616C17.9962 5.31134 17.8579 5.26598 17.8028 5.35553L11.5939 15.4358C11.5529 15.5024 11.6008 15.5882 11.679 15.5882H15.4784C15.5369 15.5882 15.5829 15.6382 15.5781 15.6964L15.0124 22.5838C15.0038 22.6887 15.1421 22.734 15.1972 22.6445L21.4061 12.5642C21.4471 12.4976 21.3992 12.4118 21.321 12.4118L17.5216 12.4118C17.4631 12.4118 17.4171 12.3618 17.4219 12.3036L17.9876 5.41616Z" stroke="#1F2023" stroke-width="1.5"/>
</svg>
