<svg width="25" height="24" viewBox="0 0 25 24" fill="none" xmlns="http://www.w3.org/2000/svg">
<path d="M7.96484 7V3.1C7.96484 3.04477 8.00962 3 8.06484 3H18.4279C18.4517 3 18.4748 3.00854 18.4929 3.02407L21.9299 5.97007C21.9521 5.98907 21.9648 6.0168 21.9648 6.04599V20.9C21.9648 20.9552 21.9201 21 21.8648 21H8.06484C8.00962 21 7.96484 20.9552 7.96484 20.9V17" stroke="#1F2023" stroke-width="1.5" stroke-linecap="square"/>
<rect x="3.96484" y="7" width="10" height="10" rx="0.1" stroke="#1F2023" stroke-width="1.5" stroke-linecap="square"/>
<path d="M6.96484 14.5V12.3571M6.96484 12.3571V9.504C6.96484 9.50179 6.96663 9.5 6.96884 9.5H9.53627C10.3253 9.5 10.9648 10.1396 10.9648 10.9286V10.9286C10.9648 11.7175 10.3253 12.3571 9.53627 12.3571H6.96484Z" stroke="#1F2023" stroke-width="1.5" stroke-linecap="square"/>
</svg>
