<svg width="24" height="25" viewBox="0 0 24 25" fill="none" xmlns="http://www.w3.org/2000/svg">
<path d="M3.00014 18.7461L3.00111 21.5431C3.00113 21.5983 3.04589 21.6431 3.10111 21.6431L5.96444 21.6431C6.01967 21.6431 6.06445 21.5983 6.06444 21.543L6.06348 15.7431C6.06347 15.6878 6.0187 15.6431 5.96348 15.6431L3.10014 15.6431C3.04492 15.6431 3.00014 15.6878 3.00014 15.7431L3.00014 18.7624" stroke="#1F2023" stroke-width="1.5"/>
<path d="M6.07617 16.4428L8.65579 15.5636C9.09505 15.4139 9.57271 15.4216 10.0069 15.5854L12.9524 16.6965C13.6692 16.9669 14.0066 17.7883 13.687 18.4845V18.4845C13.4537 18.9926 12.9259 19.299 12.369 19.2495L8.83091 18.9353" stroke="#1F2023" stroke-width="1.5"/>
<path d="M13.6037 17.3698L18.9088 16.4626C19.3781 16.3823 19.8531 16.5693 20.1418 16.9479V16.9479C20.601 17.5501 20.4394 18.4173 19.7941 18.8137L14.9987 21.7594C14.3966 22.1293 13.6834 22.2747 12.9846 22.1702L6.03807 21.131" stroke="#1F2023" stroke-width="1.5"/>
<path d="M16.1612 6.91022C15.2819 7.53273 12.223 7.28221 12.223 7.28221C12.223 7.28221 13.0647 4.3063 13.9441 3.68379C14.8234 3.06128 16.0409 3.28903 16.6497 4.17724C17.266 5.07305 17.048 6.2953 16.1612 6.91022Z" stroke="#1F2023" stroke-width="1.5" stroke-miterlimit="10"/>
<path d="M7.83347 6.9101C8.71281 7.53261 11.7717 7.28208 11.7717 7.28208C11.7717 7.28208 10.9299 4.29858 10.0506 3.68366C9.17126 3.06874 7.95372 3.2889 7.34495 4.17712C6.73618 5.06533 6.95414 6.29517 7.83347 6.9101Z" stroke="#1F2023" stroke-width="1.5" stroke-miterlimit="10"/>
<path d="M18.5 16.332V7.43203C18.5 7.3768 18.4552 7.33203 18.4 7.33203H5.6C5.54477 7.33203 5.5 7.3768 5.5 7.43203V15.332" stroke="#1F2023" stroke-width="1.5"/>
<path d="M10.5 7.33203V15.9273" stroke="#1F2023" stroke-width="1.5"/>
<path d="M13.5 7.33203V16.832" stroke="#1F2023" stroke-width="1.5"/>
</svg>
