<svg width="24" height="24" viewBox="0 0 24 24" fill="none" xmlns="http://www.w3.org/2000/svg">
<path d="M1 13.5H7.12419C7.15986 13.5 7.19283 13.481 7.21071 13.4501L9.41671 9.64371C9.4545 9.57851 9.54809 9.57695 9.58803 9.64085L11.916 13.3655C11.9549 13.4279 12.0456 13.4283 12.0851 13.3662L14.4595 9.635C14.4992 9.57265 14.5905 9.57339 14.6291 9.63638L16.9707 13.4523C16.9889 13.4819 17.0212 13.5 17.056 13.5H23" stroke="#1F2023" stroke-width="1.5" stroke-linecap="square" stroke-linejoin="round"/>
<path d="M20.9 4H3.1C3.04477 4 3 4.04477 3 4.1V19.9C3 19.9552 3.04477 20 3.1 20H20.9C20.9552 20 21 19.9552 21 19.9V4.1C21 4.04477 20.9552 4 20.9 4Z" stroke="#1F2023" stroke-width="1.5" stroke-linecap="round" stroke-linejoin="round"/>
</svg>
