<svg width="24" height="24" viewBox="0 0 24 24" fill="none" xmlns="http://www.w3.org/2000/svg">
<g clip-path="url(#clip0_6035_62338)">
<path d="M2 11.1C2 11.0448 2.04477 11 2.1 11H6.9C6.95523 11 7 11.0448 7 11.1V21.9C7 21.9552 6.95523 22 6.9 22H2.1C2.04477 22 2 21.9552 2 21.9V11.1Z" stroke="#1F2023" stroke-width="1.5" stroke-linecap="square"/>
<path d="M9.52985 5.06081L7.008 10.9812C7.00272 10.9936 7 11.0069 7 11.0204V21.9001C7 21.9553 7.04477 22.0001 7.1 22.0001H18.9002C18.9554 22.0001 19.0002 21.9553 19.0002 21.9001V11.7111C19.0002 11.6559 18.9554 11.6111 18.9002 11.6111H12.4891C12.4339 11.6111 12.3891 11.5664 12.3891 11.5111V5.1C12.3891 5.04477 12.3443 5 12.2891 5H9.62185C9.58177 5 9.54556 5.02393 9.52985 5.06081Z" stroke="#1F2023" stroke-width="1.5" stroke-linecap="square"/>
<path d="M23 3.99988L19.5 3.99988M16 3.99988L19.5 3.99988M17.5 1L19.5 3.99988M21.5 7L19.5 3.99988M21.5 1L19.5 3.99988M17.5 7L19.5 3.99988" stroke="#1F2023" stroke-width="1.5" stroke-linecap="square"/>
</g>
<defs>
<clipPath id="clip0_6035_62338">
<rect width="24" height="24" fill="white"/>
</clipPath>
</defs>
</svg>
