<svg width="24" height="25" viewBox="0 0 24 25" fill="none" xmlns="http://www.w3.org/2000/svg">
<path d="M16.5455 21.3981L7.90909 21.3981L7.73605 21.3981M4.33613 21.4632C4.4936 22.2437 5.19221 22.832 6.03018 22.832C6.89133 22.832 7.60529 22.2108 7.73605 21.3981M4.33613 21.4632C4.31434 21.3552 4.30291 21.2435 4.30291 21.1292C4.30291 20.1888 5.07624 19.4264 6.03018 19.4264C6.98413 19.4264 7.75746 20.1888 7.75746 21.1292C7.75746 21.2207 7.75014 21.3105 7.73605 21.3981M4.33613 21.4632L4.04545 21.3981L2.07119 20.9655C2.02959 20.9564 2 20.92 2 20.878V17.3693C2 16.9412 2.30719 16.5728 2.73329 16.49L7.43813 15.5758C7.44898 15.5737 7.45935 15.5696 7.46873 15.5638L10.9804 13.4001C11.0526 13.3556 11.1361 13.332 11.2213 13.332H16.9266C17.0217 13.332 17.1145 13.3615 17.1918 13.4162L20.3636 15.6622L21.9287 16.0032C21.9704 16.0123 22 16.0487 22 16.0907V20.569C22 20.6093 21.9726 20.6447 21.9332 20.6554L20.0498 21.1652L19.9902 21.1843M19.9902 21.1843C19.9908 21.166 19.9911 21.1476 19.9911 21.1292C19.9911 20.1888 19.2178 19.4264 18.2638 19.4264C17.3099 19.4264 16.5366 20.1888 16.5366 21.1292C16.5366 22.0697 17.3099 22.832 18.2638 22.832C19.1991 22.832 19.9608 22.0992 19.9902 21.1843Z" stroke="#1F2023" stroke-width="1.5"/>
<path d="M8.95859 11.332C9.01382 11.332 9.05859 11.2873 9.05859 11.232L9.05859 3.43203C9.05859 3.3768 9.01382 3.33203 8.95859 3.33203L2.09977 3.33203C2.04454 3.33203 1.99977 3.3768 1.99977 3.43203L1.99977 11.232C1.99977 11.2873 2.04454 11.332 2.09977 11.332L8.95859 11.332Z" stroke="#1F2023" stroke-width="1.5"/>
<path d="M9.02046 5.6652L15.7218 5.6652C15.7536 5.6652 15.7835 5.68031 15.8024 5.7059L16.9563 7.27256C16.9823 7.30783 16.9823 7.3559 16.9563 7.39117L15.8024 8.95784C15.7835 8.98343 15.7536 8.99854 15.7218 8.99854L14.2323 8.99853C14.2114 8.99853 14.1909 8.99194 14.1739 8.97968L13.3322 8.37356C13.2976 8.34861 13.2509 8.34841 13.2161 8.37304L12.357 8.98018C12.3401 8.99211 12.3199 8.99851 12.2993 8.99851L9.02046 8.99853" stroke="#1F2023" stroke-width="1.5"/>
<path d="M4.64697 8.19922L4.64697 6.42144" stroke="#1F2023" stroke-width="1.5" stroke-linecap="square"/>
</svg>
