<svg width="24" height="25" viewBox="0 0 24 25" fill="none" xmlns="http://www.w3.org/2000/svg">
<path d="M9.94553 17.5747C9.96857 17.5512 9.96857 17.5131 9.94553 17.4896L6.76995 14.2488C6.74691 14.2253 6.70955 14.2253 6.68651 14.2488L4.14425 16.8434C3.24432 17.7618 3.24434 19.2508 4.14428 20.1692V20.1692C5.04424 21.0877 6.50337 21.0876 7.40332 20.1692L9.94553 17.5747Z" stroke="#1F2023" stroke-width="1.5"/>
<path d="M7.93357 14.7099L9.38167 13.2321M9.88898 16.7054L11.3332 15.2612M12.5028 10.0469L15.3079 7.18429L15.786 5.39509C15.7929 5.36944 15.8094 5.34758 15.8319 5.33425L18.827 3.56469C18.8658 3.54176 18.9149 3.54832 18.9466 3.58068L20.7944 5.46647C20.8261 5.49883 20.8326 5.5489 20.8101 5.5885L19.0761 8.64503C19.0631 8.66804 19.0416 8.68487 19.0165 8.69187L17.2633 9.17983L14.3049 12.199" stroke="#1F2023" stroke-width="1.5"/>
<path d="M16.5457 17.7521L17.0646 18.3233M3.22754 5.43456L5.80488 8.26685C5.98289 8.46247 6.27976 8.4704 6.46795 8.28456L8.0168 6.75505C8.20499 6.56921 8.21323 6.25997 8.03522 6.06435L5.45788 3.23206C5.34132 3.10398 5.4351 2.89301 5.60445 2.90231L8.21631 3.04573C8.74059 3.07452 9.23253 3.30833 9.58593 3.69668L10.74 4.96495C11.0755 5.33357 11.2612 5.81414 11.2608 6.31253L11.2592 8.63784C11.259 8.88705 11.3518 9.12736 11.5196 9.31167L19.2012 17.7521C19.9294 18.5524 19.8957 19.8174 19.1258 20.5777C18.3559 21.3379 17.1415 21.3055 16.4132 20.5052L8.74668 12.0813C8.56998 11.8871 8.32403 11.7702 8.06191 11.7559L5.94612 11.6397C5.42184 11.6109 4.92989 11.3771 4.5765 10.9887L3.42239 9.72045C3.08695 9.35184 2.90122 8.87126 2.90158 8.37288L2.90362 5.56942C2.90375 5.39276 3.11099 5.30648 3.22754 5.43456Z" stroke="#1F2023" stroke-width="1.5" stroke-linecap="round" stroke-linejoin="round"/>
</svg>
