<svg width="24" height="24" viewBox="0 0 24 24" fill="none" xmlns="http://www.w3.org/2000/svg">
<path d="M12 21.5C17.2467 21.5 21.5 17.2467 21.5 12C21.5 6.75329 17.2467 2.5 12 2.5" stroke="#1F2023" stroke-width="1.5"/>
<path d="M12 21.5C6.75329 21.5 2.5 17.2467 2.5 12C2.5 6.75329 6.75329 2.5 12 2.5" stroke="#1F2023" stroke-width="1.5" stroke-dasharray="2 1.5"/>
<path d="M10.127 11.8466L9.26362 10.0876C8.62307 8.78273 9.22666 7.20854 10.5754 6.66639L11.4032 6.33365C11.7661 6.18778 12.1548 6.49715 12.1097 6.88567C11.9636 8.14592 11.8422 10.1025 12.0563 11.8466" stroke="#1F2023" stroke-width="1.5"/>
<path d="M13.6974 12.0458L14.6126 13.9131C15.2521 15.2179 14.6483 16.7911 13.3001 17.333L12.4708 17.6663C12.1079 17.8122 11.72 17.5027 11.7692 17.1147C11.9328 15.8273 12.1087 13.8065 12.0287 12.119" stroke="#1F2023" stroke-width="1.5"/>
<path d="M11.9374 13.6568L10.0727 14.5443C8.78055 15.1593 7.23681 14.5663 6.68881 13.2443L6.34491 12.4147C6.19464 12.0522 6.50236 11.6597 6.8923 11.7036C8.17187 11.8479 10.1629 11.9682 11.9374 11.757" stroke="#1F2023" stroke-width="1.5"/>
<path d="M12.0626 10.0793L13.9273 9.19177C15.2195 8.57675 16.7632 9.16981 17.3112 10.4918L17.6551 11.3214C17.8054 11.6839 17.4976 12.0764 17.1077 12.0325C15.8281 11.8882 13.8371 11.7679 12.0626 11.9791L11.8004 11.9791" stroke="#1F2023" stroke-width="1.5"/>
</svg>
