<svg width="24" height="24" viewBox="0 0 24 24" fill="none" xmlns="http://www.w3.org/2000/svg">
<path d="M12 21.5C17.2467 21.5 21.5 17.2467 21.5 12C21.5 6.75329 17.2467 2.5 12 2.5" stroke="#1F2023" stroke-width="1.5"/>
<path d="M12 21.5C6.75329 21.5 2.5 17.2467 2.5 12C2.5 6.75329 6.75329 2.5 12 2.5" stroke="#1F2023" stroke-width="1.5" stroke-dasharray="2 1.5"/>
<path d="M13.1996 6.1804C13.2046 6.12987 13.1398 6.10495 13.1096 6.14577L8.05892 12.9791C8.03453 13.0121 8.05809 13.0588 8.09913 13.0588H11.2144C11.2439 13.0588 11.2671 13.0843 11.2642 13.1137L10.8004 17.8196C10.7954 17.8701 10.8602 17.8951 10.8904 17.8542L15.9411 11.0209C15.9655 10.9879 15.9419 10.9412 15.9009 10.9412L12.7856 10.9412C12.7561 10.9412 12.7329 10.9157 12.7358 10.8863L13.1996 6.1804Z" stroke="#1F2023" stroke-width="1.5"/>
</svg>
