<svg width="24" height="24" viewBox="0 0 24 24" fill="none" xmlns="http://www.w3.org/2000/svg">
<path d="M10.4 7.5C10.4552 7.5 10.5 7.5449 10.5 7.60013C10.5 9.53891 10.5 11.3076 10.5 13.2464C10.5 13.3017 10.4551 13.3466 10.3998 13.3465L9.10807 13.3443L9.10804 21.4C9.10804 21.4552 9.06327 21.5 9.00804 21.5C8.00936 21.5 7.01068 21.5 6.01201 21.5C5.95678 21.5 5.91201 21.4552 5.91201 21.4V13.3467H4.60035C4.54512 13.3467 4.50036 13.3018 4.50035 13.2466C4.50003 11.3077 4.49973 9.53895 4.50041 7.6001C4.50043 7.54488 4.5452 7.5 4.60041 7.5H10.4Z" stroke="#1F2023" stroke-width="1.5"/>
<path d="M18.209 7.5C18.2576 7.5 18.2992 7.53497 18.3075 7.58287L19.4796 14.3231C19.4902 14.3843 19.4431 14.4403 19.381 14.4402L17.69 14.438L17.69 21.4C17.69 21.4552 17.6452 21.5 17.59 21.5C16.5405 21.5 15.4909 21.5 14.4414 21.5C14.3862 21.5 14.3414 21.4552 14.3414 21.4V14.4404H12.6189C12.5568 14.4404 12.5097 14.3844 12.5204 14.3232L13.6925 7.58287C13.7008 7.53497 13.7424 7.5 13.791 7.5H18.209Z" stroke="#1F2023" stroke-width="1.5"/>
<circle cx="7.5" cy="4" r="1.5" stroke="#1F2023" stroke-width="1.5"/>
<circle cx="16" cy="4" r="1.5" stroke="#1F2023" stroke-width="1.5"/>
</svg>
