<svg width="24" height="24" viewBox="0 0 24 24" fill="none" xmlns="http://www.w3.org/2000/svg">
<path d="M3.05974 20.8606L5.96981 14.0704C5.98762 14.0289 6.03111 14.0044 6.07587 14.0108L12.901 14.9859C12.9557 14.9937 13.0063 14.9557 13.0141 14.901L13.9953 8.033C13.9983 8.01158 14.0083 7.99173 14.0236 7.97643L17.9563 4.0437C17.9831 4.01692 18.0227 4.00757 18.0586 4.01954L20.9171 4.97237C20.9646 4.9882 20.9931 5.03668 20.9837 5.08584L17.9859 20.9186C17.977 20.9658 17.9357 21 17.8877 21H3.15165C3.07986 21 3.03146 20.9266 3.05974 20.8606Z" stroke="#1F2023" stroke-width="1.5"/>
<path d="M12.5 14.5L17.5 20.2726" stroke="#1F2023" stroke-width="1.5"/>
</svg>
