<svg width="24" height="24" viewBox="0 0 24 24" fill="none" xmlns="http://www.w3.org/2000/svg">
<path d="M3 20.5C3 20.5 11.2049 17.125 21 20.5" stroke="#1F2023" stroke-width="1.5" stroke-linejoin="round"/>
<path d="M14.25 5.75C14.25 6.99264 13.2426 8 12 8C10.7574 8 9.75 6.99264 9.75 5.75C9.75 4.50736 10.7574 3.5 12 3.5C13.2426 3.5 14.25 4.50736 14.25 5.75Z" stroke="#1F2023" stroke-width="1.5"/>
<path d="M6 20.0031L7.03107 11.752C7.15614 10.7511 8.00696 10 9.01563 10H15.3382M18 20L17.1751 12.7845" stroke="#1F2023" stroke-width="1.5"/>
<path d="M5.9539 19.6451L16.8188 8.4895C16.8577 8.44956 16.9218 8.44914 16.9612 8.48856L18.9411 10.4685C18.9798 10.5072 18.9802 10.5697 18.9421 10.6089L10.7264 19.0592" stroke="#1F2023" stroke-width="1.5"/>
</svg>
