<svg width="24" height="24" viewBox="0 0 24 24" fill="none" xmlns="http://www.w3.org/2000/svg">
<mask id="path-1-outside-1_6035_28259" maskUnits="userSpaceOnUse" x="3" y="17" width="18" height="6" fill="black">
<rect fill="white" x="3" y="17" width="18" height="6"/>
<path d="M5.51202 22C5.31803 22 5.14305 21.9755 4.98709 21.9266C4.83114 21.8776 4.6923 21.8136 4.57057 21.7345C4.44885 21.6516 4.34044 21.5574 4.24535 21.452C4.15025 21.3465 4.06847 21.2373 4 21.1243L4.53063 20.7232C4.58008 20.8136 4.63714 20.8983 4.70181 20.9774C4.76647 21.0527 4.83874 21.1205 4.91862 21.1808C4.9985 21.2373 5.08789 21.2825 5.18679 21.3164C5.2895 21.3503 5.40361 21.3672 5.52914 21.3672C5.72313 21.3672 5.87148 21.3164 5.97418 21.2147C6.08069 21.113 6.13395 20.9944 6.13395 20.8588C6.13395 20.7269 6.0902 20.6139 6.00271 20.5198C5.91523 20.4256 5.76307 20.3484 5.54625 20.2881L5.25526 20.209C5.11452 20.1714 4.98329 20.1224 4.86157 20.0621C4.74365 19.9981 4.64094 19.9209 4.55346 19.8305C4.46597 19.7401 4.3975 19.6347 4.34805 19.5141C4.2986 19.3898 4.27388 19.2486 4.27388 19.0904C4.27388 18.9397 4.3005 18.7985 4.35376 18.6667C4.41081 18.5348 4.4926 18.42 4.5991 18.322C4.70941 18.2203 4.84445 18.1412 5.00421 18.0847C5.16777 18.0282 5.35416 18 5.56337 18C5.82964 18 6.06548 18.0603 6.27088 18.1808C6.47629 18.2976 6.64556 18.4557 6.77869 18.6554L6.24235 19.0508C6.05977 18.7721 5.82584 18.6328 5.54055 18.6328C5.3884 18.6328 5.27238 18.6761 5.1925 18.7627C5.11262 18.8456 5.07268 18.9416 5.07268 19.0508C5.07268 19.1714 5.10501 19.2655 5.16968 19.3333C5.23814 19.3974 5.35606 19.452 5.52343 19.4972L5.81442 19.5763C5.96658 19.6177 6.11112 19.6723 6.24806 19.7401C6.385 19.8079 6.50292 19.8927 6.60182 19.9944C6.70452 20.0923 6.7844 20.209 6.84146 20.3446C6.90232 20.4802 6.93275 20.6347 6.93275 20.8079C6.93275 20.9812 6.89661 21.1412 6.82434 21.2881C6.75587 21.435 6.65887 21.5612 6.53335 21.6667C6.40782 21.7721 6.25757 21.855 6.08259 21.9153C5.90762 21.9718 5.71743 22 5.51202 22Z"/>
<path d="M8.67532 22C8.4623 22 8.26831 21.9642 8.09333 21.8927C7.91836 21.8211 7.7662 21.7194 7.63687 21.5876C7.51135 21.4557 7.41245 21.2976 7.34017 21.113C7.27171 20.9247 7.23747 20.7137 7.23747 20.4802C7.23747 20.2354 7.27551 20.0188 7.35159 19.8305C7.42766 19.6384 7.53037 19.4765 7.6597 19.3446C7.79283 19.2128 7.94308 19.113 8.11045 19.0452C8.28162 18.9774 8.4623 18.9435 8.65249 18.9435C8.84649 18.9435 9.02527 18.9793 9.18883 19.0508C9.3562 19.1224 9.49884 19.2222 9.61676 19.3503C9.73468 19.4746 9.82597 19.6252 9.89064 19.8023C9.95911 19.9755 9.99334 20.1657 9.99334 20.3729C9.99334 20.4181 9.99144 20.4689 9.98764 20.5254C9.98383 20.5819 9.97813 20.6309 9.97052 20.6723H7.97922C8.00965 20.887 8.08572 21.0621 8.20745 21.1977C8.32917 21.3296 8.50414 21.3955 8.73237 21.3955C8.90355 21.3955 9.04619 21.3597 9.1603 21.2881C9.27822 21.2166 9.37712 21.1168 9.457 20.9887L9.92487 21.3729C9.7575 21.5913 9.57302 21.7514 9.37142 21.8531C9.16981 21.951 8.93778 22 8.67532 22ZM8.65249 19.5254C8.47371 19.5254 8.32727 19.5782 8.21315 19.6836C8.10284 19.7891 8.02867 19.9492 7.99063 20.1638H9.26871C9.24589 19.9454 9.17932 19.7853 9.06901 19.6836C8.96251 19.5782 8.82367 19.5254 8.65249 19.5254Z"/>
<path d="M10.294 20.4689C10.294 20.2354 10.3263 20.0245 10.391 19.8362C10.4594 19.6478 10.5545 19.4878 10.6762 19.3559C10.8018 19.2203 10.952 19.1168 11.127 19.0452C11.3058 18.9736 11.5074 18.9379 11.7318 18.9379C11.8573 18.9379 11.9791 18.9548 12.097 18.9887C12.2149 19.0188 12.3252 19.0678 12.4279 19.1356C12.5344 19.1996 12.6276 19.2825 12.7075 19.3842C12.7912 19.4821 12.8577 19.5989 12.9072 19.7345L12.3366 20C12.2834 19.8682 12.2054 19.7608 12.1027 19.678C12 19.5951 11.8764 19.5537 11.7318 19.5537C11.6177 19.5537 11.5188 19.5763 11.4351 19.6215C11.3514 19.6667 11.2811 19.7307 11.224 19.8136C11.1669 19.8927 11.1251 19.9887 11.0985 20.1017C11.0718 20.2147 11.0585 20.3371 11.0585 20.4689C11.0585 20.6008 11.0718 20.7232 11.0985 20.8362C11.1251 20.9492 11.1669 21.0471 11.224 21.1299C11.2811 21.209 11.3514 21.2712 11.4351 21.3164C11.5188 21.3616 11.6177 21.3842 11.7318 21.3842C11.8764 21.3842 12 21.3427 12.1027 21.2599C12.2054 21.177 12.2834 21.0697 12.3366 20.9379L12.9072 21.2034C12.8577 21.339 12.7912 21.4576 12.7075 21.5593C12.6276 21.6573 12.5344 21.7401 12.4279 21.8079C12.3252 21.8719 12.2149 21.919 12.097 21.9492C11.9791 21.9831 11.8573 22 11.7318 22C11.5074 22 11.3058 21.9642 11.127 21.8927C10.952 21.8211 10.8018 21.7194 10.6762 21.5876C10.5545 21.452 10.4594 21.29 10.391 21.1017C10.3263 20.9134 10.294 20.7024 10.294 20.4689Z"/>
<path d="M13.3486 21.9209V19.0226H14.0676V19.4463C14.1436 19.2957 14.2501 19.1751 14.3871 19.0847C14.524 18.9906 14.6781 18.9435 14.8492 18.9435C14.8873 18.9435 14.9215 18.9454 14.9519 18.9492C14.9824 18.9492 15.0128 18.951 15.0432 18.9548V19.6554H14.8778C14.7104 19.6554 14.5563 19.6874 14.4156 19.7514C14.2787 19.8154 14.1741 19.936 14.1018 20.113V21.9209H13.3486Z"/>
<path d="M16.6798 22C16.4668 22 16.2728 21.9642 16.0979 21.8927C15.9229 21.8211 15.7707 21.7194 15.6414 21.5876C15.5159 21.4557 15.417 21.2976 15.3447 21.113C15.2762 20.9247 15.242 20.7137 15.242 20.4802C15.242 20.2354 15.28 20.0188 15.3561 19.8305C15.4322 19.6384 15.5349 19.4765 15.6642 19.3446C15.7974 19.2128 15.9476 19.113 16.115 19.0452C16.2861 18.9774 16.4668 18.9435 16.657 18.9435C16.851 18.9435 17.0298 18.9793 17.1934 19.0508C17.3607 19.1224 17.5034 19.2222 17.6213 19.3503C17.7392 19.4746 17.8305 19.6252 17.8952 19.8023C17.9636 19.9755 17.9979 20.1657 17.9979 20.3729C17.9979 20.4181 17.996 20.4689 17.9922 20.5254C17.9884 20.5819 17.9827 20.6309 17.975 20.6723H15.9837C16.0142 20.887 16.0902 21.0621 16.212 21.1977C16.3337 21.3296 16.5087 21.3955 16.7369 21.3955C16.9081 21.3955 17.0507 21.3597 17.1648 21.2881C17.2827 21.2166 17.3816 21.1168 17.4615 20.9887L17.9294 21.3729C17.762 21.5913 17.5775 21.7514 17.3759 21.8531C17.1743 21.951 16.9423 22 16.6798 22ZM16.657 19.5254C16.4782 19.5254 16.3318 19.5782 16.2177 19.6836C16.1074 19.7891 16.0332 19.9492 15.9952 20.1638H17.2732C17.2504 19.9454 17.1838 19.7853 17.0735 19.6836C16.967 19.5782 16.8282 19.5254 16.657 19.5254Z"/>
<path d="M19.5835 21.9548C19.2602 21.9548 19.0167 21.8719 18.8531 21.7062C18.6896 21.5367 18.6078 21.2674 18.6078 20.8983V19.5763H18.1285V19.0226H18.6306V18.2825H19.361V19.0226H20V19.5763H19.361V20.8757C19.361 21.0452 19.3952 21.1657 19.4637 21.2373C19.5359 21.3051 19.6539 21.339 19.8174 21.339H20V21.9209C19.9391 21.9284 19.8707 21.936 19.7946 21.9435C19.7223 21.951 19.6519 21.9548 19.5835 21.9548Z"/>
</mask>
<path d="M5.51202 22C5.31803 22 5.14305 21.9755 4.98709 21.9266C4.83114 21.8776 4.6923 21.8136 4.57057 21.7345C4.44885 21.6516 4.34044 21.5574 4.24535 21.452C4.15025 21.3465 4.06847 21.2373 4 21.1243L4.53063 20.7232C4.58008 20.8136 4.63714 20.8983 4.70181 20.9774C4.76647 21.0527 4.83874 21.1205 4.91862 21.1808C4.9985 21.2373 5.08789 21.2825 5.18679 21.3164C5.2895 21.3503 5.40361 21.3672 5.52914 21.3672C5.72313 21.3672 5.87148 21.3164 5.97418 21.2147C6.08069 21.113 6.13395 20.9944 6.13395 20.8588C6.13395 20.7269 6.0902 20.6139 6.00271 20.5198C5.91523 20.4256 5.76307 20.3484 5.54625 20.2881L5.25526 20.209C5.11452 20.1714 4.98329 20.1224 4.86157 20.0621C4.74365 19.9981 4.64094 19.9209 4.55346 19.8305C4.46597 19.7401 4.3975 19.6347 4.34805 19.5141C4.2986 19.3898 4.27388 19.2486 4.27388 19.0904C4.27388 18.9397 4.3005 18.7985 4.35376 18.6667C4.41081 18.5348 4.4926 18.42 4.5991 18.322C4.70941 18.2203 4.84445 18.1412 5.00421 18.0847C5.16777 18.0282 5.35416 18 5.56337 18C5.82964 18 6.06548 18.0603 6.27088 18.1808C6.47629 18.2976 6.64556 18.4557 6.77869 18.6554L6.24235 19.0508C6.05977 18.7721 5.82584 18.6328 5.54055 18.6328C5.3884 18.6328 5.27238 18.6761 5.1925 18.7627C5.11262 18.8456 5.07268 18.9416 5.07268 19.0508C5.07268 19.1714 5.10501 19.2655 5.16968 19.3333C5.23814 19.3974 5.35606 19.452 5.52343 19.4972L5.81442 19.5763C5.96658 19.6177 6.11112 19.6723 6.24806 19.7401C6.385 19.8079 6.50292 19.8927 6.60182 19.9944C6.70452 20.0923 6.7844 20.209 6.84146 20.3446C6.90232 20.4802 6.93275 20.6347 6.93275 20.8079C6.93275 20.9812 6.89661 21.1412 6.82434 21.2881C6.75587 21.435 6.65887 21.5612 6.53335 21.6667C6.40782 21.7721 6.25757 21.855 6.08259 21.9153C5.90762 21.9718 5.71743 22 5.51202 22Z" fill="#1F2023"/>
<path d="M8.67532 22C8.4623 22 8.26831 21.9642 8.09333 21.8927C7.91836 21.8211 7.7662 21.7194 7.63687 21.5876C7.51135 21.4557 7.41245 21.2976 7.34017 21.113C7.27171 20.9247 7.23747 20.7137 7.23747 20.4802C7.23747 20.2354 7.27551 20.0188 7.35159 19.8305C7.42766 19.6384 7.53037 19.4765 7.6597 19.3446C7.79283 19.2128 7.94308 19.113 8.11045 19.0452C8.28162 18.9774 8.4623 18.9435 8.65249 18.9435C8.84649 18.9435 9.02527 18.9793 9.18883 19.0508C9.3562 19.1224 9.49884 19.2222 9.61676 19.3503C9.73468 19.4746 9.82597 19.6252 9.89064 19.8023C9.95911 19.9755 9.99334 20.1657 9.99334 20.3729C9.99334 20.4181 9.99144 20.4689 9.98764 20.5254C9.98383 20.5819 9.97813 20.6309 9.97052 20.6723H7.97922C8.00965 20.887 8.08572 21.0621 8.20745 21.1977C8.32917 21.3296 8.50414 21.3955 8.73237 21.3955C8.90355 21.3955 9.04619 21.3597 9.1603 21.2881C9.27822 21.2166 9.37712 21.1168 9.457 20.9887L9.92487 21.3729C9.7575 21.5913 9.57302 21.7514 9.37142 21.8531C9.16981 21.951 8.93778 22 8.67532 22ZM8.65249 19.5254C8.47371 19.5254 8.32727 19.5782 8.21315 19.6836C8.10284 19.7891 8.02867 19.9492 7.99063 20.1638H9.26871C9.24589 19.9454 9.17932 19.7853 9.06901 19.6836C8.96251 19.5782 8.82367 19.5254 8.65249 19.5254Z" fill="#1F2023"/>
<path d="M10.294 20.4689C10.294 20.2354 10.3263 20.0245 10.391 19.8362C10.4594 19.6478 10.5545 19.4878 10.6762 19.3559C10.8018 19.2203 10.952 19.1168 11.127 19.0452C11.3058 18.9736 11.5074 18.9379 11.7318 18.9379C11.8573 18.9379 11.9791 18.9548 12.097 18.9887C12.2149 19.0188 12.3252 19.0678 12.4279 19.1356C12.5344 19.1996 12.6276 19.2825 12.7075 19.3842C12.7912 19.4821 12.8577 19.5989 12.9072 19.7345L12.3366 20C12.2834 19.8682 12.2054 19.7608 12.1027 19.678C12 19.5951 11.8764 19.5537 11.7318 19.5537C11.6177 19.5537 11.5188 19.5763 11.4351 19.6215C11.3514 19.6667 11.2811 19.7307 11.224 19.8136C11.1669 19.8927 11.1251 19.9887 11.0985 20.1017C11.0718 20.2147 11.0585 20.3371 11.0585 20.4689C11.0585 20.6008 11.0718 20.7232 11.0985 20.8362C11.1251 20.9492 11.1669 21.0471 11.224 21.1299C11.2811 21.209 11.3514 21.2712 11.4351 21.3164C11.5188 21.3616 11.6177 21.3842 11.7318 21.3842C11.8764 21.3842 12 21.3427 12.1027 21.2599C12.2054 21.177 12.2834 21.0697 12.3366 20.9379L12.9072 21.2034C12.8577 21.339 12.7912 21.4576 12.7075 21.5593C12.6276 21.6573 12.5344 21.7401 12.4279 21.8079C12.3252 21.8719 12.2149 21.919 12.097 21.9492C11.9791 21.9831 11.8573 22 11.7318 22C11.5074 22 11.3058 21.9642 11.127 21.8927C10.952 21.8211 10.8018 21.7194 10.6762 21.5876C10.5545 21.452 10.4594 21.29 10.391 21.1017C10.3263 20.9134 10.294 20.7024 10.294 20.4689Z" fill="#1F2023"/>
<path d="M13.3486 21.9209V19.0226H14.0676V19.4463C14.1436 19.2957 14.2501 19.1751 14.3871 19.0847C14.524 18.9906 14.6781 18.9435 14.8492 18.9435C14.8873 18.9435 14.9215 18.9454 14.9519 18.9492C14.9824 18.9492 15.0128 18.951 15.0432 18.9548V19.6554H14.8778C14.7104 19.6554 14.5563 19.6874 14.4156 19.7514C14.2787 19.8154 14.1741 19.936 14.1018 20.113V21.9209H13.3486Z" fill="#1F2023"/>
<path d="M16.6798 22C16.4668 22 16.2728 21.9642 16.0979 21.8927C15.9229 21.8211 15.7707 21.7194 15.6414 21.5876C15.5159 21.4557 15.417 21.2976 15.3447 21.113C15.2762 20.9247 15.242 20.7137 15.242 20.4802C15.242 20.2354 15.28 20.0188 15.3561 19.8305C15.4322 19.6384 15.5349 19.4765 15.6642 19.3446C15.7974 19.2128 15.9476 19.113 16.115 19.0452C16.2861 18.9774 16.4668 18.9435 16.657 18.9435C16.851 18.9435 17.0298 18.9793 17.1934 19.0508C17.3607 19.1224 17.5034 19.2222 17.6213 19.3503C17.7392 19.4746 17.8305 19.6252 17.8952 19.8023C17.9636 19.9755 17.9979 20.1657 17.9979 20.3729C17.9979 20.4181 17.996 20.4689 17.9922 20.5254C17.9884 20.5819 17.9827 20.6309 17.975 20.6723H15.9837C16.0142 20.887 16.0902 21.0621 16.212 21.1977C16.3337 21.3296 16.5087 21.3955 16.7369 21.3955C16.9081 21.3955 17.0507 21.3597 17.1648 21.2881C17.2827 21.2166 17.3816 21.1168 17.4615 20.9887L17.9294 21.3729C17.762 21.5913 17.5775 21.7514 17.3759 21.8531C17.1743 21.951 16.9423 22 16.6798 22ZM16.657 19.5254C16.4782 19.5254 16.3318 19.5782 16.2177 19.6836C16.1074 19.7891 16.0332 19.9492 15.9952 20.1638H17.2732C17.2504 19.9454 17.1838 19.7853 17.0735 19.6836C16.967 19.5782 16.8282 19.5254 16.657 19.5254Z" fill="#1F2023"/>
<path d="M19.5835 21.9548C19.2602 21.9548 19.0167 21.8719 18.8531 21.7062C18.6896 21.5367 18.6078 21.2674 18.6078 20.8983V19.5763H18.1285V19.0226H18.6306V18.2825H19.361V19.0226H20V19.5763H19.361V20.8757C19.361 21.0452 19.3952 21.1657 19.4637 21.2373C19.5359 21.3051 19.6539 21.339 19.8174 21.339H20V21.9209C19.9391 21.9284 19.8707 21.936 19.7946 21.9435C19.7223 21.951 19.6519 21.9548 19.5835 21.9548Z" fill="#1F2023"/>
<path d="M5.51202 22C5.31803 22 5.14305 21.9755 4.98709 21.9266C4.83114 21.8776 4.6923 21.8136 4.57057 21.7345C4.44885 21.6516 4.34044 21.5574 4.24535 21.452C4.15025 21.3465 4.06847 21.2373 4 21.1243L4.53063 20.7232C4.58008 20.8136 4.63714 20.8983 4.70181 20.9774C4.76647 21.0527 4.83874 21.1205 4.91862 21.1808C4.9985 21.2373 5.08789 21.2825 5.18679 21.3164C5.2895 21.3503 5.40361 21.3672 5.52914 21.3672C5.72313 21.3672 5.87148 21.3164 5.97418 21.2147C6.08069 21.113 6.13395 20.9944 6.13395 20.8588C6.13395 20.7269 6.0902 20.6139 6.00271 20.5198C5.91523 20.4256 5.76307 20.3484 5.54625 20.2881L5.25526 20.209C5.11452 20.1714 4.98329 20.1224 4.86157 20.0621C4.74365 19.9981 4.64094 19.9209 4.55346 19.8305C4.46597 19.7401 4.3975 19.6347 4.34805 19.5141C4.2986 19.3898 4.27388 19.2486 4.27388 19.0904C4.27388 18.9397 4.3005 18.7985 4.35376 18.6667C4.41081 18.5348 4.4926 18.42 4.5991 18.322C4.70941 18.2203 4.84445 18.1412 5.00421 18.0847C5.16777 18.0282 5.35416 18 5.56337 18C5.82964 18 6.06548 18.0603 6.27088 18.1808C6.47629 18.2976 6.64556 18.4557 6.77869 18.6554L6.24235 19.0508C6.05977 18.7721 5.82584 18.6328 5.54055 18.6328C5.3884 18.6328 5.27238 18.6761 5.1925 18.7627C5.11262 18.8456 5.07268 18.9416 5.07268 19.0508C5.07268 19.1714 5.10501 19.2655 5.16968 19.3333C5.23814 19.3974 5.35606 19.452 5.52343 19.4972L5.81442 19.5763C5.96658 19.6177 6.11112 19.6723 6.24806 19.7401C6.385 19.8079 6.50292 19.8927 6.60182 19.9944C6.70452 20.0923 6.7844 20.209 6.84146 20.3446C6.90232 20.4802 6.93275 20.6347 6.93275 20.8079C6.93275 20.9812 6.89661 21.1412 6.82434 21.2881C6.75587 21.435 6.65887 21.5612 6.53335 21.6667C6.40782 21.7721 6.25757 21.855 6.08259 21.9153C5.90762 21.9718 5.71743 22 5.51202 22Z" stroke="#1F2023" stroke-width="0.2" mask="url(#path-1-outside-1_6035_28259)"/>
<path d="M8.67532 22C8.4623 22 8.26831 21.9642 8.09333 21.8927C7.91836 21.8211 7.7662 21.7194 7.63687 21.5876C7.51135 21.4557 7.41245 21.2976 7.34017 21.113C7.27171 20.9247 7.23747 20.7137 7.23747 20.4802C7.23747 20.2354 7.27551 20.0188 7.35159 19.8305C7.42766 19.6384 7.53037 19.4765 7.6597 19.3446C7.79283 19.2128 7.94308 19.113 8.11045 19.0452C8.28162 18.9774 8.4623 18.9435 8.65249 18.9435C8.84649 18.9435 9.02527 18.9793 9.18883 19.0508C9.3562 19.1224 9.49884 19.2222 9.61676 19.3503C9.73468 19.4746 9.82597 19.6252 9.89064 19.8023C9.95911 19.9755 9.99334 20.1657 9.99334 20.3729C9.99334 20.4181 9.99144 20.4689 9.98764 20.5254C9.98383 20.5819 9.97813 20.6309 9.97052 20.6723H7.97922C8.00965 20.887 8.08572 21.0621 8.20745 21.1977C8.32917 21.3296 8.50414 21.3955 8.73237 21.3955C8.90355 21.3955 9.04619 21.3597 9.1603 21.2881C9.27822 21.2166 9.37712 21.1168 9.457 20.9887L9.92487 21.3729C9.7575 21.5913 9.57302 21.7514 9.37142 21.8531C9.16981 21.951 8.93778 22 8.67532 22ZM8.65249 19.5254C8.47371 19.5254 8.32727 19.5782 8.21315 19.6836C8.10284 19.7891 8.02867 19.9492 7.99063 20.1638H9.26871C9.24589 19.9454 9.17932 19.7853 9.06901 19.6836C8.96251 19.5782 8.82367 19.5254 8.65249 19.5254Z" stroke="#1F2023" stroke-width="0.2" mask="url(#path-1-outside-1_6035_28259)"/>
<path d="M10.294 20.4689C10.294 20.2354 10.3263 20.0245 10.391 19.8362C10.4594 19.6478 10.5545 19.4878 10.6762 19.3559C10.8018 19.2203 10.952 19.1168 11.127 19.0452C11.3058 18.9736 11.5074 18.9379 11.7318 18.9379C11.8573 18.9379 11.9791 18.9548 12.097 18.9887C12.2149 19.0188 12.3252 19.0678 12.4279 19.1356C12.5344 19.1996 12.6276 19.2825 12.7075 19.3842C12.7912 19.4821 12.8577 19.5989 12.9072 19.7345L12.3366 20C12.2834 19.8682 12.2054 19.7608 12.1027 19.678C12 19.5951 11.8764 19.5537 11.7318 19.5537C11.6177 19.5537 11.5188 19.5763 11.4351 19.6215C11.3514 19.6667 11.2811 19.7307 11.224 19.8136C11.1669 19.8927 11.1251 19.9887 11.0985 20.1017C11.0718 20.2147 11.0585 20.3371 11.0585 20.4689C11.0585 20.6008 11.0718 20.7232 11.0985 20.8362C11.1251 20.9492 11.1669 21.0471 11.224 21.1299C11.2811 21.209 11.3514 21.2712 11.4351 21.3164C11.5188 21.3616 11.6177 21.3842 11.7318 21.3842C11.8764 21.3842 12 21.3427 12.1027 21.2599C12.2054 21.177 12.2834 21.0697 12.3366 20.9379L12.9072 21.2034C12.8577 21.339 12.7912 21.4576 12.7075 21.5593C12.6276 21.6573 12.5344 21.7401 12.4279 21.8079C12.3252 21.8719 12.2149 21.919 12.097 21.9492C11.9791 21.9831 11.8573 22 11.7318 22C11.5074 22 11.3058 21.9642 11.127 21.8927C10.952 21.8211 10.8018 21.7194 10.6762 21.5876C10.5545 21.452 10.4594 21.29 10.391 21.1017C10.3263 20.9134 10.294 20.7024 10.294 20.4689Z" stroke="#1F2023" stroke-width="0.2" mask="url(#path-1-outside-1_6035_28259)"/>
<path d="M13.3486 21.9209V19.0226H14.0676V19.4463C14.1436 19.2957 14.2501 19.1751 14.3871 19.0847C14.524 18.9906 14.6781 18.9435 14.8492 18.9435C14.8873 18.9435 14.9215 18.9454 14.9519 18.9492C14.9824 18.9492 15.0128 18.951 15.0432 18.9548V19.6554H14.8778C14.7104 19.6554 14.5563 19.6874 14.4156 19.7514C14.2787 19.8154 14.1741 19.936 14.1018 20.113V21.9209H13.3486Z" stroke="#1F2023" stroke-width="0.2" mask="url(#path-1-outside-1_6035_28259)"/>
<path d="M16.6798 22C16.4668 22 16.2728 21.9642 16.0979 21.8927C15.9229 21.8211 15.7707 21.7194 15.6414 21.5876C15.5159 21.4557 15.417 21.2976 15.3447 21.113C15.2762 20.9247 15.242 20.7137 15.242 20.4802C15.242 20.2354 15.28 20.0188 15.3561 19.8305C15.4322 19.6384 15.5349 19.4765 15.6642 19.3446C15.7974 19.2128 15.9476 19.113 16.115 19.0452C16.2861 18.9774 16.4668 18.9435 16.657 18.9435C16.851 18.9435 17.0298 18.9793 17.1934 19.0508C17.3607 19.1224 17.5034 19.2222 17.6213 19.3503C17.7392 19.4746 17.8305 19.6252 17.8952 19.8023C17.9636 19.9755 17.9979 20.1657 17.9979 20.3729C17.9979 20.4181 17.996 20.4689 17.9922 20.5254C17.9884 20.5819 17.9827 20.6309 17.975 20.6723H15.9837C16.0142 20.887 16.0902 21.0621 16.212 21.1977C16.3337 21.3296 16.5087 21.3955 16.7369 21.3955C16.9081 21.3955 17.0507 21.3597 17.1648 21.2881C17.2827 21.2166 17.3816 21.1168 17.4615 20.9887L17.9294 21.3729C17.762 21.5913 17.5775 21.7514 17.3759 21.8531C17.1743 21.951 16.9423 22 16.6798 22ZM16.657 19.5254C16.4782 19.5254 16.3318 19.5782 16.2177 19.6836C16.1074 19.7891 16.0332 19.9492 15.9952 20.1638H17.2732C17.2504 19.9454 17.1838 19.7853 17.0735 19.6836C16.967 19.5782 16.8282 19.5254 16.657 19.5254Z" stroke="#1F2023" stroke-width="0.2" mask="url(#path-1-outside-1_6035_28259)"/>
<path d="M19.5835 21.9548C19.2602 21.9548 19.0167 21.8719 18.8531 21.7062C18.6896 21.5367 18.6078 21.2674 18.6078 20.8983V19.5763H18.1285V19.0226H18.6306V18.2825H19.361V19.0226H20V19.5763H19.361V20.8757C19.361 21.0452 19.3952 21.1657 19.4637 21.2373C19.5359 21.3051 19.6539 21.339 19.8174 21.339H20V21.9209C19.9391 21.9284 19.8707 21.936 19.7946 21.9435C19.7223 21.951 19.6519 21.9548 19.5835 21.9548Z" stroke="#1F2023" stroke-width="0.2" mask="url(#path-1-outside-1_6035_28259)"/>
<path d="M6 7.1C6 7.04477 6.04477 7 6.1 7H17.9C17.9552 7 18 7.04477 18 7.1V15.9C18 15.9552 17.9552 16 17.9 16H6.1C6.04477 16 6 15.9552 6 15.9V7.1Z" stroke="#1F2023" stroke-width="1.5"/>
<path d="M12 10V13" stroke="#1F2023" stroke-width="1.5" stroke-linecap="square"/>
<path d="M12 7V5.74236C12 4.18304 12.7 2 15.5 2C16.7708 2 17.609 2.44969 18.1456 3.08665" stroke="#1F2023" stroke-width="1.5"/>
</svg>
