<svg width="24" height="24" viewBox="0 0 24 24" fill="none" xmlns="http://www.w3.org/2000/svg">
<g clip-path="url(#clip0_6035_7198)">
<path d="M6.12695 16.6553H18.3176" stroke="#1F2023" stroke-width="1.5" stroke-miterlimit="10" stroke-linecap="square"/>
<path d="M1 13H6" stroke="#1F2023" stroke-width="1.5" stroke-miterlimit="10" stroke-linecap="square"/>
<path d="M4.8999 8.5L2.23044 14.9118C2.07832 15.2772 2 15.6691 2 16.0649V21.9C2 21.9552 2.04477 22 2.1 22H5.9C5.95523 22 6 21.9552 6 21.9V20.0593C6 20.0041 6.04477 19.9593 6.1 19.9593H17.9C17.9552 19.9593 18 20.0041 18 20.0593V21.9C18 21.9552 18.0448 22 18.1 22H21.9C21.9552 22 22 21.9552 22 21.9V16.787" stroke="#1F2023" stroke-width="1.5" stroke-linecap="square"/>
<path d="M17.3128 7.73364C18.0714 6.06967 17.7608 4.03283 16.3841 2.6562C15.0254 1.29744 13.0234 0.977163 11.3716 1.69856C11.3083 1.72622 11.294 1.8087 11.3428 1.85756L13.5881 4.10284C13.6066 4.12136 13.6172 4.14639 13.6174 4.17257L13.6371 6.17218C13.6377 6.22818 13.5921 6.27371 13.5361 6.27316L11.5365 6.25345C11.5104 6.25319 11.4853 6.24268 11.4668 6.22416L9.22152 3.97888C9.17266 3.93002 9.09018 3.94435 9.06252 4.00767C8.34112 5.65943 8.6614 7.6614 10.0202 9.02017C11.3968 10.3968 13.4336 10.7074 15.0976 9.94883C15.1361 9.93128 15.1816 9.93899 15.2115 9.96891L18.3137 13.0711L20.435 10.9497L17.3329 7.84759C17.303 7.81767 17.2952 7.77214 17.3128 7.73364Z" stroke="#1F2023" stroke-width="1.5"/>
</g>
<defs>
<clipPath id="clip0_6035_7198">
<rect width="24" height="24" fill="white"/>
</clipPath>
</defs>
</svg>
