<svg width="24" height="24" viewBox="0 0 24 24" fill="none" xmlns="http://www.w3.org/2000/svg">
<path d="M7.10928 14.5394L11.9402 12.2212M7.10928 16.4606L11.8727 18.9099M16 11.1667C16 12.3633 15.0299 13.3333 13.8333 13.3333C12.6367 13.3333 11.6667 12.3633 11.6667 11.1667C11.6667 9.97005 12.6367 9 13.8333 9C15.0299 9 16 9.97005 16 11.1667ZM7.33333 15.5C7.33333 16.6966 6.36328 17.6667 5.16667 17.6667C3.97005 17.6667 3 16.6966 3 15.5C3 14.3034 3.97005 13.3333 5.16667 13.3333C6.36328 13.3333 7.33333 14.3034 7.33333 15.5ZM16 19.8333C16 21.0299 15.0299 22 13.8333 22C12.6367 22 11.6667 21.0299 11.6667 19.8333C11.6667 18.6367 12.6367 17.6667 13.8333 17.6667C15.0299 17.6667 16 18.6367 16 19.8333Z" stroke="#1F2023" stroke-width="1.5" stroke-linejoin="round"/>
<path d="M6 10.1034V3.1C6 3.04477 6.04477 3 6.1 3H17.9586C17.9851 3 18.0105 3.01054 18.0293 3.02929L20.9707 5.97071C20.9895 5.98946 21 6.0149 21 6.04142V19.9C21 19.9552 20.9552 20 20.9 20H19" stroke="#1F2023" stroke-width="1.5" stroke-linecap="square"/>
</svg>
