<svg width="24" height="24" viewBox="0 0 24 24" fill="none" xmlns="http://www.w3.org/2000/svg">
<path d="M14.625 17.7188C14.625 16.0619 15.9681 14.7188 17.625 14.7188C19.2819 14.7188 20.625 16.0619 20.625 17.7188C20.625 19.3756 19.2819 20.7188 17.625 20.7188C15.9681 20.7188 14.625 19.3756 14.625 17.7188Z" stroke="#1F2023" stroke-width="1.5" stroke-linecap="square"/>
<path d="M14.625 6.28125C14.625 4.6244 15.9681 3.28125 17.625 3.28125C19.2819 3.28125 20.625 4.6244 20.625 6.28125C20.625 7.9381 19.2819 9.28125 17.625 9.28125C15.9681 9.28125 14.625 7.9381 14.625 6.28125Z" stroke="#1F2023" stroke-width="1.5" stroke-linecap="square"/>
<path d="M3.375 12.0938C3.375 10.4369 4.71815 9.09375 6.375 9.09375C8.03185 9.09375 9.375 10.4369 9.375 12.0938C9.375 13.7506 8.03185 15.0938 6.375 15.0938C4.71815 15.0938 3.375 13.7506 3.375 12.0938Z" stroke="#1F2023" stroke-width="1.5" stroke-linecap="square"/>
<path d="M9.18213 13.4946L14.9318 16.3841" stroke="#1F2023" stroke-width="1.5"/>
<path d="M14.8177 7.86523L9.18213 10.6965" stroke="#1F2023" stroke-width="1.5"/>
</svg>
