<svg width="24" height="24" viewBox="0 0 24 24" fill="none" xmlns="http://www.w3.org/2000/svg">
<path d="M8.02571 7C7.85904 5.33333 8.42571 2 12.0257 2C15.6257 2 16.1925 5.33333 16.0259 7" stroke="#1F2023" stroke-width="1.5" stroke-linecap="round"/>
<path d="M4.99378 7.09335C4.99728 7.04082 5.04091 7 5.09356 7H18.9064C18.9591 7 19.0027 7.04082 19.0062 7.09335L19.9929 21.8933C19.9967 21.9511 19.951 22 19.8931 22H4.10689C4.04904 22 4.00326 21.9511 4.00711 21.8933L4.99378 7.09335Z" stroke="#1F2023" stroke-width="1.5"/>
<path d="M15.5 10.0303C15.5 11.9633 13.933 13.5303 12 13.5303C10.067 13.5303 8.5 11.9633 8.5 10.0303" stroke="#1F2023" stroke-width="1.5"/>
</svg>
