<svg width="24" height="24" viewBox="0 0 24 24" fill="none" xmlns="http://www.w3.org/2000/svg">
<path d="M14.1176 11.2358C16.3918 11.2358 18.2353 9.39225 18.2353 7.11813C18.2353 4.84402 16.3918 3.00049 14.1176 3.00049C11.8435 3.00049 10 4.84402 10 7.11813C10 9.39225 11.8435 11.2358 14.1176 11.2358Z" stroke="#1F2023" stroke-width="1.5" stroke-miterlimit="10"/>
<path d="M17.0586 10.0586L19.9998 12.9998" stroke="#1F2023" stroke-width="1.5" stroke-miterlimit="10" stroke-linecap="square"/>
<path d="M6.12012 16.6553H18.3108" stroke="#1F2023" stroke-width="1.5" stroke-miterlimit="10" stroke-linecap="square"/>
<path d="M1 13H6" stroke="#1F2023" stroke-width="1.5" stroke-miterlimit="10" stroke-linecap="square"/>
<path d="M4.8999 8.5L2.23044 14.9118C2.07832 15.2772 2 15.6691 2 16.0649V21.9C2 21.9552 2.04477 22 2.1 22H5.9C5.95523 22 6 21.9552 6 21.9V20.0593C6 20.0041 6.04477 19.9593 6.1 19.9593H17.9C17.9552 19.9593 18 20.0041 18 20.0593V21.9C18 21.9552 18.0448 22 18.1 22H21.9C21.9552 22 22 21.9552 22 21.9V16.787" stroke="#1F2023" stroke-width="1.5" stroke-linecap="square"/>
</svg>
