<svg width="24" height="24" viewBox="0 0 24 24" fill="none" xmlns="http://www.w3.org/2000/svg">
<path d="M18.5 15.5L21.9496 17.4712C21.9808 17.489 22 17.5221 22 17.558V19.4C22 19.4552 21.9552 19.5 21.9 19.5H17" stroke="#1F2023" stroke-width="1.5"/>
<path d="M4.56328 18.0928L2.426 11.206C2.17145 10.3858 2.46472 9.48937 3.17983 9.01383C5.64354 7.37548 10.2189 4.79768 15.5745 4.52378C16.1606 4.4938 16.719 4.75777 17.099 5.20501L20.2495 8.91302C20.7137 9.45932 20.85 10.2123 20.6067 10.8866L17.5238 19.4339C17.5095 19.4736 17.4719 19.5 17.4298 19.5H6.47341C5.59719 19.5 4.82299 18.9296 4.56328 18.0928Z" stroke="#1F2023" stroke-width="1.5"/>
</svg>
