<svg width="24" height="24" viewBox="0 0 24 24" fill="none" xmlns="http://www.w3.org/2000/svg">
<path d="M15.7669 18.7337L14.3211 16.2363C14.1651 15.9669 14.4669 15.6651 14.7364 15.821L17.2337 17.2669C17.5652 17.4588 17.7693 17.8128 17.7693 18.1958C17.7693 18.7887 17.2887 19.2692 16.6959 19.2692C16.3129 19.2692 15.9588 19.0651 15.7669 18.7337Z" fill="#1F2023"/>
<path d="M16.5 12.5C13.4624 12.5 11 14.9873 11 18.0556C11 19.4448 11.5339 21.1342 12.3739 22.1883C12.54 22.3969 12.8 22.5 13.0666 22.5H20.0044C20.271 22.5 20.5313 22.3971 20.696 22.1874C21.5245 21.1332 22 19.4444 22 18.0556C22 14.9873 19.5376 12.5 16.5 12.5Z" stroke="#1F2023" stroke-width="1.5" stroke-linecap="square"/>
<path d="M1.20607 23C1.12257 23 1.07584 22.9037 1.12751 22.8381L2.87472 20.62C2.89368 20.596 2.92264 20.5819 2.95328 20.5819H8.74453C8.78681 20.5819 8.82452 20.6086 8.83892 20.6484C9.17037 21.5634 9.55764 22.3344 9.88982 22.8394C9.93459 22.9075 9.88655 23 9.8051 23H1.20607Z" fill="#1F2023"/>
<path d="M8.48745 19.5352C8.50471 19.5991 8.45678 19.6623 8.39055 19.6623H3.83519C3.75169 19.6623 3.70497 19.566 3.75664 19.5004L4.76303 18.2228C4.78199 18.1988 4.81094 18.1847 4.84159 18.1847H8.1133C8.16259 18.1847 8.20449 18.2206 8.21243 18.2693C8.28297 18.7018 8.37711 19.1265 8.48745 19.5352Z" fill="#1F2023"/>
<path d="M8.08844 17.1583C8.09176 17.2161 8.046 17.2651 7.98809 17.2651H5.7235C5.64 17.2651 5.59328 17.1688 5.64495 17.1032L6.48395 16.0381C6.50291 16.014 6.53186 16 6.5625 16H7.98829C8.0465 16 8.09235 16.0495 8.08875 16.1076C8.06713 16.4557 8.06828 16.8073 8.08844 17.1583Z" fill="#1F2023"/>
<path d="M5.42871 8.89117H14.5716" stroke="#1F2023" stroke-width="1.5" stroke-miterlimit="10" stroke-linecap="square"/>
<path d="M17.619 8.83429L15.3561 2.06828C15.3424 2.0275 15.3042 2 15.2612 2H9.99991H4.73856C4.69556 2 4.65738 2.02749 4.64373 2.06827L2.53591 8.36736C2.43322 8.67425 2.38086 8.99573 2.38086 9.31935V13.7095C2.38086 13.7648 2.42563 13.8095 2.48086 13.8095H5.32848C5.38371 13.8095 5.42848 13.7648 5.42848 13.7095V12.3547C5.42848 12.2995 5.47325 12.2547 5.52848 12.2547H9.99991" stroke="#1F2023" stroke-width="1.5" stroke-linecap="square"/>
<path d="M2 6.19049H18" stroke="#1F2023" stroke-width="1.5" stroke-miterlimit="10" stroke-linecap="square"/>
</svg>
