<svg width="24" height="24" viewBox="0 0 24 24" fill="none" xmlns="http://www.w3.org/2000/svg">
<path d="M12 1V3" stroke="#1F2023" stroke-width="1.5"/>
<path d="M7.5 14.6602H16.5" stroke="#1F2023" stroke-width="1.5"/>
<path d="M7.5 17.1602H16.5" stroke="#1F2023" stroke-width="1.5"/>
<path d="M7.5 8.92031C7.5 8.86508 7.54477 8.82031 7.6 8.82031H16.4C16.4552 8.82031 16.5 8.86508 16.5 8.92031V11.7203C16.5 11.7755 16.4552 11.8203 16.4 11.8203H7.6C7.54477 11.8203 7.5 11.7755 7.5 11.7203V8.92031Z" stroke="#1F2023" stroke-width="1.5"/>
<path d="M14 22.5H11.1C11.0448 22.5 11 22.4552 11 22.4V20.8333V20" stroke="#1F2023" stroke-width="1.5"/>
<path d="M10 12V19.9C10 19.9552 10.0448 20 10.1 20H13.9C13.9552 20 14 19.9552 14 19.9V12" stroke="#1F2023" stroke-width="1.5"/>
<path d="M14 8.20508V3.30508C14 3.24985 13.9552 3.20508 13.9 3.20508H10.1C10.0448 3.20508 10 3.24985 10 3.30508V8.20508" stroke="#1F2023" stroke-width="1.5"/>
</svg>
