<svg width="24" height="24" viewBox="0 0 24 24" fill="none" xmlns="http://www.w3.org/2000/svg">
<path d="M6.95576 8.5L3.1 8.5C3.04477 8.5 3 8.54477 3 8.6L3 15.4C3 15.4552 3.04477 15.5 3.1 15.5L6.95576 15.5C6.98394 15.5 7.0108 15.5119 7.02976 15.5327L11.826 20.8086C11.8875 20.8762 12 20.8327 12 20.7413L12 3.25866C12 3.16726 11.8875 3.12376 11.826 3.19139L7.02976 8.46727C7.0108 8.48811 6.98394 8.5 6.95576 8.5Z" stroke="#1F2023" stroke-width="1.5" stroke-linecap="square" stroke-linejoin="round"/>
<path d="M17.8706 18.5C18.8193 17.7726 19.5973 16.8098 20.141 15.6901C20.6847 14.5704 20.9787 13.3257 20.9989 12.0578C21.0191 10.7899 20.765 9.53473 20.2573 8.39496C19.7496 7.25519 19.0028 6.26317 18.0778 5.5M16 15.5746C16.527 15.1705 16.9593 14.6356 17.2613 14.0136C17.5634 13.3915 17.7267 12.7 17.7379 11.9956C17.7492 11.2912 17.608 10.5939 17.3259 9.96072C17.0439 9.32751 16.629 8.77639 16.1151 8.35241" stroke="#1F2023" stroke-width="1.5" stroke-linecap="square"/>
</svg>
