<svg width="24" height="24" viewBox="0 0 24 24" fill="none" xmlns="http://www.w3.org/2000/svg">
<path d="M8.79396 22.7212L9.5151 22.9272L9.92718 21.4849L9.20604 21.2789L8.79396 22.7212ZM3.81147 19.5472L3.62957 18.8196L3.81147 19.5472ZM8.49192 18.377L8.31002 17.6494L8.49192 18.377ZM2.02558 15.6456L8.27853 18.1244L8.83131 16.73L2.57836 14.2511L2.02558 15.6456ZM8.31002 17.6494L3.62957 18.8196L3.99337 20.2748L8.67383 19.1047L8.31002 17.6494ZM3.58934 21.2341L8.79396 22.7212L9.20604 21.2789L4.00142 19.7918L3.58934 21.2341ZM3.62957 18.8196C2.38866 19.1298 2.35947 20.8827 3.58934 21.2341L4.00142 19.7918C4.04556 19.8045 4.09945 19.8386 4.13788 19.8943C4.17226 19.9441 4.1834 19.9949 4.1827 20.0364C4.18201 20.0779 4.16919 20.1282 4.13317 20.1769C4.09291 20.2313 4.03791 20.2636 3.99337 20.2748L3.62957 18.8196ZM8.27853 18.1244C8.05269 18.0349 8.07434 17.7084 8.31002 17.6494L8.67383 19.1047C9.85223 18.8101 9.9605 17.1776 8.83131 16.73L8.27853 18.1244Z" fill="#1F2023"/>
<path d="M21.794 22.7211L22.5151 22.9272L22.9272 21.4849L22.206 21.2789L21.794 22.7211ZM16.7954 20.513L17.0014 19.7918L16.7954 20.513ZM21.5523 17.4275L21.2765 18.125L21.5523 17.4275ZM21.4897 18.3776L21.3078 17.65L21.4897 18.3776ZM15.1419 15.6993L21.2765 18.125L21.8281 16.7301L15.6935 14.3044L15.1419 15.6993ZM21.3078 17.65L16.6296 18.8195L16.9934 20.2747L21.6716 19.1052L21.3078 17.65ZM16.5893 21.2341L21.794 22.7211L22.206 21.2789L17.0014 19.7918L16.5893 21.2341ZM16.6296 18.8195C15.3887 19.1298 15.3595 20.8827 16.5893 21.2341L17.0014 19.7918C17.0456 19.8044 17.0994 19.8386 17.1379 19.8943C17.1723 19.9441 17.1834 19.9949 17.1827 20.0364C17.182 20.0779 17.1692 20.1282 17.1332 20.1769C17.0929 20.2313 17.0379 20.2636 16.9934 20.2747L16.6296 18.8195ZM21.2765 18.125C21.0505 18.0356 21.072 17.7089 21.3078 17.65L21.6716 19.1052C22.8505 18.8105 22.9581 17.177 21.8281 16.7301L21.2765 18.125Z" fill="#1F2023"/>
<path d="M5.42871 10.0023H14.5716" stroke="#1F2023" stroke-width="1.5" stroke-miterlimit="10" stroke-linecap="square"/>
<path d="M2.38086 14.9V10.4222C2.38086 10.1034 2.43167 9.7866 2.53139 9.4838L4.64394 3.06872C4.65745 3.02771 4.69575 3 4.73893 3H9.99991H15.2609C15.3041 3 15.3424 3.02772 15.3559 3.06874L17.4686 9.48761C17.5682 9.79028 17.619 10.1069 17.619 10.4255V14.9C17.619 14.9552 17.5742 15 17.519 15H14.6713C14.6161 15 14.5713 14.9552 14.5713 14.9V13.5201C14.5713 13.4649 14.5266 13.4201 14.4713 13.4201H5.52848C5.47325 13.4201 5.42848 13.4649 5.42848 13.5201V14.9C5.42848 14.9552 5.38371 15 5.32848 15H2.48086C2.42563 15 2.38086 14.9552 2.38086 14.9Z" stroke="#1F2023" stroke-width="1.5" stroke-linecap="square"/>
<path d="M2 7.25809H18" stroke="#1F2023" stroke-width="1.5" stroke-miterlimit="10" stroke-linecap="square"/>
</svg>
