<svg width="24" height="24" viewBox="0 0 24 24" fill="none" xmlns="http://www.w3.org/2000/svg">
<path d="M8.4 15.9998L3.1 15.9999C3.04477 15.9999 3 16.0447 3 16.0999V20.8999C3 20.9552 3.04477 20.9999 3.1 20.9999L20.9 20.9999C20.9552 20.9999 21 20.9551 21 20.8999V7.59994C21 7.54471 20.9552 7.49994 20.9 7.49994L14.6 7.49976C14.5448 7.49976 14.5 7.54453 14.5 7.59976V11.5933C14.5 11.6485 14.4552 11.6933 14.4 11.6933H8.6C8.54477 11.6933 8.5 11.7381 8.5 11.7933V15.8998C8.5 15.955 8.45523 15.9998 8.4 15.9998Z" stroke="#1F2023" stroke-width="1.5"/>
<path d="M22 3H15.1961C15.1748 3 15.1541 3.00681 15.1369 3.01942L4.98573 10.4806C4.96856 10.4932 4.94781 10.5 4.92651 10.5H2" stroke="#1F2023" stroke-width="1.5"/>
</svg>
