<svg width="24" height="24" viewBox="0 0 24 24" fill="none" xmlns="http://www.w3.org/2000/svg">
<path d="M6.7338 14.8234L2.11472 9.28053C2.06461 9.22039 2.09991 9.12858 2.1774 9.11751L8.61669 8.19762C8.64812 8.19313 8.67555 8.17398 8.6906 8.14603L11.912 2.16352C11.9497 2.0934 12.0503 2.0934 12.088 2.16352L15.3073 8.14206C15.3235 8.17221 15.354 8.19195 15.3882 8.19439L21.8144 8.65341C21.8939 8.65909 21.9352 8.75095 21.8866 8.81413L17.2658 14.8211C17.2482 14.844 17.2413 14.8734 17.247 14.9017L18.6266 21.7995C18.6429 21.8811 18.5582 21.9458 18.4838 21.9086L12.0464 18.6899C12.0173 18.6753 11.983 18.6758 11.9543 18.6913L5.98194 21.9072C5.91007 21.9459 5.82462 21.8868 5.8354 21.8059L6.7561 14.9007C6.7598 14.8729 6.75171 14.8449 6.7338 14.8234Z" stroke="#1F2023" stroke-width="1.5"/>
</svg>
