<svg width="24" height="24" viewBox="0 0 24 24" fill="none" xmlns="http://www.w3.org/2000/svg">
<path d="M14 20H4.1C4.04477 20 4 19.9552 4 19.9V2.1C4 2.04477 4.04477 2 4.1 2H13.9586C13.9851 2 14.0105 2.01054 14.0293 2.02929L17.9707 5.97071C17.9895 5.98946 18 6.0149 18 6.04142V10.5" stroke="#1F2023" stroke-width="1.5"/>
<path d="M18 7H13.1C13.0448 7 13 6.95523 13 6.9V2" stroke="#1F2023" stroke-width="1.5"/>
<path d="M6 7H10" stroke="#1F2023" stroke-width="1.5"/>
<path d="M6 10H12" stroke="#1F2023" stroke-width="1.5"/>
<path d="M17.5 11C15.567 11 14 11.7069 14 12.5789V19.4211C14 20.2931 15.567 21 17.5 21C19.433 21 21 20.2931 21 19.4211V12.5789C21 11.7069 19.433 11 17.5 11Z" stroke="#1F2023" stroke-width="1.5"/>
<path d="M14 13.4211C14 14.2931 15.567 15 17.5 15C19.433 15 21 14.2931 21 13.4211" stroke="#1F2023" stroke-width="1.5"/>
<path d="M14 16.2628C14 17.1349 15.567 17.8418 17.5 17.8418C19.433 17.8418 21 17.1349 21 16.2628" stroke="#1F2023" stroke-width="1.5"/>
</svg>
