<svg width="24" height="24" viewBox="0 0 24 24" fill="none" xmlns="http://www.w3.org/2000/svg">
<path d="M9 21H14.9C14.9552 21 15 20.9552 15 20.9V3.1C15 3.04477 14.9552 3 14.9 3H4.1C4.04477 3 4 3.04477 4 3.1V7" stroke="#1F2023" stroke-width="1.5"/>
<path d="M15 13.8186H18.9C18.9552 13.8186 19 13.8634 19 13.9186V18.9547C19 18.9547 19 21 21 21C23 21 23 18.9547 23 18.9547V7.70529L17.5 3" stroke="#1F2023" stroke-width="1.5"/>
<path d="M5.50006 9C7.75012 9 10 10.3271 10 13.3636C10 16.1493 7.29449 18.7872 5.57776 20.9036C5.53747 20.9533 5.46253 20.9533 5.42224 20.9036C3.70544 18.7872 1 16.1494 1 13.3636C1 10.4368 3.25 9 5.50006 9Z" stroke="#1F2023" stroke-width="1.5" stroke-miterlimit="10"/>
<circle cx="5.5" cy="13.5" r="1.5" stroke="#1F2023" stroke-width="1.5"/>
<path d="M19.5757 5.31006L18.0757 8.80981C18.0757 9.80981 20.5757 10.3101 22.5757 10.3101" stroke="#1F2023" stroke-width="1.5"/>
</svg>
