<svg width="24" height="24" viewBox="0 0 24 24" fill="none" xmlns="http://www.w3.org/2000/svg">
<path d="M3.5 14H6.43043C7.06876 14 7.68409 14.2595 8.13839 14.7254L9.53007 16.1525C9.98437 16.6184 10.2374 17.2494 10.2374 17.904V21M14.1651 21V17.904C14.1651 17.2494 14.4182 16.6184 14.8725 16.1525L16.2642 14.7254C16.7185 14.2595 17.3338 14 17.9721 14H20.5" stroke="#1F2023" stroke-width="1.5" stroke-linejoin="round"/>
<path d="M12 21C16.9706 21 21 16.9706 21 12C21 7.02944 16.9706 3 12 3C7.02944 3 3 7.02944 3 12C3 16.9706 7.02944 21 12 21Z" stroke="#1F2023" stroke-width="1.5" stroke-linejoin="round"/>
<path d="M3 9H20" stroke="#1F2023" stroke-width="1.5" stroke-linejoin="round"/>
<path d="M10.5059 10.7476V14.2476" stroke="#1F2023" stroke-width="1.5" stroke-linejoin="round"/>
<path d="M13.5 10.7476V14.2476" stroke="#1F2023" stroke-width="1.5" stroke-linejoin="round"/>
<path d="M10.5 12.4976H13.5" stroke="#1F2023" stroke-width="1.5" stroke-linejoin="round"/>
</svg>
