<svg width="24" height="24" viewBox="0 0 24 24" fill="none" xmlns="http://www.w3.org/2000/svg">
<path d="M4 10V20.9C4 20.9552 4.04477 21 4.1 21H19.9C19.9552 21 20 20.9552 20 20.9V10" stroke="#1F2023" stroke-width="1.5"/>
<path d="M9 21V15.1C9 15.0448 9.04477 15 9.1 15H14.9C14.9552 15 15 15.0448 15 15.1V21" stroke="#1F2023" stroke-width="1.5" stroke-linecap="round"/>
<path d="M3 3.1C3 3.04477 3.04477 3 3.1 3H8.9C8.95523 3 9 3.04477 9 3.1V6.5V9.92792C9 9.97097 8.97246 10.0092 8.93162 10.0228L6.03162 10.9895C6.0111 10.9963 5.9889 10.9963 5.96838 10.9895L3.06838 10.0228C3.02754 10.0092 3 9.97097 3 9.92792V3.1Z" stroke="#1F2023" stroke-width="1.5"/>
<path d="M15 3.1C15 3.04477 15.0448 3 15.1 3H20.9C20.9552 3 21 3.04477 21 3.1V6.5V9.92792C21 9.97097 20.9725 10.0092 20.9316 10.0228L18.0316 10.9895C18.0111 10.9963 17.9889 10.9963 17.9684 10.9895L15.0684 10.0228C15.0275 10.0092 15 9.97097 15 9.92792V3.1Z" stroke="#1F2023" stroke-width="1.5"/>
<path d="M9 3.1C9 3.04477 9.04477 3 9.1 3H14.9C14.9552 3 15 3.04477 15 3.1V6.5V9.92792C15 9.97097 14.9725 10.0092 14.9316 10.0228L12.0316 10.9895C12.0111 10.9963 11.9889 10.9963 11.9684 10.9895L9.06838 10.0228C9.02754 10.0092 9 9.97097 9 9.92792V3.1Z" stroke="#1F2023" stroke-width="1.5"/>
</svg>
