<svg width="24" height="24" viewBox="0 0 24 24" fill="none" xmlns="http://www.w3.org/2000/svg">
<path d="M6 18.5499C6 20.1964 7.17288 21.7549 7.72227 22.3947C7.89506 22.5959 8.14856 22.7 8.41377 22.7L12 22.7L15.5862 22.7C15.8514 22.7 16.1049 22.5958 16.2777 22.3946C16.8271 21.7549 17.9999 20.1964 17.9999 18.5499V10.2693C17.9999 10.0475 17.9753 9.82964 17.9266 9.61327L17.1788 6.29392C17.0642 5.78494 16.7557 5.33928 16.2815 5.12162C15.4454 4.73782 13.9295 4.20001 12 4.20001C10.0704 4.20001 8.55456 4.73783 7.71846 5.12163C7.24431 5.33928 6.93582 5.78493 6.82116 6.29389L6.07335 9.61324C6.0246 9.82963 6 10.0475 6 10.2693V18.5499Z" stroke="#1F2023" stroke-width="1.5"/>
<path d="M6 12L3.5 14" stroke="#1F2023" stroke-width="1.5"/>
<path d="M18 12L20.5 14" stroke="#1F2023" stroke-width="1.5"/>
<path d="M8.5 11C8.5 11 9.8125 10 12 10C14.1875 10 15.5 11 15.5 11" stroke="#1F2023" stroke-width="1.5"/>
<path d="M8.5 18.2109C8.5 18.2109 10.25 18.7109 12 18.7109C13.75 18.7109 15.5 18.2109 15.5 18.2109" stroke="#1F2023" stroke-width="1.5"/>
<path d="M18 3C16.3865 1.75313 14.2907 1 12 1C9.70928 1 7.61347 1.75313 6 3" stroke="#1F2023" stroke-width="1.5" stroke-linecap="square"/>
</svg>
