<svg width="24" height="24" viewBox="0 0 24 24" fill="none" xmlns="http://www.w3.org/2000/svg">
<path d="M20.1 18.25C20.6611 16.5693 21 14.3862 21 12C21 9.61384 20.6611 7.4307 20.1 5.75M3.9 18.25C3.33891 16.5693 3 14.3862 3 12C3 9.61384 3.33891 7.4307 3.9 5.75" stroke="#1F2023" stroke-width="1.5" stroke-linecap="square"/>
<path d="M15.9998 2.00004C14.9242 1.37658 13.527 1 11.9999 1C10.4728 1 9.07562 1.37658 8 2.00004M8.00019 22C9.07582 22.6234 10.473 23 12.0001 23C13.5272 23 14.9244 22.6234 16 22" stroke="#1F2023" stroke-width="1.5" stroke-linecap="square"/>
<path d="M7.54297 15.9069C7.54297 16.9834 8.29148 18.3653 8.71418 19.0598C8.88452 19.3397 9.19162 19.5 9.51926 19.5L11.9032 19.5L14.2871 19.5C14.6147 19.5 14.9219 19.3397 15.0922 19.0598C15.5149 18.3653 16.2633 16.9834 16.2633 15.9069V9.48327C16.2633 9.29392 16.2454 9.10789 16.2098 8.92192L15.701 6.26505C15.5962 5.71798 15.2675 5.23567 14.7488 5.03253C14.1111 4.78276 13.1204 4.5 11.9032 4.5C10.6859 4.5 9.6952 4.78277 9.05754 5.03254C8.53891 5.23568 8.21012 5.71797 8.10535 6.26502L7.59652 8.9219C7.5609 9.10788 7.54297 9.29393 7.54297 9.48329V15.9069Z" stroke="#1F2023" stroke-width="1.5"/>
<path d="M16.2637 9.94189L18.5004 11.7192" stroke="#1F2023" stroke-width="1.5"/>
<path d="M7.73682 9.94189L5.50013 11.7192" stroke="#1F2023" stroke-width="1.5"/>
<path d="M9.35938 9.7946C9.35938 9.7946 10.3132 9.09692 11.9028 9.09692C13.4925 9.09692 14.4463 9.7946 14.4463 9.7946" stroke="#1F2023" stroke-width="1.5"/>
<path d="M9.35938 16.2211C9.35938 16.2211 10.6311 16.5699 11.9028 16.5699C13.1746 16.5699 14.4463 16.2211 14.4463 16.2211" stroke="#1F2023" stroke-width="1.5"/>
</svg>
