<svg width="24" height="24" viewBox="0 0 24 24" fill="none" xmlns="http://www.w3.org/2000/svg">
<path d="M6 14.5499C6 16.1915 7.1659 18.3286 7.71734 19.2476C7.88938 19.5343 8.19993 19.7 8.53428 19.7L12 19.7L15.4657 19.7C15.8001 19.7 16.1106 19.5343 16.2827 19.2476C16.8341 18.3286 17.9999 16.1915 17.9999 14.5499V7.2702C17.9999 7.0484 17.9753 6.82964 17.9266 6.61327L17.1788 3.29392C17.0642 2.78494 16.7557 2.33928 16.2815 2.12162C15.4454 1.73782 13.9295 1.20001 12 1.20001C10.0704 1.20001 8.55456 1.73783 7.71846 2.12163C7.24431 2.33928 6.93582 2.78493 6.82116 3.29389L6.07335 6.61324C6.0246 6.82963 6 7.04842 6 7.27023V14.5499Z" stroke="#1F2023" stroke-width="1.5"/>
<path d="M6 9L3.5 11" stroke="#1F2023" stroke-width="1.5"/>
<path d="M18 9L20.5 11" stroke="#1F2023" stroke-width="1.5"/>
<path d="M8.5 8.78888C8.5 8.78888 9.8125 7.78888 12 7.78888C14.1875 7.78888 15.5 8.78888 15.5 8.78888" stroke="#1F2023" stroke-width="1.5"/>
<path d="M8.5 16C8.5 16 10.25 16.5 12 16.5C13.75 16.5 15.5 16 15.5 16" stroke="#1F2023" stroke-width="1.5"/>
<path d="M18 21C16.3865 22.2469 14.2907 23 12 23C9.70928 23 7.61347 22.2469 6 21" stroke="#1F2023" stroke-width="1.5" stroke-linecap="square"/>
</svg>
