<svg width="24" height="24" viewBox="0 0 24 24" fill="none" xmlns="http://www.w3.org/2000/svg">
<path d="M16.5 17.5498C16.5 19.1915 15.3341 21.3285 14.7827 22.2475C14.6106 22.5342 14.3001 22.6999 13.9657 22.6999L10.5 22.7L7.0343 22.6999C6.69994 22.6999 6.38938 22.5342 6.21735 22.2475C5.66592 21.3285 4.5001 19.1915 4.5001 17.5498V8.20812C4.5001 8.02618 4.51665 7.84874 4.54955 7.6698L5.34441 3.34628C5.44374 2.80603 5.76085 2.32857 6.26127 2.10205C7.10573 1.71981 8.60293 1.19995 10.5 1.19995C12.3971 1.19995 13.8943 1.71982 14.7387 2.10206C15.2392 2.32858 15.5563 2.80602 15.6556 3.34626L16.4505 7.66977C16.4834 7.84873 16.5 8.02619 16.5 8.20815V17.5498Z" stroke="#1F2023" stroke-width="1.5"/>
<path d="M16.5 9L19 11" stroke="#1F2023" stroke-width="1.5"/>
<path d="M4.5 9L2 11" stroke="#1F2023" stroke-width="1.5"/>
<path d="M14 8.78882C14 8.78882 12.6875 7.78882 10.5 7.78882C8.3125 7.78882 7 8.78882 7 8.78882" stroke="#1F2023" stroke-width="1.5"/>
<path d="M14 18C14 18 12.25 18.5 10.5 18.5C8.75 18.5 7 18 7 18" stroke="#1F2023" stroke-width="1.5"/>
<path d="M20 3C21.2469 5.42021 22 8.56392 22 12C22 15.4361 21.2469 18.5798 20 21" stroke="#1F2023" stroke-width="1.5" stroke-linecap="square"/>
</svg>
