<svg width="24" height="24" viewBox="0 0 24 24" fill="none" xmlns="http://www.w3.org/2000/svg">
<path d="M7.5 17.5498C7.5 19.1915 8.6659 21.3285 9.21734 22.2475C9.38938 22.5342 9.69993 22.6999 10.0343 22.6999L13.5 22.7L16.9657 22.6999C17.3001 22.6999 17.6106 22.5342 17.7827 22.2475C18.3341 21.3285 19.4999 19.1915 19.4999 17.5498V8.20812C19.4999 8.02618 19.4834 7.84874 19.4505 7.6698L18.6556 3.34628C18.5563 2.80603 18.2392 2.32857 17.7387 2.10205C16.8943 1.71981 15.3971 1.19995 13.5 1.19995C11.6029 1.19995 10.1057 1.71982 9.26125 2.10206C8.76084 2.32858 8.44373 2.80602 8.3444 3.34626L7.54946 7.66977C7.51655 7.84873 7.5 8.02619 7.5 8.20815V17.5498Z" stroke="#1F2023" stroke-width="1.5"/>
<path d="M7.5 9L5 11" stroke="#1F2023" stroke-width="1.5"/>
<path d="M19.5 9L22 11" stroke="#1F2023" stroke-width="1.5"/>
<path d="M10 8.78882C10 8.78882 11.3125 7.78882 13.5 7.78882C15.6875 7.78882 17 8.78882 17 8.78882" stroke="#1F2023" stroke-width="1.5"/>
<path d="M10 18C10 18 11.75 18.5 13.5 18.5C15.25 18.5 17 18 17 18" stroke="#1F2023" stroke-width="1.5"/>
<path d="M4 3C2.75313 5.42021 2 8.56392 2 12C2 15.4361 2.75313 18.5798 4 21" stroke="#1F2023" stroke-width="1.5" stroke-linecap="square"/>
</svg>
