<svg width="24" height="24" viewBox="0 0 24 24" fill="none" xmlns="http://www.w3.org/2000/svg">
<rect width="5.85194" height="2.92597" rx="0.1" transform="matrix(0.707109 0.707105 -0.707109 0.707105 16.4834 3.37903)" stroke="#1F2023" stroke-width="1.5"/>
<rect width="5.85194" height="2.92597" rx="0.1" transform="matrix(0.707109 0.707105 -0.707109 0.707105 6.13867 13.7237)" stroke="#1F2023" stroke-width="1.5"/>
<path d="M19.9318 6.82759L21.9301 4.82933C21.9692 4.79028 21.9692 4.72696 21.9301 4.68791L19.3129 2.07071C19.2738 2.03166 19.2105 2.03166 19.1715 2.07071L17.1732 4.06897" stroke="#1F2023" stroke-width="1.5"/>
<path d="M15.1045 6.13831L6.82858 14.4142M17.8631 8.89693L9.58722 17.1728" stroke="#1F2023" stroke-width="1.5"/>
<circle cx="1.95065" cy="1.95065" r="1.95065" transform="matrix(0.707109 0.707105 -0.707109 0.707105 4.75879 16.4828)" stroke="#1F2023" stroke-width="1.5"/>
<path d="M11.1384 7.34518L17.6901 11.8279" stroke="#1F2023" stroke-width="1.5"/>
<path d="M9.06903 9.41391L15.6208 13.8967" stroke="#1F2023" stroke-width="1.5"/>
<path d="M7.00067 11.4827L13.5524 15.9654" stroke="#1F2023" stroke-width="1.5"/>
</svg>
