<svg width="24" height="24" viewBox="0 0 24 24" fill="none" xmlns="http://www.w3.org/2000/svg">
<path d="M21.1684 8C21.7036 9.22492 22.0005 10.5778 22.0005 12C22.0005 17.5228 17.5233 22 12.0005 22C9.20309 22 6.67398 20.8514 4.85906 19M21.1684 8C21.0182 7.65615 20.8492 7.32239 20.6627 7L21.1684 8ZM19.1419 5C18.7658 4.6163 18.3589 4.26278 17.9254 3.94341C16.2671 2.72186 14.2181 2 12.0005 2C6.47764 2 2.00049 6.47715 2.00049 12C2.00049 13.8214 2.48746 15.5291 3.33831 17" stroke="#1F2023" stroke-width="1.5"/>
<path d="M19.006 2.23645L19.5016 5.27283C19.5119 5.33608 19.4609 5.39258 19.3969 5.38877L16.3258 5.20577" stroke="#1F2023" stroke-width="1.5" stroke-miterlimit="10" stroke-linecap="square"/>
<path d="M5.01877 21.7789L4.39365 18.7666C4.38063 18.7038 4.42916 18.6452 4.49324 18.6463L7.56937 18.6976" stroke="#1F2023" stroke-width="1.5" stroke-miterlimit="10" stroke-linecap="square"/>
<circle cx="12" cy="12" r="3.25" stroke="#1F2023" stroke-width="1.5"/>
</svg>
