<svg width="24" height="24" viewBox="0 0 24 24" fill="none" xmlns="http://www.w3.org/2000/svg">
<path d="M6 19.25H18" stroke="#1F2023" stroke-width="1.5" stroke-miterlimit="10" stroke-linecap="square"/>
<path d="M10.75 9.01331L12.1035 10.5924C12.1404 10.6355 12.2056 10.6393 12.2473 10.6008L15.25 7.8291" stroke="#1F2023" stroke-width="1.5" stroke-linecap="square"/>
<path d="M3.06396 13.75L0.89227 13.2674C0.846517 13.2572 0.813965 13.2167 0.813965 13.1698V9.25477C0.813965 8.77704 1.15187 8.36603 1.62058 8.27365L6.79591 7.25356C6.80785 7.25121 6.81925 7.24669 6.82957 7.24025L10.6924 4.826C10.7718 4.77633 10.8637 4.75 10.9574 4.75H17.2332C17.3379 4.75 17.4399 4.78284 17.5249 4.8439L21.014 7.35L22.7355 7.73051C22.7814 7.74063 22.814 7.78124 22.814 7.82815V12.8249C22.814 12.87 22.7839 12.9094 22.7404 12.9214L21.2682 13.3256L20.7649 13.4638M7.02628 13.75H16.6989" stroke="#1F2023" stroke-width="1.5"/>
<circle cx="5.24717" cy="13.3502" r="1.9" stroke="#1F2023" stroke-width="1.5"/>
<circle cx="18.7042" cy="13.3502" r="1.9" stroke="#1F2023" stroke-width="1.5"/>
</svg>
