<svg width="24" height="24" viewBox="0 0 24 24" fill="none" xmlns="http://www.w3.org/2000/svg">
<path d="M6 23C6 21.0832 6 14.4294 6 13.0075C6 12.8256 6.01655 12.6488 6.04946 12.4698L6.8444 8.14631C6.94373 7.60607 7.26084 7.12863 7.76125 6.90211C8.60571 6.51987 10.1029 6 12 6C13.8971 6 15.3943 6.51986 16.2387 6.9021C16.7391 7.12862 17.0563 7.60608 17.1556 8.14633L17.9505 12.4698C17.9834 12.6488 17.9999 12.8256 17.9999 13.0075C17.9999 14.4293 17.9999 21.0832 17.9999 23" stroke="#1F2023" stroke-width="1.5"/>
<path d="M6 13.8L3.5 15.8" stroke="#1F2023" stroke-width="1.5"/>
<path d="M18 13.8L20.5 15.8" stroke="#1F2023" stroke-width="1.5"/>
<path d="M8.5 13.5889C8.5 13.5889 9.8125 12.5889 12 12.5889C14.1875 12.5889 15.5 13.5889 15.5 13.5889" stroke="#1F2023" stroke-width="1.5"/>
<path d="M8.5 20.8C8.5 20.8 10.25 21.3 12 21.3C13.75 21.3 15.5 20.8 15.5 20.8" stroke="#1F2023" stroke-width="1.5"/>
<path d="M18.3237 3.99988C16.7103 2.75301 14.6144 1.99988 12.3237 1.99988C10.033 1.99988 7.9372 2.75301 6.32373 3.99988" stroke="#1F2023" stroke-width="1.5" stroke-linecap="square"/>
</svg>
