<svg width="24" height="24" viewBox="0 0 24 24" fill="none" xmlns="http://www.w3.org/2000/svg">
<path d="M18.3237 20C16.7103 21.2469 14.6144 22 12.3237 22C10.033 22 7.9372 21.2469 6.32373 20" stroke="#1F2023" stroke-width="1.5" stroke-linecap="square"/>
<path d="M6 1C6 1 6 10.3996 6 12.5498C6 14.1914 7.1659 16.3285 7.71734 17.2475C7.88938 17.5342 8.19993 17.6999 8.53428 17.6999C9.33814 17.6999 10.8833 17.6999 12 17.6999C13.1167 17.6999 14.6618 17.6999 15.4657 17.6999C15.8001 17.6999 16.1106 17.5342 16.2827 17.2475C16.8341 16.3285 17.9999 14.1914 17.9999 12.5498C17.9999 10.3996 17.9999 1 17.9999 1" stroke="#1F2023" stroke-width="1.5"/>
<path d="M6 5L3.5 7" stroke="#1F2023" stroke-width="1.5"/>
<path d="M18 5L20.5 7" stroke="#1F2023" stroke-width="1.5"/>
<path d="M8.5 4.78882C8.5 4.78882 9.8125 3.78882 12 3.78882C14.1875 3.78882 15.5 4.78882 15.5 4.78882" stroke="#1F2023" stroke-width="1.5"/>
<path d="M8.5 13C8.5 13 10.25 13.5 12 13.5C13.75 13.5 15.5 13 15.5 13" stroke="#1F2023" stroke-width="1.5"/>
</svg>
