<svg width="24" height="24" viewBox="0 0 24 24" fill="none" xmlns="http://www.w3.org/2000/svg">
<path d="M5.70088 11.9998C5.70088 8.52038 8.52148 5.69977 12.0009 5.69977M5.70088 11.9998C5.70088 15.4792 8.5206 18.2998 12 18.2998M5.70088 11.9998C5.70088 9.95978 5.90577 8.1711 6.31644 6.6333C6.72799 5.0961 7.12266 3.885 7.50044 3M12.0009 5.69977C15.4803 5.69977 18.3009 8.52038 18.3009 11.9998M12.0009 5.69977C14.0409 5.69977 15.8289 5.90511 17.3667 6.31578C18.9039 6.72734 20.115 7.122 21 7.49978M18.3009 11.9998C18.3009 14.0398 18.0955 15.8287 17.6849 17.3665C17.2733 18.9037 16.8787 20.1148 16.5009 20.9998M18.3009 11.9998C18.3009 15.4792 15.4794 18.2998 12 18.2998M12 18.2998C9.96 18.2998 8.1711 18.0944 6.6333 17.6838C5.0961 17.2722 3.885 16.8776 3 16.4998M14.6082 12.6986C14.2223 14.139 12.7418 14.9938 11.3014 14.6078C9.86103 14.2219 9.00626 12.7414 9.3922 11.301C9.77815 9.86065 11.2587 9.00587 12.699 9.39182C14.1394 9.77776 14.9941 11.2583 14.6082 12.6986Z" stroke="#1F2023" stroke-width="1.5" stroke-linecap="square" stroke-linejoin="bevel"/>
</svg>
