<svg width="24" height="24" viewBox="0 0 24 24" fill="none" xmlns="http://www.w3.org/2000/svg">
<path d="M5.1 2C5.04477 2 5 2.04477 5 2.1L5 6.9C5 6.95523 5.04477 7 5.1 7L9.9 7C9.95523 7 10 6.95523 10 6.9L10 2.1C10 2.04477 9.95523 2 9.9 2L5.1 2Z" stroke="#1F2023" stroke-width="1.5"/>
<path d="M16.5 17C15.1193 17 14 18.1193 14 19.5V19.5C14 20.8807 15.1193 22 16.5 22V22C17.8807 22 19 20.8807 19 19.5V19.5C19 18.1193 17.8807 17 16.5 17V17Z" stroke="#1F2023" stroke-width="1.5"/>
<path d="M16.5 17L16.5 12.3081C16.5 11.2227 15.3827 10.4966 14.3908 10.9374L9.60921 13.0626C8.61728 13.5034 7.5 12.7773 7.5 11.6919L7.5 7" stroke="#1F2023" stroke-width="1.5"/>
</svg>
