<svg width="24" height="24" viewBox="0 0 24 24" fill="none" xmlns="http://www.w3.org/2000/svg">
<path d="M3.25 19L1.07831 18.5174C1.03255 18.5072 1 18.4667 1 18.4198V14.5048C1 14.027 1.3379 13.616 1.80661 13.5236L6.98194 12.5036C6.99388 12.5012 7.00529 12.4967 7.01561 12.4902L10.8784 10.076C10.9579 10.0263 11.0497 10 11.1434 10H12.5M21.2 12.6L22.9216 12.9805C22.9674 12.9906 23 13.0312 23 13.0782V18.0749C23 18.12 22.9699 18.1594 22.9265 18.1714L20.7435 18.7707M7.4146 19H11.5792H17.3652" stroke="#1F2023" stroke-width="1.5"/>
<circle cx="5.4332" cy="18.6" r="1.9" stroke="#1F2023" stroke-width="1.5"/>
<circle cx="18.8902" cy="18.6" r="1.9" stroke="#1F2023" stroke-width="1.5"/>
<path d="M13.6658 8.47388C15.6738 6.46585 18.9295 6.46585 20.9375 8.47388M11.5195 6.34449C14.6437 3.22029 19.709 3.22029 22.8332 6.34449" stroke="#1F2023" stroke-width="1.5"/>
<path d="M17.3018 12.1343C17.9921 12.1343 18.5518 11.5746 18.5518 10.8843C18.5518 10.1939 17.9921 9.63428 17.3018 9.63428C16.6114 9.63428 16.0518 10.1939 16.0518 10.8843C16.0518 11.5746 16.6114 12.1343 17.3018 12.1343Z" fill="#1F2023"/>
</svg>
