<svg width="24" height="24" viewBox="0 0 24 24" fill="none" xmlns="http://www.w3.org/2000/svg">
<path d="M1.5 14.5H22.5" stroke="#1F2023" stroke-width="1.5" stroke-linecap="square"/>
<path d="M6.5 17L17.5 17" stroke="#1F2023" stroke-width="1.5" stroke-linecap="square"/>
<path d="M20.5 14.0088V21.8998C20.5 21.955 20.4552 21.9998 20.4 21.9998H16.6C16.5448 21.9998 16.5 21.955 16.5 21.8998V20.0998C16.5 20.0446 16.4552 19.9998 16.4 19.9998H7.6C7.54477 19.9998 7.5 20.0446 7.5 20.0998V21.8998C7.5 21.955 7.45523 21.9998 7.4 21.9998H3.6C3.54477 21.9998 3.5 21.955 3.5 21.8998V14.0088" stroke="#1F2023" stroke-width="1.5" stroke-linecap="square"/>
<path d="M3.5 14V3.1C3.5 3.04477 3.54477 3 3.6 3H20.4C20.4552 3 20.5 3.04477 20.5 3.1V14" stroke="#1F2023" stroke-width="1.5"/>
<path d="M3.5 14L5.9763 7.06637C5.99051 7.02657 6.02821 7 6.07047 7H17.9295C17.9718 7 18.0095 7.02657 18.0237 7.06637L20.5 14" stroke="#1F2023" stroke-width="1.5"/>
</svg>
