<svg width="24" height="25" viewBox="0 0 24 25" fill="none" xmlns="http://www.w3.org/2000/svg">
<path d="M5.33398 18.332V18.332C5.33398 19.9889 6.67713 21.332 8.33398 21.332H9.00065C10.6575 21.332 12.0007 19.9889 12.0007 18.332V18.332" stroke="#1F2023" stroke-width="1.5"/>
<path d="M5.33333 18.332V18.332C5.33333 19.9889 3.99019 21.332 2.33333 21.332H2" stroke="#1F2023" stroke-width="1.5"/>
<path d="M12 18.332V18.332C12 19.9889 13.3431 21.332 15 21.332H15.6667C17.3235 21.332 18.6667 19.9889 18.6667 18.332V18.332" stroke="#1F2023" stroke-width="1.5"/>
<path d="M18.666 18.332V18.332C18.666 19.9889 20.0092 21.332 21.666 21.332H21.9993" stroke="#1F2023" stroke-width="1.5"/>
<path d="M9 13.9467C9 14.7357 8.625 15.7324 7.5 15.7324C6.375 15.7324 6 14.7357 6 13.9467C6 12.6967 7.5 10.7324 7.5 10.7324C7.5 10.7324 9 12.6967 9 13.9467Z" stroke="#1F2023" stroke-width="1.5"/>
<path d="M14.9996 14.3318L8.94642 13.2068M3 12.1162L6.13253 12.7415" stroke="#1F2023" stroke-width="1.5"/>
<path d="M3.00037 8.54765L8.66112 7.48667M15 6.33203L12.3913 6.83203" stroke="#1F2023" stroke-width="1.5"/>
<path d="M12 7.44671C12 8.23569 11.625 9.23242 10.5 9.23242C9.375 9.23242 9 8.23569 9 7.44671C9 6.19671 10.5 4.23242 10.5 4.23242C10.5 4.23242 12 6.19671 12 7.44671Z" stroke="#1F2023" stroke-width="1.5"/>
<path d="M17.6299 8.04297H18.6442C19.9452 8.04297 20.9998 9.10426 20.9998 10.4134C20.9998 11.7226 19.9452 12.7839 18.6442 12.7839H17.6299" stroke="#1F2023" stroke-width="1.5"/>
<path d="M16.7194 8.52468C17.976 8.18584 18.7218 6.88604 18.3851 5.62148C18.0483 4.35692 16.7567 3.60648 15.5 3.94531" stroke="#1F2023" stroke-width="1.5"/>
<path d="M15.5004 16.719C16.757 17.0579 18.0487 16.3074 18.3854 15.0429C18.7221 13.7783 17.9764 12.4785 16.7197 12.1396" stroke="#1F2023" stroke-width="1.5"/>
</svg>
