<svg width="24" height="24" viewBox="0 0 24 24" fill="none" xmlns="http://www.w3.org/2000/svg">
<path d="M16.0909 14.7916L8.31818 14.7916L8.16244 14.7916M5.10252 14.8497C5.24424 15.5457 5.87298 16.0702 6.62717 16.0702C7.4022 16.0702 8.04476 15.5163 8.16244 14.7916M5.10252 14.8497C5.08291 14.7534 5.07262 14.6538 5.07262 14.5519C5.07262 13.7134 5.76861 13.0336 6.62717 13.0336C7.48572 13.0336 8.18171 13.7134 8.18171 14.5519C8.18171 14.6335 8.17513 14.7135 8.16244 14.7916M5.10252 14.8497L4.84091 14.7916L3.06407 14.4059C3.02663 14.3978 3 14.3654 3 14.3279V11.1994C3 10.8177 3.27647 10.4892 3.65996 10.4154L7.89432 9.60023C7.90408 9.59835 7.91342 9.59474 7.92186 9.58959L11.0823 7.66034C11.1473 7.62065 11.2225 7.59961 11.2991 7.59961H16.4339C16.5196 7.59961 16.603 7.62585 16.6726 7.67465L19.5107 9.66568C19.5216 9.67334 19.534 9.67874 19.547 9.68156L20.9358 9.98136C20.9733 9.98945 21 10.0219 21 10.0594V14.0524C21 14.0883 20.9754 14.1199 20.9398 14.1294L19.2448 14.584L19.1912 14.601M19.1912 14.601C19.1917 14.5847 19.192 14.5683 19.192 14.5519C19.192 13.7134 18.496 13.0336 17.6375 13.0336C16.7789 13.0336 16.0829 13.7134 16.0829 14.5519C16.0829 15.3904 16.7789 16.0702 17.6375 16.0702C18.4792 16.0702 19.1647 15.4168 19.1912 14.601Z" stroke="#1F2023" stroke-width="1.5"/>
<path d="M21.5 7C19.6037 4.01099 16.0594 2 12 2C8.15867 2 4.7786 3.80072 2.81972 6.52688C2.75436 6.61785 2.59959 6.55183 2.62389 6.44248L3.5 2.5" stroke="#1F2023" stroke-width="1.5"/>
<path d="M2.50001 17C4.39629 19.989 7.94058 22 12 22C15.8413 22 19.2214 20.1993 21.1803 17.4731C21.2456 17.3821 21.4004 17.4482 21.3761 17.5575L20.5 21.5" stroke="#1F2023" stroke-width="1.5"/>
</svg>
