<svg width="24" height="24" viewBox="0 0 24 24" fill="none" xmlns="http://www.w3.org/2000/svg">
<path d="M12.1 12C12.0448 12 12 11.9552 12 11.9L12 3.1C12 3.04477 12.0448 3 12.1 3L19.9 3C19.9552 3 20 3.04477 20 3.1L20 11.9C20 11.9552 19.9552 12 19.9 12L12.1 12Z" stroke="#1F2023" stroke-width="1.5"/>
<path d="M12.0435 5.625L4.44162 5.625C4.40997 5.625 4.38018 5.63999 4.36132 5.66541L3.04422 7.44041C3.01796 7.4758 3.01796 7.5242 3.04422 7.55959L4.36132 9.33459C4.38018 9.36001 4.40997 9.375 4.44162 9.375L6.14117 9.375C6.16202 9.375 6.18236 9.36848 6.19932 9.35635L7.16481 8.66618C7.19932 8.64151 7.24565 8.6413 7.28039 8.66567L8.26566 9.35684C8.28248 9.36864 8.30253 9.37498 8.32309 9.37498L12.0435 9.375" stroke="#1F2023" stroke-width="1.5"/>
<path d="M17 8.47559L17 6.47559" stroke="#1F2023" stroke-width="1.5" stroke-linecap="square"/>
<path d="M3.00014 17.4136L3.00111 20.2106C3.00113 20.2658 3.04589 20.3105 3.10111 20.3105L5.96444 20.3105C6.01967 20.3105 6.06445 20.2658 6.06444 20.2105L6.06348 14.4105C6.06347 14.3553 6.0187 14.3105 5.96348 14.3105L3.10014 14.3105C3.04492 14.3105 3.00014 14.3553 3.00014 14.4106L3.00014 17.4299" stroke="#1F2023" stroke-width="1.5"/>
<path d="M6.07617 15.1108L8.65579 14.2316C9.09505 14.0819 9.57271 14.0896 10.0069 14.2534L12.9524 15.3645C13.6692 15.6349 14.0066 16.4562 13.687 17.1525V17.1525C13.4537 17.6606 12.9259 17.967 12.369 17.9175L8.83091 17.6032" stroke="#1F2023" stroke-width="1.5"/>
<path d="M13.6037 16.0378L18.9088 15.1305C19.3781 15.0503 19.8531 15.2373 20.1418 15.6158V15.6158C20.601 16.2181 20.4394 17.0853 19.7941 17.4817L14.9987 20.4274C14.3966 20.7972 13.6834 20.9427 12.9846 20.8381L6.03807 19.799" stroke="#1F2023" stroke-width="1.5"/>
<path d="M21 3L3 21" stroke="#1F2023" stroke-width="1.5" stroke-linecap="square"/>
</svg>
