<svg width="24" height="24" viewBox="0 0 24 24" fill="none" xmlns="http://www.w3.org/2000/svg">
<path d="M18.375 21C19.4796 21 20.375 20.1046 20.375 19C20.375 17.8954 19.4796 17 18.375 17C17.2704 17 16.375 17.8954 16.375 19C16.375 20.1046 17.2704 21 18.375 21Z" stroke="#1F2023" stroke-width="1.5" stroke-miterlimit="10"/>
<path d="M8.375 21C9.47957 21 10.375 20.1046 10.375 19C10.375 17.8954 9.47957 17 8.375 17C7.27043 17 6.375 17.8954 6.375 19C6.375 20.1046 7.27043 21 8.375 21Z" stroke="#1F2023" stroke-width="1.5" stroke-miterlimit="10"/>
<path d="M18.3802 17H8.80385C7.89258 17 7.15385 16.2613 7.15385 15.35V15.35C7.15385 14.4387 7.89258 13.7 8.80385 13.7H17.7357C17.7761 13.7 17.8125 13.6757 17.828 13.6384L20.9425 6.13835C20.9699 6.0725 20.9215 6 20.8502 6H6" stroke="#1F2023" stroke-width="1.5"/>
<path d="M3 3.25H2.25V4.75H3V3.25ZM7.79451 13.7545C7.93507 14.1442 8.36488 14.3461 8.75452 14.2055C9.14415 14.0649 9.34606 13.6351 9.20549 13.2455L7.79451 13.7545ZM5.09656 4.06606L5.80205 3.81155L5.09656 4.06606ZM3 4.75H5.0025V3.25H3V4.75ZM4.39107 4.32058L7.79451 13.7545L9.20549 13.2455L5.80205 3.81155L4.39107 4.32058ZM5.0025 4.75C4.72856 4.75 4.48403 4.57826 4.39107 4.32058L5.80205 3.81155C5.68049 3.47458 5.36072 3.25 5.0025 3.25V4.75Z" fill="#1F2023"/>
</svg>
