<svg width="24" height="24" viewBox="0 0 24 24" fill="none" xmlns="http://www.w3.org/2000/svg">
<path d="M13.3902 3.55032L11.6398 5.70938C11.6208 5.7328 11.5923 5.7464 11.5621 5.7464H8.9L6.10005 5.74791C6.0448 5.74794 6 5.70316 6 5.64791V1.76797C6 1.71274 6.04477 1.66797 6.1 1.66797H11.5667C11.5942 1.66797 11.6205 1.67928 11.6394 1.69925L13.3902 3.55032ZM13.3902 3.55032H19.0507C19.0871 3.55032 19.1207 3.57017 19.1383 3.60211L19.9724 5.11788C19.9895 5.14892 19.9889 5.18667 19.9708 5.21713L19.1388 6.61901C19.1208 6.64936 19.0881 6.66797 19.0528 6.66797H15.4787C15.4488 6.66797 15.4204 6.68142 15.4014 6.70461L14.5226 7.77759C14.508 7.79546 14.5 7.81785 14.5 7.84095V10.168" stroke="#1F2023" stroke-width="1.5"/>
<path d="M7.64062 16.9619H17.3549" stroke="#1F2023" stroke-width="1.5" stroke-miterlimit="10" stroke-linecap="square"/>
<path d="M4.40625 22.068V16.9144C4.40625 16.9036 4.40801 16.8928 4.41145 16.8826L6.81193 9.73613C6.82561 9.69541 6.86376 9.66797 6.90672 9.66797H12.5015H18.0962C18.1392 9.66797 18.1774 9.69541 18.191 9.73614L20.5915 16.8864C20.595 16.8966 20.5967 16.9074 20.5967 16.9182V22.068C20.5967 22.1232 20.552 22.168 20.4967 22.168H17.4586C17.4034 22.168 17.3586 22.1232 17.3586 22.068V20.6222C17.3586 20.567 17.3139 20.5222 17.2586 20.5222H7.74434C7.68912 20.5222 7.64435 20.567 7.64435 20.6222V22.068C7.64435 22.1232 7.59957 22.168 7.54435 22.168H4.50625C4.45102 22.168 4.40625 22.1232 4.40625 22.068Z" stroke="#1F2023" stroke-width="1.5" stroke-linecap="square"/>
<path d="M4 14.1035H21" stroke="#1F2023" stroke-width="1.5" stroke-miterlimit="10" stroke-linecap="square"/>
</svg>
