<svg width="24" height="24" viewBox="0 0 24 24" fill="none" xmlns="http://www.w3.org/2000/svg">
<path d="M18.5 2H11.1C11.0448 2 11 2.04477 11 2.1V12.9C11 12.9552 11.0448 13 11.1 13H21.9C21.9552 13 22 12.9552 22 12.9V7.19444" stroke="#1F2023" stroke-width="1.5"/>
<path d="M14.5461 6.48598L14.0321 5.93983L12.9398 6.96787L13.4539 7.51402L14.5461 6.48598ZM15.8124 8.92567L15.2662 9.43969L15.8124 8.92567ZM15.9552 8.92852L15.4301 8.39307L15.9552 8.92852ZM13.4539 7.51402L15.2662 9.43969L16.3585 8.41164L14.5461 6.48598L13.4539 7.51402ZM16.4804 9.46398L22.5252 3.53545L21.4748 2.46455L15.4301 8.39307L16.4804 9.46398ZM15.2662 9.43969C15.5927 9.78652 16.1403 9.79748 16.4804 9.46398L15.4301 8.39307C15.6901 8.13804 16.1089 8.14642 16.3585 8.41164L15.2662 9.43969Z" fill="#1F2023"/>
<path d="M6.12695 16.6553H18.3176" stroke="#1F2023" stroke-width="1.5" stroke-miterlimit="10" stroke-linecap="square"/>
<path d="M1 13H6" stroke="#1F2023" stroke-width="1.5" stroke-miterlimit="10" stroke-linecap="square"/>
<path d="M4.8999 8.5L2.23044 14.9118C2.07832 15.2772 2 15.6691 2 16.0649V21.9C2 21.9552 2.04477 22 2.1 22H5.9C5.95523 22 6 21.9552 6 21.9V20.0593C6 20.0041 6.04477 19.9593 6.1 19.9593H17.9C17.9552 19.9593 18 20.0041 18 20.0593V21.9C18 21.9552 18.0448 22 18.1 22H21.9C21.9552 22 22 21.9552 22 21.9V16.787" stroke="#1F2023" stroke-width="1.5" stroke-linecap="square"/>
</svg>
