<svg width="24" height="24" viewBox="0 0 24 24" fill="none" xmlns="http://www.w3.org/2000/svg">
<path d="M8.87937 11.7443L6.64937 7.20137C6.00881 5.89645 6.6124 4.32227 7.96118 3.78012L11.5598 2.33365C11.9227 2.18778 12.3091 2.49549 12.2575 2.8832C11.9862 4.92185 11.7024 8.54719 12.0948 11.7443" stroke="#1F2023" stroke-width="1.5"/>
<path d="M14.829 12.0764L17.1438 16.7994C17.7833 18.1041 17.1796 19.6773 15.8314 20.2193L12.2313 21.6663C11.8684 21.8122 11.4823 21.5047 11.5365 21.1174C11.8266 19.043 12.1942 15.2859 12.0478 12.1983" stroke="#1F2023" stroke-width="1.5"/>
<path d="M11.8956 14.7613L7.20371 16.9945C5.91158 17.6095 4.36784 17.0165 3.81984 15.6945L2.34491 12.1365C2.19464 11.774 2.50053 11.3836 2.8897 11.4339C4.95868 11.7013 8.64512 11.9819 11.8956 11.595" stroke="#1F2023" stroke-width="1.5"/>
<path d="M12.1044 8.79879L16.7963 6.56555C18.0884 5.95053 19.6322 6.54359 20.1802 7.86554L21.6551 11.4235C21.8054 11.786 21.4995 12.1765 21.1103 12.1262C19.0413 11.8587 15.3549 11.5782 12.1044 11.965L11.6673 11.965" stroke="#1F2023" stroke-width="1.5"/>
</svg>
