<svg width="24" height="24" viewBox="0 0 24 24" fill="none" xmlns="http://www.w3.org/2000/svg">
<path d="M5.00977 19.5L8.00977 16.5" stroke="#1F2023" stroke-width="1.5"/>
<path d="M19.0103 10V19.4C19.0103 19.4552 18.9655 19.5 18.9103 19.5H5.10977C5.05454 19.5 5.00977 19.4552 5.00977 19.4L5.01011 5.6C5.01012 5.54477 5.05489 5.5 5.11011 5.5H18.9012C18.9563 5.5 19.0011 5.54465 19.0012 5.59979L19.0103 10ZM19.0103 10H22.0005M16.0103 8.5L19.001 5.50928" stroke="#1F2023" stroke-width="1.5"/>
<path d="M19 15H22" stroke="#1F2023" stroke-width="1.5"/>
<path d="M2 10H5" stroke="#1F2023" stroke-width="1.5"/>
<path d="M2 15H5" stroke="#1F2023" stroke-width="1.5"/>
<path d="M14 9.5L15 12H9L10 14.5" stroke="#1F2023" stroke-width="1.5"/>
</svg>
