<svg width="24" height="24" viewBox="0 0 24 24" fill="none" xmlns="http://www.w3.org/2000/svg">
<path d="M3.75 8.25293L4.89408 17.6616C4.90018 17.7117 4.94278 17.7495 4.99334 17.7495H10.75" stroke="#1F2023" stroke-width="1.5"/>
<path d="M7.70801 17.7495V21.7495" stroke="#1F2023" stroke-width="1.5"/>
<path d="M11.5226 15.1132H7.42248C7.3728 15.1132 7.33065 15.0767 7.32352 15.0275L6.416 8.77207C6.40725 8.71176 6.45403 8.65771 6.51497 8.65771H9.3108C9.35447 8.65771 9.39309 8.68605 9.40619 8.7277L10.3805 11.8239C10.3892 11.8515 10.4095 11.874 10.4361 11.8856L13.7908 13.3422C13.8162 13.3533 13.8359 13.3743 13.8452 13.4004L16.3606 20.4661C16.3838 20.5312 16.3355 20.5997 16.2664 20.5997H13.5851C13.5426 20.5997 13.5047 20.5728 13.4907 20.5327L11.617 15.1801C11.6029 15.14 11.5651 15.1132 11.5226 15.1132Z" stroke="#1F2023" stroke-width="1.5"/>
<circle cx="7.70762" cy="5.25034" r="1.4" stroke="#1F2023" stroke-width="1.5"/>
<circle cx="16.5" cy="6.00049" r="3.75" stroke="#1F2023" stroke-width="1.5"/>
<path d="M16.5 3.94336V6.14336H18.7" stroke="#1F2023" stroke-width="1.5"/>
</svg>
