<svg width="24" height="24" viewBox="0 0 24 24" fill="none" xmlns="http://www.w3.org/2000/svg">
<path d="M19 7V3.01598C19 3.00716 18.9928 3 18.984 3H5C3.89543 3 3 3.89543 3 5V5C3 6.10457 3.89543 7 5 7H21" stroke="#1F2023" stroke-width="1.5" stroke-linecap="square" stroke-linejoin="round"/>
<path d="M3 5.6748V20.8996C3 20.9548 3.04477 20.9996 3.1 20.9996H20.9C20.9552 20.9996 21 20.9548 21 20.8996V6.99955" stroke="#1F2023" stroke-width="1.5" stroke-linecap="square" stroke-linejoin="round"/>
<path d="M21 12H15.1C15.0448 12 15 12.0448 15 12.1V15.9C15 15.9552 15.0448 16 15.1 16H21" stroke="#1F2023" stroke-width="1.5" stroke-linecap="square" stroke-linejoin="round"/>
</svg>
