<svg width="24" height="24" viewBox="0 0 24 24" fill="none" xmlns="http://www.w3.org/2000/svg">
<path d="M3 5.93331C3 5.93331 5.09809 6.12915 6.6 7.84976M6.6 7.84976C8.21111 9.69547 10 11.5 10 15C10 17.5 9 20 6.6 20C4.2 20 3 17.5 3 15C3 11.5 4.4837 9.46477 6.6 7.84976ZM6.6 7.84976C6.80853 7.69063 7.02218 7.53743 7.23843 7.39036C10.0755 5.46091 13.8845 5.6292 16.5 7.84976V7.84976M16.5 7.84976C18.4816 9.5321 20.1 11.5 20.1 15C20.1 17.5 19 20 16.5 20C14 20 13 17.5 13 15C13 11.5 14.7627 9.62725 16.5 7.84976ZM16.5 7.84976C18 6.31505 21 5.93331 21 5.93331" stroke="#1F2023" stroke-width="1.5" stroke-linecap="square"/>
</svg>
