<svg width="24" height="24" viewBox="0 0 24 24" fill="none" xmlns="http://www.w3.org/2000/svg">
<path d="M12 20C16.4183 20 20 16.4183 20 12C20 7.58172 16.4183 4 12 4C7.58172 4 4 7.58172 4 12C4 16.4183 7.58172 20 12 20Z" stroke="#1F2023" stroke-width="1.5" stroke-linecap="square"/>
<path d="M21 5C22.2469 6.88238 23 9.3275 23 12C23 14.6725 22.2469 17.1176 21 19M3 5C1.75313 6.88238 1 9.3275 1 12C1 14.6725 1.75313 17.1176 3 19" stroke="#1F2023" stroke-width="1.5" stroke-linecap="square"/>
<path d="M12 13L12 8" stroke="#1F2023" stroke-width="1.5" stroke-miterlimit="10"/>
<path d="M12 16C11.4477 16 11 15.5523 11 15C11 14.4477 11.4477 14 12 14C12.5523 14 13 14.4477 13 15C13 15.5523 12.5523 16 12 16Z" fill="#1F2023"/>
</svg>
