<svg width="24" height="24" viewBox="0 0 24 24" fill="none" xmlns="http://www.w3.org/2000/svg">
<path d="M17.741 5.2774H16.991C16.991 5.46062 17.0581 5.6375 17.1796 5.77466L17.741 5.2774ZM18.491 3V2.25H16.991V3H18.491ZM7.00162 3V2.25H5.50162V3H7.00162ZM6.25162 5.2774L6.81398 5.77364C6.9349 5.63662 7.00162 5.46015 7.00162 5.2774H6.25162ZM5.84636 17.9809L6.40334 17.4786L5.84636 17.9809ZM6.25162 18.9802L5.50162 18.9802L5.50163 18.9836L6.25162 18.9802ZM6.25171 19L5.50172 19.0033L5.50501 19.75H6.25171V19ZM17.7617 19V19.75H18.5079L18.5117 19.0038L17.7617 19ZM17.7618 18.9802L18.5118 18.9841L18.5118 18.9801L17.7618 18.9802ZM18.1671 17.9809L17.6091 17.4798L17.6091 17.4798L18.1671 17.9809ZM18.491 5.2774V3H16.991V5.2774H18.491ZM5.50162 3V5.2774H7.00162V3H5.50162ZM5.68927 4.78116C4.25509 6.40641 2.77064 8.32977 2.36079 10.6291C1.93923 12.9941 2.67614 15.5853 5.28938 18.4832L6.40334 17.4786C4.00795 14.8223 3.51868 12.681 3.83751 10.8923C4.16804 9.03802 5.39054 7.38672 6.81398 5.77364L5.68927 4.78116ZM5.28938 18.4832C5.38989 18.5946 5.44567 18.7253 5.47538 18.8389C5.48986 18.8942 5.49661 18.9399 5.49964 18.9679C5.50112 18.9817 5.50163 18.9904 5.50176 18.993C5.50182 18.9943 5.50179 18.9939 5.50174 18.9919C5.50171 18.9909 5.50169 18.9894 5.50166 18.9875C5.50165 18.9865 5.50164 18.9854 5.50164 18.9842C5.50163 18.9836 5.50163 18.983 5.50163 18.9823C5.50163 18.982 5.50163 18.9816 5.50162 18.9813C5.50162 18.9811 5.50162 18.9809 5.50162 18.9808C5.50162 18.9805 5.50162 18.9802 6.25162 18.9802C7.00162 18.9802 7.00162 18.98 7.00162 18.9797C7.00162 18.9796 7.00162 18.9793 7.00162 18.9791C7.00162 18.9788 7.00162 18.9784 7.00162 18.978C7.00162 18.9772 7.00161 18.9764 7.00161 18.9755C7.0016 18.9738 7.00158 18.9719 7.00156 18.9699C7.00151 18.9658 7.00143 18.9612 7.00131 18.956C7.00106 18.9457 7.00063 18.9331 6.99991 18.9185C6.99845 18.8893 6.99579 18.8515 6.99095 18.8067C6.98131 18.7175 6.96273 18.5976 6.92655 18.4593C6.85495 18.1856 6.7081 17.8166 6.40334 17.4786L5.28938 18.4832ZM5.50163 18.9836L5.50172 19.0033L7.0017 18.9967L7.00162 18.9769L5.50163 18.9836ZM18.5117 19.0038L18.5118 18.9841L17.0118 18.9764L17.0117 18.9962L18.5117 19.0038ZM17.7618 18.9802C18.5118 18.9801 18.5118 18.9804 18.5118 18.9806C18.5118 18.9807 18.5118 18.981 18.5118 18.9812C18.5118 18.9815 18.5118 18.9819 18.5118 18.9822C18.5118 18.9829 18.5118 18.9835 18.5118 18.9841C18.5118 18.9853 18.5118 18.9864 18.5118 18.9874C18.5118 18.9893 18.5117 18.9908 18.5117 18.9918C18.5117 18.9939 18.5116 18.9943 18.5117 18.9931C18.5118 18.9906 18.5123 18.9819 18.5138 18.9683C18.5168 18.9405 18.5235 18.8951 18.538 18.8398C18.5676 18.7266 18.6235 18.5951 18.7251 18.482L17.6091 17.4798C17.3053 17.8181 17.1586 18.1862 17.0869 18.4599C17.0507 18.598 17.0321 18.7178 17.0225 18.8069C17.0177 18.8516 17.015 18.8893 17.0135 18.9186C17.0128 18.9332 17.0124 18.9458 17.0121 18.9561C17.012 18.9613 17.0119 18.9659 17.0119 18.97C17.0119 18.972 17.0119 18.9739 17.0118 18.9756C17.0118 18.9765 17.0118 18.9773 17.0118 18.9781C17.0118 18.9785 17.0118 18.9789 17.0118 18.9793C17.0118 18.9795 17.0118 18.9797 17.0118 18.9798C17.0118 18.9801 17.0118 18.9804 17.7618 18.9802ZM18.7251 18.482C21.3277 15.584 22.0612 12.9929 21.6383 10.6286C21.227 8.32934 19.7426 6.40623 18.3025 4.78015L17.1796 5.77466C18.6075 7.3869 19.83 9.03845 20.1617 10.8928C20.4818 12.6821 19.9944 14.8236 17.6091 17.4798L18.7251 18.482ZM6.25171 19.75C6.26049 19.75 6.26926 19.75 6.27803 19.75C6.28679 19.75 6.29555 19.75 6.3043 19.75C6.31305 19.75 6.32179 19.75 6.33052 19.75C6.33926 19.75 6.34798 19.75 6.3567 19.75C6.36542 19.75 6.37413 19.75 6.38284 19.75C6.39154 19.75 6.40024 19.75 6.40893 19.75C6.41762 19.75 6.4263 19.75 6.43498 19.75C6.44365 19.75 6.45232 19.75 6.46098 19.75C6.46964 19.75 6.47829 19.75 6.48694 19.75C6.49559 19.75 6.50422 19.75 6.51286 19.75C6.52149 19.75 6.53011 19.75 6.53873 19.75C6.54735 19.75 6.55596 19.75 6.56456 19.75C6.57316 19.75 6.58176 19.75 6.59034 19.75C6.59893 19.75 6.60751 19.75 6.61609 19.75C6.62466 19.75 6.63323 19.75 6.64179 19.75C6.65035 19.75 6.6589 19.75 6.66745 19.75C6.67599 19.75 6.68453 19.75 6.69306 19.75C6.70159 19.75 6.71012 19.75 6.71864 19.75C6.72715 19.75 6.73566 19.75 6.74417 19.75C6.75267 19.75 6.76117 19.75 6.76966 19.75C6.77815 19.75 6.78663 19.75 6.79511 19.75C6.80358 19.75 6.81205 19.75 6.82051 19.75C6.82897 19.75 6.83743 19.75 6.84588 19.75C6.85433 19.75 6.86277 19.75 6.8712 19.75C6.87964 19.75 6.88806 19.75 6.89648 19.75C6.90491 19.75 6.91332 19.75 6.92173 19.75C6.93013 19.75 6.93853 19.75 6.94693 19.75C6.95532 19.75 6.96371 19.75 6.97209 19.75C6.98047 19.75 6.98884 19.75 6.99721 19.75C7.00558 19.75 7.01394 19.75 7.02229 19.75C7.03065 19.75 7.03899 19.75 7.04733 19.75C7.05567 19.75 7.06401 19.75 7.07233 19.75C7.08066 19.75 7.08898 19.75 7.0973 19.75C7.10561 19.75 7.11392 19.75 7.12222 19.75C7.13052 19.75 7.13881 19.75 7.1471 19.75C7.15539 19.75 7.16367 19.75 7.17195 19.75C7.18022 19.75 7.18849 19.75 7.19675 19.75C7.20501 19.75 7.21327 19.75 7.22152 19.75C7.22977 19.75 7.23801 19.75 7.24625 19.75C7.25448 19.75 7.26271 19.75 7.27094 19.75C7.27916 19.75 7.28738 19.75 7.29559 19.75C7.3038 19.75 7.312 19.75 7.3202 19.75C7.3284 19.75 7.33659 19.75 7.34478 19.75C7.35296 19.75 7.36114 19.75 7.36932 19.75C7.37749 19.75 7.38566 19.75 7.39382 19.75C7.40198 19.75 7.41013 19.75 7.41828 19.75C7.42643 19.75 7.43457 19.75 7.44271 19.75C7.45084 19.75 7.45897 19.75 7.4671 19.75C7.47522 19.75 7.48334 19.75 7.49145 19.75C7.49956 19.75 7.50767 19.75 7.51577 19.75C7.52387 19.75 7.53196 19.75 7.54005 19.75C7.54813 19.75 7.55622 19.75 7.56429 19.75C7.57237 19.75 7.58044 19.75 7.5885 19.75C7.59656 19.75 7.60462 19.75 7.61267 19.75C7.62072 19.75 7.62877 19.75 7.63681 19.75C7.64485 19.75 7.65288 19.75 7.66091 19.75C7.66894 19.75 7.67696 19.75 7.68497 19.75C7.69299 19.75 7.701 19.75 7.709 19.75C7.71701 19.75 7.72501 19.75 7.733 19.75C7.74099 19.75 7.74898 19.75 7.75696 19.75C7.76494 19.75 7.77292 19.75 7.78089 19.75C7.78886 19.75 7.79682 19.75 7.80478 19.75C7.81274 19.75 7.82069 19.75 7.82864 19.75C7.83658 19.75 7.84452 19.75 7.85246 19.75C7.86039 19.75 7.86832 19.75 7.87625 19.75C7.88417 19.75 7.89209 19.75 7.9 19.75C7.90792 19.75 7.91582 19.75 7.92373 19.75C7.93163 19.75 7.93952 19.75 7.94742 19.75C7.95531 19.75 7.96319 19.75 7.97107 19.75C7.97895 19.75 7.98682 19.75 7.99469 19.75C8.00256 19.75 8.01043 19.75 8.01828 19.75C8.02614 19.75 8.03399 19.75 8.04184 19.75C8.04969 19.75 8.05753 19.75 8.06537 19.75C8.0732 19.75 8.08103 19.75 8.08886 19.75C8.09668 19.75 8.1045 19.75 8.11232 19.75C8.12013 19.75 8.12794 19.75 8.13575 19.75C8.14355 19.75 8.15135 19.75 8.15914 19.75C8.16694 19.75 8.17472 19.75 8.18251 19.75C8.19029 19.75 8.19807 19.75 8.20584 19.75C8.21361 19.75 8.22138 19.75 8.22914 19.75C8.2369 19.75 8.24466 19.75 8.25241 19.75C8.26017 19.75 8.26791 19.75 8.27565 19.75C8.2834 19.75 8.29113 19.75 8.29886 19.75C8.30659 19.75 8.31432 19.75 8.32204 19.75C8.32976 19.75 8.33748 19.75 8.34519 19.75C8.3529 19.75 8.36061 19.75 8.36831 19.75C8.37601 19.75 8.38371 19.75 8.3914 19.75C8.39909 19.75 8.40677 19.75 8.41446 19.75C8.42214 19.75 8.42981 19.75 8.43748 19.75C8.44516 19.75 8.45282 19.75 8.46048 19.75C8.46815 19.75 8.4758 19.75 8.48345 19.75C8.49111 19.75 8.49875 19.75 8.50639 19.75C8.51404 19.75 8.52167 19.75 8.52931 19.75C8.53694 19.75 8.54457 19.75 8.55219 19.75C8.55981 19.75 8.56743 19.75 8.57504 19.75C8.58266 19.75 8.59027 19.75 8.59787 19.75C8.60547 19.75 8.61307 19.75 8.62067 19.75C8.62826 19.75 8.63585 19.75 8.64344 19.75C8.65102 19.75 8.6586 19.75 8.66618 19.75C8.67376 19.75 8.68133 19.75 8.68889 19.75C8.69646 19.75 8.70402 19.75 8.71158 19.75C8.71914 19.75 8.72669 19.75 8.73424 19.75C8.74179 19.75 8.74933 19.75 8.75687 19.75C8.76441 19.75 8.77195 19.75 8.77948 19.75C8.78701 19.75 8.79453 19.75 8.80206 19.75C8.80958 19.75 8.81709 19.75 8.82461 19.75C8.83212 19.75 8.83963 19.75 8.84713 19.75C8.85464 19.75 8.86214 19.75 8.86963 19.75C8.87713 19.75 8.88462 19.75 8.8921 19.75C8.89959 19.75 8.90707 19.75 8.91455 19.75C8.92203 19.75 8.9295 19.75 8.93697 19.75C8.94444 19.75 8.95191 19.75 8.95937 19.75C8.96683 19.75 8.97428 19.75 8.98174 19.75C8.98919 19.75 8.99664 19.75 9.00408 19.75C9.01153 19.75 9.01896 19.75 9.0264 19.75C9.03384 19.75 9.04127 19.75 9.0487 19.75C9.05612 19.75 9.06355 19.75 9.07097 19.75C9.07838 19.75 9.0858 19.75 9.09321 19.75C9.10062 19.75 9.10803 19.75 9.11543 19.75C9.12283 19.75 9.13023 19.75 9.13763 19.75C9.14502 19.75 9.15241 19.75 9.1598 19.75C9.16719 19.75 9.17457 19.75 9.18195 19.75C9.18933 19.75 9.1967 19.75 9.20408 19.75C9.21145 19.75 9.21881 19.75 9.22618 19.75C9.23354 19.75 9.2409 19.75 9.24826 19.75C9.25561 19.75 9.26296 19.75 9.27031 19.75C9.27766 19.75 9.285 19.75 9.29234 19.75C9.29968 19.75 9.30702 19.75 9.31435 19.75C9.32169 19.75 9.32902 19.75 9.33634 19.75C9.34367 19.75 9.35099 19.75 9.35831 19.75C9.36562 19.75 9.37294 19.75 9.38025 19.75C9.38756 19.75 9.39487 19.75 9.40217 19.75C9.40947 19.75 9.41677 19.75 9.42407 19.75C9.43136 19.75 9.43865 19.75 9.44594 19.75C9.45323 19.75 9.46052 19.75 9.4678 19.75C9.47508 19.75 9.48236 19.75 9.48963 19.75C9.49691 19.75 9.50418 19.75 9.51145 19.75C9.51871 19.75 9.52598 19.75 9.53324 19.75C9.5405 19.75 9.54775 19.75 9.55501 19.75C9.56226 19.75 9.56951 19.75 9.57676 19.75C9.584 19.75 9.59125 19.75 9.59849 19.75C9.60573 19.75 9.61296 19.75 9.6202 19.75C9.62743 19.75 9.63466 19.75 9.64189 19.75C9.64911 19.75 9.65634 19.75 9.66356 19.75C9.67078 19.75 9.67799 19.75 9.68521 19.75C9.69242 19.75 9.69963 19.75 9.70683 19.75C9.71404 19.75 9.72125 19.75 9.72845 19.75C9.73565 19.75 9.74284 19.75 9.75004 19.75C9.75723 19.75 9.76442 19.75 9.77161 19.75C9.7788 19.75 9.78598 19.75 9.79316 19.75C9.80034 19.75 9.80752 19.75 9.8147 19.75C9.82187 19.75 9.82904 19.75 9.83621 19.75C9.84338 19.75 9.85055 19.75 9.85771 19.75C9.86487 19.75 9.87203 19.75 9.87919 19.75C9.88635 19.75 9.8935 19.75 9.90065 19.75C9.9078 19.75 9.91495 19.75 9.9221 19.75C9.92924 19.75 9.93638 19.75 9.94352 19.75C9.95066 19.75 9.9578 19.75 9.96493 19.75C9.97206 19.75 9.97919 19.75 9.98632 19.75C9.99345 19.75 10.0006 19.75 10.0077 19.75C10.0148 19.75 10.0219 19.75 10.0291 19.75C10.0362 19.75 10.0433 19.75 10.0504 19.75C10.0575 19.75 10.0646 19.75 10.0717 19.75C10.0788 19.75 10.0859 19.75 10.093 19.75C10.1001 19.75 10.1072 19.75 10.1143 19.75C10.1214 19.75 10.1285 19.75 10.1356 19.75C10.1427 19.75 10.1498 19.75 10.1568 19.75C10.1639 19.75 10.171 19.75 10.1781 19.75C10.1852 19.75 10.1922 19.75 10.1993 19.75C10.2064 19.75 10.2135 19.75 10.2205 19.75C10.2276 19.75 10.2347 19.75 10.2417 19.75C10.2488 19.75 10.2559 19.75 10.2629 19.75C10.27 19.75 10.277 19.75 10.2841 19.75C10.2911 19.75 10.2982 19.75 10.3052 19.75C10.3123 19.75 10.3193 19.75 10.3264 19.75C10.3334 19.75 10.3405 19.75 10.3475 19.75C10.3545 19.75 10.3616 19.75 10.3686 19.75C10.3756 19.75 10.3827 19.75 10.3897 19.75C10.3967 19.75 10.4038 19.75 10.4108 19.75C10.4178 19.75 10.4248 19.75 10.4319 19.75C10.4389 19.75 10.4459 19.75 10.4529 19.75C10.4599 19.75 10.4669 19.75 10.4739 19.75C10.481 19.75 10.488 19.75 10.495 19.75C10.502 19.75 10.509 19.75 10.516 19.75C10.523 19.75 10.53 19.75 10.537 19.75C10.544 19.75 10.551 19.75 10.558 19.75C10.565 19.75 10.572 19.75 10.579 19.75C10.586 19.75 10.5929 19.75 10.5999 19.75C10.6069 19.75 10.6139 19.75 10.6209 19.75C10.6279 19.75 10.6349 19.75 10.6418 19.75C10.6488 19.75 10.6558 19.75 10.6628 19.75C10.6697 19.75 10.6767 19.75 10.6837 19.75C10.6907 19.75 10.6976 19.75 10.7046 19.75C10.7116 19.75 10.7185 19.75 10.7255 19.75C10.7324 19.75 10.7394 19.75 10.7464 19.75C10.7533 19.75 10.7603 19.75 10.7672 19.75C10.7742 19.75 10.7812 19.75 10.7881 19.75C10.7951 19.75 10.802 19.75 10.809 19.75C10.8159 19.75 10.8229 19.75 10.8298 19.75C10.8368 19.75 10.8437 19.75 10.8506 19.75C10.8576 19.75 10.8645 19.75 10.8715 19.75C10.8784 19.75 10.8853 19.75 10.8923 19.75C10.8992 19.75 10.9062 19.75 10.9131 19.75C10.92 19.75 10.9269 19.75 10.9339 19.75C10.9408 19.75 10.9477 19.75 10.9547 19.75C10.9616 19.75 10.9685 19.75 10.9754 19.75C10.9824 19.75 10.9893 19.75 10.9962 19.75C11.0031 19.75 11.0101 19.75 11.017 19.75C11.0239 19.75 11.0308 19.75 11.0377 19.75C11.0446 19.75 11.0516 19.75 11.0585 19.75C11.0654 19.75 11.0723 19.75 11.0792 19.75C11.0861 19.75 11.093 19.75 11.0999 19.75C11.1068 19.75 11.1137 19.75 11.1206 19.75C11.1276 19.75 11.1345 19.75 11.1414 19.75C11.1483 19.75 11.1552 19.75 11.1621 19.75C11.169 19.75 11.1759 19.75 11.1828 19.75C11.1897 19.75 11.1966 19.75 11.2034 19.75C11.2103 19.75 11.2172 19.75 11.2241 19.75C11.231 19.75 11.2379 19.75 11.2448 19.75C11.2517 19.75 11.2586 19.75 11.2655 19.75C11.2724 19.75 11.2793 19.75 11.2861 19.75C11.293 19.75 11.2999 19.75 11.3068 19.75C11.3137 19.75 11.3206 19.75 11.3274 19.75C11.3343 19.75 11.3412 19.75 11.3481 19.75C11.355 19.75 11.3619 19.75 11.3687 19.75C11.3756 19.75 11.3825 19.75 11.3894 19.75C11.3962 19.75 11.4031 19.75 11.41 19.75C11.4169 19.75 11.4237 19.75 11.4306 19.75C11.4375 19.75 11.4444 19.75 11.4512 19.75C11.4581 19.75 11.465 19.75 11.4719 19.75C11.4787 19.75 11.4856 19.75 11.4925 19.75C11.4993 19.75 11.5062 19.75 11.5131 19.75C11.5199 19.75 11.5268 19.75 11.5337 19.75C11.5405 19.75 11.5474 19.75 11.5543 19.75C11.5611 19.75 11.568 19.75 11.5749 19.75C11.5817 19.75 11.5886 19.75 11.5954 19.75C11.6023 19.75 11.6092 19.75 11.616 19.75C11.6229 19.75 11.6298 19.75 11.6366 19.75C11.6435 19.75 11.6503 19.75 11.6572 19.75C11.6641 19.75 11.6709 19.75 11.6778 19.75C11.6846 19.75 11.6915 19.75 11.6983 19.75C11.7052 19.75 11.7121 19.75 11.7189 19.75C11.7258 19.75 11.7326 19.75 11.7395 19.75C11.7463 19.75 11.7532 19.75 11.76 19.75C11.7669 19.75 11.7738 19.75 11.7806 19.75C11.7875 19.75 11.7943 19.75 11.8012 19.75C11.808 19.75 11.8149 19.75 11.8217 19.75C11.8286 19.75 11.8354 19.75 11.8423 19.75C11.8491 19.75 11.856 19.75 11.8628 19.75C11.8697 19.75 11.8766 19.75 11.8834 19.75C11.8903 19.75 11.8971 19.75 11.904 19.75C11.9108 19.75 11.9177 19.75 11.9245 19.75C11.9314 19.75 11.9382 19.75 11.9451 19.75C11.9519 19.75 11.9588 19.75 11.9656 19.75C11.9725 19.75 11.9793 19.75 11.9862 19.75C11.993 19.75 11.9999 19.75 12.0067 19.75C12.0136 19.75 12.0204 19.75 12.0273 19.75C12.0341 19.75 12.041 19.75 12.0478 19.75C12.0547 19.75 12.0615 19.75 12.0684 19.75C12.0752 19.75 12.0821 19.75 12.0889 19.75C12.0958 19.75 12.1026 19.75 12.1095 19.75C12.1163 19.75 12.1232 19.75 12.13 19.75C12.1369 19.75 12.1437 19.75 12.1506 19.75C12.1574 19.75 12.1643 19.75 12.1712 19.75C12.178 19.75 12.1849 19.75 12.1917 19.75C12.1986 19.75 12.2054 19.75 12.2123 19.75C12.2191 19.75 12.226 19.75 12.2328 19.75C12.2397 19.75 12.2465 19.75 12.2534 19.75C12.2602 19.75 12.2671 19.75 12.274 19.75C12.2808 19.75 12.2877 19.75 12.2945 19.75C12.3014 19.75 12.3082 19.75 12.3151 19.75C12.322 19.75 12.3288 19.75 12.3357 19.75C12.3425 19.75 12.3494 19.75 12.3562 19.75C12.3631 19.75 12.37 19.75 12.3768 19.75C12.3837 19.75 12.3905 19.75 12.3974 19.75C12.4043 19.75 12.4111 19.75 12.418 19.75C12.4249 19.75 12.4317 19.75 12.4386 19.75C12.4454 19.75 12.4523 19.75 12.4592 19.75C12.466 19.75 12.4729 19.75 12.4798 19.75C12.4866 19.75 12.4935 19.75 12.5004 19.75C12.5072 19.75 12.5141 19.75 12.521 19.75C12.5278 19.75 12.5347 19.75 12.5416 19.75C12.5485 19.75 12.5553 19.75 12.5622 19.75C12.5691 19.75 12.5759 19.75 12.5828 19.75C12.5897 19.75 12.5966 19.75 12.6034 19.75C12.6103 19.75 12.6172 19.75 12.6241 19.75C12.631 19.75 12.6378 19.75 12.6447 19.75C12.6516 19.75 12.6585 19.75 12.6653 19.75C12.6722 19.75 12.6791 19.75 12.686 19.75C12.6929 19.75 12.6998 19.75 12.7066 19.75C12.7135 19.75 12.7204 19.75 12.7273 19.75C12.7342 19.75 12.7411 19.75 12.748 19.75C12.7549 19.75 12.7617 19.75 12.7686 19.75C12.7755 19.75 12.7824 19.75 12.7893 19.75C12.7962 19.75 12.8031 19.75 12.81 19.75C12.8169 19.75 12.8238 19.75 12.8307 19.75C12.8376 19.75 12.8445 19.75 12.8514 19.75C12.8583 19.75 12.8652 19.75 12.8721 19.75C12.879 19.75 12.8859 19.75 12.8928 19.75C12.8997 19.75 12.9066 19.75 12.9135 19.75C12.9204 19.75 12.9273 19.75 12.9342 19.75C12.9412 19.75 12.9481 19.75 12.955 19.75C12.9619 19.75 12.9688 19.75 12.9757 19.75C12.9826 19.75 12.9896 19.75 12.9965 19.75C13.0034 19.75 13.0103 19.75 13.0172 19.75C13.0242 19.75 13.0311 19.75 13.038 19.75C13.0449 19.75 13.0518 19.75 13.0588 19.75C13.0657 19.75 13.0726 19.75 13.0796 19.75C13.0865 19.75 13.0934 19.75 13.1004 19.75C13.1073 19.75 13.1142 19.75 13.1212 19.75C13.1281 19.75 13.135 19.75 13.142 19.75C13.1489 19.75 13.1559 19.75 13.1628 19.75C13.1697 19.75 13.1767 19.75 13.1836 19.75C13.1906 19.75 13.1975 19.75 13.2045 19.75C13.2114 19.75 13.2184 19.75 13.2253 19.75C13.2323 19.75 13.2392 19.75 13.2462 19.75C13.2532 19.75 13.2601 19.75 13.2671 19.75C13.274 19.75 13.281 19.75 13.288 19.75C13.2949 19.75 13.3019 19.75 13.3089 19.75C13.3158 19.75 13.3228 19.75 13.3298 19.75C13.3367 19.75 13.3437 19.75 13.3507 19.75C13.3577 19.75 13.3646 19.75 13.3716 19.75C13.3786 19.75 13.3856 19.75 13.3926 19.75C13.3995 19.75 13.4065 19.75 13.4135 19.75C13.4205 19.75 13.4275 19.75 13.4345 19.75C13.4415 19.75 13.4485 19.75 13.4555 19.75C13.4624 19.75 13.4694 19.75 13.4764 19.75C13.4834 19.75 13.4904 19.75 13.4974 19.75C13.5044 19.75 13.5115 19.75 13.5185 19.75C13.5255 19.75 13.5325 19.75 13.5395 19.75C13.5465 19.75 13.5535 19.75 13.5605 19.75C13.5675 19.75 13.5746 19.75 13.5816 19.75C13.5886 19.75 13.5956 19.75 13.6027 19.75C13.6097 19.75 13.6167 19.75 13.6237 19.75C13.6308 19.75 13.6378 19.75 13.6448 19.75C13.6519 19.75 13.6589 19.75 13.6659 19.75C13.673 19.75 13.68 19.75 13.6871 19.75C13.6941 19.75 13.7012 19.75 13.7082 19.75C13.7153 19.75 13.7223 19.75 13.7294 19.75C13.7364 19.75 13.7435 19.75 13.7505 19.75C13.7576 19.75 13.7646 19.75 13.7717 19.75C13.7788 19.75 13.7858 19.75 13.7929 19.75C13.8 19.75 13.807 19.75 13.8141 19.75C13.8212 19.75 13.8283 19.75 13.8353 19.75C13.8424 19.75 13.8495 19.75 13.8566 19.75C13.8637 19.75 13.8708 19.75 13.8779 19.75C13.8849 19.75 13.892 19.75 13.8991 19.75C13.9062 19.75 13.9133 19.75 13.9204 19.75C13.9275 19.75 13.9346 19.75 13.9417 19.75C13.9488 19.75 13.9559 19.75 13.963 19.75C13.9702 19.75 13.9773 19.75 13.9844 19.75C13.9915 19.75 13.9986 19.75 14.0057 19.75C14.0129 19.75 14.02 19.75 14.0271 19.75C14.0342 19.75 14.0414 19.75 14.0485 19.75C14.0556 19.75 14.0628 19.75 14.0699 19.75C14.0771 19.75 14.0842 19.75 14.0913 19.75C14.0985 19.75 14.1056 19.75 14.1128 19.75C14.1199 19.75 14.1271 19.75 14.1343 19.75C14.1414 19.75 14.1486 19.75 14.1557 19.75C14.1629 19.75 14.1701 19.75 14.1772 19.75C14.1844 19.75 14.1916 19.75 14.1987 19.75C14.2059 19.75 14.2131 19.75 14.2203 19.75C14.2275 19.75 14.2346 19.75 14.2418 19.75C14.249 19.75 14.2562 19.75 14.2634 19.75C14.2706 19.75 14.2778 19.75 14.285 19.75C14.2922 19.75 14.2994 19.75 14.3066 19.75C14.3138 19.75 14.321 19.75 14.3282 19.75C14.3354 19.75 14.3427 19.75 14.3499 19.75C14.3571 19.75 14.3643 19.75 14.3716 19.75C14.3788 19.75 14.386 19.75 14.3932 19.75C14.4005 19.75 14.4077 19.75 14.415 19.75C14.4222 19.75 14.4294 19.75 14.4367 19.75C14.4439 19.75 14.4512 19.75 14.4584 19.75C14.4657 19.75 14.4729 19.75 14.4802 19.75C14.4875 19.75 14.4947 19.75 14.502 19.75C14.5093 19.75 14.5165 19.75 14.5238 19.75C14.5311 19.75 14.5384 19.75 14.5456 19.75C14.5529 19.75 14.5602 19.75 14.5675 19.75C14.5748 19.75 14.5821 19.75 14.5894 19.75C14.5967 19.75 14.604 19.75 14.6113 19.75C14.6186 19.75 14.6259 19.75 14.6332 19.75C14.6405 19.75 14.6478 19.75 14.6551 19.75C14.6625 19.75 14.6698 19.75 14.6771 19.75C14.6844 19.75 14.6918 19.75 14.6991 19.75C14.7064 19.75 14.7138 19.75 14.7211 19.75C14.7284 19.75 14.7358 19.75 14.7431 19.75C14.7505 19.75 14.7578 19.75 14.7652 19.75C14.7725 19.75 14.7799 19.75 14.7873 19.75C14.7946 19.75 14.802 19.75 14.8094 19.75C14.8167 19.75 14.8241 19.75 14.8315 19.75C14.8389 19.75 14.8463 19.75 14.8536 19.75C14.861 19.75 14.8684 19.75 14.8758 19.75C14.8832 19.75 14.8906 19.75 14.898 19.75C14.9054 19.75 14.9128 19.75 14.9202 19.75C14.9276 19.75 14.9351 19.75 14.9425 19.75C14.9499 19.75 14.9573 19.75 14.9647 19.75C14.9722 19.75 14.9796 19.75 14.987 19.75C14.9945 19.75 15.0019 19.75 15.0094 19.75C15.0168 19.75 15.0243 19.75 15.0317 19.75C15.0392 19.75 15.0466 19.75 15.0541 19.75C15.0615 19.75 15.069 19.75 15.0765 19.75C15.0839 19.75 15.0914 19.75 15.0989 19.75C15.1064 19.75 15.1139 19.75 15.1213 19.75C15.1288 19.75 15.1363 19.75 15.1438 19.75C15.1513 19.75 15.1588 19.75 15.1663 19.75C15.1738 19.75 15.1813 19.75 15.1888 19.75C15.1963 19.75 15.2039 19.75 15.2114 19.75C15.2189 19.75 15.2264 19.75 15.234 19.75C15.2415 19.75 15.249 19.75 15.2566 19.75C15.2641 19.75 15.2717 19.75 15.2792 19.75C15.2867 19.75 15.2943 19.75 15.3019 19.75C15.3094 19.75 15.317 19.75 15.3245 19.75C15.3321 19.75 15.3397 19.75 15.3473 19.75C15.3548 19.75 15.3624 19.75 15.37 19.75C15.3776 19.75 15.3852 19.75 15.3928 19.75C15.4004 19.75 15.408 19.75 15.4156 19.75C15.4232 19.75 15.4308 19.75 15.4384 19.75C15.446 19.75 15.4536 19.75 15.4613 19.75C15.4689 19.75 15.4765 19.75 15.4841 19.75C15.4918 19.75 15.4994 19.75 15.507 19.75C15.5147 19.75 15.5223 19.75 15.53 19.75C15.5376 19.75 15.5453 19.75 15.553 19.75C15.5606 19.75 15.5683 19.75 15.576 19.75C15.5836 19.75 15.5913 19.75 15.599 19.75C15.6067 19.75 15.6144 19.75 15.622 19.75C15.6297 19.75 15.6374 19.75 15.6451 19.75C15.6528 19.75 15.6605 19.75 15.6683 19.75C15.676 19.75 15.6837 19.75 15.6914 19.75C15.6991 19.75 15.7068 19.75 15.7146 19.75C15.7223 19.75 15.73 19.75 15.7378 19.75C15.7455 19.75 15.7533 19.75 15.761 19.75C15.7688 19.75 15.7765 19.75 15.7843 19.75C15.7921 19.75 15.7998 19.75 15.8076 19.75C15.8154 19.75 15.8232 19.75 15.8309 19.75C15.8387 19.75 15.8465 19.75 15.8543 19.75C15.8621 19.75 15.8699 19.75 15.8777 19.75C15.8855 19.75 15.8933 19.75 15.9011 19.75C15.9089 19.75 15.9168 19.75 15.9246 19.75C15.9324 19.75 15.9402 19.75 15.9481 19.75C15.9559 19.75 15.9638 19.75 15.9716 19.75C15.9794 19.75 15.9873 19.75 15.9952 19.75C16.003 19.75 16.0109 19.75 16.0187 19.75C16.0266 19.75 16.0345 19.75 16.0424 19.75C16.0502 19.75 16.0581 19.75 16.066 19.75C16.0739 19.75 16.0818 19.75 16.0897 19.75C16.0976 19.75 16.1055 19.75 16.1134 19.75C16.1213 19.75 16.1293 19.75 16.1372 19.75C16.1451 19.75 16.153 19.75 16.161 19.75C16.1689 19.75 16.1769 19.75 16.1848 19.75C16.1928 19.75 16.2007 19.75 16.2087 19.75C16.2166 19.75 16.2246 19.75 16.2326 19.75C16.2405 19.75 16.2485 19.75 16.2565 19.75C16.2645 19.75 16.2724 19.75 16.2804 19.75C16.2884 19.75 16.2964 19.75 16.3044 19.75C16.3124 19.75 16.3205 19.75 16.3285 19.75C16.3365 19.75 16.3445 19.75 16.3525 19.75C16.3606 19.75 16.3686 19.75 16.3766 19.75C16.3847 19.75 16.3927 19.75 16.4008 19.75C16.4088 19.75 16.4169 19.75 16.4249 19.75C16.433 19.75 16.4411 19.75 16.4491 19.75C16.4572 19.75 16.4653 19.75 16.4734 19.75C16.4815 19.75 16.4896 19.75 16.4977 19.75C16.5058 19.75 16.5139 19.75 16.522 19.75C16.5301 19.75 16.5382 19.75 16.5463 19.75C16.5545 19.75 16.5626 19.75 16.5707 19.75C16.5789 19.75 16.587 19.75 16.5952 19.75C16.6033 19.75 16.6115 19.75 16.6196 19.75C16.6278 19.75 16.636 19.75 16.6441 19.75C16.6523 19.75 16.6605 19.75 16.6687 19.75C16.6768 19.75 16.685 19.75 16.6932 19.75C16.7014 19.75 16.7096 19.75 16.7179 19.75C16.7261 19.75 16.7343 19.75 16.7425 19.75C16.7507 19.75 16.759 19.75 16.7672 19.75C16.7754 19.75 16.7837 19.75 16.7919 19.75C16.8002 19.75 16.8084 19.75 16.8167 19.75C16.825 19.75 16.8332 19.75 16.8415 19.75C16.8498 19.75 16.8581 19.75 16.8663 19.75C16.8746 19.75 16.8829 19.75 16.8912 19.75C16.8995 19.75 16.9078 19.75 16.9161 19.75C16.9245 19.75 16.9328 19.75 16.9411 19.75C16.9494 19.75 16.9578 19.75 16.9661 19.75C16.9744 19.75 16.9828 19.75 16.9911 19.75C16.9995 19.75 17.0079 19.75 17.0162 19.75C17.0246 19.75 17.033 19.75 17.0414 19.75C17.0497 19.75 17.0581 19.75 17.0665 19.75C17.0749 19.75 17.0833 19.75 17.0917 19.75C17.1001 19.75 17.1085 19.75 17.117 19.75C17.1254 19.75 17.1338 19.75 17.1422 19.75C17.1507 19.75 17.1591 19.75 17.1676 19.75C17.176 19.75 17.1845 19.75 17.1929 19.75C17.2014 19.75 17.2099 19.75 17.2183 19.75C17.2268 19.75 17.2353 19.75 17.2438 19.75C17.2523 19.75 17.2608 19.75 17.2693 19.75C17.2778 19.75 17.2863 19.75 17.2948 19.75C17.3033 19.75 17.3118 19.75 17.3204 19.75C17.3289 19.75 17.3374 19.75 17.346 19.75C17.3545 19.75 17.3631 19.75 17.3717 19.75C17.3802 19.75 17.3888 19.75 17.3974 19.75C17.4059 19.75 17.4145 19.75 17.4231 19.75C17.4317 19.75 17.4403 19.75 17.4489 19.75C17.4575 19.75 17.4661 19.75 17.4747 19.75C17.4833 19.75 17.492 19.75 17.5006 19.75C17.5092 19.75 17.5179 19.75 17.5265 19.75C17.5351 19.75 17.5438 19.75 17.5525 19.75C17.5611 19.75 17.5698 19.75 17.5785 19.75C17.5871 19.75 17.5958 19.75 17.6045 19.75C17.6132 19.75 17.6219 19.75 17.6306 19.75C17.6393 19.75 17.648 19.75 17.6567 19.75C17.6655 19.75 17.6742 19.75 17.6829 19.75C17.6917 19.75 17.7004 19.75 17.7091 19.75C17.7179 19.75 17.7267 19.75 17.7354 19.75C17.7442 19.75 17.753 19.75 17.7617 19.75V18.25C17.753 18.25 17.7442 18.25 17.7354 18.25C17.7267 18.25 17.7179 18.25 17.7091 18.25C17.7004 18.25 17.6917 18.25 17.6829 18.25C17.6742 18.25 17.6655 18.25 17.6567 18.25C17.648 18.25 17.6393 18.25 17.6306 18.25C17.6219 18.25 17.6132 18.25 17.6045 18.25C17.5958 18.25 17.5871 18.25 17.5785 18.25C17.5698 18.25 17.5611 18.25 17.5525 18.25C17.5438 18.25 17.5351 18.25 17.5265 18.25C17.5179 18.25 17.5092 18.25 17.5006 18.25C17.492 18.25 17.4833 18.25 17.4747 18.25C17.4661 18.25 17.4575 18.25 17.4489 18.25C17.4403 18.25 17.4317 18.25 17.4231 18.25C17.4145 18.25 17.4059 18.25 17.3974 18.25C17.3888 18.25 17.3802 18.25 17.3717 18.25C17.3631 18.25 17.3545 18.25 17.346 18.25C17.3374 18.25 17.3289 18.25 17.3204 18.25C17.3118 18.25 17.3033 18.25 17.2948 18.25C17.2863 18.25 17.2778 18.25 17.2693 18.25C17.2608 18.25 17.2523 18.25 17.2438 18.25C17.2353 18.25 17.2268 18.25 17.2183 18.25C17.2099 18.25 17.2014 18.25 17.1929 18.25C17.1845 18.25 17.176 18.25 17.1676 18.25C17.1591 18.25 17.1507 18.25 17.1422 18.25C17.1338 18.25 17.1254 18.25 17.117 18.25C17.1085 18.25 17.1001 18.25 17.0917 18.25C17.0833 18.25 17.0749 18.25 17.0665 18.25C17.0581 18.25 17.0497 18.25 17.0414 18.25C17.033 18.25 17.0246 18.25 17.0162 18.25C17.0079 18.25 16.9995 18.25 16.9911 18.25C16.9828 18.25 16.9744 18.25 16.9661 18.25C16.9578 18.25 16.9494 18.25 16.9411 18.25C16.9328 18.25 16.9245 18.25 16.9161 18.25C16.9078 18.25 16.8995 18.25 16.8912 18.25C16.8829 18.25 16.8746 18.25 16.8663 18.25C16.8581 18.25 16.8498 18.25 16.8415 18.25C16.8332 18.25 16.825 18.25 16.8167 18.25C16.8084 18.25 16.8002 18.25 16.7919 18.25C16.7837 18.25 16.7754 18.25 16.7672 18.25C16.759 18.25 16.7507 18.25 16.7425 18.25C16.7343 18.25 16.7261 18.25 16.7179 18.25C16.7096 18.25 16.7014 18.25 16.6932 18.25C16.685 18.25 16.6768 18.25 16.6687 18.25C16.6605 18.25 16.6523 18.25 16.6441 18.25C16.636 18.25 16.6278 18.25 16.6196 18.25C16.6115 18.25 16.6033 18.25 16.5952 18.25C16.587 18.25 16.5789 18.25 16.5707 18.25C16.5626 18.25 16.5545 18.25 16.5463 18.25C16.5382 18.25 16.5301 18.25 16.522 18.25C16.5139 18.25 16.5058 18.25 16.4977 18.25C16.4896 18.25 16.4815 18.25 16.4734 18.25C16.4653 18.25 16.4572 18.25 16.4491 18.25C16.4411 18.25 16.433 18.25 16.4249 18.25C16.4169 18.25 16.4088 18.25 16.4008 18.25C16.3927 18.25 16.3847 18.25 16.3766 18.25C16.3686 18.25 16.3606 18.25 16.3525 18.25C16.3445 18.25 16.3365 18.25 16.3285 18.25C16.3205 18.25 16.3124 18.25 16.3044 18.25C16.2964 18.25 16.2884 18.25 16.2804 18.25C16.2724 18.25 16.2645 18.25 16.2565 18.25C16.2485 18.25 16.2405 18.25 16.2326 18.25C16.2246 18.25 16.2166 18.25 16.2087 18.25C16.2007 18.25 16.1928 18.25 16.1848 18.25C16.1769 18.25 16.1689 18.25 16.161 18.25C16.153 18.25 16.1451 18.25 16.1372 18.25C16.1293 18.25 16.1213 18.25 16.1134 18.25C16.1055 18.25 16.0976 18.25 16.0897 18.25C16.0818 18.25 16.0739 18.25 16.066 18.25C16.0581 18.25 16.0502 18.25 16.0424 18.25C16.0345 18.25 16.0266 18.25 16.0187 18.25C16.0109 18.25 16.003 18.25 15.9952 18.25C15.9873 18.25 15.9794 18.25 15.9716 18.25C15.9638 18.25 15.9559 18.25 15.9481 18.25C15.9402 18.25 15.9324 18.25 15.9246 18.25C15.9168 18.25 15.9089 18.25 15.9011 18.25C15.8933 18.25 15.8855 18.25 15.8777 18.25C15.8699 18.25 15.8621 18.25 15.8543 18.25C15.8465 18.25 15.8387 18.25 15.8309 18.25C15.8232 18.25 15.8154 18.25 15.8076 18.25C15.7998 18.25 15.7921 18.25 15.7843 18.25C15.7765 18.25 15.7688 18.25 15.761 18.25C15.7533 18.25 15.7455 18.25 15.7378 18.25C15.73 18.25 15.7223 18.25 15.7146 18.25C15.7068 18.25 15.6991 18.25 15.6914 18.25C15.6837 18.25 15.676 18.25 15.6683 18.25C15.6605 18.25 15.6528 18.25 15.6451 18.25C15.6374 18.25 15.6297 18.25 15.622 18.25C15.6144 18.25 15.6067 18.25 15.599 18.25C15.5913 18.25 15.5836 18.25 15.576 18.25C15.5683 18.25 15.5606 18.25 15.553 18.25C15.5453 18.25 15.5376 18.25 15.53 18.25C15.5223 18.25 15.5147 18.25 15.507 18.25C15.4994 18.25 15.4918 18.25 15.4841 18.25C15.4765 18.25 15.4689 18.25 15.4613 18.25C15.4536 18.25 15.446 18.25 15.4384 18.25C15.4308 18.25 15.4232 18.25 15.4156 18.25C15.408 18.25 15.4004 18.25 15.3928 18.25C15.3852 18.25 15.3776 18.25 15.37 18.25C15.3624 18.25 15.3548 18.25 15.3473 18.25C15.3397 18.25 15.3321 18.25 15.3245 18.25C15.317 18.25 15.3094 18.25 15.3019 18.25C15.2943 18.25 15.2867 18.25 15.2792 18.25C15.2717 18.25 15.2641 18.25 15.2566 18.25C15.249 18.25 15.2415 18.25 15.234 18.25C15.2264 18.25 15.2189 18.25 15.2114 18.25C15.2039 18.25 15.1963 18.25 15.1888 18.25C15.1813 18.25 15.1738 18.25 15.1663 18.25C15.1588 18.25 15.1513 18.25 15.1438 18.25C15.1363 18.25 15.1288 18.25 15.1213 18.25C15.1139 18.25 15.1064 18.25 15.0989 18.25C15.0914 18.25 15.0839 18.25 15.0765 18.25C15.069 18.25 15.0615 18.25 15.0541 18.25C15.0466 18.25 15.0392 18.25 15.0317 18.25C15.0243 18.25 15.0168 18.25 15.0094 18.25C15.0019 18.25 14.9945 18.25 14.987 18.25C14.9796 18.25 14.9722 18.25 14.9647 18.25C14.9573 18.25 14.9499 18.25 14.9425 18.25C14.9351 18.25 14.9276 18.25 14.9202 18.25C14.9128 18.25 14.9054 18.25 14.898 18.25C14.8906 18.25 14.8832 18.25 14.8758 18.25C14.8684 18.25 14.861 18.25 14.8536 18.25C14.8463 18.25 14.8389 18.25 14.8315 18.25C14.8241 18.25 14.8167 18.25 14.8094 18.25C14.802 18.25 14.7946 18.25 14.7873 18.25C14.7799 18.25 14.7725 18.25 14.7652 18.25C14.7578 18.25 14.7505 18.25 14.7431 18.25C14.7358 18.25 14.7284 18.25 14.7211 18.25C14.7138 18.25 14.7064 18.25 14.6991 18.25C14.6918 18.25 14.6844 18.25 14.6771 18.25C14.6698 18.25 14.6625 18.25 14.6551 18.25C14.6478 18.25 14.6405 18.25 14.6332 18.25C14.6259 18.25 14.6186 18.25 14.6113 18.25C14.604 18.25 14.5967 18.25 14.5894 18.25C14.5821 18.25 14.5748 18.25 14.5675 18.25C14.5602 18.25 14.5529 18.25 14.5456 18.25C14.5384 18.25 14.5311 18.25 14.5238 18.25C14.5165 18.25 14.5093 18.25 14.502 18.25C14.4947 18.25 14.4875 18.25 14.4802 18.25C14.4729 18.25 14.4657 18.25 14.4584 18.25C14.4512 18.25 14.4439 18.25 14.4367 18.25C14.4294 18.25 14.4222 18.25 14.415 18.25C14.4077 18.25 14.4005 18.25 14.3932 18.25C14.386 18.25 14.3788 18.25 14.3716 18.25C14.3643 18.25 14.3571 18.25 14.3499 18.25C14.3427 18.25 14.3354 18.25 14.3282 18.25C14.321 18.25 14.3138 18.25 14.3066 18.25C14.2994 18.25 14.2922 18.25 14.285 18.25C14.2778 18.25 14.2706 18.25 14.2634 18.25C14.2562 18.25 14.249 18.25 14.2418 18.25C14.2346 18.25 14.2275 18.25 14.2203 18.25C14.2131 18.25 14.2059 18.25 14.1987 18.25C14.1916 18.25 14.1844 18.25 14.1772 18.25C14.1701 18.25 14.1629 18.25 14.1557 18.25C14.1486 18.25 14.1414 18.25 14.1343 18.25C14.1271 18.25 14.1199 18.25 14.1128 18.25C14.1056 18.25 14.0985 18.25 14.0913 18.25C14.0842 18.25 14.0771 18.25 14.0699 18.25C14.0628 18.25 14.0556 18.25 14.0485 18.25C14.0414 18.25 14.0342 18.25 14.0271 18.25C14.02 18.25 14.0129 18.25 14.0057 18.25C13.9986 18.25 13.9915 18.25 13.9844 18.25C13.9773 18.25 13.9702 18.25 13.963 18.25C13.9559 18.25 13.9488 18.25 13.9417 18.25C13.9346 18.25 13.9275 18.25 13.9204 18.25C13.9133 18.25 13.9062 18.25 13.8991 18.25C13.892 18.25 13.8849 18.25 13.8779 18.25C13.8708 18.25 13.8637 18.25 13.8566 18.25C13.8495 18.25 13.8424 18.25 13.8353 18.25C13.8283 18.25 13.8212 18.25 13.8141 18.25C13.807 18.25 13.8 18.25 13.7929 18.25C13.7858 18.25 13.7788 18.25 13.7717 18.25C13.7646 18.25 13.7576 18.25 13.7505 18.25C13.7435 18.25 13.7364 18.25 13.7294 18.25C13.7223 18.25 13.7153 18.25 13.7082 18.25C13.7012 18.25 13.6941 18.25 13.6871 18.25C13.68 18.25 13.673 18.25 13.6659 18.25C13.6589 18.25 13.6519 18.25 13.6448 18.25C13.6378 18.25 13.6308 18.25 13.6237 18.25C13.6167 18.25 13.6097 18.25 13.6027 18.25C13.5956 18.25 13.5886 18.25 13.5816 18.25C13.5746 18.25 13.5675 18.25 13.5605 18.25C13.5535 18.25 13.5465 18.25 13.5395 18.25C13.5325 18.25 13.5255 18.25 13.5185 18.25C13.5115 18.25 13.5044 18.25 13.4974 18.25C13.4904 18.25 13.4834 18.25 13.4764 18.25C13.4694 18.25 13.4624 18.25 13.4555 18.25C13.4485 18.25 13.4415 18.25 13.4345 18.25C13.4275 18.25 13.4205 18.25 13.4135 18.25C13.4065 18.25 13.3995 18.25 13.3926 18.25C13.3856 18.25 13.3786 18.25 13.3716 18.25C13.3646 18.25 13.3577 18.25 13.3507 18.25C13.3437 18.25 13.3367 18.25 13.3298 18.25C13.3228 18.25 13.3158 18.25 13.3089 18.25C13.3019 18.25 13.2949 18.25 13.288 18.25C13.281 18.25 13.274 18.25 13.2671 18.25C13.2601 18.25 13.2532 18.25 13.2462 18.25C13.2392 18.25 13.2323 18.25 13.2253 18.25C13.2184 18.25 13.2114 18.25 13.2045 18.25C13.1975 18.25 13.1906 18.25 13.1836 18.25C13.1767 18.25 13.1697 18.25 13.1628 18.25C13.1559 18.25 13.1489 18.25 13.142 18.25C13.135 18.25 13.1281 18.25 13.1212 18.25C13.1142 18.25 13.1073 18.25 13.1004 18.25C13.0934 18.25 13.0865 18.25 13.0796 18.25C13.0726 18.25 13.0657 18.25 13.0588 18.25C13.0518 18.25 13.0449 18.25 13.038 18.25C13.0311 18.25 13.0242 18.25 13.0172 18.25C13.0103 18.25 13.0034 18.25 12.9965 18.25C12.9896 18.25 12.9826 18.25 12.9757 18.25C12.9688 18.25 12.9619 18.25 12.955 18.25C12.9481 18.25 12.9412 18.25 12.9342 18.25C12.9273 18.25 12.9204 18.25 12.9135 18.25C12.9066 18.25 12.8997 18.25 12.8928 18.25C12.8859 18.25 12.879 18.25 12.8721 18.25C12.8652 18.25 12.8583 18.25 12.8514 18.25C12.8445 18.25 12.8376 18.25 12.8307 18.25C12.8238 18.25 12.8169 18.25 12.81 18.25C12.8031 18.25 12.7962 18.25 12.7893 18.25C12.7824 18.25 12.7755 18.25 12.7686 18.25C12.7617 18.25 12.7549 18.25 12.748 18.25C12.7411 18.25 12.7342 18.25 12.7273 18.25C12.7204 18.25 12.7135 18.25 12.7066 18.25C12.6998 18.25 12.6929 18.25 12.686 18.25C12.6791 18.25 12.6722 18.25 12.6653 18.25C12.6585 18.25 12.6516 18.25 12.6447 18.25C12.6378 18.25 12.631 18.25 12.6241 18.25C12.6172 18.25 12.6103 18.25 12.6034 18.25C12.5966 18.25 12.5897 18.25 12.5828 18.25C12.5759 18.25 12.5691 18.25 12.5622 18.25C12.5553 18.25 12.5485 18.25 12.5416 18.25C12.5347 18.25 12.5278 18.25 12.521 18.25C12.5141 18.25 12.5072 18.25 12.5004 18.25C12.4935 18.25 12.4866 18.25 12.4798 18.25C12.4729 18.25 12.466 18.25 12.4592 18.25C12.4523 18.25 12.4454 18.25 12.4386 18.25C12.4317 18.25 12.4249 18.25 12.418 18.25C12.4111 18.25 12.4043 18.25 12.3974 18.25C12.3905 18.25 12.3837 18.25 12.3768 18.25C12.37 18.25 12.3631 18.25 12.3562 18.25C12.3494 18.25 12.3425 18.25 12.3357 18.25C12.3288 18.25 12.322 18.25 12.3151 18.25C12.3082 18.25 12.3014 18.25 12.2945 18.25C12.2877 18.25 12.2808 18.25 12.274 18.25C12.2671 18.25 12.2602 18.25 12.2534 18.25C12.2465 18.25 12.2397 18.25 12.2328 18.25C12.226 18.25 12.2191 18.25 12.2123 18.25C12.2054 18.25 12.1986 18.25 12.1917 18.25C12.1849 18.25 12.178 18.25 12.1712 18.25C12.1643 18.25 12.1574 18.25 12.1506 18.25C12.1437 18.25 12.1369 18.25 12.13 18.25C12.1232 18.25 12.1163 18.25 12.1095 18.25C12.1026 18.25 12.0958 18.25 12.0889 18.25C12.0821 18.25 12.0752 18.25 12.0684 18.25C12.0615 18.25 12.0547 18.25 12.0478 18.25C12.041 18.25 12.0341 18.25 12.0273 18.25C12.0204 18.25 12.0136 18.25 12.0067 18.25C11.9999 18.25 11.993 18.25 11.9862 18.25C11.9793 18.25 11.9725 18.25 11.9656 18.25C11.9588 18.25 11.9519 18.25 11.9451 18.25C11.9382 18.25 11.9314 18.25 11.9245 18.25C11.9177 18.25 11.9108 18.25 11.904 18.25C11.8971 18.25 11.8903 18.25 11.8834 18.25C11.8766 18.25 11.8697 18.25 11.8628 18.25C11.856 18.25 11.8491 18.25 11.8423 18.25C11.8354 18.25 11.8286 18.25 11.8217 18.25C11.8149 18.25 11.808 18.25 11.8012 18.25C11.7943 18.25 11.7875 18.25 11.7806 18.25C11.7738 18.25 11.7669 18.25 11.76 18.25C11.7532 18.25 11.7463 18.25 11.7395 18.25C11.7326 18.25 11.7258 18.25 11.7189 18.25C11.7121 18.25 11.7052 18.25 11.6983 18.25C11.6915 18.25 11.6846 18.25 11.6778 18.25C11.6709 18.25 11.6641 18.25 11.6572 18.25C11.6503 18.25 11.6435 18.25 11.6366 18.25C11.6298 18.25 11.6229 18.25 11.616 18.25C11.6092 18.25 11.6023 18.25 11.5954 18.25C11.5886 18.25 11.5817 18.25 11.5749 18.25C11.568 18.25 11.5611 18.25 11.5543 18.25C11.5474 18.25 11.5405 18.25 11.5337 18.25C11.5268 18.25 11.5199 18.25 11.5131 18.25C11.5062 18.25 11.4993 18.25 11.4925 18.25C11.4856 18.25 11.4787 18.25 11.4719 18.25C11.465 18.25 11.4581 18.25 11.4512 18.25C11.4444 18.25 11.4375 18.25 11.4306 18.25C11.4237 18.25 11.4169 18.25 11.41 18.25C11.4031 18.25 11.3962 18.25 11.3894 18.25C11.3825 18.25 11.3756 18.25 11.3687 18.25C11.3619 18.25 11.355 18.25 11.3481 18.25C11.3412 18.25 11.3343 18.25 11.3274 18.25C11.3206 18.25 11.3137 18.25 11.3068 18.25C11.2999 18.25 11.293 18.25 11.2861 18.25C11.2793 18.25 11.2724 18.25 11.2655 18.25C11.2586 18.25 11.2517 18.25 11.2448 18.25C11.2379 18.25 11.231 18.25 11.2241 18.25C11.2172 18.25 11.2103 18.25 11.2034 18.25C11.1966 18.25 11.1897 18.25 11.1828 18.25C11.1759 18.25 11.169 18.25 11.1621 18.25C11.1552 18.25 11.1483 18.25 11.1414 18.25C11.1345 18.25 11.1276 18.25 11.1206 18.25C11.1137 18.25 11.1068 18.25 11.0999 18.25C11.093 18.25 11.0861 18.25 11.0792 18.25C11.0723 18.25 11.0654 18.25 11.0585 18.25C11.0516 18.25 11.0446 18.25 11.0377 18.25C11.0308 18.25 11.0239 18.25 11.017 18.25C11.0101 18.25 11.0031 18.25 10.9962 18.25C10.9893 18.25 10.9824 18.25 10.9754 18.25C10.9685 18.25 10.9616 18.25 10.9547 18.25C10.9477 18.25 10.9408 18.25 10.9339 18.25C10.9269 18.25 10.92 18.25 10.9131 18.25C10.9062 18.25 10.8992 18.25 10.8923 18.25C10.8853 18.25 10.8784 18.25 10.8715 18.25C10.8645 18.25 10.8576 18.25 10.8506 18.25C10.8437 18.25 10.8368 18.25 10.8298 18.25C10.8229 18.25 10.8159 18.25 10.809 18.25C10.802 18.25 10.7951 18.25 10.7881 18.25C10.7812 18.25 10.7742 18.25 10.7672 18.25C10.7603 18.25 10.7533 18.25 10.7464 18.25C10.7394 18.25 10.7324 18.25 10.7255 18.25C10.7185 18.25 10.7116 18.25 10.7046 18.25C10.6976 18.25 10.6907 18.25 10.6837 18.25C10.6767 18.25 10.6697 18.25 10.6628 18.25C10.6558 18.25 10.6488 18.25 10.6418 18.25C10.6349 18.25 10.6279 18.25 10.6209 18.25C10.6139 18.25 10.6069 18.25 10.5999 18.25C10.5929 18.25 10.586 18.25 10.579 18.25C10.572 18.25 10.565 18.25 10.558 18.25C10.551 18.25 10.544 18.25 10.537 18.25C10.53 18.25 10.523 18.25 10.516 18.25C10.509 18.25 10.502 18.25 10.495 18.25C10.488 18.25 10.481 18.25 10.4739 18.25C10.4669 18.25 10.4599 18.25 10.4529 18.25C10.4459 18.25 10.4389 18.25 10.4319 18.25C10.4248 18.25 10.4178 18.25 10.4108 18.25C10.4038 18.25 10.3967 18.25 10.3897 18.25C10.3827 18.25 10.3756 18.25 10.3686 18.25C10.3616 18.25 10.3545 18.25 10.3475 18.25C10.3405 18.25 10.3334 18.25 10.3264 18.25C10.3193 18.25 10.3123 18.25 10.3052 18.25C10.2982 18.25 10.2911 18.25 10.2841 18.25C10.277 18.25 10.27 18.25 10.2629 18.25C10.2559 18.25 10.2488 18.25 10.2417 18.25C10.2347 18.25 10.2276 18.25 10.2205 18.25C10.2135 18.25 10.2064 18.25 10.1993 18.25C10.1922 18.25 10.1852 18.25 10.1781 18.25C10.171 18.25 10.1639 18.25 10.1568 18.25C10.1498 18.25 10.1427 18.25 10.1356 18.25C10.1285 18.25 10.1214 18.25 10.1143 18.25C10.1072 18.25 10.1001 18.25 10.093 18.25C10.0859 18.25 10.0788 18.25 10.0717 18.25C10.0646 18.25 10.0575 18.25 10.0504 18.25C10.0433 18.25 10.0362 18.25 10.0291 18.25C10.0219 18.25 10.0148 18.25 10.0077 18.25C10.0006 18.25 9.99345 18.25 9.98632 18.25C9.97919 18.25 9.97206 18.25 9.96493 18.25C9.9578 18.25 9.95066 18.25 9.94352 18.25C9.93638 18.25 9.92924 18.25 9.9221 18.25C9.91495 18.25 9.9078 18.25 9.90065 18.25C9.8935 18.25 9.88635 18.25 9.87919 18.25C9.87203 18.25 9.86487 18.25 9.85771 18.25C9.85055 18.25 9.84338 18.25 9.83621 18.25C9.82904 18.25 9.82187 18.25 9.8147 18.25C9.80752 18.25 9.80034 18.25 9.79316 18.25C9.78598 18.25 9.7788 18.25 9.77161 18.25C9.76442 18.25 9.75723 18.25 9.75004 18.25C9.74284 18.25 9.73565 18.25 9.72845 18.25C9.72125 18.25 9.71404 18.25 9.70683 18.25C9.69963 18.25 9.69242 18.25 9.68521 18.25C9.67799 18.25 9.67078 18.25 9.66356 18.25C9.65634 18.25 9.64911 18.25 9.64189 18.25C9.63466 18.25 9.62743 18.25 9.6202 18.25C9.61296 18.25 9.60573 18.25 9.59849 18.25C9.59125 18.25 9.584 18.25 9.57676 18.25C9.56951 18.25 9.56226 18.25 9.55501 18.25C9.54775 18.25 9.5405 18.25 9.53324 18.25C9.52598 18.25 9.51871 18.25 9.51145 18.25C9.50418 18.25 9.49691 18.25 9.48963 18.25C9.48236 18.25 9.47508 18.25 9.4678 18.25C9.46052 18.25 9.45323 18.25 9.44594 18.25C9.43865 18.25 9.43136 18.25 9.42407 18.25C9.41677 18.25 9.40947 18.25 9.40217 18.25C9.39487 18.25 9.38756 18.25 9.38025 18.25C9.37294 18.25 9.36562 18.25 9.35831 18.25C9.35099 18.25 9.34367 18.25 9.33634 18.25C9.32902 18.25 9.32169 18.25 9.31435 18.25C9.30702 18.25 9.29968 18.25 9.29234 18.25C9.285 18.25 9.27766 18.25 9.27031 18.25C9.26296 18.25 9.25561 18.25 9.24826 18.25C9.2409 18.25 9.23354 18.25 9.22618 18.25C9.21881 18.25 9.21145 18.25 9.20408 18.25C9.1967 18.25 9.18933 18.25 9.18195 18.25C9.17457 18.25 9.16719 18.25 9.1598 18.25C9.15241 18.25 9.14502 18.25 9.13763 18.25C9.13023 18.25 9.12283 18.25 9.11543 18.25C9.10803 18.25 9.10062 18.25 9.09321 18.25C9.0858 18.25 9.07838 18.25 9.07097 18.25C9.06355 18.25 9.05612 18.25 9.0487 18.25C9.04127 18.25 9.03384 18.25 9.0264 18.25C9.01896 18.25 9.01153 18.25 9.00408 18.25C8.99664 18.25 8.98919 18.25 8.98174 18.25C8.97428 18.25 8.96683 18.25 8.95937 18.25C8.95191 18.25 8.94444 18.25 8.93697 18.25C8.9295 18.25 8.92203 18.25 8.91455 18.25C8.90707 18.25 8.89959 18.25 8.8921 18.25C8.88462 18.25 8.87713 18.25 8.86963 18.25C8.86214 18.25 8.85464 18.25 8.84713 18.25C8.83963 18.25 8.83212 18.25 8.82461 18.25C8.81709 18.25 8.80958 18.25 8.80206 18.25C8.79453 18.25 8.78701 18.25 8.77948 18.25C8.77195 18.25 8.76441 18.25 8.75687 18.25C8.74933 18.25 8.74179 18.25 8.73424 18.25C8.72669 18.25 8.71914 18.25 8.71158 18.25C8.70402 18.25 8.69646 18.25 8.68889 18.25C8.68133 18.25 8.67376 18.25 8.66618 18.25C8.6586 18.25 8.65102 18.25 8.64344 18.25C8.63585 18.25 8.62826 18.25 8.62067 18.25C8.61307 18.25 8.60547 18.25 8.59787 18.25C8.59027 18.25 8.58266 18.25 8.57504 18.25C8.56743 18.25 8.55981 18.25 8.55219 18.25C8.54457 18.25 8.53694 18.25 8.52931 18.25C8.52167 18.25 8.51404 18.25 8.50639 18.25C8.49875 18.25 8.49111 18.25 8.48345 18.25C8.4758 18.25 8.46815 18.25 8.46048 18.25C8.45282 18.25 8.44516 18.25 8.43748 18.25C8.42981 18.25 8.42214 18.25 8.41446 18.25C8.40677 18.25 8.39909 18.25 8.3914 18.25C8.38371 18.25 8.37601 18.25 8.36831 18.25C8.36061 18.25 8.3529 18.25 8.34519 18.25C8.33748 18.25 8.32976 18.25 8.32204 18.25C8.31432 18.25 8.30659 18.25 8.29886 18.25C8.29113 18.25 8.2834 18.25 8.27565 18.25C8.26791 18.25 8.26017 18.25 8.25241 18.25C8.24466 18.25 8.2369 18.25 8.22914 18.25C8.22138 18.25 8.21361 18.25 8.20584 18.25C8.19807 18.25 8.19029 18.25 8.18251 18.25C8.17472 18.25 8.16694 18.25 8.15914 18.25C8.15135 18.25 8.14355 18.25 8.13575 18.25C8.12794 18.25 8.12013 18.25 8.11232 18.25C8.1045 18.25 8.09668 18.25 8.08886 18.25C8.08103 18.25 8.0732 18.25 8.06537 18.25C8.05753 18.25 8.04969 18.25 8.04184 18.25C8.03399 18.25 8.02614 18.25 8.01828 18.25C8.01043 18.25 8.00256 18.25 7.99469 18.25C7.98682 18.25 7.97895 18.25 7.97107 18.25C7.96319 18.25 7.95531 18.25 7.94742 18.25C7.93952 18.25 7.93163 18.25 7.92373 18.25C7.91582 18.25 7.90792 18.25 7.9 18.25C7.89209 18.25 7.88417 18.25 7.87625 18.25C7.86832 18.25 7.86039 18.25 7.85246 18.25C7.84452 18.25 7.83658 18.25 7.82864 18.25C7.82069 18.25 7.81274 18.25 7.80478 18.25C7.79682 18.25 7.78886 18.25 7.78089 18.25C7.77292 18.25 7.76494 18.25 7.75696 18.25C7.74898 18.25 7.74099 18.25 7.733 18.25C7.72501 18.25 7.71701 18.25 7.709 18.25C7.701 18.25 7.69299 18.25 7.68497 18.25C7.67696 18.25 7.66894 18.25 7.66091 18.25C7.65288 18.25 7.64485 18.25 7.63681 18.25C7.62877 18.25 7.62072 18.25 7.61267 18.25C7.60462 18.25 7.59656 18.25 7.5885 18.25C7.58044 18.25 7.57237 18.25 7.56429 18.25C7.55622 18.25 7.54813 18.25 7.54005 18.25C7.53196 18.25 7.52387 18.25 7.51577 18.25C7.50767 18.25 7.49956 18.25 7.49145 18.25C7.48334 18.25 7.47522 18.25 7.4671 18.25C7.45897 18.25 7.45084 18.25 7.44271 18.25C7.43457 18.25 7.42643 18.25 7.41828 18.25C7.41013 18.25 7.40198 18.25 7.39382 18.25C7.38566 18.25 7.37749 18.25 7.36932 18.25C7.36114 18.25 7.35296 18.25 7.34478 18.25C7.33659 18.25 7.3284 18.25 7.3202 18.25C7.312 18.25 7.3038 18.25 7.29559 18.25C7.28738 18.25 7.27916 18.25 7.27094 18.25C7.26271 18.25 7.25448 18.25 7.24625 18.25C7.23801 18.25 7.22977 18.25 7.22152 18.25C7.21327 18.25 7.20501 18.25 7.19675 18.25C7.18849 18.25 7.18022 18.25 7.17195 18.25C7.16367 18.25 7.15539 18.25 7.1471 18.25C7.13881 18.25 7.13052 18.25 7.12222 18.25C7.11392 18.25 7.10561 18.25 7.0973 18.25C7.08898 18.25 7.08066 18.25 7.07233 18.25C7.06401 18.25 7.05567 18.25 7.04733 18.25C7.03899 18.25 7.03065 18.25 7.02229 18.25C7.01394 18.25 7.00558 18.25 6.99721 18.25C6.98884 18.25 6.98047 18.25 6.97209 18.25C6.96371 18.25 6.95532 18.25 6.94693 18.25C6.93853 18.25 6.93013 18.25 6.92173 18.25C6.91332 18.25 6.90491 18.25 6.89648 18.25C6.88806 18.25 6.87964 18.25 6.8712 18.25C6.86277 18.25 6.85433 18.25 6.84588 18.25C6.83743 18.25 6.82897 18.25 6.82051 18.25C6.81205 18.25 6.80358 18.25 6.79511 18.25C6.78663 18.25 6.77815 18.25 6.76966 18.25C6.76117 18.25 6.75267 18.25 6.74417 18.25C6.73566 18.25 6.72715 18.25 6.71864 18.25C6.71012 18.25 6.70159 18.25 6.69306 18.25C6.68453 18.25 6.67599 18.25 6.66745 18.25C6.6589 18.25 6.65035 18.25 6.64179 18.25C6.63323 18.25 6.62466 18.25 6.61609 18.25C6.60751 18.25 6.59893 18.25 6.59034 18.25C6.58176 18.25 6.57316 18.25 6.56456 18.25C6.55596 18.25 6.54735 18.25 6.53873 18.25C6.53011 18.25 6.52149 18.25 6.51286 18.25C6.50422 18.25 6.49559 18.25 6.48694 18.25C6.47829 18.25 6.46964 18.25 6.46098 18.25C6.45232 18.25 6.44365 18.25 6.43498 18.25C6.4263 18.25 6.41762 18.25 6.40893 18.25C6.40024 18.25 6.39154 18.25 6.38284 18.25C6.37413 18.25 6.36542 18.25 6.3567 18.25C6.34798 18.25 6.33926 18.25 6.33052 18.25C6.32179 18.25 6.31305 18.25 6.3043 18.25C6.29555 18.25 6.28679 18.25 6.27803 18.25C6.26926 18.25 6.26049 18.25 6.25171 18.25V19.75Z" fill="#1F2023"/>
<path d="M6.25781 19.0162V21.0162M9.00081 19V21M12.0008 19V21M17.7599 19V21M15.0008 19V21" stroke="#1F2023" stroke-width="1.5" stroke-linecap="square" stroke-linejoin="round"/>
<path d="M12 12L12 7" stroke="#1F2023" stroke-width="1.5" stroke-miterlimit="10"/>
<path d="M12 15C11.4477 15 11 14.5523 11 14C11 13.4477 11.4477 13 12 13C12.5523 13 13 13.4477 13 14C13 14.5523 12.5523 15 12 15Z" fill="#1F2023"/>
</svg>
