<svg width="24" height="24" viewBox="0 0 24 24" fill="none" xmlns="http://www.w3.org/2000/svg">
<circle cx="12" cy="12" r="7" stroke="#1F2023" stroke-width="1.5" stroke-linejoin="round"/>
<path d="M10 5V2.1C10 2.04477 10.0448 2 10.1 2H13.9C13.9552 2 14 2.04477 14 2.1V5" stroke="#1F2023" stroke-width="1.5" stroke-linecap="round" stroke-linejoin="round"/>
<path d="M22 12H23M1 12H2" stroke="#1F2023" stroke-width="1.5" stroke-linecap="square" stroke-linejoin="round"/>
<path d="M19 5L20 4M4 20.0001L5 19" stroke="#1F2023" stroke-width="1.5" stroke-linecap="square" stroke-linejoin="round"/>
<path d="M5 5L4 4M20 20L19 19" stroke="#1F2023" stroke-width="1.5" stroke-linecap="square" stroke-linejoin="round"/>
<path d="M12 22V23" stroke="#1F2023" stroke-width="1.5" stroke-linecap="square" stroke-linejoin="round"/>
<path d="M12 12.5L12 8.5" stroke="#1F2023" stroke-width="1.5" stroke-miterlimit="10"/>
<path d="M12 15.5C11.4477 15.5 11 15.0523 11 14.5C11 13.9477 11.4477 13.5 12 13.5C12.5523 13.5 13 13.9477 13 14.5C13 15.0523 12.5523 15.5 12 15.5Z" fill="#1F2023"/>
</svg>
