<svg width="24" height="24" viewBox="0 0 24 24" fill="none" xmlns="http://www.w3.org/2000/svg">
<path d="M20.0031 5.24214C19.8224 4.76597 19.5398 4.33497 19.1751 3.97922M16.3921 3C15.8849 3.04897 15.3945 3.20798 14.9551 3.46594" stroke="#1F2023" stroke-width="1.5" stroke-linecap="square" stroke-linejoin="round"/>
<path d="M4.00467 5.24214C4.18545 4.76597 4.46803 4.33497 4.83269 3.97922M7.61568 3C8.12292 3.04897 8.61334 3.20798 9.05273 3.46594" stroke="#1F2023" stroke-width="1.5" stroke-linecap="square" stroke-linejoin="round"/>
<path d="M12 4V3" stroke="#1F2023" stroke-width="1.5" stroke-linecap="square" stroke-linejoin="round"/>
<path d="M12 10V11" stroke="#1F2023" stroke-width="1.5" stroke-linecap="square" stroke-linejoin="round"/>
<path d="M12 14V16" stroke="#1F2023" stroke-width="1.5" stroke-linecap="square" stroke-linejoin="round"/>
<path d="M5.55874 20.9115L1.52599 10.7001C1.51045 10.6608 1.52069 10.6164 1.55274 10.5888C3.61562 8.8128 7.50962 6.9757 11.744 7.00019C15.9006 7.02423 19.8842 8.36469 22.4473 10.5883C22.4791 10.616 22.4897 10.6607 22.4742 10.6999L18.4371 20.9026C18.4161 20.9557 18.3547 20.9802 18.3026 20.957C16.3013 20.0633 14.773 19.6167 12.2522 19.6167C9.27392 19.6167 6.67603 20.6245 5.6836 20.9691C5.63326 20.9866 5.57831 20.9611 5.55874 20.9115Z" stroke="#1F2023" stroke-width="1.5" stroke-linecap="round"/>
</svg>
