<svg width="24" height="24" viewBox="0 0 24 24" fill="none" xmlns="http://www.w3.org/2000/svg">
<path d="M20.1494 17H3.85063C3.80267 17 3.76146 17.034 3.75242 17.0811L3.02282 20.8811C3.01098 20.9428 3.05824 21 3.12103 21H20.879C20.9418 21 20.989 20.9428 20.9772 20.8811L20.2476 17.0811C20.2385 17.034 20.1973 17 20.1494 17Z" stroke="#1F2023" stroke-width="1.5" stroke-linecap="square"/>
<circle cx="12" cy="9.4552" r="1.75" stroke="#1F2023" stroke-width="1.5"/>
<path d="M12 11.3711V16.3549" stroke="#1F2023" stroke-width="1.5" stroke-linecap="round"/>
<path d="M18 17.5244V14.1126V9.52441C18 6.21071 15.3137 3.52441 12 3.52441V3.52441C8.68629 3.52441 6 6.21071 6 9.52441L6 17.5244" stroke="#1F2023" stroke-width="1.5"/>
<path d="M19.1784 3.30346C20.2151 4.14912 21.039 5.37905 21.4427 6.84827C21.8464 8.31748 21.7613 9.77596 21.2933 11" stroke="#1F2023" stroke-width="1.5"/>
<path d="M4.82161 3.30346C3.78485 4.14912 2.96102 5.37905 2.5573 6.84827C2.15358 8.31748 2.23868 9.77596 2.70672 11" stroke="#1F2023" stroke-width="1.5"/>
</svg>
