<svg width="24" height="24" viewBox="0 0 24 24" fill="none" xmlns="http://www.w3.org/2000/svg">
<path d="M11.7439 4.50024L11.7396 5.25023L11.7439 4.50024ZM7.47121 18.6558L8.188 18.4351L7.74661 17.0015L7.02981 17.2222L7.47121 18.6558ZM1.52591 8.20013L0.828344 8.47562L1.52591 8.20013ZM1.55267 8.08884L2.042 8.65722L1.55267 8.08884ZM22.4472 8.08839L21.9557 8.6549L22.4472 8.08839ZM22.4741 8.19995L23.1715 8.4759L22.4741 8.19995ZM18.3025 18.457L17.9967 19.1418L18.3025 18.457ZM18.437 18.4026L17.7396 18.1267L18.437 18.4026ZM5.55866 18.4115L4.86109 18.687L5.55866 18.4115ZM5.68343 18.4692L5.43738 17.7607L5.68343 18.4692ZM0.828344 8.47562L4.86109 18.687L6.25623 18.136L2.22349 7.92464L0.828344 8.47562ZM22.9387 7.52187C20.2124 5.15668 16.0432 3.7751 11.7482 3.75025L11.7396 5.25023C15.7578 5.27347 19.5558 6.57281 21.9557 8.6549L22.9387 7.52187ZM11.7482 3.75025C7.31692 3.72463 3.25092 5.63711 1.06333 7.52046L2.042 8.65722C3.98017 6.98859 7.70217 5.22688 11.7396 5.25023L11.7482 3.75025ZM12.2521 17.8667C14.6466 17.8667 16.0705 18.2817 17.9967 19.1418L18.6083 17.7721C16.532 16.845 14.8993 16.3667 12.2521 16.3667V17.8667ZM21.7767 7.924L17.7396 18.1267L19.1344 18.6786L23.1715 8.4759L21.7767 7.924ZM11.2712 17.904C11.5929 17.8799 11.9205 17.8667 12.2521 17.8667V16.3667C11.8806 16.3667 11.5156 16.3815 11.1593 16.4081L11.2712 17.904ZM5.92948 19.1777C6.29048 19.0523 6.80591 18.8607 7.47121 18.6558L7.02981 17.2222C6.33053 17.4375 5.76685 17.6463 5.43738 17.7607L5.92948 19.1777ZM2.22349 7.92464C2.3213 8.17232 2.25988 8.46964 2.042 8.65722L1.06333 7.52046C0.781344 7.76323 0.699456 8.14926 0.828344 8.47562L2.22349 7.92464ZM21.9557 8.6549C21.7433 8.47062 21.677 8.1761 21.7767 7.924L23.1715 8.4759C23.3023 8.1453 23.2149 7.76148 22.9387 7.52187L21.9557 8.6549ZM17.9967 19.1418C18.433 19.3366 18.9541 19.1343 19.1344 18.6786L17.7396 18.1267C17.878 17.7771 18.2762 17.6238 18.6083 17.7721L17.9967 19.1418ZM4.86109 18.687C5.02649 19.1058 5.49467 19.3287 5.92948 19.1777L5.43738 17.7607C5.77151 17.6446 6.12999 17.8164 6.25623 18.136L4.86109 18.687Z" fill="#1F2023"/>
<path d="M7.17578 11.5L13.1141 19.5" stroke="#1F2023" stroke-width="1.5" stroke-linecap="square" stroke-linejoin="round"/>
</svg>
