<svg width="24" height="24" viewBox="0 0 24 24" fill="none" xmlns="http://www.w3.org/2000/svg">
<path d="M2.75 13H17.75C19.4603 13 20.75 14.3431 20.75 16C20.75 17.6569 19.4603 19 17.75 19M17.8469 19C16.1366 19 14.7501 17.6569 14.7501 16" stroke="#1F2023" stroke-width="1.5" stroke-linejoin="round"/>
<path d="M4.25 10H12.7116C14.1588 10 15.25 8.88071 15.25 7.5C15.25 6.11929 14.1588 5 12.7116 5M12.7936 5C11.3464 5 10.1732 6.11929 10.1732 7.5" stroke="#1F2023" stroke-width="1.5" stroke-linejoin="round"/>
<path d="M11.75 10H19.25C20.3546 10 21.25 9.10457 21.25 8C21.25 6.89543 20.3546 6 19.25 6C18.6527 6 18.1165 6.26188 17.75 6.67709" stroke="#1F2023" stroke-width="1.5"/>
</svg>
