<svg width="24" height="24" viewBox="0 0 24 24" fill="none" xmlns="http://www.w3.org/2000/svg">
<path d="M20.0031 5.24214C19.8224 4.76597 19.5398 4.33497 19.1751 3.97922M16.3921 3C15.8849 3.04897 15.3945 3.20798 14.9551 3.46594" stroke="#1F2023" stroke-width="1.5" stroke-linecap="square" stroke-linejoin="round"/>
<path d="M4.00467 5.24214C4.18545 4.76597 4.46803 4.33497 4.83269 3.97922M7.61568 3C8.12292 3.04897 8.61334 3.20798 9.05273 3.46594" stroke="#1F2023" stroke-width="1.5" stroke-linecap="square" stroke-linejoin="round"/>
<path d="M12 4V3" stroke="#1F2023" stroke-width="1.5" stroke-linecap="square" stroke-linejoin="round"/>
<path d="M12 10V11" stroke="#1F2023" stroke-width="1.5" stroke-linecap="square" stroke-linejoin="round"/>
<path d="M12 14V16" stroke="#1F2023" stroke-width="1.5" stroke-linecap="square" stroke-linejoin="round"/>
<path d="M11.7439 7.00024L11.7396 7.75023L11.7439 7.00024ZM7.47121 21.1558L8.188 20.9351L7.74661 19.5015L7.02981 19.7222L7.47121 21.1558ZM1.52591 10.7001L0.828344 10.9756L1.52591 10.7001ZM1.55267 10.5888L2.042 11.1572L1.55267 10.5888ZM22.4472 10.5884L21.9557 11.1549L22.4472 10.5884ZM22.4741 10.7L23.1715 10.9759L22.4741 10.7ZM18.3025 20.957L17.9967 21.6418L18.3025 20.957ZM18.437 20.9026L17.7396 20.6267L18.437 20.9026ZM5.55866 20.9115L4.86109 21.187L5.55866 20.9115ZM5.68343 20.9692L5.43738 20.2607L5.68343 20.9692ZM0.828344 10.9756L4.86109 21.187L6.25623 20.636L2.22349 10.4246L0.828344 10.9756ZM22.9387 10.0219C20.2124 7.65668 16.0432 6.2751 11.7482 6.25025L11.7396 7.75023C15.7578 7.77347 19.5558 9.07281 21.9557 11.1549L22.9387 10.0219ZM11.7482 6.25025C7.31692 6.22463 3.25092 8.13711 1.06333 10.0205L2.042 11.1572C3.98017 9.48859 7.70217 7.72688 11.7396 7.75023L11.7482 6.25025ZM12.2521 20.3667C14.6466 20.3667 16.0705 20.7817 17.9967 21.6418L18.6083 20.2721C16.532 19.345 14.8993 18.8667 12.2521 18.8667V20.3667ZM21.7767 10.424L17.7396 20.6267L19.1344 21.1786L23.1715 10.9759L21.7767 10.424ZM11.2712 20.404C11.5929 20.3799 11.9205 20.3667 12.2521 20.3667V18.8667C11.8806 18.8667 11.5156 18.8815 11.1593 18.9081L11.2712 20.404ZM5.92948 21.6777C6.29048 21.5523 6.80591 21.3607 7.47121 21.1558L7.02981 19.7222C6.33053 19.9375 5.76685 20.1463 5.43738 20.2607L5.92948 21.6777ZM2.22349 10.4246C2.3213 10.6723 2.25988 10.9696 2.042 11.1572L1.06333 10.0205C0.781344 10.2632 0.699456 10.6493 0.828344 10.9756L2.22349 10.4246ZM21.9557 11.1549C21.7433 10.9706 21.677 10.6761 21.7767 10.424L23.1715 10.9759C23.3023 10.6453 23.2149 10.2615 22.9387 10.0219L21.9557 11.1549ZM17.9967 21.6418C18.433 21.8366 18.9541 21.6343 19.1344 21.1786L17.7396 20.6267C17.878 20.2771 18.2762 20.1238 18.6083 20.2721L17.9967 21.6418ZM4.86109 21.187C5.02649 21.6058 5.49467 21.8287 5.92948 21.6777L5.43738 20.2607C5.77151 20.1446 6.12999 20.3164 6.25623 20.636L4.86109 21.187Z" fill="#1F2023"/>
<path d="M7.17578 14L13.1141 22" stroke="#1F2023" stroke-width="1.5" stroke-linecap="square" stroke-linejoin="round"/>
</svg>
