<svg width="24" height="24" viewBox="0 0 24 24" fill="none" xmlns="http://www.w3.org/2000/svg">
<path d="M21 20.9V3.1C21 3.04477 20.9552 3 20.9 3H11.0449C11.0163 3 10.9891 3.01221 10.9702 3.03356L3.02526 11.9716C3.00899 11.9899 3 12.0135 3 12.038V20.9C3 20.9552 3.04477 21 3.1 21H20.9C20.9552 21 21 20.9552 21 20.9Z" stroke="#1F2023" stroke-width="1.5"/>
<path d="M14.166 11.5181H14.916V10.0181H14.166V11.5181ZM14.166 10.0181C11.6563 10.0181 9.60645 12.0354 9.60645 14.538H11.1064C11.1064 12.8786 12.4699 11.5181 14.166 11.5181V10.0181ZM9.60645 14.538C9.60645 17.0405 11.6563 19.0578 14.166 19.0578V17.5578C12.4699 17.5578 11.1064 16.1973 11.1064 14.538H9.60645ZM14.166 19.0578C16.6757 19.0578 18.7256 17.0405 18.7256 14.538H17.2256C17.2256 16.1973 15.8621 17.5578 14.166 17.5578V19.0578ZM18.7256 14.538C18.7256 13.688 18.4878 12.8909 18.079 12.2147L16.7953 12.9907C17.0672 13.4405 17.2256 13.9704 17.2256 14.538H18.7256Z" fill="#1F2023"/>
<path d="M13.4811 8.84765L15.5478 10.6289C15.5896 10.665 15.5943 10.7281 15.5582 10.77L13.777 12.8367" stroke="#1F2023" stroke-width="1.5" stroke-linecap="square"/>
<path d="M6.42383 11.5199L5.9437 12.096L7.09603 13.0563L7.57617 12.4801L6.42383 11.5199ZM11.97 6.03598L12.5462 6.51612L11.97 6.03598ZM12.0468 6.75H21V5.25H12.0468V6.75ZM11.3938 5.55584L6.42383 11.5199L7.57617 12.4801L12.5462 6.51612L11.3938 5.55584ZM12.0468 5.25C11.7946 5.25 11.5553 5.36205 11.3938 5.55584L12.5462 6.51612C12.4227 6.66432 12.2397 6.75 12.0468 6.75V5.25Z" fill="#1F2023"/>
</svg>
