<svg width="24" height="24" viewBox="0 0 24 24" fill="none" xmlns="http://www.w3.org/2000/svg">
<path d="M21 20.9V3.1C21 3.04477 20.9552 3 20.9 3H11.0449C11.0163 3 10.9891 3.01221 10.9702 3.03356L3.02526 11.9716C3.00899 11.9899 3 12.0135 3 12.038V20.9C3 20.9552 3.04477 21 3.1 21H20.9C20.9552 21 21 20.9552 21 20.9Z" stroke="#1F2023" stroke-width="1.5"/>
<path d="M21 6H12.0481C12.0177 6 11.989 6.01381 11.97 6.03753L8.12998 10.8375C8.07759 10.903 8.12421 11 8.20806 11H21" stroke="#1F2023" stroke-width="1.5"/>
<path d="M15 17L12.5768 14.0922C12.5368 14.0442 12.4632 14.0442 12.4232 14.0922L10 17" stroke="#1F2023" stroke-width="1.5" stroke-linecap="square"/>
</svg>
