<svg width="24" height="24" viewBox="0 0 24 24" fill="none" xmlns="http://www.w3.org/2000/svg">
<path d="M6.75 12L12.6883 20" stroke="#1F2023" stroke-width="1.5" stroke-linecap="square" stroke-linejoin="round"/>
<path d="M7 18.75H7.75V17.25H7V18.75ZM3.1 5.75H20.9V4.25H3.1V5.75ZM20.25 5.1V17.9H21.75V5.1H20.25ZM3.75 17.9V5.1H2.25V17.9H3.75ZM7 17.25H3.1V18.75H7V17.25ZM20.9 17.25H11.0262V18.75H20.9V17.25ZM2.25 17.9C2.25 18.3694 2.63056 18.75 3.1 18.75V17.25C3.45899 17.25 3.75 17.541 3.75 17.9H2.25ZM20.25 17.9C20.25 17.541 20.541 17.25 20.9 17.25V18.75C21.3694 18.75 21.75 18.3694 21.75 17.9H20.25ZM20.9 5.75C20.541 5.75 20.25 5.45899 20.25 5.1H21.75C21.75 4.63056 21.3694 4.25 20.9 4.25V5.75ZM3.1 4.25C2.63055 4.25 2.25 4.63056 2.25 5.1H3.75C3.75 5.45898 3.45899 5.75 3.1 5.75V4.25Z" fill="#1F2023"/>
</svg>
