<svg width="24" height="24" viewBox="0 0 24 24" fill="none" xmlns="http://www.w3.org/2000/svg">
<path d="M7 14L12.9383 22" stroke="#1F2023" stroke-width="1.5" stroke-linecap="square" stroke-linejoin="round"/>
<path d="M20.0031 5.24214C19.8224 4.76597 19.5398 4.33497 19.1751 3.97922M16.3921 3C15.8849 3.04897 15.3945 3.20798 14.9551 3.46594" stroke="#1F2023" stroke-width="1.5" stroke-linecap="square" stroke-linejoin="round"/>
<path d="M4.00467 5.24214C4.18545 4.76597 4.46803 4.33497 4.83269 3.97922M7.61568 3C8.12292 3.04897 8.61334 3.20798 9.05273 3.46594" stroke="#1F2023" stroke-width="1.5" stroke-linecap="square" stroke-linejoin="round"/>
<path d="M12 5V3" stroke="#1F2023" stroke-width="1.5" stroke-linecap="square" stroke-linejoin="round"/>
<path d="M12 11V11.5" stroke="#1F2023" stroke-width="1.5" stroke-linecap="square" stroke-linejoin="round"/>
<path d="M12 14V16" stroke="#1F2023" stroke-width="1.5" stroke-linecap="square" stroke-linejoin="round"/>
<path d="M7.64538 20.75H8.39538V19.25H7.64538V20.75ZM3.1 8.75H20.9V7.25H3.1V8.75ZM20.25 8.1V19.9H21.75V8.1H20.25ZM3.75 19.9V8.1H2.25V19.9H3.75ZM7.64538 19.25H3.1V20.75H7.64538V19.25ZM20.9 19.25H11.0262V20.75H20.9V19.25ZM2.25 19.9C2.25 20.3694 2.63056 20.75 3.1 20.75V19.25C3.45899 19.25 3.75 19.541 3.75 19.9H2.25ZM20.25 19.9C20.25 19.541 20.541 19.25 20.9 19.25V20.75C21.3694 20.75 21.75 20.3694 21.75 19.9H20.25ZM20.9 8.75C20.541 8.75 20.25 8.45899 20.25 8.1H21.75C21.75 7.63056 21.3694 7.25 20.9 7.25V8.75ZM3.1 7.25C2.63055 7.25 2.25 7.63056 2.25 8.1H3.75C3.75 8.45898 3.45899 8.75 3.1 8.75V7.25Z" fill="#1F2023"/>
</svg>
