<svg width="24" height="24" viewBox="0 0 24 24" fill="none" xmlns="http://www.w3.org/2000/svg">
<path d="M7 7V3.1C7 3.04477 7.04477 3 7.1 3H17.463C17.4869 3 17.51 3.00854 17.5281 3.02407L20.9651 5.97007C20.9872 5.98907 21 6.0168 21 6.04599V20.9C21 20.9552 20.9552 21 20.9 21H7.1C7.04477 21 7 20.9552 7 20.9V17" stroke="#1F2023" stroke-width="1.5" stroke-linecap="square"/>
<rect x="3" y="7" width="10" height="10" rx="0.1" stroke="#1F2023" stroke-width="1.5" stroke-linecap="square"/>
<path d="M5.5 10.0469L6.65211 13.8276C6.68109 13.9227 6.81602 13.9218 6.84379 13.8264L7.90398 10.1817C7.93193 10.0856 8.06807 10.0856 8.09602 10.1817L9.15769 13.8314C9.18533 13.9265 9.31922 13.9279 9.34872 13.8334C9.57053 13.1231 10.1187 11.3576 10.5 10.0469" stroke="#1F2023" stroke-width="1.5" stroke-linecap="square"/>
</svg>
